<svg xmlns="http://www.w3.org/2000/svg" xmlns:xlink="http://www.w3.org/1999/xlink" viewBox="0 0 828.58 829.17"><defs><style>.cls-1{fill:url(#linear-gradient);}.cls-2{fill:url(#linear-gradient-2);}.cls-3{fill:#7d97f4;}.cls-4{fill:url(#linear-gradient-3);}.cls-5{fill:#91b3fa;}.cls-6{fill:url(#linear-gradient-4);}.cls-7{fill:#fff;}.cls-10,.cls-11,.cls-8,.cls-9{opacity:0.7;}.cls-8{fill:url(#linear-gradient-5);}.cls-9{fill:url(#linear-gradient-6);}.cls-10{fill:url(#linear-gradient-7);}.cls-11{fill:url(#linear-gradient-8);}.cls-12{opacity:0.64;}.cls-13{fill:url(#linear-gradient-9);}.cls-14{fill:url(#linear-gradient-10);}.cls-15{fill:url(#linear-gradient-11);}.cls-16{fill:url(#linear-gradient-12);}.cls-17{fill:url(#linear-gradient-13);}.cls-18{fill:url(#linear-gradient-14);}.cls-19{fill:url(#linear-gradient-15);}.cls-20{fill:url(#linear-gradient-16);}.cls-21{fill:url(#linear-gradient-17);}.cls-22{fill:url(#linear-gradient-18);}.cls-23{fill:url(#linear-gradient-19);}.cls-24{fill:url(#linear-gradient-20);}.cls-25{fill:#bc5a7c;}.cls-26{fill:url(#linear-gradient-21);}.cls-27{fill:url(#linear-gradient-22);}.cls-28{fill:url(#linear-gradient-23);}.cls-29{fill:url(#linear-gradient-24);}.cls-30{fill:url(#linear-gradient-25);}.cls-31{fill:url(#linear-gradient-26);}.cls-32{fill:url(#linear-gradient-27);}.cls-33{fill:url(#linear-gradient-28);}.cls-34{fill:url(#linear-gradient-29);}.cls-35{fill:url(#linear-gradient-30);}.cls-36{fill:url(#linear-gradient-31);}.cls-37{fill:url(#linear-gradient-32);}.cls-38{fill:url(#linear-gradient-33);}.cls-39{fill:url(#linear-gradient-34);}.cls-40{fill:url(#linear-gradient-35);}.cls-41{fill:url(#linear-gradient-36);}.cls-42{fill:url(#linear-gradient-37);}.cls-43{fill:url(#linear-gradient-38);}.cls-44{fill:#872b4d;}.cls-45{fill:url(#linear-gradient-39);}.cls-46{fill:url(#linear-gradient-40);}.cls-47{fill:url(#linear-gradient-41);}.cls-48{fill:url(#linear-gradient-42);}.cls-49{fill:url(#linear-gradient-43);}.cls-50{fill:url(#linear-gradient-44);}.cls-51{fill:url(#linear-gradient-45);}.cls-52{fill:url(#linear-gradient-46);}.cls-53{fill:url(#linear-gradient-47);}.cls-54{fill:url(#linear-gradient-48);}.cls-55{fill:url(#linear-gradient-49);}.cls-56{fill:url(#linear-gradient-50);}.cls-57{fill:url(#linear-gradient-51);}.cls-58{fill:url(#linear-gradient-52);}.cls-59{fill:url(#linear-gradient-53);}.cls-60{fill:url(#linear-gradient-54);}.cls-61{fill:url(#linear-gradient-55);}.cls-62{fill:url(#linear-gradient-56);}.cls-63{fill:url(#linear-gradient-57);}.cls-64{fill:url(#linear-gradient-58);}.cls-65{fill:url(#linear-gradient-59);}.cls-66{fill:url(#linear-gradient-60);}.cls-67{fill:url(#linear-gradient-61);}.cls-68{fill:url(#linear-gradient-62);}.cls-69{fill:url(#linear-gradient-63);}.cls-70{fill:url(#linear-gradient-64);}.cls-71{fill:url(#linear-gradient-65);}.cls-72{fill:url(#linear-gradient-66);}.cls-73{fill:url(#linear-gradient-67);}.cls-74{fill:url(#linear-gradient-68);}.cls-75{fill:#bdd0fb;}.cls-76{fill:url(#linear-gradient-69);}.cls-77{opacity:0.3;}.cls-78{fill:url(#linear-gradient-70);}.cls-79{fill:url(#linear-gradient-71);}.cls-80{fill:url(#linear-gradient-72);}.cls-81{fill:url(#linear-gradient-73);}</style><linearGradient id="linear-gradient" x1="893.28" y1="839.38" x2="280.34" y2="303.05" gradientUnits="userSpaceOnUse"><stop offset="0" stop-color="#dae3fe"/><stop offset="1" stop-color="#e9effd"/></linearGradient><linearGradient id="linear-gradient-2" x1="72.03" y1="393.06" x2="224.6" y2="425.37" gradientUnits="userSpaceOnUse"><stop offset="0" stop-color="#4f52ff"/><stop offset="1" stop-color="#4042e2"/></linearGradient><linearGradient id="linear-gradient-3" x1="617.68" y1="167.34" x2="606.96" y2="357.62" xlink:href="#linear-gradient-2"/><linearGradient id="linear-gradient-4" x1="313.43" y1="244.49" x2="584.47" y2="720.14" xlink:href="#linear-gradient-2"/><linearGradient id="linear-gradient-5" x1="447.23" y1="114.02" x2="559.53" y2="114.02" xlink:href="#linear-gradient"/><linearGradient id="linear-gradient-6" x1="447.23" y1="130.54" x2="559.53" y2="130.54" xlink:href="#linear-gradient"/><linearGradient id="linear-gradient-7" x1="447.23" y1="147.06" x2="559.53" y2="147.06" xlink:href="#linear-gradient"/><linearGradient id="linear-gradient-8" x1="447.23" y1="163.58" x2="559.53" y2="163.58" xlink:href="#linear-gradient"/><linearGradient id="linear-gradient-9" x1="568.13" y1="147.75" x2="605.81" y2="147.75" xlink:href="#linear-gradient"/><linearGradient id="linear-gradient-10" x1="614.96" y1="147.75" x2="652.64" y2="147.75" xlink:href="#linear-gradient"/><linearGradient id="linear-gradient-11" x1="661.78" y1="147.75" x2="699.46" y2="147.75" xlink:href="#linear-gradient"/><linearGradient id="linear-gradient-12" x1="568.13" y1="168.88" x2="605.81" y2="168.88" xlink:href="#linear-gradient"/><linearGradient id="linear-gradient-13" x1="614.96" y1="168.88" x2="652.64" y2="168.88" xlink:href="#linear-gradient"/><linearGradient id="linear-gradient-14" x1="661.78" y1="168.88" x2="699.46" y2="168.88" xlink:href="#linear-gradient"/><linearGradient id="linear-gradient-15" x1="5351.41" y1="784.39" x2="5210.24" y2="937.95" gradientTransform="translate(-4986.26 -60.18) rotate(0.54)" gradientUnits="userSpaceOnUse"><stop offset="0" stop-color="#09005d"/><stop offset="1" stop-color="#1a0f91"/></linearGradient><linearGradient id="linear-gradient-16" x1="5305.59" y1="795.79" x2="5318.13" y2="795.79" gradientTransform="translate(-4986.26 -60.18) rotate(0.54)" gradientUnits="userSpaceOnUse"><stop offset="0" stop-color="#febbba"/><stop offset="1" stop-color="#ff928e"/></linearGradient><linearGradient id="linear-gradient-17" x1="5362.53" y1="610.73" x2="5242.4" y2="773.55" xlink:href="#linear-gradient-15"/><linearGradient id="linear-gradient-18" x1="5319.74" y1="755.27" x2="5178.56" y2="908.83" xlink:href="#linear-gradient-15"/><linearGradient id="linear-gradient-19" x1="5260.39" y1="795.15" x2="5271.22" y2="795.15" xlink:href="#linear-gradient-16"/><linearGradient id="linear-gradient-20" x1="5341.12" y1="594.93" x2="5220.99" y2="757.75" xlink:href="#linear-gradient-15"/><linearGradient id="linear-gradient-21" x1="5357.2" y1="468.64" x2="5421.27" y2="468.64" xlink:href="#linear-gradient-16"/><linearGradient id="linear-gradient-22" x1="427.92" y1="446.77" x2="435.25" y2="398.11" gradientTransform="matrix(1, 0, 0, 1, 0, 0)" xlink:href="#linear-gradient-16"/><linearGradient id="linear-gradient-23" x1="5420.96" y1="425.33" x2="5438.9" y2="397.75" xlink:href="#linear-gradient-16"/><linearGradient id="linear-gradient-24" x1="5217.01" y1="559.38" x2="5298.09" y2="559.38" xlink:href="#linear-gradient-16"/><linearGradient id="linear-gradient-25" x1="5279.27" y1="472.71" x2="5311.32" y2="472.71" xlink:href="#linear-gradient-16"/><linearGradient id="linear-gradient-26" x1="-1642.86" y1="967.83" x2="-1654.84" y2="928.32" gradientTransform="matrix(0.75, -0.66, 0.66, 0.75, 926.71, -1367.74)" xlink:href="#linear-gradient-16"/><linearGradient id="linear-gradient-27" x1="-1653.67" y1="898.99" x2="-1643.65" y2="956.14" gradientTransform="matrix(0.75, -0.66, 0.66, 0.75, 926.71, -1367.74)" xlink:href="#linear-gradient-15"/><linearGradient id="linear-gradient-28" x1="-1655.1" y1="967.64" x2="-1665.88" y2="932.1" gradientTransform="matrix(0.75, -0.66, 0.66, 0.75, 926.71, -1367.74)" xlink:href="#linear-gradient-16"/><linearGradient id="linear-gradient-29" x1="5033.92" y1="497.25" x2="5078.65" y2="683.66" gradientTransform="translate(-4705.66)" xlink:href="#linear-gradient-15"/><linearGradient id="linear-gradient-30" x1="5003.26" y1="546.57" x2="5028.61" y2="546.57" gradientTransform="translate(-4705.66)" xlink:href="#linear-gradient-16"/><linearGradient id="linear-gradient-31" x1="314.59" y1="516.63" x2="368.98" y2="516.63" xlink:href="#linear-gradient"/><linearGradient id="linear-gradient-32" x1="240.41" y1="711.35" x2="226.91" y2="804.63" xlink:href="#linear-gradient-2"/><linearGradient id="linear-gradient-33" x1="204.81" y1="791.47" x2="218.18" y2="791.47" gradientTransform="matrix(1, 0, 0, 1, 0, 0)" xlink:href="#linear-gradient-16"/><linearGradient id="linear-gradient-34" x1="307.29" y1="721.02" x2="293.79" y2="814.3" xlink:href="#linear-gradient-2"/><linearGradient id="linear-gradient-35" x1="357.17" y1="601.54" x2="207.18" y2="712.54" gradientTransform="matrix(1, 0, 0, 1, 0, 0)" xlink:href="#linear-gradient-15"/><linearGradient id="linear-gradient-36" x1="268.14" y1="792.6" x2="284.1" y2="792.6" gradientTransform="matrix(1, 0, 0, 1, 0, 0)" xlink:href="#linear-gradient-16"/><linearGradient id="linear-gradient-37" x1="208.46" y1="716.19" x2="398.46" y2="585.19" gradientTransform="matrix(1, 0, 0, 1, 0, 0)" xlink:href="#linear-gradient-15"/><linearGradient id="linear-gradient-38" x1="179.48" y1="567.67" x2="187.35" y2="547.83" gradientTransform="matrix(1, 0, 0, 1, 0, 0)" xlink:href="#linear-gradient-16"/><linearGradient id="linear-gradient-39" x1="246.71" y1="644.85" x2="283.58" y2="644.85" gradientTransform="matrix(1, 0, 0, 1, 0, 0)" xlink:href="#linear-gradient-16"/><linearGradient id="linear-gradient-40" x1="2132.99" y1="931.77" x2="2093.48" y2="962" gradientTransform="translate(-2032.83 -117.87) rotate(-7.5)" xlink:href="#linear-gradient-16"/><linearGradient id="linear-gradient-41" x1="2105.23" y1="907.9" x2="2141.01" y2="953.97" gradientTransform="translate(-2032.83 -117.87) rotate(-7.5)" xlink:href="#linear-gradient-15"/><linearGradient id="linear-gradient-42" x1="2128.09" y1="925.36" x2="2088.58" y2="955.59" gradientTransform="translate(-2032.83 -117.87) rotate(-7.5)" xlink:href="#linear-gradient-16"/><linearGradient id="linear-gradient-43" x1="1744" y1="-5467.16" x2="1645.39" y2="-5371.83" gradientTransform="matrix(-1.39, -0.07, -0.07, 1.39, -5608.11, -95.14)" xlink:href="#linear-gradient-15"/><linearGradient id="linear-gradient-44" x1="-1773.56" y1="-4400.52" x2="-1872.16" y2="-4305.19" gradientTransform="matrix(0.65, -1.23, -1.23, -0.65, 7063.85, -8031.48)" xlink:href="#linear-gradient-15"/><linearGradient id="linear-gradient-45" x1="439.77" y1="736.07" x2="495.02" y2="736.07" gradientTransform="matrix(1, 0, 0, 1, 0, 0)" xlink:href="#linear-gradient-16"/><linearGradient id="linear-gradient-46" x1="473.57" y1="772.07" x2="465.45" y2="896.65" xlink:href="#linear-gradient-2"/><linearGradient id="linear-gradient-47" x1="374.91" y1="739.84" x2="491.48" y2="739.84" gradientTransform="matrix(1, 0, 0, 1, 0, 0)" xlink:href="#linear-gradient-16"/><linearGradient id="linear-gradient-48" x1="446.84" y1="679.03" x2="577.44" y2="679.03" gradientTransform="matrix(1, 0, 0, 1, 0, 0)" xlink:href="#linear-gradient-15"/><linearGradient id="linear-gradient-49" x1="395.16" y1="766.95" x2="387.04" y2="891.54" xlink:href="#linear-gradient-2"/><linearGradient id="linear-gradient-50" x1="538.83" y1="460.9" x2="519.6" y2="561.93" gradientTransform="matrix(1, 0, 0, 1, 0, 0)" xlink:href="#linear-gradient-15"/><linearGradient id="linear-gradient-51" x1="507.01" y1="587.3" x2="499.14" y2="536.8" gradientTransform="matrix(1, 0, 0, 1, 0, 0)" xlink:href="#linear-gradient-16"/><linearGradient id="linear-gradient-52" x1="-1230.73" y1="3502.35" x2="-1179.23" y2="3537.33" gradientTransform="translate(-1582.84 -2562.99) rotate(-52.83)" xlink:href="#linear-gradient-16"/><linearGradient id="linear-gradient-53" x1="-1196.37" y1="3460.5" x2="-1215.61" y2="3561.53" gradientTransform="translate(-1582.84 -2562.99) rotate(-52.83)" xlink:href="#linear-gradient-15"/><linearGradient id="linear-gradient-54" x1="-1227.65" y1="3497.8" x2="-1176.14" y2="3532.79" gradientTransform="translate(-1582.84 -2562.99) rotate(-52.83)" xlink:href="#linear-gradient-16"/><linearGradient id="linear-gradient-55" x1="539.32" y1="644.63" x2="648.83" y2="644.63" gradientTransform="matrix(1, 0, 0, 1, 0, 0)" xlink:href="#linear-gradient-16"/><linearGradient id="linear-gradient-56" x1="483.73" y1="731.87" x2="414.79" y2="750.76" gradientTransform="translate(22.1 -73.74) rotate(-2.83)" xlink:href="#linear-gradient-15"/><linearGradient id="linear-gradient-57" x1="448.1" y1="588.82" x2="399.19" y2="640.52" gradientTransform="matrix(1, 0, 0, 1, 0, 0)" xlink:href="#linear-gradient-15"/><linearGradient id="linear-gradient-58" x1="-8014.96" y1="888.5" x2="-8014.24" y2="965.06" gradientTransform="matrix(-1, 0, 0, 1, -7413.76, 0)" xlink:href="#linear-gradient-15"/><linearGradient id="linear-gradient-59" x1="-8033.42" y1="803.01" x2="-8037.39" y2="771.95" gradientTransform="matrix(-1, 0, 0, 1, -7413.76, 0)" xlink:href="#linear-gradient-16"/><linearGradient id="linear-gradient-60" x1="-8118.4" y1="889.48" x2="-8117.68" y2="966.04" gradientTransform="matrix(-1, 0, 0, 1, -7413.76, 0)" xlink:href="#linear-gradient-15"/><linearGradient id="linear-gradient-61" x1="-8120.24" y1="813.65" x2="-8124.11" y2="783.39" gradientTransform="matrix(-1, 0, 0, 1, -7413.76, 0)" xlink:href="#linear-gradient-16"/><linearGradient id="linear-gradient-62" x1="-8147.29" y1="698.65" x2="-8028.14" y2="698.65" gradientTransform="matrix(-1, 0, 0, 1, -7413.76, 0)" xlink:href="#linear-gradient-15"/><linearGradient id="linear-gradient-63" x1="713.13" y1="559.89" x2="624.64" y2="654.38" gradientTransform="matrix(1, 0, 0, 1, 0, 0)" xlink:href="#linear-gradient-16"/><linearGradient id="linear-gradient-64" x1="-8040.99" y1="546.87" x2="-7939.67" y2="546.87" gradientTransform="matrix(-1, 0, 0, 1, -7413.76, 0)" xlink:href="#linear-gradient-16"/><linearGradient id="linear-gradient-65" x1="-8077.46" y1="490.04" x2="-8042.2" y2="453.87" gradientTransform="matrix(-1, 0, 0, 1, -7413.76, 0)" xlink:href="#linear-gradient-16"/><linearGradient id="linear-gradient-66" x1="-8026.33" y1="431.07" x2="-8070.29" y2="489.23" gradientTransform="matrix(-1, 0, 0, 1, -7413.76, 0)" xlink:href="#linear-gradient-16"/><linearGradient id="linear-gradient-67" x1="-8059.9" y1="445.1" x2="-8007.39" y2="445.1" gradientTransform="matrix(-1, 0, 0, 1, -7413.76, 0)" xlink:href="#linear-gradient-15"/><linearGradient id="linear-gradient-68" x1="-8090.71" y1="477.13" x2="-8055.45" y2="440.95" gradientTransform="matrix(-1, 0, 0, 1, -7413.76, 0)" xlink:href="#linear-gradient-16"/><linearGradient id="linear-gradient-69" x1="-6039.5" y1="-4218.33" x2="-6113.02" y2="-4039.5" gradientTransform="matrix(-1, 0, 0, 1, -7413.76, 0)" xlink:href="#linear-gradient-2"/><linearGradient id="linear-gradient-70" x1="270.95" y1="117.04" x2="311.47" y2="117.04" xlink:href="#linear-gradient"/><linearGradient id="linear-gradient-71" x1="241.12" y1="116.72" x2="340.74" y2="116.72" xlink:href="#linear-gradient"/><linearGradient id="linear-gradient-72" x1="411.01" y1="200.64" x2="438.62" y2="200.64" xlink:href="#linear-gradient"/><linearGradient id="linear-gradient-73" x1="390.27" y1="200.42" x2="458.99" y2="200.42" xlink:href="#linear-gradient"/></defs><g id="Layer_2" data-name="Layer 2"><g id="Metaphor_illustration" data-name="Metaphor illustration"><path class="cls-1" d="M789.11,560.84c-79.22,186.52-290.23,291-473.22,262.83C286.11,819.08,204.47,805.42,132.2,741-6.94,616.88-36.69,371.19,75.55,198,157.23,72,303.67.59,442.81,4.16c30,.77,144.83,5.51,245.77,88.75a378.43,378.43,0,0,1,77,87.36C834.79,288.5,840.74,439.28,789.11,560.84Z"/><path class="cls-2" d="M57.3,268.84l55.59,60.85c-34.78,26.24-56.6,77.72,1.63,138.94L36.24,506.57C-18.63,410.5-10.87,334.59,57.3,268.84Z"/><path class="cls-3" d="M24.56,484.5l53.93.87,9.69-53.11c29.62,60.84,99.62,86.26,179.71,60.31l40.45,75.18C192.74,620.45,75.72,593.41,24.56,484.5Z"/><path class="cls-4" d="M476.84,404.13c43.71-86.41,159.1-118.29,242.07-71L803,305.33c-98.23-131-276.72-106.18-387.6,24.77Z"/><path class="cls-5" d="M670.85,495.6,706.54,579c130.2-54.24,169.6-237.87,52-318.78l.86,54L704.12,325.7C785.6,364.35,749.29,473.9,670.85,495.6Z"/><path class="cls-3" d="M438.45,519.18C561.8,607.9,669.73,619.46,755.79,549l-60.57-21.53,16.86-54c-75.53,52.42-145.72,35.37-213.1-18.31Z"/><path class="cls-3" d="M57.3,268.84v58.44l55.59,2.41c36.05-23.38,88.24-21.5,153.94-.47L305,244.57C205.18,201.82,123.32,212,57.3,268.84Z"/><path class="cls-6" d="M266.83,329.22l-31.22-65.05,69.4-19.6c45.09,23.52,81.4,52.32,110.4,85.53,31.92,70.29,75.73,130.29,130.51,155.9l-71.9.75,11.07,62.72c-28.17-16.87-55.36-35.8-79.28-56.45l-54-96C333,368.43,306.73,345.15,266.83,329.22Z"/><path class="cls-5" d="M415.41,330.1c-21.12,22.58-35,55.87-54.8,79.53-31.65,37.73-71.13,86.48-142.36,92.82l58.16,30.09-34.63,56.77C358,566.23,439.24,490.45,476.84,404.13V321.06Z"/><path class="cls-3" d="M435.13,88.46l282.76-1.24a4.84,4.84,0,0,1,4.89,4.88l-.6,99a4.85,4.85,0,0,1-5,4.82c-24.93-.75-280.49-4-285.37-3.82s-2.21-78-1.49-98.93A4.84,4.84,0,0,1,435.13,88.46Z"/><path class="cls-7" d="M717.34,192.06h0c-15.94-.48-168.65-2.38-242-3.3l-40.75-.51h-.38l-.07-.37c-1.73-9.79-1.7-42.5.09-94.6a1,1,0,0,1,1-1l282.76-1.24a1,1,0,0,1,1,1l-.6,99A1,1,0,0,1,717.34,192.06Zm-282.43-4.72,40.37.51c73.39.91,226.11,2.82,242.05,3.29h0a.09.09,0,0,0,.07-.09l.6-99-.1-.56V92L435.17,93.21a.09.09,0,0,0-.09.09C433.31,144.69,433.25,177.17,434.91,187.34Z"/><path class="cls-8" d="M447.23,114h0c0,2.68.89,4.85,2,4.85H557.54c1.1,0,2-2.17,2-4.85h0c0-2.68-.89-4.85-2-4.85H449.22C448.12,109.17,447.23,111.34,447.23,114Z"/><path class="cls-9" d="M447.23,130.54h0c0,2.68.89,4.85,2,4.85H557.54c1.1,0,2-2.17,2-4.85h0c0-2.68-.89-4.84-2-4.84H449.22C448.12,125.7,447.23,127.86,447.23,130.54Z"/><path class="cls-10" d="M447.23,147.06h0c0,2.68.89,4.85,2,4.85H557.54c1.1,0,2-2.17,2-4.85h0c0-2.67-.89-4.84-2-4.84H449.22C448.12,142.22,447.23,144.39,447.23,147.06Z"/><path class="cls-11" d="M447.23,163.58h0c0,2.68.89,4.85,2,4.85H557.54c1.1,0,2-2.17,2-4.85h0c0-2.67-.89-4.84-2-4.84H449.22C448.12,158.74,447.23,160.91,447.23,163.58Z"/><circle class="cls-7" cx="586.97" cy="117.43" r="18.84" transform="translate(377.03 678.02) rotate(-80.78)"/><circle class="cls-7" cx="633.8" cy="117.43" r="18.84" transform="translate(416.36 724.24) rotate(-80.78)"/><circle class="cls-7" cx="680.62" cy="118.05" r="18.84" transform="translate(115.87 515.85) rotate(-45)"/><path class="cls-3" d="M598.17,113.45A12.11,12.11,0,1,1,587,106h.61V102.9l-.61,0a15.17,15.17,0,1,0,14,9.35Z"/><path class="cls-3" d="M640,128.29A12.1,12.1,0,1,1,633.59,106h.61V102.9l-.61,0a15.17,15.17,0,1,0,8,28.08Z"/><path class="cls-3" d="M690.72,124.86a12.1,12.1,0,1,1-10-18.91h.61V102.9l-.61,0a15.17,15.17,0,1,0,12.5,23.77Z"/><g class="cls-12"><path class="cls-13" d="M602.32,144.26h-30.7a3.49,3.49,0,0,0,0,7h30.7a3.49,3.49,0,0,0,0-7Z"/><path class="cls-14" d="M649.15,144.26h-30.7a3.49,3.49,0,0,0,0,7h30.7a3.49,3.49,0,0,0,0-7Z"/><path class="cls-15" d="M665.27,151.24H696a3.49,3.49,0,0,0,0-7h-30.7a3.49,3.49,0,0,0,0,7Z"/><rect class="cls-16" x="568.13" y="155.11" width="37.68" height="27.53" rx="3.49"/><rect class="cls-17" x="614.96" y="155.11" width="37.68" height="27.53" rx="3.49"/><rect class="cls-18" x="661.78" y="155.11" width="37.68" height="27.53" rx="3.49"/></g><path class="cls-19" d="M313,786.07s-1.54,8.26-2.34,16.45a5.64,5.64,0,0,0,5.34,6.16c10.91.56,34.24,1.67,42.62,1.38a1.85,1.85,0,0,0,1.64-2.51h0a4.13,4.13,0,0,0-2.08-2.23l-38.38-18.09Z"/><path class="cls-20" d="M311.82,781.19l1.08,9.91s6.72,3.21,11.37-.28l-2.7-11.06Z"/><path class="cls-21" d="M314.48,595.07c-.54,2.58-4,129,9,185.78a1.93,1.93,0,0,1-1.15,2.23,33.84,33.84,0,0,1-11,2.13,3.33,3.33,0,0,1-3.27-2.41c-3.73-13.18-21.62-79.22-23.43-142.16-2-70.33,0-2.4,0-2.4l2-43.44Z"/><path class="cls-22" d="M268.58,790s-2.37,4.16-4.73,15.24a3.45,3.45,0,0,0,3,4.15c3.6.39,9.15.9,13.59.91a3.42,3.42,0,0,0,3.43-3.8c-.45-4.05-1.92-10.72-6.6-16Z"/><path class="cls-23" d="M266.66,777.21l2.6,15s2.69,2,8.08.63l-1.16-16.12Z"/><path class="cls-24" d="M261,598.44c-11.69,66.6.82,164.9,5.17,184.15a3,3,0,0,0,2.4,2.3,20.09,20.09,0,0,0,8.65-.26,2.75,2.75,0,0,0,2-2.51c.76-15.53.57-110.9,11.23-148.49a8.55,8.55,0,0,1,3.35-4.69l20.12-14,1.75-23Z"/><path class="cls-25" d="M332.58,472.71c-33.12-.86-69.75,8-69.75,8-10.43,57.52-2.91,124-2.91,124,25.58,7,54.61-3.59,54.61-3.59,4.49-24,25-91.63,25-91.63,16.21-1.85,29.58-6.39,40.62-12.46-8.28-9.79-12.11-22.18-13.75-29.5C354.67,471.15,342.8,473,332.58,472.71Z"/><path class="cls-26" d="M430.89,424.86a6.33,6.33,0,0,0-7.35-2.14c-5.07,20.54-30.79,37-57.12,44.9,1.64,7.32,5.47,19.71,13.75,29.5C424,473,430.89,424.86,430.89,424.86Z"/><path class="cls-27" d="M430.09,425.85c.33,1.09-3.62,2.7-5.9-1.75-.06-2.13-1.27-11.23,0-12.94,6.84-9.15,20-20.56,20-20.56a3.12,3.12,0,0,1,.35,4.33l-6.42,6.56c1.31,2.41,2.91,4.45,3.64,7.36a8.91,8.91,0,0,1-.95,6.54,77.16,77.16,0,0,1-4.14,6.63A8.77,8.77,0,0,1,430.09,425.85Z"/><path class="cls-28" d="M435.36,405.75l-5.83,4.85-1.86,4.87,5.1,5.77s1.83-9.67,3.14-11.76S436.56,406.38,435.36,405.75Z"/><path class="cls-25" d="M275.23,512.94l-12.4-32.19s-31.14,20.72-36.49,47.33a73.22,73.22,0,0,1,26.83,7.47C255.58,523,275.23,512.94,275.23,512.94Z"/><path class="cls-29" d="M302,543.38s-34.93,19.3-46.49,2.43a13.19,13.19,0,0,1-2.32-10.26,73.22,73.22,0,0,0-26.83-7.47,36.8,36.8,0,0,0,3.76,25.26c20.18,37.75,76.39-1.35,76.39-1.35Z"/><path class="cls-30" d="M299.29,445.5l-10.83,30.38a1.09,1.09,0,0,0,.49,1.33c2.85,1.62,13.16,6.31,25.71-1.48a5.22,5.22,0,0,0,2.42-3.67l3.66-26.35Z"/><path class="cls-31" d="M322.49,417.5s11.37,21.89,9.8,30.68-15.91,8-28.36.75l-8.53-23.61Z"/><path class="cls-32" d="M304.59,437.38a.9.9,0,0,0,.4-1.31,23.43,23.43,0,0,1-3.15-6.87s-2.07-1.35,5.32-3,18.42-4.33,20.8-10.59c2.31-6.1-3.47-21.55-13-9.37a.91.91,0,0,1-1.43,0c-1.53-2-5.56-6.25-11.24-3.77-5.31,2.32-5.94,6.19-5.89,8.15a.88.88,0,0,1-1.07.9c-2.67-.53-9.08-1-12.14,5.53-2.52,5.4-1,8.48.5,10a.89.89,0,0,1-.4,1.48c-1.76.52-4,2-3.86,6.11.26,5.7,6.63,5.26,8.45,5a.86.86,0,0,1,.79.29c1.54,1.73,8.48,9.1,16.05,10.05a.9.9,0,0,0,1-1.18l-3.19-9.57a.9.9,0,0,1,.5-1.11Z"/><path class="cls-33" d="M305.9,438.75s-8.19-5.73-8.84-1,7.36,7,11.35,5.23Z"/><path class="cls-34" d="M294.84,573.88l19-66.44a1.94,1.94,0,0,1,1.64-1.39c3.45-.4,13.44-1.53,25-2.51,13.89-1.17,30-2.12,39.66-1.31a1.94,1.94,0,0,1,1.59,2.79c-5.48,11.09-28,56.21-39.32,71a1.93,1.93,0,0,1-1.57.77l-44.14-.41A2,2,0,0,1,294.84,573.88Z"/><path class="cls-35" d="M299.44,557.83s-2.65-10.9-1.59-14.76,3.15-8.84,10-7.73a100.79,100.79,0,0,1,15.05,4s-.41,5-5.66,3.41l3.25,2.52s-.46,4-4.89,1.88l3,3.34a3.52,3.52,0,0,1-5.16,1.18C310.25,549.56,308.68,559.14,299.44,557.83Z"/><path class="cls-5" d="M339.2,523.38a5.59,5.59,0,1,0,5.59-5.59A5.58,5.58,0,0,0,339.2,523.38Z"/><path class="cls-36" d="M316,527.06l-1.43-.42,3.88-13.14a6,6,0,0,1,4.5-4.2c12.28-2.56,44.62-3.08,46-3.1l0,1.48c-.33,0-33.56.54-45.7,3.08a4.48,4.48,0,0,0-3.39,3.16Z"/><path class="cls-3" d="M90.86,713c-2,3-10.09,70.94-11.35,96a3,3,0,0,0,3,3.11h0a3,3,0,0,0,2.94-2.52l14.74-94.47Z"/><path class="cls-3" d="M155.66,713c2,3,10.09,70.94,11.35,96a3,3,0,0,1-3,3.11h0a3,3,0,0,1-2.94-2.52l-14.74-94.47Z"/><path class="cls-3" d="M78.66,707.69v.74c0,5.33,4.54,9.71,10.29,9.8l68.15,1.16c5.66.1,10.39-4,10.66-9.24l0-.68c.28-5.47-4.36-10.09-10.27-10.19l-68.18-1.22C83.52,698,78.71,702.28,78.66,707.69Z"/><path class="cls-3" d="M222.21,806.57c-12.11,0-17.47-1-19.87-2a4.6,4.6,0,0,0,4.48,3.56h42.85a2.08,2.08,0,0,0,2-2.63C246.8,805.9,236.42,806.57,222.21,806.57Z"/><path class="cls-37" d="M251.68,805.51a2,2,0,0,0-.35-.73c-3.26-4.17-9.82-10.71-18.74-10.59-13.07.19-17.62,1.6-27.78.08l-2.39,7.94a4.56,4.56,0,0,0-.08,2.37c2.4.95,7.76,2,19.87,2C236.42,806.57,246.8,805.9,251.68,805.51Z"/><path class="cls-38" d="M207.75,785.72l-2.94,10s6.52,3,12.25.58l1.12-8.66Z"/><path class="cls-3" d="M296.57,800.27c-9.44,7.59-14.27,10.14-16.72,10.9a4.57,4.57,0,0,0,5.7,0L319,784.29a2.08,2.08,0,0,0-.07-3.3C315.32,784.35,307.65,791.37,296.57,800.27Z"/><path class="cls-39" d="M318.89,781a2.25,2.25,0,0,0-.73-.35c-5.14-1.19-14.34-2.16-21.21,3.53-10.07,8.33-12.74,12.28-21.61,17.46l3.09,7.66a4.42,4.42,0,0,0,1.42,1.88c2.45-.76,7.28-3.31,16.72-10.9C307.65,791.37,315.32,784.35,318.89,781Z"/><path class="cls-40" d="M144.85,671.77s72.52,5.92,87.4,12.92-12.14,105.17-12.14,105.17-4.05,1.95-13.07-.85c0,0,9.25-72.44,2.37-88.15L130.88,688Z"/><path class="cls-41" d="M268.14,787.84c.67.61,7.2,13.79,7.2,13.79s7.28-1.57,8.76-6.18l-6.55-11.89Z"/><path class="cls-42" d="M101.16,671.16a36.76,36.76,0,0,0-2.26,13.25,19.87,19.87,0,0,0,19,19.45l85.74,3.91a4.11,4.11,0,0,1,3.8,3.09c2,7.79,11.86,31.72,60,79.48a3.88,3.88,0,0,0,4.8.52l6.85-4.33a1.58,1.58,0,0,0,.52-2.13l-49.92-85.25a19.33,19.33,0,0,0-11.74-8.7l-73.07-18.68Z"/><path class="cls-43" d="M185.66,538s-9.19,16.24-18.55,24.11l19.35,10.79s4.37-17.19,14.33-22.22Z"/><path class="cls-25" d="M99.61,671.77s23.14,5.64,45.24,0c0,0,30.91-41.56,42.87-52.87,0,0,19.08,30.1,61.54,34.37l2.37-5.29s-33.81-15.59-44.21-39.53-14.59-34.16-24.06-40.4c-5.9-3.89-9.43-6.55-11.25-8a3,3,0,0,0-3.47-.22C158.59,566,111.32,598.33,99.61,671.77Z"/><path class="cls-44" d="M186.46,618.31a1.47,1.47,0,0,1-1.17-.58,92.25,92.25,0,0,1-11.65-20.65,1.48,1.48,0,1,1,2.77-1.06,91.13,91.13,0,0,0,11.23,19.91,1.48,1.48,0,0,1-.27,2.08A1.53,1.53,0,0,1,186.46,618.31Z"/><path class="cls-45" d="M246.71,645.21l4.78-1.27L266,640.58a6.69,6.69,0,0,1,5.1.86l12.48,7.85-34.46-.06Z"/><path class="cls-46" d="M200.24,513.65s8.93,14.84,10.47,23,4,13.32-5.29,16.25-18-.78-23.46-8.43c0,0-8.5-11.79-7.65-17.18S200.24,513.65,200.24,513.65Z"/><path class="cls-47" d="M184.45,538.16l1.21-.16s-6.32-9.55-2.19-11.92,21-8.18,23.92-14.82c2.82-6.4-1.4-13.63-6.49-15.14a.66.66,0,0,0-.78.41l-.3.81a.65.65,0,0,1-1.21,0h0a.65.65,0,0,0-1.19,0c-.9,2-3.6,5.38-11.71,8-11.5,3.73-18.66,9.53-17.78,17.7a.65.65,0,0,1-.93.66c-.94-.41-2.37-.48-4,1.33-2.88,3.15-.63,10,7.23,14.91a.65.65,0,0,1,.11,1c-1.18,1-2.83,3.25,2.49,5.25s8.41,1.36,9.5.92a.66.66,0,0,0,.41-.74l-1.4-7.16a.65.65,0,0,1,.56-.77Z"/><path class="cls-48" d="M185,539.63s-3.94-9.71-8.08-6.3,3.82,11,7.5,10.86Z"/><path class="cls-49" d="M233.39,656.05h.17l73.62-.07a3.29,3.29,0,1,0,0-6.58l-73.62.08a3.29,3.29,0,0,0-.16,6.57Z"/><path class="cls-50" d="M335.68,584l-.07.15-31,66.78a3.29,3.29,0,1,0,6,2.77l31-66.78a3.29,3.29,0,0,0-5.9-2.92Z"/><rect class="cls-3" x="520.68" y="723.16" width="7.77" height="84.02"/><path class="cls-3" d="M558.59,808.8H490.54a5,5,0,0,1,5-5h57.94a5.06,5.06,0,0,1,5.06,5Z"/><rect class="cls-3" x="483.13" y="704.34" width="85.56" height="24.27" rx="8.36"/><path class="cls-51" d="M467.2,667.14s-11.54,1.79-24.52,10.47a6.48,6.48,0,0,0-2.86,6.18c1.56,12.31,7.95,52.16,29,91.08a9.8,9.8,0,0,1,.94,6.72l-3.66,17L459.33,805h17.49l11.64-31.51-5-1.58a9.43,9.43,0,0,1-6.58-8.82l-.58-33.8c.5-15.06-9.23-25.45-9.23-25.45L495,702.48Z"/><path class="cls-52" d="M452.5,808.07c-1.59,2.09,17.14,4.84,26.61.28,0,0,13.12-22.83,13.12-34.58,0,0-1-2.4-8.75-1.86,0,0-4.4,27-9.05,30.06s-13,.31-13,.31S454.85,805,452.5,808.07Z"/><path class="cls-53" d="M491.48,704.34c-.15-.26-30.07-3.6-30.07-3.6a69.13,69.13,0,0,1-2.08,21.62c-3.06,12.52-47,66.78-47,66.78L417,803.75a74.08,74.08,0,0,1-42,2.52l28.54-17.13s26.72-91,43.09-107.29l30-10.37Z"/><path class="cls-54" d="M558.59,651.36S575.83,677,577.24,688.7s-4.72,16.45-22.81,17.23-66.38.77-66.38.77l-41.21-35.22s30-10.72,37.84-13.75S558.59,651.36,558.59,651.36Z"/><path class="cls-55" d="M415.2,798.83s5,4.8,1.61,10.15c0,0-39.28,7-49.95,3.8,0,0,2.22-5.06,14.23-10.81l-.89.68a1.43,1.43,0,0,0,.95,2.57C389.06,804.77,405.44,803.32,415.2,798.83Z"/><path class="cls-56" d="M483.91,488.75c35.24-6,51.83,22.75,50.62,28.78a1.1,1.1,0,0,0,1.38,1.27c4.05-1.09,13-2.46,18.53,4.48,4.89,6.13,1.23,11.91-1.75,15.09a1.11,1.11,0,0,0,.93,1.88c7.44-.94,23.6-1.16,26.25,14,2.46,14.12-7.37,18.1-13.19,19.22a1.1,1.1,0,0,0-.37,2c2.91,1.85,6.27,5.66,4.91,13.18-2.13,11.79-25.25,10.83-28,10.67a1,1,0,0,1-.48-.14l-37-21.12a1.13,1.13,0,0,1-.54-.77l-7.48-43.17a1.1,1.1,0,0,1,.3-1L473.9,499.09C465.14,497.8,483.5,488.82,483.91,488.75Z"/><path class="cls-25" d="M512,648S491.89,628.85,482,616.19A26.88,26.88,0,0,1,477.46,592c4.51-15.2,12.53-30.94,13.26-33.39,1.12-3.76,23.63-3.6,23.63-3.6s44.29,28.75,61.7,77.44l-19.55,6.09s-11.56-19.41-23-31.74c0,0,19.77,26.12,20.47,36.81Z"/><path class="cls-57" d="M488,537.63c.23.78,6.11,20.26,6.57,20.66s12.88,1.07,18.73-2.92L498.79,527Z"/><path class="cls-58" d="M464.44,512.6s-2.84,11.16,5,26.17,16.75,15,21.61,10.18,10.86-13,9.43-27.46S468.54,498.41,464.44,512.6Z"/><path class="cls-59" d="M489.64,522.28s-13-19.93-25.26-4.24l-.22,5.7s-14.31-1.7-11.81-14.83,14.88-21.33,30.81-15.64,25.06,11.52,26.09,22.93-8.06,8.92-8.06,8.92-3-8-7.17-8.88-3.12,5.44-3.12,5.44Z"/><path class="cls-60" d="M493,522s-6.76-10.2.17-11.72,5.85,9.94,5.1,14.18Z"/><path class="cls-61" d="M471.07,649.38l14.75-14.21,20.4,8.62s20.31,3.14,31.93,0l11.63-3.15,26.27-8.18,4.12,11.66a7,7,0,0,1-2.56,8.07,46.27,46.27,0,0,1-6.64,4.13c-3.46,1.51-85.27-1.05-85.27-1.05Z"/><path class="cls-62" d="M526.88,656.09h-.19L441.13,656a3.83,3.83,0,1,1,0-7.66l85.56.09a3.83,3.83,0,0,1,.18,7.66Z"/><path class="cls-63" d="M364.21,578.4h71.26a13.59,13.59,0,0,1,12.28,7.79L480.69,656H392.14a8.26,8.26,0,0,1-7.68-5.22l-25.54-64.64A5.69,5.69,0,0,1,364.21,578.4Z"/><path class="cls-5" d="M414.41,614.22c1.55,4.79.41,9.45-2.55,10.4s-6.59-2.17-8.14-7-.4-9.46,2.55-10.41S412.87,609.42,414.41,614.22Z"/><path class="cls-64" d="M624.43,798.21a103.18,103.18,0,0,1,1.25,10.91,4.71,4.71,0,0,1-4.23,5c-8.76.85-28.69,2.41-41.42.58a2.14,2.14,0,0,1-1.18-3.68c5.25-4.89,17.93-14.4,38.79-16.48Z"/><path class="cls-65" d="M628.78,787l-4.43,10.86a3.61,3.61,0,0,1-3.71,2.24,19.47,19.47,0,0,1-3.62-.7,4.77,4.77,0,0,1-3.16-5.91l3.35-11.18Z"/><path class="cls-66" d="M704.48,806.86s-8.86,7.42-12.32,16.93a4,4,0,0,0,3.84,5.38h18.25a4.31,4.31,0,0,0,4.25-5C717.34,817.56,714,806.88,704.48,806.86Z"/><path class="cls-67" d="M715.47,797.2s-1.79,7.93-3.17,13.17a1.68,1.68,0,0,1-2.19,1.14,15.38,15.38,0,0,0-6.64-1.21A1.28,1.28,0,0,1,702,809l-.17-13.17Z"/><path class="cls-68" d="M668.31,618.83,614.38,783.36s10.34,6.77,15.27,6.49l64.06-132.23s11.21,81.48,5.78,140l18.35,1.4s29.83-149.48,7.23-200.67Z"/><path class="cls-5" d="M693.36,656.2h.07a.52.52,0,0,0,.45-.59L691.79,639a.52.52,0,0,0-1,.13l2.1,16.61A.51.51,0,0,0,693.36,656.2Z"/><path class="cls-25" d="M658.2,474.05s43.69,3.88,37.51,35c0,0,24.16,45.46,35.45,99a3.15,3.15,0,0,1-2.56,3.74l-72.76,12.46a3.91,3.91,0,0,1-4.45-2.88L634,554.19l-6.78,31.24-21.52-5.61L623.82,488S626.35,474.63,658.2,474.05Z"/><path class="cls-44" d="M633.63,551.18h.11a.54.54,0,0,0,.42-.64l-6.07-27.85a.54.54,0,0,0-.64-.42.56.56,0,0,0-.42.65l6.07,27.85A.54.54,0,0,0,633.63,551.18Z"/><path class="cls-69" d="M638,634.06a10.39,10.39,0,0,1,7.51-1l5.07,1.26a1.83,1.83,0,0,0,2.26-1.57l5.24-46.63c6.55,3.11,16,2.73,19.12,2.51l-12.06,55H623Z"/><path class="cls-70" d="M525.91,532.91l1.27-4.24a8.4,8.4,0,0,1,4.9-5.36L555.15,514s.35-3-4.87-5-4-7.85-4-7.85,7.14,3.25,17.58,8.41c6,3,9.33,8.17,11.1,12.09l52.27,63.72-6.13,4.22a16.39,16.39,0,0,1-23.76-5.83L569,529.52A105.47,105.47,0,0,1,525.91,532.91Z"/><path class="cls-71" d="M644,444.33l13.44,37.61s-11.9,9.3-20.58,6.16l-6.77-21.56S635.3,440.18,644,444.33Z"/><path class="cls-72" d="M603.94,430.82c0,.58,12.94,36.64,12.94,36.64l20.44-7.82-7.19-36S603.94,421.11,603.94,430.82Z"/><path class="cls-73" d="M626.54,432.4l5.27,18.66a2.57,2.57,0,0,1,.1.73c0,1.52-.37,6.76-5.7,6-4.84-.64-9.27-1.16-12.09.17a2.7,2.7,0,0,0-1.39,3.36A116.45,116.45,0,0,0,620.09,478a2.7,2.7,0,0,0,3.47,1.12c3.84-1.75,11.83-5.66,17.53-10.31a2.72,2.72,0,0,0,1-2.6c-.9-4.77-3.57-19.29-3.69-23.45-.11-3.91,4.27-6.89,6.2-8a2.64,2.64,0,0,0,1.26-1.68c.6-2.52,1.12-8.2-6.14-9.46a2.7,2.7,0,0,1-2.2-3.22c.62-3,.42-7.43-5.29-9.06s-9.45,1.83-11.31,4.51a2.7,2.7,0,0,1-3.36.9,2.13,2.13,0,0,0-2.4.43,2.67,2.67,0,0,1-3.9-.59c-1.69-2.49-4.77-5-10-3.3-9.23,3-8.79,13.64-5.41,19.42s13.21,2,17.86-1.85c3.54-2.92,8.93-1.17,11.31-.17A2.68,2.68,0,0,1,626.54,432.4Z"/><path class="cls-74" d="M640.21,449.54s-5.46-10.34-1.85-13.58,9.74-2.72,9.57,5.37C647.73,451.38,640.21,449.54,640.21,449.54Z"/><path class="cls-44" d="M673,589.35c3,0,5.11-.23,5.34-.25l.39-.05,15.91-74.18a.54.54,0,0,0-.42-.64.53.53,0,0,0-.64.41l-15.74,73.41c-2.37.21-15,1.05-21.69-3.68l13.78-64.44L667,514.5a.54.54,0,1,0-.95.51l2.69,5.08-13.85,64.74.28.21C660,588.66,667.79,589.35,673,589.35Z"/><path class="cls-5" d="M196,815.51a2.56,2.56,0,0,1-1.1-.25,3.14,3.14,0,0,1-1.45-4L251.6,663.77a2.69,2.69,0,0,1,3.64-1.58,3.12,3.12,0,0,1,1.45,4L198.55,813.68A2.76,2.76,0,0,1,196,815.51Z"/><path class="cls-5" d="M261.5,815.51a2.78,2.78,0,0,1-2.55-1.83L200.82,666.16a3.12,3.12,0,0,1,1.45-4,2.69,2.69,0,0,1,3.64,1.58l58.14,147.52a3.14,3.14,0,0,1-1.45,4A2.56,2.56,0,0,1,261.5,815.51Z"/><path class="cls-5" d="M590.58,815.51a2.48,2.48,0,0,1-1.09-.25,3.14,3.14,0,0,1-1.46-4l58.14-147.52a2.7,2.7,0,0,1,3.65-1.58,3.14,3.14,0,0,1,1.45,4L593.13,813.68A2.77,2.77,0,0,1,590.58,815.51Z"/><path class="cls-5" d="M656.07,815.51a2.76,2.76,0,0,1-2.54-1.83L595.39,666.16a3.12,3.12,0,0,1,1.45-4,2.69,2.69,0,0,1,3.64,1.58l58.14,147.52a3.13,3.13,0,0,1-1.45,4A2.56,2.56,0,0,1,656.07,815.51Z"/><path class="cls-75" d="M582.14,653.35h84.21v-8.69H582.14C584,644.66,584,653.35,582.14,653.35Z"/><path class="cls-76" d="M665.35,653.35a1,1,0,0,0,1-1v-6.69a1,1,0,0,0-1-1H580.58a1,1,0,1,1,0-2h90.59a3.64,3.64,0,0,1,3.64,3.64v5.55a3.44,3.44,0,0,1-3.43,3.43h-90.8a1,1,0,1,1,0-2Z"/><path class="cls-5" d="M678.56,659.21a2.56,2.56,0,0,0-1.06-2.73,6.16,6.16,0,0,0-3.84-1.21H169.1a6.77,6.77,0,0,0-4.83,1.76,2.74,2.74,0,0,0-.38,3.65l5.47,7.85c1.25,1.8,4,3,6.95,3H670.19c2.78,0,5.17-1.31,5.7-3.12Z"/><g class="cls-77"><path class="cls-75" d="M403.18,144.43a3,3,0,0,1-2.28-3.5c.64-3.1,1.16-6.28,1.54-9.44a3,3,0,0,1,3.23-2.58h.06a3,3,0,0,1,2.58,3.29c-.4,3.33-.95,6.67-1.63,9.94a3,3,0,0,1-3.19,2.34Zm.06-28.46c-.05-3.19-.24-6.4-.56-9.55a3,3,0,1,1,5.87-.6c.34,3.32.54,6.7.6,10.05a3,3,0,0,1-2.91,3h-.35A3,3,0,0,1,403.24,116ZM400,91.11c-.75-3.08-1.66-6.17-2.68-9.18a3,3,0,0,1,5.6-1.9c1.07,3.17,2,6.42,2.82,9.67a3,3,0,0,1-2.16,3.58,3.11,3.11,0,0,1-1,.07A3,3,0,0,1,400,91.11ZM391.33,67.6c-1.43-2.84-3-5.65-4.67-8.35a3,3,0,1,1,5-3.1c1.76,2.84,3.41,5.8,4.92,8.79a3,3,0,0,1-1.31,4,3,3,0,0,1-1.63.3A2.94,2.94,0,0,1,391.33,67.6Zm-13.72-21c-2-2.44-4.17-4.84-6.4-7.11a3,3,0,1,1,4.22-4.13c2.34,2.39,4.61,4.91,6.74,7.48a3,3,0,0,1-2.58,4.82A3,3,0,0,1,377.61,46.61Zm-18-17.43c-2.51-1.94-5.14-3.8-7.81-5.52a3,3,0,1,1,3.2-5c2.81,1.81,5.58,3.76,8.22,5.8a3,3,0,0,1-3.61,4.68Zm-108-19.29a2.94,2.94,0,0,1,1.85-3.74c3.16-1.07,6.42-2,9.68-2.81a3,3,0,0,1,1.4,5.74c-3.09.75-6.19,1.65-9.19,2.66a2.92,2.92,0,0,1-3.74-1.85Zm86.54,6.29c-2.88-1.33-5.85-2.55-8.84-3.63a3,3,0,0,1,2-5.55c3.14,1.13,6.28,2.42,9.31,3.82a3,3,0,0,1-1.54,5.62A2.76,2.76,0,0,1,338.17,16.18ZM276.64,3.81A3,3,0,0,1,279.28.58C282.61.24,286,.05,289.34,0a3,3,0,1,1,.09,5.91c-3.18,0-6.4.23-9.56.55a2.9,2.9,0,0,1-.59,0A2.94,2.94,0,0,1,276.64,3.81ZM314.39,8.3c-3.11-.65-6.28-1.18-9.44-1.56a3,3,0,0,1,.66-5.87h.06c3.32.41,6.67,1,9.93,1.65a3,3,0,0,1-.9,5.83Z"/><path class="cls-75" d="M235.16,20.27a2.89,2.89,0,0,0,1.73-.36c1.33-.74,2.7-1.46,4.07-2.15a3,3,0,1,0-2.66-5.27c-1.44.72-2.88,1.48-4.28,2.26a3,3,0,0,0,1.14,5.52Z"/></g><g class="cls-77"><path class="cls-75" d="M179.75,91.25a3,3,0,0,0,3.15-2.18c.39-1.47.82-3,1.27-4.42a3,3,0,1,0-5.64-1.75c-.48,1.54-.93,3.1-1.34,4.65a3,3,0,0,0,2.09,3.62A3.85,3.85,0,0,0,179.75,91.25Z"/><path class="cls-75" d="M273.43,234.59a3,3,0,1,1,.88-5.84c3.07.46,6.21.8,9.37,1a3,3,0,0,1-.4,5.9c-1.37-.09-2.73-.21-4.08-.34C277.27,235.12,275.33,234.88,273.43,234.59Zm22.8-1.69a2.94,2.94,0,0,1,2.74-3.14c3.13-.22,6.27-.57,9.36-1a3,3,0,0,1,.9,5.84c-3.25.5-6.57.86-9.85,1.09a2.88,2.88,0,0,1-.51,0A3,3,0,0,1,296.23,232.9Zm-38.51-1.8c-3.15-.93-6.31-2-9.38-3.2a3,3,0,0,1,2.15-5.51c2.91,1.14,5.91,2.16,8.9,3.05a3,3,0,0,1-1.13,5.77A3.45,3.45,0,0,1,257.72,231.1ZM321.26,229a3,3,0,0,1,2-3.67c3-.9,6-1.93,8.9-3.07a2.95,2.95,0,0,1,2.16,5.49c-3.07,1.21-6.22,2.3-9.37,3.24a3.21,3.21,0,0,1-1.14.11A3,3,0,0,1,321.26,229Zm-87.47-8c-2.87-1.6-5.71-3.34-8.44-5.19a2.95,2.95,0,1,1,3.3-4.89c2.6,1.75,5.3,3.4,8,4.92a3,3,0,1,1-2.88,5.16ZM212.65,206c-2.45-2.2-4.84-4.52-7.1-6.9a3,3,0,1,1,4.28-4.07c2.15,2.27,4.42,4.48,6.76,6.56a3,3,0,0,1,.23,4.17,2.9,2.9,0,0,1-2.5,1A2.93,2.93,0,0,1,212.65,206ZM195.3,186.66c-1.92-2.67-3.75-5.46-5.44-8.28a3,3,0,0,1,5.07-3c1.6,2.68,3.34,5.33,5.17,7.87a3,3,0,0,1-2.7,4.66A2.92,2.92,0,0,1,195.3,186.66ZM182.57,164c-1.29-3-2.46-6.16-3.49-9.28a3,3,0,0,1,5.61-1.85c1,3,2.09,5.94,3.31,8.82a3,3,0,0,1-5.43,2.31Zm-7.45-24.9c-.59-3.23-1-6.54-1.36-9.81a3,3,0,0,1,5.88-.57c.3,3.12.74,6.25,1.29,9.33a3,3,0,0,1-2.38,3.43,2.83,2.83,0,0,1-.82,0A3,3,0,0,1,175.12,139.13Zm-1.8-25.9c.1-2.42.27-4.86.52-7.27.08-.87.18-1.74.29-2.6a3,3,0,1,1,5.86.72c-.1.82-.19,1.65-.28,2.48-.23,2.28-.39,4.61-.49,6.91a2.94,2.94,0,0,1-3.06,2.83H176A3,3,0,0,1,173.32,113.23Z"/><path class="cls-75" d="M347.18,221.22a3,3,0,0,0,1.74-.36c1.39-.79,2.8-1.61,4.17-2.46a3,3,0,0,0-3.1-5c-1.31.81-2.64,1.59-4,2.34a3,3,0,0,0,1.16,5.51Z"/></g><path class="cls-75" d="M360.91,172.48a1.37,1.37,0,0,0,.26-1.58l-7.36-15.1a73,73,0,0,0,9.08-21.91l15.88-5.47a1.39,1.39,0,0,0,.93-1.31V107a1.38,1.38,0,0,0-.94-1.3l-15.87-5.48a73.09,73.09,0,0,0-9.08-21.9l7.35-15.1a1.37,1.37,0,0,0-.26-1.58L346.65,47.35a1.37,1.37,0,0,0-1.58-.27L330,54.44a73.24,73.24,0,0,0-21.9-9.08l-5.47-15.87a1.39,1.39,0,0,0-1.31-.93H281.13a1.38,1.38,0,0,0-1.31.93l-5.47,15.87a73.26,73.26,0,0,0-21.9,9.09l-15.11-7.36a1.37,1.37,0,0,0-1.58.27L221.51,61.61a1.38,1.38,0,0,0-.26,1.58l7.36,15.1a73,73,0,0,0-9.08,21.91l-15.87,5.47a1.39,1.39,0,0,0-.94,1.31v20.15a1.37,1.37,0,0,0,.93,1.3l15.87,5.48a73.35,73.35,0,0,0,9.08,21.9l-7.35,15.1a1.38,1.38,0,0,0,.26,1.58l14.25,14.25a1.37,1.37,0,0,0,1.58.27l15.11-7.36a73.35,73.35,0,0,0,21.9,9.08l5.48,15.87a1.37,1.37,0,0,0,1.3.93h20.15a1.38,1.38,0,0,0,1.31-.93l5.47-15.88a73,73,0,0,0,21.9-9.08L345.08,187a1.37,1.37,0,0,0,1.58-.27Z"/><path class="cls-78" d="M286.25,136.69a20.29,20.29,0,1,1,2.93.51A21.67,21.67,0,0,1,286.25,136.69Zm-3-33A15.53,15.53,0,1,0,295,102a14.79,14.79,0,0,0-2.27-.4A15.35,15.35,0,0,0,283.25,103.71Z"/><path class="cls-79" d="M285.83,166.27a50.82,50.82,0,0,0,5.11.26h0q.81,0,1.62,0a49,49,0,0,0,7.93-.89l.1,0,.31-.06.58-.12a1.18,1.18,0,1,0-.49-2.31,47.55,47.55,0,0,1-50.09-20.95,47.13,47.13,0,0,1-7.41-25.43c0-1.64.08-3.27.24-4.88a47.45,47.45,0,0,1,94.65,4.87c0,1.62-.08,3.22-.24,4.82a47.34,47.34,0,0,1-6.48,19.55,1.09,1.09,0,0,0-.16.49,1.17,1.17,0,0,0,.56,1.13,1.2,1.2,0,0,0,1.63-.41,49.82,49.82,0,1,0-92.31-30.69,51.17,51.17,0,0,0-.26,5.12,49.84,49.84,0,0,0,44.71,49.55Z"/><g class="cls-77"><path class="cls-75" d="M495.93,232.06a1.84,1.84,0,0,0,1.88-1.12c.58-1.44,1.13-2.91,1.62-4.38a1.82,1.82,0,0,0-3.45-1.17c-.47,1.4-1,2.8-1.55,4.17a1.83,1.83,0,0,0,1,2.38A1.46,1.46,0,0,0,495.93,232.06Z"/><path class="cls-75" d="M499.82,218.61a1.83,1.83,0,0,1-1.42-2.16c.51-2.49.9-5,1.16-7.56.05-.54.1-1.07.14-1.61a1.83,1.83,0,0,1,2-1.67,1.89,1.89,0,0,1,1.67,2c0,.56-.1,1.13-.15,1.68a78.86,78.86,0,0,1-1.22,7.94,1.81,1.81,0,0,1-2,1.44Zm.06-20.59a75,75,0,0,0-1-9.22,1.82,1.82,0,1,1,3.6-.6,78.08,78.08,0,0,1,1,9.66,1.82,1.82,0,0,1-1.74,1.9,1.22,1.22,0,0,1-.27,0A1.82,1.82,0,0,1,499.88,198Zm-3.05-18.24a74.85,74.85,0,0,0-3.19-8.7,1.82,1.82,0,0,1,3.34-1.47,78.44,78.44,0,0,1,3.35,9.12A1.82,1.82,0,0,1,499.1,181a1.86,1.86,0,0,1-.7.07A1.83,1.83,0,0,1,496.83,179.78Zm-7.43-16.94a78.15,78.15,0,0,0-5.22-7.65,1.82,1.82,0,0,1,2.88-2.24,78.31,78.31,0,0,1,5.47,8,1.82,1.82,0,0,1-.63,2.5,1.93,1.93,0,0,1-1.11.25A1.84,1.84,0,0,1,489.4,162.84Zm-11.34-14.6a76.12,76.12,0,0,0-6.92-6.16,1.82,1.82,0,1,1,2.25-2.86,80.55,80.55,0,0,1,7.25,6.44,1.83,1.83,0,0,1-1.47,3.11A1.87,1.87,0,0,1,478.06,148.24Zm-14.55-11.41a74.21,74.21,0,0,0-8.2-4.28,1.82,1.82,0,1,1,1.48-3.33,80.8,80.8,0,0,1,8.61,4.48,1.83,1.83,0,0,1-1.13,3.38A2,2,0,0,1,463.51,136.83Zm-16.88-7.51a76.6,76.6,0,0,0-9-2.13,1.82,1.82,0,1,1,.62-3.59,80.07,80.07,0,0,1,9.45,2.23,1.83,1.83,0,0,1,1.21,2.28,1.81,1.81,0,0,1-1.93,1.28A1.37,1.37,0,0,1,446.63,129.32Zm-29.44-4.69a1.81,1.81,0,0,1,1.68-1.95,78.9,78.9,0,0,1,8.43-.18l1.28,0a1.82,1.82,0,0,1-.18,3.64l-1.2,0a74.5,74.5,0,0,0-8.06.17h-.32A1.82,1.82,0,0,1,417.19,124.63Z"/></g><g class="cls-77"><path class="cls-75" d="M415.78,279.52a78.84,78.84,0,0,1-9.41-1.66,1.83,1.83,0,0,1,.85-3.55,73.33,73.33,0,0,0,9,1.58,1.83,1.83,0,0,1-.4,3.63Zm7.71-1.3a1.82,1.82,0,0,1,1.81-1.84,76.65,76.65,0,0,0,9.09-.6,1.82,1.82,0,1,1,.46,3.62,79.85,79.85,0,0,1-9.53.63h-.2A1.81,1.81,0,0,1,423.49,278.22Zm-26.26-3.15a78.15,78.15,0,0,1-8.72-3.88,1.82,1.82,0,0,1,1.68-3.24,75.53,75.53,0,0,0,8.32,3.71,1.82,1.82,0,0,1-.82,3.52A2,2,0,0,1,397.23,275.07ZM442,276.3a1.82,1.82,0,0,1,1.32-2.22A75.39,75.39,0,0,0,452,271.3a1.83,1.83,0,0,1,1.33,3.4,80.47,80.47,0,0,1-9.11,2.92,1.91,1.91,0,0,1-.63,0A1.81,1.81,0,0,1,442,276.3Zm-61.71-10a78.94,78.94,0,0,1-7.54-5.87,1.82,1.82,0,0,1,2.41-2.73,76,76,0,0,0,7.19,5.59,1.82,1.82,0,0,1,.47,2.54,1.82,1.82,0,0,1-2.53.47ZM366,253.69a81.81,81.81,0,0,1-5.91-7.5,1.82,1.82,0,1,1,3-2.09,76.26,76.26,0,0,0,5.65,7.16,1.83,1.83,0,0,1-1.55,3A1.88,1.88,0,0,1,366,253.69ZM355.12,238a78.14,78.14,0,0,1-3.95-8.7,1.82,1.82,0,0,1,3.41-1.3,75.38,75.38,0,0,0,3.76,8.3,1.82,1.82,0,1,1-3.22,1.7Z"/><path class="cls-75" d="M461.05,270.87a1.86,1.86,0,0,0,1.05-.21c1.38-.74,2.74-1.53,4-2.33a1.82,1.82,0,1,0-1.91-3.11c-1.25.77-2.55,1.52-3.86,2.23a1.82,1.82,0,0,0,.68,3.42Z"/></g><path class="cls-75" d="M471.45,237.73a.93.93,0,0,0,.18-1.06l-4.92-10.1a49.12,49.12,0,0,0,6.07-14.66l10.62-3.66a.92.92,0,0,0,.63-.88V193.89a.91.91,0,0,0-.62-.87l-10.62-3.67a48.82,48.82,0,0,0-6.08-14.65l4.93-10.11a.93.93,0,0,0-.18-1.06L461.91,154a.93.93,0,0,0-1.06-.18l-10.1,4.92a49.12,49.12,0,0,0-14.66-6.07l-3.66-10.62a.93.93,0,0,0-.88-.62H418.07a.93.93,0,0,0-.88.62l-3.66,10.62a48.82,48.82,0,0,0-14.65,6.08l-10.11-4.92a.91.91,0,0,0-1.06.17l-9.53,9.54a.93.93,0,0,0-.18,1.06l4.92,10.1a49.23,49.23,0,0,0-6.07,14.66L366.23,193a.92.92,0,0,0-.63.88v13.48a.93.93,0,0,0,.62.88l10.62,3.66a49,49,0,0,0,6.08,14.66L378,236.68a.91.91,0,0,0,.17,1.06l9.54,9.53a.93.93,0,0,0,1.06.18l10.1-4.92a48.86,48.86,0,0,0,14.66,6.07l3.66,10.62a.92.92,0,0,0,.88.63h13.48a.92.92,0,0,0,.88-.63l3.66-10.62a48.82,48.82,0,0,0,14.65-6.08l10.11,4.93a.93.93,0,0,0,1.06-.18Z"/><path class="cls-80" d="M421.44,214a13.8,13.8,0,1,1,2,.35A15.67,15.67,0,0,1,421.44,214ZM415,198.15a10.16,10.16,0,0,0,7.36,12.33h0a10.15,10.15,0,0,0,5-19.69,10.75,10.75,0,0,0-1.47-.25A10.17,10.17,0,0,0,415,198.15Z"/><path class="cls-81" d="M421.14,234.61c1.15.11,2.31.17,3.49.17a34.71,34.71,0,0,0,7-.71l.31-.06a1.83,1.83,0,0,0,1.43-1.6,1.57,1.57,0,0,0,0-.57,1.82,1.82,0,0,0-2.16-1.4,30.89,30.89,0,0,1-6.51.69h-.36a30.52,30.52,0,0,1-21.16-8.8l-.05,0-.15-.15a30.53,30.53,0,0,1-9-21.72c0-1.06.06-2.12.16-3.16a30.72,30.72,0,0,1,61.28,3.15c0,1.05-.06,2.09-.16,3.12a30.66,30.66,0,0,1-4.2,12.66,1.82,1.82,0,0,0,.63,2.5,1.82,1.82,0,0,0,2.5-.63,34.27,34.27,0,0,0,4.7-14.16,33.65,33.65,0,0,0,.17-3.48,34.37,34.37,0,0,0-68.55-3.53c-.11,1.16-.17,2.34-.17,3.53A34.42,34.42,0,0,0,421.14,234.61Z"/></g></g></svg>