<svg xmlns="http://www.w3.org/2000/svg" xmlns:xlink="http://www.w3.org/1999/xlink" viewBox="0 0 836.86 833.49"><defs><style>.cls-1{fill:url(#linear-gradient);}.cls-2{fill:#bdd0fb;}.cls-3{fill:url(#linear-gradient-2);}.cls-4{fill:#91b3fa;}.cls-5{fill:url(#linear-gradient-3);}.cls-6{fill:url(#linear-gradient-4);}.cls-7{fill:url(#linear-gradient-5);}.cls-8{fill:url(#linear-gradient-6);}.cls-9{fill:url(#linear-gradient-7);}.cls-10{fill:url(#linear-gradient-8);}.cls-11{fill:url(#linear-gradient-9);}.cls-12{fill:url(#linear-gradient-10);}.cls-13{fill:url(#linear-gradient-11);}.cls-14{fill:url(#linear-gradient-12);}.cls-15{fill:url(#linear-gradient-13);}.cls-16{fill:url(#linear-gradient-14);}.cls-17{fill:url(#linear-gradient-15);}.cls-18{fill:url(#linear-gradient-16);}.cls-19{fill:url(#linear-gradient-17);}.cls-20{fill:url(#linear-gradient-18);}.cls-21{fill:url(#linear-gradient-19);}.cls-22{fill:url(#linear-gradient-20);}.cls-23{fill:url(#linear-gradient-21);}.cls-24{fill:url(#linear-gradient-22);}.cls-25{fill:url(#linear-gradient-23);}.cls-26{fill:url(#linear-gradient-24);}.cls-27{fill:url(#linear-gradient-25);}.cls-28{fill:url(#linear-gradient-26);}.cls-29{fill:url(#linear-gradient-27);}.cls-30{fill:url(#linear-gradient-28);}.cls-31{fill:url(#linear-gradient-29);}.cls-32{fill:url(#linear-gradient-30);}.cls-33{fill:url(#linear-gradient-31);}.cls-34{fill:url(#linear-gradient-32);}.cls-35{fill:url(#linear-gradient-33);}.cls-36{fill:url(#linear-gradient-34);}.cls-37{fill:url(#linear-gradient-35);}.cls-38{fill:url(#linear-gradient-36);}.cls-39{fill:url(#linear-gradient-37);}.cls-40{fill:url(#linear-gradient-38);}.cls-41{fill:url(#linear-gradient-39);}.cls-42{fill:url(#linear-gradient-40);}.cls-43{fill:url(#linear-gradient-41);}.cls-44{fill:url(#linear-gradient-42);}.cls-45{fill:url(#linear-gradient-43);}.cls-46{fill:url(#linear-gradient-44);}.cls-47{fill:url(#linear-gradient-45);}.cls-48{fill:url(#linear-gradient-46);}.cls-49{fill:url(#linear-gradient-47);}.cls-50{fill:url(#linear-gradient-48);}.cls-51{fill:url(#linear-gradient-49);}.cls-52{fill:url(#linear-gradient-50);}.cls-53{fill:url(#linear-gradient-51);}.cls-54{fill:url(#linear-gradient-52);}.cls-55{fill:url(#linear-gradient-53);}.cls-56{fill:url(#linear-gradient-54);}.cls-57{fill:url(#linear-gradient-55);}.cls-58{fill:url(#linear-gradient-56);}.cls-59{fill:url(#linear-gradient-57);}.cls-60{fill:url(#linear-gradient-58);}.cls-61{fill:url(#linear-gradient-59);}.cls-62{fill:url(#linear-gradient-60);}.cls-63{fill:url(#linear-gradient-61);}.cls-64{fill:url(#linear-gradient-62);}.cls-65{fill:url(#linear-gradient-63);}.cls-66{fill:url(#linear-gradient-64);}.cls-67{fill:url(#linear-gradient-65);}.cls-68{fill:url(#linear-gradient-66);}.cls-69{fill:url(#linear-gradient-67);}.cls-70{fill:url(#linear-gradient-68);}.cls-71{fill:url(#linear-gradient-69);}.cls-72{fill:url(#linear-gradient-70);}.cls-73{fill:url(#linear-gradient-71);}.cls-74{fill:url(#linear-gradient-72);}.cls-75{fill:url(#linear-gradient-73);}.cls-76{fill:url(#linear-gradient-74);}.cls-77{fill:url(#linear-gradient-75);}.cls-78{fill:url(#linear-gradient-76);}.cls-79{fill:url(#linear-gradient-77);}.cls-80{fill:url(#linear-gradient-78);}.cls-81{fill:url(#linear-gradient-79);}.cls-82{fill:url(#linear-gradient-80);}.cls-83{fill:url(#linear-gradient-81);}.cls-84{fill:url(#linear-gradient-82);}.cls-85{fill:url(#linear-gradient-83);}.cls-86{fill:url(#linear-gradient-84);}.cls-87{fill:url(#linear-gradient-85);}.cls-88{fill:url(#linear-gradient-86);}.cls-89{fill:url(#linear-gradient-87);}.cls-90{fill:url(#linear-gradient-88);}.cls-91{fill:#7d97f4;}.cls-92{opacity:0.3;}.cls-93{fill:url(#linear-gradient-89);}.cls-94{fill:url(#linear-gradient-90);}.cls-95{fill:url(#linear-gradient-91);}.cls-96{fill:url(#linear-gradient-92);}.cls-97{fill:url(#linear-gradient-93);}.cls-98{fill:url(#linear-gradient-94);}.cls-99{fill:url(#linear-gradient-95);}.cls-100{fill:url(#linear-gradient-96);}.cls-101{fill:url(#linear-gradient-97);}.cls-102{fill:url(#linear-gradient-98);}.cls-103{fill:url(#linear-gradient-99);}.cls-104{fill:url(#linear-gradient-100);}.cls-105{fill:url(#linear-gradient-101);}.cls-106{fill:url(#linear-gradient-102);}.cls-107{fill:url(#linear-gradient-103);}.cls-108{fill:url(#linear-gradient-104);}.cls-109{fill:url(#linear-gradient-105);}.cls-110{fill:url(#linear-gradient-106);}.cls-111{fill:url(#linear-gradient-107);}.cls-112{fill:url(#linear-gradient-108);}.cls-113{fill:url(#linear-gradient-109);}.cls-114{fill:url(#linear-gradient-110);}.cls-115{fill:url(#linear-gradient-111);}.cls-116{fill:url(#linear-gradient-112);}.cls-117{fill:url(#linear-gradient-113);}.cls-118{fill:url(#linear-gradient-114);}.cls-119{fill:url(#linear-gradient-115);}.cls-120{fill:url(#linear-gradient-116);}.cls-121{fill:url(#linear-gradient-117);}.cls-122{fill:url(#linear-gradient-118);}.cls-123{fill:url(#linear-gradient-119);}</style><linearGradient id="linear-gradient" x1="933.84" y1="1073.82" x2="199.82" y2="162.21" gradientUnits="userSpaceOnUse"><stop offset="0" stop-color="#dae3fe"/><stop offset="1" stop-color="#e9effd"/></linearGradient><linearGradient id="linear-gradient-2" x1="758.82" y1="202.07" x2="-270.87" y2="938.24" xlink:href="#linear-gradient"/><linearGradient id="linear-gradient-3" x1="-78.48" y1="266.41" x2="394" y2="315.9" gradientTransform="translate(281.41 578.74) rotate(-180)" gradientUnits="userSpaceOnUse"><stop offset="0" stop-color="#09005d"/><stop offset="1" stop-color="#1a0f91"/></linearGradient><linearGradient id="linear-gradient-4" x1="606.73" y1="343.02" x2="96.75" y2="275.52" gradientTransform="translate(402.74 578.74) rotate(-180)" xlink:href="#linear-gradient-3"/><linearGradient id="linear-gradient-5" x1="-1818.94" y1="-33.08" x2="-1852.45" y2="119.04" gradientTransform="matrix(-1, 0, 0, 1, -1640.27, 0)" gradientUnits="userSpaceOnUse"><stop offset="0" stop-color="#4f52ff"/><stop offset="1" stop-color="#4042e2"/></linearGradient><linearGradient id="linear-gradient-6" x1="-1818.94" y1="59.81" x2="-1852.45" y2="211.93" xlink:href="#linear-gradient-5"/><linearGradient id="linear-gradient-7" x1="-1818.94" y1="158.41" x2="-1852.45" y2="310.53" xlink:href="#linear-gradient-5"/><linearGradient id="linear-gradient-8" x1="-1818.94" y1="251.31" x2="-1852.45" y2="403.42" xlink:href="#linear-gradient-5"/><linearGradient id="linear-gradient-9" x1="-1820.1" y1="346.59" x2="-1853.61" y2="498.7" xlink:href="#linear-gradient-5"/><linearGradient id="linear-gradient-10" x1="-1818.94" y1="441.73" x2="-1852.45" y2="593.84" xlink:href="#linear-gradient-5"/><linearGradient id="linear-gradient-11" x1="-1922.9" y1="47.79" x2="-1925.79" y2="60.93" xlink:href="#linear-gradient-5"/><linearGradient id="linear-gradient-12" x1="-1922.9" y1="141.85" x2="-1925.79" y2="154.99" xlink:href="#linear-gradient-5"/><linearGradient id="linear-gradient-13" x1="-1922.9" y1="238.71" x2="-1925.79" y2="251.85" xlink:href="#linear-gradient-5"/><linearGradient id="linear-gradient-14" x1="-1922.9" y1="333.34" x2="-1925.79" y2="346.48" xlink:href="#linear-gradient-5"/><linearGradient id="linear-gradient-15" x1="-1922.9" y1="428.62" x2="-1925.79" y2="441.76" xlink:href="#linear-gradient-5"/><linearGradient id="linear-gradient-16" x1="-1924.83" y1="523.76" x2="-1927.72" y2="536.9" xlink:href="#linear-gradient-5"/><linearGradient id="linear-gradient-17" x1="-2027.7" y1="616.68" x2="-1810.65" y2="491.46" gradientTransform="matrix(1, 0, 0, -1, 2161.22, 1086.87)" xlink:href="#linear-gradient-5"/><linearGradient id="linear-gradient-18" x1="-2023.25" y1="625.57" x2="-1804.52" y2="499.38" gradientTransform="matrix(1, 0, 0, -1, 2136.84, 1095.72)" xlink:href="#linear-gradient-5"/><linearGradient id="linear-gradient-19" x1="-2022.59" y1="621.29" x2="-1806.95" y2="496.88" gradientTransform="matrix(1, 0, 0, -1, 2112.46, 1073.85)" xlink:href="#linear-gradient-5"/><linearGradient id="linear-gradient-20" x1="-2016.42" y1="639.48" x2="-1795.1" y2="511.8" gradientTransform="matrix(1, 0, 0, -1, 2088.09, 1103.31)" xlink:href="#linear-gradient-5"/><linearGradient id="linear-gradient-21" x1="-2014.64" y1="633.35" x2="-1798.53" y2="508.67" gradientTransform="matrix(1, 0, 0, -1, 2063.71, 1079.03)" xlink:href="#linear-gradient-5"/><linearGradient id="linear-gradient-22" x1="-2010.31" y1="640.8" x2="-1793.54" y2="515.74" gradientTransform="matrix(1, 0, 0, -1, 2039.34, 1084.85)" xlink:href="#linear-gradient-5"/><linearGradient id="linear-gradient-23" x1="-2006.19" y1="648.61" x2="-1788.43" y2="522.98" gradientTransform="matrix(1, 0, 0, -1, 2014.96, 1091.17)" xlink:href="#linear-gradient-5"/><linearGradient id="linear-gradient-24" x1="-2005.94" y1="642.92" x2="-1790.84" y2="518.82" gradientTransform="matrix(1, 0, 0, -1, 1990.59, 1066.01)" xlink:href="#linear-gradient-5"/><linearGradient id="linear-gradient-25" x1="-2001.55" y1="649.88" x2="-1786.13" y2="525.6" gradientTransform="matrix(1, 0, 0, -1, 1966.21, 1070.94)" xlink:href="#linear-gradient-5"/><linearGradient id="linear-gradient-26" x1="-1996.92" y1="657.97" x2="-1780.87" y2="533.33" gradientTransform="matrix(1, 0, 0, -1, 1941.84, 1078.4)" xlink:href="#linear-gradient-5"/><linearGradient id="linear-gradient-27" x1="-1993.15" y1="675.71" x2="-1771.42" y2="547.79" gradientTransform="matrix(1, 0, 0, -1, 1917.46, 1104.17)" xlink:href="#linear-gradient-5"/><linearGradient id="linear-gradient-28" x1="-1988.88" y1="672.07" x2="-1771.7" y2="546.78" gradientTransform="matrix(1, 0, 0, -1, 1893.09, 1087.76)" xlink:href="#linear-gradient-5"/><linearGradient id="linear-gradient-29" x1="-2027.5" y1="520.05" x2="-1810.45" y2="394.83" gradientTransform="matrix(1, 0, 0, -1, 2160.82, 893.61)" xlink:href="#linear-gradient-5"/><linearGradient id="linear-gradient-30" x1="-2023.06" y1="528.94" x2="-1804.32" y2="402.75" gradientTransform="matrix(1, 0, 0, -1, 2136.45, 902.46)" xlink:href="#linear-gradient-5"/><linearGradient id="linear-gradient-31" x1="-2022.4" y1="524.66" x2="-1806.75" y2="400.25" gradientTransform="matrix(1, 0, 0, -1, 2112.07, 880.59)" xlink:href="#linear-gradient-5"/><linearGradient id="linear-gradient-32" x1="-2016.22" y1="542.85" x2="-1794.91" y2="415.17" gradientTransform="matrix(1, 0, 0, -1, 2087.7, 910.05)" xlink:href="#linear-gradient-5"/><linearGradient id="linear-gradient-33" x1="-2014.44" y1="536.72" x2="-1798.34" y2="412.05" gradientTransform="matrix(1, 0, 0, -1, 2063.32, 885.78)" xlink:href="#linear-gradient-5"/><linearGradient id="linear-gradient-34" x1="-2010.12" y1="544.17" x2="-1793.35" y2="419.11" gradientTransform="matrix(1, 0, 0, -1, 2038.95, 891.59)" xlink:href="#linear-gradient-5"/><linearGradient id="linear-gradient-35" x1="-2005.99" y1="551.98" x2="-1788.23" y2="426.35" gradientTransform="matrix(1, 0, 0, -1, 2014.57, 897.91)" xlink:href="#linear-gradient-5"/><linearGradient id="linear-gradient-36" x1="-2005.75" y1="546.29" x2="-1790.65" y2="422.19" gradientTransform="matrix(1, 0, 0, -1, 1990.2, 872.76)" xlink:href="#linear-gradient-5"/><linearGradient id="linear-gradient-37" x1="-2001.36" y1="553.25" x2="-1785.93" y2="428.97" gradientTransform="matrix(1, 0, 0, -1, 1965.82, 877.69)" xlink:href="#linear-gradient-5"/><linearGradient id="linear-gradient-38" x1="-1996.72" y1="561.34" x2="-1780.67" y2="436.7" gradientTransform="matrix(1, 0, 0, -1, 1941.45, 885.14)" xlink:href="#linear-gradient-5"/><linearGradient id="linear-gradient-39" x1="-1992.96" y1="579.09" x2="-1771.23" y2="451.16" gradientTransform="matrix(1, 0, 0, -1, 1917.07, 910.91)" xlink:href="#linear-gradient-5"/><linearGradient id="linear-gradient-40" x1="-1988.69" y1="575.45" x2="-1771.51" y2="450.15" gradientTransform="matrix(1, 0, 0, -1, 1892.69, 894.5)" xlink:href="#linear-gradient-5"/><linearGradient id="linear-gradient-41" x1="-2030.05" y1="425.16" x2="-1813" y2="299.93" gradientTransform="matrix(1, 0, 0, -1, 2165.91, 703.82)" xlink:href="#linear-gradient-5"/><linearGradient id="linear-gradient-42" x1="-2025.6" y1="434.05" x2="-1806.86" y2="307.85" gradientTransform="matrix(1, 0, 0, -1, 2141.54, 712.67)" xlink:href="#linear-gradient-5"/><linearGradient id="linear-gradient-43" x1="-2024.94" y1="429.76" x2="-1809.3" y2="305.35" gradientTransform="matrix(1, 0, 0, -1, 2117.16, 690.8)" xlink:href="#linear-gradient-5"/><linearGradient id="linear-gradient-44" x1="-2018.77" y1="447.96" x2="-1797.45" y2="320.27" gradientTransform="matrix(1, 0, 0, -1, 2092.79, 720.26)" xlink:href="#linear-gradient-5"/><linearGradient id="linear-gradient-45" x1="-2016.99" y1="441.83" x2="-1800.88" y2="317.15" gradientTransform="matrix(1, 0, 0, -1, 2068.41, 695.98)" xlink:href="#linear-gradient-5"/><linearGradient id="linear-gradient-46" x1="-2012.66" y1="449.27" x2="-1795.89" y2="324.21" gradientTransform="matrix(1, 0, 0, -1, 2044.04, 701.8)" xlink:href="#linear-gradient-5"/><linearGradient id="linear-gradient-47" x1="-2008.54" y1="457.08" x2="-1790.78" y2="331.45" gradientTransform="matrix(1, 0, 0, -1, 2019.66, 708.12)" xlink:href="#linear-gradient-5"/><linearGradient id="linear-gradient-48" x1="-2008.29" y1="451.39" x2="-1793.19" y2="327.3" gradientTransform="matrix(1, 0, 0, -1, 1995.29, 682.96)" xlink:href="#linear-gradient-5"/><linearGradient id="linear-gradient-49" x1="-2003.9" y1="458.36" x2="-1788.48" y2="334.07" gradientTransform="matrix(1, 0, 0, -1, 1970.91, 687.89)" xlink:href="#linear-gradient-5"/><linearGradient id="linear-gradient-50" x1="-1999.26" y1="466.44" x2="-1783.22" y2="341.8" gradientTransform="matrix(1, 0, 0, -1, 1946.53, 695.35)" xlink:href="#linear-gradient-5"/><linearGradient id="linear-gradient-51" x1="-1995.5" y1="484.19" x2="-1773.77" y2="356.27" gradientTransform="matrix(1, 0, 0, -1, 1922.16, 721.12)" xlink:href="#linear-gradient-5"/><linearGradient id="linear-gradient-52" x1="-1991.23" y1="480.55" x2="-1774.05" y2="355.25" gradientTransform="matrix(1, 0, 0, -1, 1897.78, 704.71)" xlink:href="#linear-gradient-5"/><linearGradient id="linear-gradient-53" x1="-2029.85" y1="331.99" x2="-1812.8" y2="206.77" gradientTransform="matrix(1, 0, 0, -1, 2165.52, 517.49)" xlink:href="#linear-gradient-5"/><linearGradient id="linear-gradient-54" x1="-2025.4" y1="340.88" x2="-1806.67" y2="214.69" gradientTransform="matrix(1, 0, 0, -1, 2141.15, 526.34)" xlink:href="#linear-gradient-5"/><linearGradient id="linear-gradient-55" x1="-2024.74" y1="336.59" x2="-1809.1" y2="212.19" gradientTransform="matrix(1, 0, 0, -1, 2116.77, 504.47)" xlink:href="#linear-gradient-5"/><linearGradient id="linear-gradient-56" x1="-2018.57" y1="354.79" x2="-1797.25" y2="227.11" gradientTransform="matrix(1, 0, 0, -1, 2092.39, 533.93)" xlink:href="#linear-gradient-5"/><linearGradient id="linear-gradient-57" x1="-2016.79" y1="348.66" x2="-1800.68" y2="223.98" gradientTransform="matrix(1, 0, 0, -1, 2068.02, 509.65)" xlink:href="#linear-gradient-5"/><linearGradient id="linear-gradient-58" x1="-2012.47" y1="356.11" x2="-1795.7" y2="231.05" gradientTransform="matrix(1, 0, 0, -1, 2043.64, 515.47)" xlink:href="#linear-gradient-5"/><linearGradient id="linear-gradient-59" x1="-2008.34" y1="363.92" x2="-1790.58" y2="238.29" gradientTransform="matrix(1, 0, 0, -1, 2019.27, 521.79)" xlink:href="#linear-gradient-5"/><linearGradient id="linear-gradient-60" x1="-2008.09" y1="358.23" x2="-1792.99" y2="234.13" gradientTransform="matrix(1, 0, 0, -1, 1994.89, 496.63)" xlink:href="#linear-gradient-5"/><linearGradient id="linear-gradient-61" x1="-2003.71" y1="365.19" x2="-1788.28" y2="240.91" gradientTransform="matrix(1, 0, 0, -1, 1970.52, 501.56)" xlink:href="#linear-gradient-5"/><linearGradient id="linear-gradient-62" x1="-1999.07" y1="373.28" x2="-1783.02" y2="248.64" gradientTransform="matrix(1, 0, 0, -1, 1946.14, 509.02)" xlink:href="#linear-gradient-5"/><linearGradient id="linear-gradient-63" x1="-1995.31" y1="391.02" x2="-1773.57" y2="263.1" gradientTransform="matrix(1, 0, 0, -1, 1921.77, 534.79)" xlink:href="#linear-gradient-5"/><linearGradient id="linear-gradient-64" x1="-1991.04" y1="387.38" x2="-1773.86" y2="262.09" gradientTransform="matrix(1, 0, 0, -1, 1897.39, 518.38)" xlink:href="#linear-gradient-5"/><linearGradient id="linear-gradient-65" x1="-2030.05" y1="233.86" x2="-1813" y2="108.64" gradientTransform="matrix(1, 0, 0, -1, 2165.91, 321.23)" xlink:href="#linear-gradient-5"/><linearGradient id="linear-gradient-66" x1="-2025.6" y1="242.75" x2="-1806.86" y2="116.56" gradientTransform="matrix(1, 0, 0, -1, 2141.54, 330.08)" xlink:href="#linear-gradient-5"/><linearGradient id="linear-gradient-67" x1="-2024.94" y1="238.47" x2="-1809.3" y2="114.06" gradientTransform="matrix(1, 0, 0, -1, 2117.16, 308.21)" xlink:href="#linear-gradient-5"/><linearGradient id="linear-gradient-68" x1="-2018.77" y1="256.66" x2="-1797.45" y2="128.98" gradientTransform="matrix(1, 0, 0, -1, 2092.79, 337.67)" xlink:href="#linear-gradient-5"/><linearGradient id="linear-gradient-69" x1="-2016.99" y1="250.53" x2="-1800.88" y2="125.85" gradientTransform="matrix(1, 0, 0, -1, 2068.41, 313.4)" xlink:href="#linear-gradient-5"/><linearGradient id="linear-gradient-70" x1="-2012.66" y1="257.98" x2="-1795.89" y2="132.92" gradientTransform="matrix(1, 0, 0, -1, 2044.04, 319.21)" xlink:href="#linear-gradient-5"/><linearGradient id="linear-gradient-71" x1="-2008.54" y1="265.79" x2="-1790.78" y2="140.16" gradientTransform="matrix(1, 0, 0, -1, 2019.66, 325.53)" xlink:href="#linear-gradient-5"/><linearGradient id="linear-gradient-72" x1="-2008.29" y1="260.1" x2="-1793.19" y2="136" gradientTransform="matrix(1, 0, 0, -1, 1995.29, 300.37)" xlink:href="#linear-gradient-5"/><linearGradient id="linear-gradient-73" x1="-2003.9" y1="267.06" x2="-1788.48" y2="142.78" gradientTransform="matrix(1, 0, 0, -1, 1970.91, 305.3)" xlink:href="#linear-gradient-5"/><linearGradient id="linear-gradient-74" x1="-1999.26" y1="275.15" x2="-1783.22" y2="150.51" gradientTransform="matrix(1, 0, 0, -1, 1946.53, 312.76)" xlink:href="#linear-gradient-5"/><linearGradient id="linear-gradient-75" x1="-1995.5" y1="292.89" x2="-1773.77" y2="164.97" gradientTransform="matrix(1, 0, 0, -1, 1922.16, 338.53)" xlink:href="#linear-gradient-5"/><linearGradient id="linear-gradient-76" x1="-1991.23" y1="289.25" x2="-1774.05" y2="163.96" gradientTransform="matrix(1, 0, 0, -1, 1897.78, 322.12)" xlink:href="#linear-gradient-5"/><linearGradient id="linear-gradient-77" x1="-2029.85" y1="140.7" x2="-1812.8" y2="15.48" gradientTransform="matrix(1, 0, 0, -1, 2165.52, 134.9)" xlink:href="#linear-gradient-5"/><linearGradient id="linear-gradient-78" x1="-2025.4" y1="149.59" x2="-1806.67" y2="23.39" gradientTransform="matrix(1, 0, 0, -1, 2141.15, 143.75)" xlink:href="#linear-gradient-5"/><linearGradient id="linear-gradient-79" x1="-2024.74" y1="145.3" x2="-1809.1" y2="20.89" gradientTransform="matrix(1, 0, 0, -1, 2116.77, 121.88)" xlink:href="#linear-gradient-5"/><linearGradient id="linear-gradient-80" x1="-2018.57" y1="163.5" x2="-1797.25" y2="35.82" gradientTransform="matrix(1, 0, 0, -1, 2092.39, 151.34)" xlink:href="#linear-gradient-5"/><linearGradient id="linear-gradient-81" x1="-2016.79" y1="157.37" x2="-1800.68" y2="32.69" gradientTransform="matrix(1, 0, 0, -1, 2068.02, 127.07)" xlink:href="#linear-gradient-5"/><linearGradient id="linear-gradient-82" x1="-2012.47" y1="164.81" x2="-1795.7" y2="39.75" gradientTransform="matrix(1, 0, 0, -1, 2043.64, 132.88)" xlink:href="#linear-gradient-5"/><linearGradient id="linear-gradient-83" x1="-2008.34" y1="172.62" x2="-1790.58" y2="46.99" gradientTransform="matrix(1, 0, 0, -1, 2019.27, 139.2)" xlink:href="#linear-gradient-5"/><linearGradient id="linear-gradient-84" x1="-2008.09" y1="166.93" x2="-1792.99" y2="42.84" gradientTransform="matrix(1, 0, 0, -1, 1994.89, 114.04)" xlink:href="#linear-gradient-5"/><linearGradient id="linear-gradient-85" x1="-2003.71" y1="173.9" x2="-1788.28" y2="49.62" gradientTransform="matrix(1, 0, 0, -1, 1970.52, 118.97)" xlink:href="#linear-gradient-5"/><linearGradient id="linear-gradient-86" x1="-1999.07" y1="181.98" x2="-1783.02" y2="57.34" gradientTransform="matrix(1, 0, 0, -1, 1946.14, 126.43)" xlink:href="#linear-gradient-5"/><linearGradient id="linear-gradient-87" x1="-1995.31" y1="199.73" x2="-1773.57" y2="71.81" gradientTransform="matrix(1, 0, 0, -1, 1921.77, 152.2)" xlink:href="#linear-gradient-5"/><linearGradient id="linear-gradient-88" x1="-1991.04" y1="196.09" x2="-1773.86" y2="70.79" gradientTransform="matrix(1, 0, 0, -1, 1897.39, 135.79)" xlink:href="#linear-gradient-5"/><linearGradient id="linear-gradient-89" x1="-814.47" y1="-85.78" x2="-594.73" y2="-85.78" gradientTransform="translate(1097.45 907.57) rotate(28.7)" xlink:href="#linear-gradient-5"/><linearGradient id="linear-gradient-90" x1="1490.45" y1="-204.26" x2="1502.8" y2="-204.26" gradientTransform="matrix(-0.91, -0.42, -0.42, 0.91, 1701.52, 1212.48)" xlink:href="#linear-gradient-5"/><linearGradient id="linear-gradient-91" x1="1554.57" y1="-109.87" x2="1563.04" y2="-109.87" gradientTransform="matrix(-0.91, -0.42, -0.42, 0.91, 1701.52, 1212.48)" xlink:href="#linear-gradient-5"/><linearGradient id="linear-gradient-92" x1="-890.83" y1="58.48" x2="-665.09" y2="58.48" gradientTransform="translate(1097.45 907.57) rotate(28.7)" xlink:href="#linear-gradient-5"/><linearGradient id="linear-gradient-93" x1="1325.28" y1="32.47" x2="1337.48" y2="32.47" gradientTransform="matrix(-0.91, -0.42, -0.42, 0.91, 1701.52, 1212.48)" xlink:href="#linear-gradient-5"/><linearGradient id="linear-gradient-94" x1="-236.36" y1="75.69" x2="-347.94" y2="-104.54" gradientTransform="translate(684.87 703.4) rotate(35.37)" xlink:href="#linear-gradient-5"/><linearGradient id="linear-gradient-95" x1="1142.84" y1="27.62" x2="1148.87" y2="27.62" gradientTransform="matrix(-0.91, -0.42, -0.42, 0.91, 1701.52, 1212.48)" xlink:href="#linear-gradient-5"/><linearGradient id="linear-gradient-96" x1="-585.5" y1="12.69" x2="-461.35" y2="12.69" gradientTransform="translate(1097.45 907.57) rotate(28.7)" xlink:href="#linear-gradient-5"/><linearGradient id="linear-gradient-97" x1="-646.01" y1="131.78" x2="-508.71" y2="131.78" gradientTransform="translate(1097.45 907.57) rotate(28.7)" xlink:href="#linear-gradient-5"/><linearGradient id="linear-gradient-98" x1="1178.31" y1="81.6" x2="1187.53" y2="81.6" gradientTransform="matrix(-0.91, -0.42, -0.42, 0.91, 1701.52, 1212.48)" xlink:href="#linear-gradient-5"/><linearGradient id="linear-gradient-99" x1="-48.7" y1="7.48" x2="-140.96" y2="93.31" gradientTransform="translate(684.87 703.4) rotate(35.37)" xlink:href="#linear-gradient-5"/><linearGradient id="linear-gradient-100" x1="298.87" y1="1827.78" x2="303.77" y2="1827.78" gradientTransform="matrix(-0.55, 0.83, 0.83, 0.55, -594.3, -712.44)" xlink:href="#linear-gradient-5"/><linearGradient id="linear-gradient-101" x1="393.37" y1="1768.81" x2="494.37" y2="1768.81" gradientTransform="matrix(0.61, -0.8, 0.8, 0.61, -986.58, -161.52)" xlink:href="#linear-gradient-5"/><linearGradient id="linear-gradient-102" x1="344.13" y1="1865.69" x2="455.83" y2="1865.69" gradientTransform="matrix(0.61, -0.8, 0.8, 0.61, -986.58, -161.52)" xlink:href="#linear-gradient-5"/><linearGradient id="linear-gradient-103" x1="327.72" y1="1871.69" x2="335.22" y2="1871.69" gradientTransform="matrix(-0.55, 0.83, 0.83, 0.55, -594.3, -712.44)" xlink:href="#linear-gradient-5"/><linearGradient id="linear-gradient-104" x1="387.39" y1="213.2" x2="436.74" y2="108.06" gradientTransform="matrix(0.96, 0.27, -0.27, 0.96, 361.18, 321.52)" xlink:href="#linear-gradient-5"/><linearGradient id="linear-gradient-105" x1="221.03" y1="802.91" x2="216.49" y2="836.39" gradientTransform="matrix(1, 0, 0, 1, 0, 0)" xlink:href="#linear-gradient-3"/><linearGradient id="linear-gradient-106" x1="219.32" y1="828.18" x2="208.82" y2="894.85" gradientTransform="matrix(1, 0, 0, 1, 0, 0)" xlink:href="#linear-gradient-3"/><linearGradient id="linear-gradient-107" x1="201.07" y1="809.21" x2="219.08" y2="809.21" gradientUnits="userSpaceOnUse"><stop offset="0" stop-color="#febbba"/><stop offset="1" stop-color="#ff928e"/></linearGradient><linearGradient id="linear-gradient-108" x1="8.62" y1="811.77" x2="-26.39" y2="841.06" gradientTransform="matrix(1, 0, 0, 1, 0, 0)" xlink:href="#linear-gradient-3"/><linearGradient id="linear-gradient-109" x1="0.33" y1="805.35" x2="31" y2="805.35" gradientTransform="matrix(1, 0, 0, 1, 0, 0)" xlink:href="#linear-gradient-3"/><linearGradient id="linear-gradient-110" x1="7.75" y1="785.04" x2="27.79" y2="785.04" xlink:href="#linear-gradient-107"/><linearGradient id="linear-gradient-111" x1="171.52" y1="684.17" x2="27.07" y2="812.3" gradientTransform="matrix(1, 0, 0, 1, 0, 0)" xlink:href="#linear-gradient-3"/><linearGradient id="linear-gradient-112" x1="250.9" y1="687.99" x2="163.47" y2="765.54" gradientTransform="matrix(1, 0, 0, 1, 0, 0)" xlink:href="#linear-gradient-3"/><linearGradient id="linear-gradient-113" x1="265.43" y1="588.43" x2="295.17" y2="572.82" xlink:href="#linear-gradient-107"/><linearGradient id="linear-gradient-114" x1="314.29" y1="566.49" x2="314.88" y2="618.61" xlink:href="#linear-gradient-107"/><linearGradient id="linear-gradient-115" x1="4517.85" y1="5133.41" x2="4557.6" y2="5184.59" gradientTransform="translate(3683.59 -5412.96) rotate(70.65)" xlink:href="#linear-gradient-3"/><linearGradient id="linear-gradient-116" x1="4543.25" y1="5152.81" x2="4499.35" y2="5186.4" gradientTransform="translate(3683.59 -5412.96) rotate(70.65)" xlink:href="#linear-gradient-107"/><linearGradient id="linear-gradient-117" x1="1635.04" y1="4193.84" x2="1687.79" y2="4193.84" gradientTransform="matrix(0.41, -0.7, -0.86, -0.51, 3334.88, 3877.37)" xlink:href="#linear-gradient-107"/><linearGradient id="linear-gradient-118" x1="646.92" y1="402.56" x2="486.43" y2="498.55" gradientUnits="userSpaceOnUse"><stop offset="0" stop-color="#ff928e"/><stop offset="1" stop-color="#bc5a7c"/></linearGradient><linearGradient id="linear-gradient-119" x1="338.17" y1="428.87" x2="207.36" y2="775.28" gradientUnits="userSpaceOnUse"><stop offset="0" stop-color="#e1473d"/><stop offset="1" stop-color="#872b4d"/></linearGradient></defs><g id="Layer_2" data-name="Layer 2"><g id="Metaphor_illustration" data-name="Metaphor illustration"><path class="cls-1" d="M731.91,714.31c-16.86,17.75-32.82,29.2-45.42,38.24C538.33,858.86,363,827.87,325.76,820.3c-55-11.17-161.37-32.77-238.26-123.19-116.32-136.8-98.21-352.33-8-494.6C96,176.49,183.21,32.05,360.41,8.89,467.65-5.13,592.65,23.15,683.18,99,873.2,258.19,859.67,579.8,731.91,714.31Z"/><path class="cls-2" d="M500.17,588.92s-2.72-114.35,49.95-145S702.93,394.22,706.69,230c2.19-96.12,4.57-138.15,6.17-156.48A10.83,10.83,0,0,0,700.07,62c-49.88,9.4-211.92,48.07-245.9,158.68C413.9,351.75,500.17,588.92,500.17,588.92Z"/><path class="cls-3" d="M661.5,107.63c-54.76,48.84-118.07,135.26-151.82,221.69-4.33,14.24-17,44.53-22.51,98.35-4.91,44.89-2.47,92.32,3.49,123.71a3.67,3.67,0,0,0,4.28,2.92c3.41-.65,3-4.32,2.93-4.21-6.81-53.64-4-120.4,11.61-180.65,19.92-74,64.36-145.68,110.33-206.51l4.73-6c35.61-45.73,43.1-46.07,39.77-49.26A2.08,2.08,0,0,0,661.5,107.63Z"/><path class="cls-4" d="M559.79,714.42C553.11,718.7,616.54,617,623,468c3-70.22-6.7-156.64,28.77-194.44,29.52-31.46,142.79-26.7,180-24.22a5.49,5.49,0,0,1,3.63,9.26c-15.78,16.66-49.16,55.52-54.9,91.49-7.57,47.41-47.9,81.63-86.09,94s-59.07,22.55-71,87.26S578.78,702.25,559.79,714.42Z"/><path class="cls-2" d="M782.73,274.63c-46.22,7.27-93.65,34.16-114.4,76.8l-2,4.07c-4.49,9.52-28.51,76.32-39.87,130.71a1.25,1.25,0,0,0,1,1.48,1.27,1.27,0,0,0,1.47-.93c8.71-31,21.78-70.5,32.4-100.15,11.34-32.33,19.34-54.26,50.91-78,35.22-25.71,71-32,70.85-32a1,1,0,0,0-.37-2Z"/><rect class="cls-5" x="21.02" width="239.36" height="578.74" rx="10.26" transform="translate(281.41 578.74) rotate(180)"/><rect class="cls-6" x="81.69" width="239.36" height="578.74" rx="16.26" transform="translate(402.74 578.74) rotate(180)"/><path class="cls-7" d="M97.7,73.66V39.76c0-6.66,4.16-12.08,9.26-12.08h183c5.11,0,9.27,5.42,9.27,12.08v33.9c0,6.66-4.16,12.08-9.27,12.08H107C101.86,85.74,97.7,80.32,97.7,73.66Zm9.26-43c-3.83,0-6.94,4.06-6.94,9.06v33.9c0,5,3.11,9.06,6.94,9.06h183c3.84,0,6.95-4.06,6.95-9.06V39.76c0-5-3.11-9.06-6.95-9.06Z"/><path class="cls-8" d="M97.7,166.56V132.65c0-6.66,4.16-12.08,9.26-12.08h183c5.11,0,9.27,5.42,9.27,12.08v33.91c0,6.66-4.16,12.07-9.27,12.07H107C101.86,178.63,97.7,173.22,97.7,166.56Zm9.26-43c-3.83,0-6.94,4.07-6.94,9.06v33.91c0,5,3.11,9.05,6.94,9.05h183c3.84,0,6.95-4.06,6.95-9.05V132.65c0-5-3.11-9.06-6.95-9.06Z"/><path class="cls-9" d="M97.7,265.15v-33.9c0-6.66,4.16-12.08,9.26-12.08h183c5.11,0,9.27,5.42,9.27,12.08v33.9c0,6.66-4.16,12.08-9.27,12.08H107C101.86,277.23,97.7,271.81,97.7,265.15Zm9.26-43c-3.83,0-6.94,4.06-6.94,9.06v33.9c0,5,3.11,9.06,6.94,9.06h183c3.84,0,6.95-4.06,6.95-9.06v-33.9c0-5-3.11-9.06-6.95-9.06Z"/><path class="cls-10" d="M97.7,358.05V324.14c0-6.66,4.16-12.07,9.26-12.07h183c5.11,0,9.27,5.41,9.27,12.07v33.91c0,6.66-4.16,12.08-9.27,12.08H107C101.86,370.13,97.7,364.71,97.7,358.05Zm9.26-43c-3.83,0-6.94,4.07-6.94,9.06v33.91c0,5,3.11,9.06,6.94,9.06h183c3.84,0,6.95-4.07,6.95-9.06V324.14c0-5-3.11-9.06-6.95-9.06Z"/><path class="cls-11" d="M98.86,453.33V419.42c0-6.65,4.15-12.07,9.26-12.07h183c5.11,0,9.27,5.42,9.27,12.07v33.91c0,6.66-4.16,12.08-9.27,12.08h-183C103,465.41,98.86,460,98.86,453.33Zm9.26-43c-3.83,0-7,4.06-7,9.05v33.91c0,5,3.12,9.06,7,9.06h183c3.83,0,7-4.06,7-9.06V419.42c0-5-3.12-9.05-7-9.05Z"/><path class="cls-12" d="M97.7,548.47V514.56c0-6.66,4.16-12.07,9.26-12.07h183c5.11,0,9.27,5.41,9.27,12.07v33.91c0,6.66-4.16,12.08-9.27,12.08H107C101.86,560.55,97.7,555.13,97.7,548.47Zm9.26-43c-3.83,0-6.94,4.06-6.94,9v33.91c0,5,3.11,9.06,6.94,9.06h183c3.84,0,6.95-4.07,6.95-9.06V514.56c0-5-3.11-9-6.95-9Z"/><path class="cls-13" d="M279.9,55.55a4.45,4.45,0,1,0,4.44-4.15A4.3,4.3,0,0,0,279.9,55.55Z"/><path class="cls-14" d="M279.9,149.6a4.45,4.45,0,1,0,4.44-4.14A4.3,4.3,0,0,0,279.9,149.6Z"/><path class="cls-15" d="M279.9,246.47a4.45,4.45,0,1,0,4.44-4.15A4.31,4.31,0,0,0,279.9,246.47Z"/><path class="cls-16" d="M279.9,341.1a4.45,4.45,0,1,0,4.44-4.15A4.3,4.3,0,0,0,279.9,341.1Z"/><path class="cls-17" d="M279.9,436.38a4.45,4.45,0,1,0,4.44-4.15A4.31,4.31,0,0,0,279.9,436.38Z"/><path class="cls-18" d="M281.83,531.52a4.45,4.45,0,1,0,4.44-4.15A4.3,4.3,0,0,0,281.83,531.52Z"/><rect class="cls-19" x="256.83" y="530.56" width="7.29" height="25.75" transform="translate(520.95 1086.87) rotate(180)"/><rect class="cls-20" x="244.64" y="539.41" width="7.29" height="16.9" transform="translate(496.57 1095.72) rotate(180)"/><rect class="cls-21" x="232.45" y="517.54" width="7.29" height="38.77" transform="translate(472.19 1073.85) rotate(180)"/><rect class="cls-22" x="220.26" y="547" width="7.29" height="9.31" transform="translate(447.82 1103.31) rotate(180)"/><rect class="cls-23" x="208.08" y="522.72" width="7.29" height="33.59" transform="translate(423.44 1079.03) rotate(180)"/><rect class="cls-24" x="195.89" y="528.54" width="7.29" height="27.77" transform="translate(399.07 1084.85) rotate(180)"/><rect class="cls-25" x="183.7" y="534.86" width="7.29" height="21.45" transform="translate(374.69 1091.17) rotate(180)"/><rect class="cls-26" x="171.51" y="509.7" width="7.29" height="46.61" transform="translate(350.32 1066.01) rotate(180)"/><rect class="cls-27" x="159.32" y="514.63" width="7.29" height="41.68" transform="translate(325.94 1070.94) rotate(180)"/><rect class="cls-28" x="147.14" y="522.09" width="7.29" height="34.22" transform="translate(301.57 1078.4) rotate(180)"/><rect class="cls-29" x="134.95" y="547.86" width="7.29" height="8.45" transform="translate(277.19 1104.17) rotate(180)"/><rect class="cls-30" x="122.76" y="531.45" width="7.29" height="24.86" transform="translate(252.82 1087.76) rotate(180)"/><rect class="cls-31" x="256.63" y="433.93" width="7.29" height="25.75" transform="translate(520.55 893.61) rotate(180)"/><rect class="cls-32" x="244.44" y="442.78" width="7.29" height="16.9" transform="translate(496.18 902.46) rotate(180)"/><rect class="cls-33" x="232.25" y="420.91" width="7.29" height="38.77" transform="translate(471.8 880.59) rotate(180)"/><rect class="cls-34" x="220.07" y="450.37" width="7.29" height="9.31" transform="translate(447.43 910.05) rotate(180)"/><rect class="cls-35" x="207.88" y="426.1" width="7.29" height="33.59" transform="translate(423.05 885.78) rotate(180)"/><rect class="cls-36" x="195.69" y="431.91" width="7.29" height="27.77" transform="translate(398.68 891.59) rotate(180)"/><rect class="cls-37" x="183.5" y="438.23" width="7.29" height="21.45" transform="translate(374.3 897.91) rotate(180)"/><rect class="cls-38" x="171.32" y="413.07" width="7.29" height="46.61" transform="translate(349.93 872.76) rotate(180)"/><rect class="cls-39" x="159.13" y="418" width="7.29" height="41.68" transform="translate(325.55 877.69) rotate(180)"/><rect class="cls-40" x="146.94" y="425.46" width="7.29" height="34.22" transform="translate(301.18 885.14) rotate(180)"/><rect class="cls-41" x="134.75" y="451.23" width="7.29" height="8.45" transform="translate(276.8 910.91) rotate(180)"/><rect class="cls-42" x="122.57" y="434.82" width="7.29" height="24.86" transform="translate(252.42 894.5) rotate(180)"/><rect class="cls-43" x="259.17" y="339.04" width="7.29" height="25.75" transform="translate(525.64 703.82) rotate(180)"/><rect class="cls-44" x="246.99" y="347.89" width="7.29" height="16.9" transform="translate(501.27 712.67) rotate(180)"/><rect class="cls-45" x="234.8" y="326.02" width="7.29" height="38.77" transform="translate(476.89 690.8) rotate(180)"/><rect class="cls-46" x="222.61" y="355.47" width="7.29" height="9.31" transform="translate(452.52 720.26) rotate(180)"/><rect class="cls-47" x="210.42" y="331.2" width="7.29" height="33.59" transform="translate(428.14 695.98) rotate(180)"/><rect class="cls-48" x="198.24" y="337.01" width="7.29" height="27.77" transform="translate(403.77 701.8) rotate(180)"/><rect class="cls-49" x="186.05" y="343.33" width="7.29" height="21.45" transform="translate(379.39 708.12) rotate(180)"/><rect class="cls-50" x="173.86" y="318.18" width="7.29" height="46.61" transform="translate(355.02 682.96) rotate(180)"/><rect class="cls-51" x="161.67" y="323.11" width="7.29" height="41.68" transform="translate(330.64 687.89) rotate(180)"/><rect class="cls-52" x="149.49" y="330.57" width="7.29" height="34.22" transform="translate(306.26 695.35) rotate(180)"/><rect class="cls-53" x="137.3" y="356.34" width="7.29" height="8.45" transform="translate(281.89 721.12) rotate(180)"/><rect class="cls-54" x="125.11" y="339.92" width="7.29" height="24.86" transform="translate(257.51 704.71) rotate(180)"/><rect class="cls-55" x="258.98" y="245.87" width="7.29" height="25.75" transform="translate(525.25 517.49) rotate(180)"/><rect class="cls-56" x="246.79" y="254.72" width="7.29" height="16.9" transform="translate(500.88 526.34) rotate(180)"/><rect class="cls-57" x="234.6" y="232.85" width="7.29" height="38.77" transform="translate(476.5 504.47) rotate(180)"/><rect class="cls-58" x="222.42" y="262.31" width="7.29" height="9.31" transform="translate(452.12 533.93) rotate(180)"/><rect class="cls-59" x="210.23" y="238.03" width="7.29" height="33.59" transform="translate(427.75 509.65) rotate(180)"/><rect class="cls-60" x="198.04" y="243.85" width="7.29" height="27.77" transform="translate(403.37 515.47) rotate(180)"/><rect class="cls-61" x="185.85" y="250.17" width="7.29" height="21.45" transform="translate(379 521.79) rotate(180)"/><rect class="cls-62" x="173.66" y="225.01" width="7.29" height="46.61" transform="translate(354.62 496.63) rotate(180)"/><rect class="cls-63" x="161.48" y="229.94" width="7.29" height="41.68" transform="translate(330.25 501.56) rotate(180)"/><rect class="cls-64" x="149.29" y="237.4" width="7.29" height="34.22" transform="translate(305.87 509.02) rotate(180)"/><rect class="cls-65" x="137.1" y="263.17" width="7.29" height="8.45" transform="translate(281.5 534.79) rotate(180)"/><rect class="cls-66" x="124.91" y="246.76" width="7.29" height="24.86" transform="translate(257.12 518.38) rotate(180)"/><rect class="cls-67" x="259.17" y="147.74" width="7.29" height="25.75" transform="translate(525.64 321.23) rotate(180)"/><rect class="cls-68" x="246.99" y="156.59" width="7.29" height="16.9" transform="translate(501.27 330.08) rotate(180)"/><rect class="cls-69" x="234.8" y="134.72" width="7.29" height="38.77" transform="translate(476.89 308.21) rotate(180)"/><rect class="cls-70" x="222.61" y="164.18" width="7.29" height="9.31" transform="translate(452.52 337.67) rotate(180)"/><rect class="cls-71" x="210.42" y="139.9" width="7.29" height="33.59" transform="translate(428.14 313.4) rotate(180)"/><rect class="cls-72" x="198.24" y="145.72" width="7.29" height="27.77" transform="translate(403.77 319.21) rotate(180)"/><rect class="cls-73" x="186.05" y="152.04" width="7.29" height="21.45" transform="translate(379.39 325.53) rotate(180)"/><rect class="cls-74" x="173.86" y="126.88" width="7.29" height="46.61" transform="translate(355.02 300.37) rotate(180)"/><rect class="cls-75" x="161.67" y="131.81" width="7.29" height="41.68" transform="translate(330.64 305.3) rotate(180)"/><rect class="cls-76" x="149.49" y="139.27" width="7.29" height="34.22" transform="translate(306.26 312.76) rotate(180)"/><rect class="cls-77" x="137.3" y="165.04" width="7.29" height="8.45" transform="translate(281.89 338.53) rotate(180)"/><rect class="cls-78" x="125.11" y="148.63" width="7.29" height="24.86" transform="translate(257.51 322.12) rotate(180)"/><rect class="cls-79" x="258.98" y="54.58" width="7.29" height="25.75" transform="translate(525.25 134.9) rotate(180)"/><rect class="cls-80" x="246.79" y="63.43" width="7.29" height="16.9" transform="translate(500.88 143.75) rotate(180)"/><rect class="cls-81" x="234.6" y="41.56" width="7.29" height="38.77" transform="translate(476.5 121.88) rotate(180)"/><rect class="cls-82" x="222.42" y="71.01" width="7.29" height="9.31" transform="translate(452.12 151.34) rotate(180)"/><rect class="cls-83" x="210.23" y="46.74" width="7.29" height="33.59" transform="translate(427.75 127.07) rotate(180)"/><rect class="cls-84" x="198.04" y="52.56" width="7.29" height="27.77" transform="translate(403.37 132.88) rotate(180)"/><rect class="cls-85" x="185.85" y="58.88" width="7.29" height="21.45" transform="translate(379 139.2) rotate(180)"/><rect class="cls-86" x="173.66" y="33.72" width="7.29" height="46.61" transform="translate(354.62 114.04) rotate(180)"/><rect class="cls-87" x="161.48" y="38.65" width="7.29" height="41.68" transform="translate(330.25 118.97) rotate(180)"/><rect class="cls-88" x="149.29" y="46.11" width="7.29" height="34.22" transform="translate(305.87 126.43) rotate(180)"/><rect class="cls-89" x="137.1" y="71.88" width="7.29" height="8.45" transform="translate(281.5 152.2) rotate(180)"/><rect class="cls-90" x="124.91" y="55.46" width="7.29" height="24.86" transform="translate(257.12 135.79) rotate(180)"/><path class="cls-91" d="M666.2,439.14a5.23,5.23,0,0,1-5.1-5.13c-.53-28.69-9.48-171.16-134.94-200.93C386.47,199.93,322.55,342,322.55,342s-172.82-66.29-206,111.27c-108.37,26-136.52,167.53-66,236.68a60.57,60.57,0,0,0,41.9,17.34l678.66,6.11a44.67,44.67,0,0,0,43.24-31.95C835.54,609.89,863.32,443.75,666.2,439.14Z"/><path class="cls-4" d="M650.69,442.18a5.22,5.22,0,0,1-5.1-5.11C645,409.55,636.17,277.44,518,249.75c-132.08-30.95-192.52,101.7-192.52,101.7s-163.42-61.9-194.76,103.91C29.23,479.42,2.14,609.28,66.38,674.51A60.62,60.62,0,0,0,109,692.59l638.86,5.68a44.69,44.69,0,0,0,43.27-32.07C811.08,598.25,834.73,446.58,650.69,442.18Z"/><g class="cls-92"><path class="cls-93" d="M575.54,614.09a3.71,3.71,0,0,1-1.27-5.09c2.06-3.41,4-7,5.75-10.55a3.7,3.7,0,0,1,4.9-1.72l.07,0a3.7,3.7,0,0,1,1.69,5c-1.86,3.78-3.89,7.51-6,11.1a3.72,3.72,0,0,1-4.75,1.45A2.79,2.79,0,0,1,575.54,614.09Zm11.87-33.7c1.25-3.8,2.36-7.68,3.29-11.55a3.71,3.71,0,1,1,7.21,1.72c-1,4.07-2.14,8.16-3.46,12.16a3.72,3.72,0,0,1-4.69,2.35l-.41-.16A3.7,3.7,0,0,1,587.41,580.39Zm6.49-30.79c.38-4,.59-8,.63-12a3.71,3.71,0,1,1,7.41.07c0,4.2-.26,8.45-.66,12.62a3.7,3.7,0,0,1-4,3.34,3.5,3.5,0,0,1-1.22-.33A3.71,3.71,0,0,1,593.9,549.6Zm-.55-31.47c-.52-4-1.22-7.94-2.07-11.83a3.71,3.71,0,1,1,7.24-1.59c.9,4.1,1.63,8.29,2.18,12.46a3.69,3.69,0,0,1-3.2,4.15,3.6,3.6,0,0,1-2-.31A3.71,3.71,0,0,1,593.35,518.13Zm-7.56-30.56c-1.38-3.73-2.94-7.46-4.63-11.08a3.71,3.71,0,0,1,6.71-3.15c1.79,3.81,3.43,7.73,4.88,11.66a3.72,3.72,0,0,1-5,4.65A3.76,3.76,0,0,1,585.79,487.57Zm-14.12-28.12c-2.18-3.35-4.52-6.64-7-9.78a3.71,3.71,0,1,1,5.85-4.56c2.58,3.31,5.05,6.77,7.34,10.29a3.71,3.71,0,0,1-6.22,4.05ZM451.72,391.82a3.72,3.72,0,0,1,3.75-3.67c4.2.05,8.45.28,12.63.69a3.71,3.71,0,0,1-.71,7.38c-4-.39-8-.61-12-.65a3.71,3.71,0,0,1-3.67-3.75Zm99.95,43.34c-2.86-2.77-5.88-5.45-9-8a3.71,3.71,0,1,1,4.69-5.75c3.25,2.65,6.43,5.48,9.44,8.4a3.71,3.71,0,1,1-5.16,5.32ZM483.89,395a3.71,3.71,0,0,1,4.47-2.74c4.08,1,8.17,2.16,12.16,3.49a3.71,3.71,0,0,1-2.35,7c-3.79-1.26-7.67-2.37-11.55-3.31a3.23,3.23,0,0,1-.7-.25A3.69,3.69,0,0,1,483.89,395Zm42.87,21c-3.41-2.06-7-4-10.53-5.77a3.71,3.71,0,0,1,3.21-6.68l.07,0c3.77,1.86,7.5,3.91,11.08,6.08a3.7,3.7,0,0,1-3.48,6.53A2.37,2.37,0,0,1,526.76,416Z"/><path class="cls-94" d="M427.91,397.29a3.7,3.7,0,0,0,2.19.3c1.89-.33,3.81-.62,5.72-.87a3.71,3.71,0,1,0-1-7.35c-2,.26-4,.57-6,.91a3.7,3.7,0,0,0-.94,7Z"/></g><g class="cls-92"><path class="cls-95" d="M332.82,458.43a3.7,3.7,0,0,0,4.63-1.28c1.07-1.58,2.2-3.17,3.34-4.71a3.71,3.71,0,0,0-6-4.42c-1.2,1.63-2.38,3.3-3.52,5a3.71,3.71,0,0,0,1,5.15A3.81,3.81,0,0,0,332.82,458.43Z"/><path class="cls-96" d="M384.4,667.13a3.71,3.71,0,1,1,3.47-6.56c3.44,1.82,7,3.53,10.67,5.09a3.71,3.71,0,0,1-2.92,6.82q-2.37-1-4.69-2.1C388.73,669.35,386.53,668.26,384.4,667.13Zm27.71,7.45a3.71,3.71,0,0,1,4.56-2.59c3.79,1,7.66,1.93,11.52,2.65a3.71,3.71,0,0,1-1.36,7.29c-4.06-.75-8.14-1.69-12.13-2.79a4.19,4.19,0,0,1-.59-.22A3.7,3.7,0,0,1,412.11,674.58Zm-44.88-18.1c-3.35-2.41-6.65-5-9.79-7.69a3.71,3.71,0,0,1,4.83-5.63c3,2.56,6.1,5,9.29,7.3a3.71,3.71,0,0,1-3.74,6.37A4,4,0,0,1,367.23,656.48Zm76.15,23.91a3.71,3.71,0,0,1,3.87-3.54c3.93.19,7.9.21,11.82.06a3.71,3.71,0,1,1,.28,7.41c-4.13.15-8.31.14-12.44-.06a3.65,3.65,0,0,1-1.4-.34A3.71,3.71,0,0,1,443.38,680.39ZM343,634.64c-2.73-3.09-5.37-6.33-7.85-9.65a3.71,3.71,0,1,1,5.94-4.43c2.36,3.15,4.86,6.23,7.46,9.16a3.71,3.71,0,0,1-4.34,5.82A3.75,3.75,0,0,1,343,634.64ZM324.24,608c-2-3.61-3.87-7.36-5.56-11.12a3.71,3.71,0,0,1,6.77-3c1.6,3.58,3.38,7.14,5.28,10.58a3.71,3.71,0,1,1-6.49,3.58Zm-12.56-30.08c-1.17-4-2.18-8-3-12.07a3.71,3.71,0,1,1,7.26-1.49c.79,3.84,1.75,7.7,2.86,11.47a3.71,3.71,0,0,1-2.52,4.6,3.65,3.65,0,0,1-2.61-.19A3.73,3.73,0,0,1,311.68,577.94Zm-5.7-32.1c-.27-4.13-.36-8.32-.28-12.45a3.71,3.71,0,0,1,7.41.15c-.07,3.92,0,7.89.27,11.81a3.69,3.69,0,0,1-3.45,3.94,3.64,3.64,0,0,1-1.81-.33A3.72,3.72,0,0,1,306,545.84Zm1.5-32.59c.65-4.08,1.47-8.18,2.46-12.19a3.71,3.71,0,1,1,7.2,1.77c-.94,3.81-1.72,7.71-2.34,11.58a3.71,3.71,0,0,1-4.24,3.08,4.06,4.06,0,0,1-1-.3A3.72,3.72,0,0,1,307.48,513.25Zm8.61-31.44c1.12-2.82,2.33-5.65,3.62-8.4.47-1,.94-2,1.43-3a3.65,3.65,0,0,1,5-1.68,3.7,3.7,0,0,1,1.68,5c-.46.93-.91,1.87-1.35,2.81-1.22,2.62-2.38,5.3-3.45,8a3.7,3.7,0,0,1-4.81,2.09l-.21-.09A3.71,3.71,0,0,1,316.09,481.81Z"/><path class="cls-97" d="M477.33,681.86a3.68,3.68,0,0,0,2.21.29c2-.35,4-.74,6-1.18a3.71,3.71,0,0,0-1.59-7.24c-1.89.41-3.79.79-5.67,1.12a3.71,3.71,0,0,0-.92,7Z"/></g><path class="cls-98" d="M513.81,629.8a1.72,1.72,0,0,0,1-1.76l-2.46-20.95a91.89,91.89,0,0,0,19.84-22.19l21.08.09a1.73,1.73,0,0,0,1.65-1.16L563.24,560a1.74,1.74,0,0,0-.56-1.93L546.14,545a92,92,0,0,0-1.69-29.72l15-14.85a1.74,1.74,0,0,0,.34-2l-11-22.8a1.73,1.73,0,0,0-1.77-1l-20.95,2.45a91.72,91.72,0,0,0-22.19-19.84l.1-21.08a1.74,1.74,0,0,0-1.16-1.64l-23.89-8.35a1.72,1.72,0,0,0-1.93.56l-13.07,16.54A91.74,91.74,0,0,0,434.22,445l-14.84-15a1.76,1.76,0,0,0-2-.34l-22.79,11a1.72,1.72,0,0,0-1,1.76l2.46,20.95a91.89,91.89,0,0,0-19.84,22.19l-21.08-.09a1.75,1.75,0,0,0-1.65,1.16l-8.35,23.88a1.73,1.73,0,0,0,.56,1.93l16.54,13.07A92.29,92.29,0,0,0,364,555.19L349,570a1.74,1.74,0,0,0-.34,2l11,22.8a1.76,1.76,0,0,0,1.77,1l20.95-2.46a91.72,91.72,0,0,0,22.19,19.84l-.1,21.08a1.74,1.74,0,0,0,1.16,1.64l23.89,8.36a1.74,1.74,0,0,0,1.93-.57l13.06-16.54a91.8,91.8,0,0,0,29.73-1.68l14.84,15a1.74,1.74,0,0,0,2,.34Z"/><path class="cls-91" d="M440.19,556.43a25.39,25.39,0,1,1,3.26,1.83A24.4,24.4,0,0,1,440.19,556.43Zm10.11-40.32A19.49,19.49,0,1,0,465,518.94a18.38,18.38,0,0,0-2.52-1.41A19.35,19.35,0,0,0,450.3,516.11Z"/><path class="cls-91" d="M427.41,591.31c1.93.9,3.92,1.71,5.95,2.42h0c.65.23,1.29.44,1.94.65a63.23,63.23,0,0,0,9.76,2.23l.14,0,.38,0,.74.1a1.49,1.49,0,0,0,1.53-.84,1.37,1.37,0,0,0,.13-.45,1.48,1.48,0,0,0-1.29-1.65,59.61,59.61,0,0,1-48.9-78.8c.68-1.94,1.45-3.84,2.31-5.68a59.57,59.57,0,0,1,110.14,45A58.16,58.16,0,0,1,508,560a59.22,59.22,0,0,1-15.78,20.48,1.58,1.58,0,0,0-.39.51,1.48,1.48,0,0,0,2.29,1.77,62.36,62.36,0,0,0,16.57-21.5c.89-1.91,1.7-3.88,2.4-5.88A62.54,62.54,0,0,0,397.41,508.1a63.48,63.48,0,0,0-2.42,6,62.53,62.53,0,0,0,32.42,77.25Z"/><g class="cls-92"><path class="cls-99" d="M649.11,756.39a2.29,2.29,0,0,0,2.69-.56c1.28-1.46,2.54-3,3.74-4.51a2.29,2.29,0,0,0-3.61-2.82c-1.14,1.46-2.34,2.91-3.57,4.3a2.29,2.29,0,0,0,.2,3.23A2.37,2.37,0,0,0,649.11,756.39Z"/><path class="cls-100" d="M659.3,742.06a2.29,2.29,0,0,1-.79-3.14,94.33,94.33,0,0,0,4.5-8.49c.29-.61.57-1.23.84-1.85a2.29,2.29,0,0,1,3-1.16,2.36,2.36,0,0,1,1.17,3c-.29.65-.58,1.29-.88,1.93a98.36,98.36,0,0,1-4.72,8.9,2.31,2.31,0,0,1-2.94.9Zm8.6-24.38a93.87,93.87,0,0,0,2.69-11.31,2.29,2.29,0,1,1,4.51.78A98.74,98.74,0,0,1,672.28,719a2.29,2.29,0,0,1-2.85,1.53l-.31-.12A2.3,2.3,0,0,1,667.9,717.68Zm4-22.88a93.86,93.86,0,0,0-.18-11.62,2.29,2.29,0,0,1,4.57-.36,99.35,99.35,0,0,1,.18,12.2A2.29,2.29,0,0,1,674,697.2a2.52,2.52,0,0,1-.87-.21A2.29,2.29,0,0,1,671.86,694.8Zm-1.79-23.14a93.39,93.39,0,0,0-3-11.23,2.29,2.29,0,0,1,4.34-1.46,99.17,99.17,0,0,1,3.17,11.77,2.29,2.29,0,1,1-4.49.92Zm-7.39-22A96.06,96.06,0,0,0,657,639.48a2.29,2.29,0,0,1,3.86-2.46,101.47,101.47,0,0,1,5.93,10.65,2.29,2.29,0,0,1-3,3.06A2.35,2.35,0,0,1,662.68,649.65Zm-12.5-19.55a93.69,93.69,0,0,0-7.95-8.47,2.29,2.29,0,1,1,3.14-3.34,100.09,100.09,0,0,1,8.34,8.88,2.29,2.29,0,0,1-3.53,2.93Zm-16.9-15.9a94.12,94.12,0,0,0-9.8-6.26,2.29,2.29,0,0,1,2.23-4A98.78,98.78,0,0,1,636,610.5a2.29,2.29,0,0,1-2.32,3.93A2.14,2.14,0,0,1,633.28,614.2Zm-32.94-17.76a2.28,2.28,0,0,1,2.8-1.62,97.75,97.75,0,0,1,10.07,3.28l1.5.59a2.29,2.29,0,1,1-1.73,4.24c-.46-.19-.93-.37-1.41-.55a93.68,93.68,0,0,0-9.61-3.14,2.13,2.13,0,0,1-.38-.14A2.29,2.29,0,0,1,600.34,596.44Z"/></g><g class="cls-92"><path class="cls-101" d="M534.45,779.39A101,101,0,0,1,524,773.53a2.29,2.29,0,0,1,2.48-3.85,95.41,95.41,0,0,0,10,5.59,2.29,2.29,0,0,1-2,4.13Zm9.67,1.65a2.3,2.3,0,0,1,2.91-1.42,95.85,95.85,0,0,0,11,3.06,2.29,2.29,0,0,1-1,4.48A98.86,98.86,0,0,1,545.55,784a.92.92,0,0,1-.23-.09A2.3,2.3,0,0,1,544.12,781Zm-29.8-14.61a98.3,98.3,0,0,1-8.73-8.21,2.29,2.29,0,1,1,3.33-3.15,93.7,93.7,0,0,0,8.33,7.85,2.29,2.29,0,0,1-2.43,3.83A2.23,2.23,0,0,1,514.32,766.43Zm52.57,20a2.29,2.29,0,0,1,2.48-2.08,95,95,0,0,0,11.44.3,2.29,2.29,0,0,1,.16,4.58,98.1,98.1,0,0,1-12-.32,2.51,2.51,0,0,1-.77-.21A2.29,2.29,0,0,1,566.89,786.46Zm-69-37.46a100.46,100.46,0,0,1-6.5-10.07,2.29,2.29,0,0,1,4-2.25,94.81,94.81,0,0,0,6.2,9.61,2.29,2.29,0,0,1-2.82,3.43A2.39,2.39,0,0,1,497.92,749Zm-11.74-20.86a99.18,99.18,0,0,1-3.9-11.34,2.29,2.29,0,1,1,4.41-1.22,97.13,97.13,0,0,0,3.72,10.81,2.29,2.29,0,0,1-4.23,1.75Zm-6.41-23.07a99.89,99.89,0,0,1-1.07-12,2.29,2.29,0,1,1,4.58-.13,94.68,94.68,0,0,0,1,11.39,2.29,2.29,0,0,1-1.92,2.61,2.22,2.22,0,0,1-1.31-.19A2.28,2.28,0,0,1,479.77,705.07Z"/><path class="cls-102" d="M591.69,787.91a2.3,2.3,0,0,0,1.33.19c1.93-.31,3.87-.67,5.75-1.09a2.29,2.29,0,1,0-1-4.47c-1.8.39-3.64.74-5.49,1a2.28,2.28,0,0,0-1.9,2.62A2.25,2.25,0,0,0,591.69,787.91Z"/></g><path class="cls-103" d="M617.75,753a1.16,1.16,0,0,0,.65-1.18l-1.64-14A61.71,61.71,0,0,0,630,722.91l14.11.06a1.16,1.16,0,0,0,1.1-.77l5.59-16a1.17,1.17,0,0,0-.38-1.3l-11.07-8.74a61.53,61.53,0,0,0-1.12-19.89l10-9.93a1.18,1.18,0,0,0,.23-1.33l-7.35-15.25a1.15,1.15,0,0,0-1.18-.65l-14,1.64a61.13,61.13,0,0,0-14.85-13.27l.07-14.11a1.16,1.16,0,0,0-.78-1.1l-16-5.59a1.16,1.16,0,0,0-1.29.38l-8.75,11.07a61.47,61.47,0,0,0-19.88,1.12l-9.94-10a1.16,1.16,0,0,0-1.33-.23L538,626.37a1.14,1.14,0,0,0-.65,1.18l1.65,14a61.54,61.54,0,0,0-13.28,14.85l-14.11-.06a1.15,1.15,0,0,0-1.09.78l-5.6,16a1.16,1.16,0,0,0,.38,1.29l11.07,8.74A61.24,61.24,0,0,0,517.48,703l-10,9.94a1.17,1.17,0,0,0-.23,1.33l7.35,15.25a1.18,1.18,0,0,0,1.18.65l14-1.65a61.35,61.35,0,0,0,14.85,13.28l-.07,14.1a1.15,1.15,0,0,0,.78,1.1l16,5.59a1.14,1.14,0,0,0,1.29-.37l8.75-11.07a61.55,61.55,0,0,0,19.89-1.13l9.93,10a1.17,1.17,0,0,0,1.33.23Z"/><path class="cls-91" d="M568.32,704.12a17.33,17.33,0,1,1,2.24,1.25A18.24,18.24,0,0,1,568.32,704.12Zm-1.09-21.48a12.74,12.74,0,0,0,3.61,17.65h0a12.74,12.74,0,1,0,14-21.26,13.85,13.85,0,0,0-1.63-.92A12.77,12.77,0,0,0,567.23,682.64Z"/><path class="cls-91" d="M559.43,728.39a42.61,42.61,0,0,0,4.06,1.66A43.47,43.47,0,0,0,572,732.1l.39,0a2.29,2.29,0,1,0,.57-4.55,38,38,0,0,1-8-1.88h0c-.15,0-.29-.1-.43-.15a38.35,38.35,0,0,1-21.43-19.2l0-.07a2.56,2.56,0,0,1-.11-.24,38.56,38.56,0,1,1,71.14-4c-.44,1.24-.93,2.45-1.48,3.63a38.4,38.4,0,0,1-10.22,13.25,2.4,2.4,0,0,0-.61.79,2.29,2.29,0,0,0,3.54,2.73,43,43,0,0,0,11.44-14.83,43.64,43.64,0,0,0,1.65-4.06A43.14,43.14,0,0,0,538.69,671q-.93,2-1.68,4.11A43.21,43.21,0,0,0,559.43,728.39Z"/><g class="cls-92"><path class="cls-104" d="M763.25,554.11a1.86,1.86,0,0,0-.12-2.23c-1-1.22-2.09-2.41-3.17-3.56a1.86,1.86,0,1,0-2.71,2.56c1,1.09,2,2.24,3,3.39a1.87,1.87,0,0,0,2.63.23A1.82,1.82,0,0,0,763.25,554.11Z"/><path class="cls-105" d="M753,544.17a1.86,1.86,0,0,1-2.62.25,76.55,76.55,0,0,0-6.28-4.65c-.46-.31-.92-.61-1.39-.9a1.88,1.88,0,0,1-.57-2.58,1.94,1.94,0,0,1,2.58-.57l1.44.94c2.27,1.51,4.48,3.16,6.59,4.89a1.86,1.86,0,0,1,.36,2.47Zm-18.56-9.89a78.11,78.11,0,0,0-8.78-3.53,1.87,1.87,0,1,1,1.18-3.54,81.11,81.11,0,0,1,9.2,3.71,1.86,1.86,0,0,1,.88,2.48,1.83,1.83,0,0,1-.13.24A1.85,1.85,0,0,1,734.4,534.28Zm-17.92-6a78,78,0,0,0-9.38-1.27,1.86,1.86,0,1,1,.27-3.71,81.18,81.18,0,0,1,9.83,1.33,1.87,1.87,0,0,1,1.47,2.19,1.91,1.91,0,0,1-.28.67A1.84,1.84,0,0,1,716.48,528.32ZM697.64,527a77.68,77.68,0,0,0-9.4,1.06,1.86,1.86,0,0,1-.65-3.67,79.32,79.32,0,0,1,9.86-1.11A1.85,1.85,0,0,1,699.4,525a1.82,1.82,0,0,1-.31,1.13A1.85,1.85,0,0,1,697.64,527ZM679,530.21a77.33,77.33,0,0,0-8.86,3.32,1.86,1.86,0,1,1-1.51-3.41,80.33,80.33,0,0,1,9.29-3.47,1.86,1.86,0,0,1,2.32,1.24,1.86,1.86,0,0,1-1.24,2.32Zm-17.24,7.69a75.59,75.59,0,0,0-7.78,5.36,1.86,1.86,0,1,1-2.3-2.93,80.89,80.89,0,0,1,8.16-5.63,1.87,1.87,0,0,1,2.51,2.63A1.89,1.89,0,0,1,661.79,537.9ZM647,549.56a75.59,75.59,0,0,0-6.23,7.12,1.86,1.86,0,0,1-3-2.28,80.14,80.14,0,0,1,6.53-7.46,1.86,1.86,0,0,1,2.88,2.34A2,2,0,0,1,647,549.56Zm-18.3,24.34a1.86,1.86,0,0,1-1-2.45,79.15,79.15,0,0,1,3.87-7.7c.21-.39.43-.76.65-1.14a1.87,1.87,0,1,1,3.21,1.91c-.21.35-.42.7-.62,1.06a76.62,76.62,0,0,0-3.69,7.36,2.69,2.69,0,0,1-.16.29A1.87,1.87,0,0,1,628.65,573.9Z"/></g><g class="cls-92"><path class="cls-106" d="M767.82,649.13a81.35,81.35,0,0,1-6,7.7,1.87,1.87,0,0,1-2.63.17,1.88,1.88,0,0,1-.17-2.63,78,78,0,0,0,5.71-7.34,1.86,1.86,0,0,1,3.09,2.08Zm2.5-7.58a1.87,1.87,0,0,1-.79-2.51,77,77,0,0,0,3.8-8.5,1.87,1.87,0,0,1,3.49,1.32,80.5,80.5,0,0,1-4,8.9,1.74,1.74,0,0,1-.11.18A1.85,1.85,0,0,1,770.32,641.55ZM755,663.75a80.66,80.66,0,0,1-7.67,6,1.86,1.86,0,1,1-2.12-3.06,79.42,79.42,0,0,0,7.32-5.75,1.86,1.86,0,0,1,2.78,2.42A1.74,1.74,0,0,1,755,663.75Zm22.5-39.85a1.87,1.87,0,0,1-1.38-2.25,77.09,77.09,0,0,0,1.64-9.16,1.86,1.86,0,1,1,3.7.43,78.65,78.65,0,0,1-1.72,9.61,1.83,1.83,0,0,1-.26.59A1.85,1.85,0,0,1,777.45,623.9Zm-38.52,50.93a82.39,82.39,0,0,1-8.89,4,1.87,1.87,0,0,1-1.32-3.49,77.59,77.59,0,0,0,8.48-3.81,1.87,1.87,0,0,1,2.52.78,1.87,1.87,0,0,1-.79,2.52Zm-18.2,6.91a85.21,85.21,0,0,1-9.6,1.76,1.86,1.86,0,0,1-.45-3.7,79.68,79.68,0,0,0,9.16-1.68,1.86,1.86,0,0,1,2,2.84A1.89,1.89,0,0,1,720.73,681.74Zm-19.34,2.35a79.38,79.38,0,0,1-9.75-.6,1.86,1.86,0,0,1-1.62-2.07,1.88,1.88,0,0,1,2.08-1.63,75.72,75.72,0,0,0,9.29.57,1.86,1.86,0,0,1,1.86,1.86,1.81,1.81,0,0,1-.31,1A1.84,1.84,0,0,1,701.39,684.09Z"/><path class="cls-107" d="M781.63,604.13a1.88,1.88,0,0,0,.31-1c0-1.59-.07-3.2-.17-4.76a1.86,1.86,0,1,0-3.72.25c.1,1.49.15,3,.16,4.54a1.87,1.87,0,0,0,1.88,1.85A1.9,1.9,0,0,0,781.63,604.13Z"/></g><path class="cls-108" d="M756.68,578.91a.94.94,0,0,0-.87-.66l-11.48-.38A50,50,0,0,0,734,565.38L735.77,554a.93.93,0,0,0-.5-1l-12.17-6.44a1,1,0,0,0-1.09.14l-8.38,7.84a49.92,49.92,0,0,0-16.13-1.51l-6.77-9.27a1,1,0,0,0-1-.34l-13.17,4a.94.94,0,0,0-.66.87l-.38,11.48A50,50,0,0,0,663,570.22l-11.34-1.76a.91.91,0,0,0-1,.49l-6.44,12.17a1,1,0,0,0,.14,1.09l7.84,8.38a49.92,49.92,0,0,0-1.51,16.13l-9.27,6.78a.94.94,0,0,0-.34,1l4,13.16a.94.94,0,0,0,.87.66l11.48.38a50.23,50.23,0,0,0,10.33,12.49l-1.76,11.34a.93.93,0,0,0,.49,1L678.73,660a1,1,0,0,0,1.09-.14L688.2,652a49.94,49.94,0,0,0,16.13,1.51l6.78,9.27a1,1,0,0,0,1,.35l13.16-4.06a.94.94,0,0,0,.66-.87l.38-11.48a50,50,0,0,0,12.49-10.33l11.34,1.77a1,1,0,0,0,1-.5l6.43-12.17a1,1,0,0,0-.14-1.09L749.61,616a49.92,49.92,0,0,0,1.51-16.13l9.27-6.77a1,1,0,0,0,.35-1Z"/><path class="cls-91" d="M711.38,612.74a13.93,13.93,0,1,1,1.29-1.65A14.64,14.64,0,0,1,711.38,612.74ZM694,611a10.37,10.37,0,0,0,14.65-.75h0a10.37,10.37,0,0,0-15.4-13.89,11.5,11.5,0,0,0-.94,1.2A10.39,10.39,0,0,0,694,611Z"/><path class="cls-91" d="M729.83,622.84q1-1.47,1.83-3.06a35.54,35.54,0,0,0,2.68-6.63l.09-.31a1.85,1.85,0,0,0-.76-2.06,2.14,2.14,0,0,0-.53-.24,1.86,1.86,0,0,0-2.29,1.29,31.64,31.64,0,0,1-2.49,6.2h0c-.05.11-.11.22-.17.33a31.26,31.26,0,0,1-10.41,11.3,31.84,31.84,0,0,1-7.64,3.6l-.07,0-.2.07A31.16,31.16,0,0,1,686,631.1c-1-.51-1.88-1.06-2.77-1.65a31.37,31.37,0,0,1,32.11-53.81,28.92,28.92,0,0,1,2.73,1.63,31.06,31.06,0,0,1,9.43,9.83,1.83,1.83,0,0,0,.56.58,1.86,1.86,0,0,0,2.62-2.51,34.82,34.82,0,0,0-10.54-11q-1.49-1-3.06-1.83a35.1,35.1,0,0,0-35.92,60.21,34.18,34.18,0,0,0,3.1,1.84A35.14,35.14,0,0,0,729.83,622.84Z"/><path class="cls-109" d="M240.44,826.59c-9.08-7.9-28.59-14.23-28.59-14.23l-11.74.25c-3,3.35-4.33,9.85-4.91,13.92,2.22,1.33,6.36,2.49,14,2.85A114.18,114.18,0,0,0,240.44,826.59Z"/><path class="cls-110" d="M240.44,826.59a114.18,114.18,0,0,1-31.29,2.79c-7.59-.36-11.73-1.52-14-2.85,0,.33-.08.65-.12.94a3.45,3.45,0,0,0,2.43,3.73c10.73,3.29,34.31,2.23,43.51,1.66a2.41,2.41,0,0,0,1.73-3.94A21.08,21.08,0,0,0,240.44,826.59Z"/><path class="cls-111" d="M205.6,802.48l-4.53,9.33a3.81,3.81,0,0,0,3,3.73,14.89,14.89,0,0,0,6.57.06,3.62,3.62,0,0,0,2.71-3.12l5.72-10Z"/><path class="cls-112" d="M11.59,804.21c-3.41-7.61-2.44-11-9.2-10.27a9.32,9.32,0,0,0-2.06.45,6.1,6.1,0,0,0,0,4c1.71,4.93,3,14.47,9.58,22.74a7.42,7.42,0,0,0,5.7,2.79l7.46.12C16,818.35,14.43,810.52,11.59,804.21Z"/><path class="cls-113" d="M23.54,812.73C17.82,808.7,18,791.1,18,791.1l-8.82-4.49-6.65,4.82a6.16,6.16,0,0,0-2.15,3,9.32,9.32,0,0,1,2.06-.45c6.76-.76,5.79,2.66,9.2,10.27C14.43,810.52,16,818.35,23.07,824l5.13.09a2.75,2.75,0,0,0,2.23-4.42A33,33,0,0,0,23.54,812.73Z"/><path class="cls-114" d="M18,778.32l-9.86,8.29a2.41,2.41,0,0,0,.53,3.2A7.89,7.89,0,0,0,17,791.1l10.83-5.86Z"/><path class="cls-115" d="M11.46,782.41l8.09,6a5.2,5.2,0,0,0,5.44.26c13.42-9.67,140.72-68.19,166-77.33L171.68,671S8.06,779.28,11.46,782.41Z"/><path class="cls-116" d="M270.06,703.89c-15-8.06-56.84-15-56.84-15l-48.65-13.17s-13.35,39.84,10.05,47,57.23,3.79,71.42,1.91c0,0-19,13.62-41.66,79.58a79.88,79.88,0,0,1,13.85,1.62s50.66-63.05,56-79.32C277.71,715.78,282.61,710.62,270.06,703.89Z"/><path class="cls-117" d="M299.17,572.51c-10.52-.74-42.49,6.21-42.49,6.21l16.41,13.5s13-3.15,21.57-4.84C294.66,587.38,316,573.69,299.17,572.51Z"/><path class="cls-118" d="M336.75,582.06s-14.1,13.09-22.66,16.65-13.57,7.43-18.88-2.06S292,576.9,299,569.23c0,0,10.87-11.93,16.93-12.24S336.75,582.06,336.75,582.06Z"/><path class="cls-119" d="M306.5,570.48l.45,1.28s8.94-9,12.46-5.1,13.69,21,21.57,22.63c7.6,1.61,14.5-4.63,15-10.51a.72.72,0,0,0-.62-.75l-.95-.14a.73.73,0,0,1-.31-1.31.73.73,0,0,0-.25-1.3c-2.36-.52-6.67-2.69-11.38-10.9-6.68-11.66-14.62-18.13-23.3-15.3a.73.73,0,0,1-.94-.87c.24-1.12,0-2.68-2.36-4.07-4.08-2.41-11.05,1.61-14.56,11.27a.73.73,0,0,1-1.11.36c-1.36-1-4.18-2.34-5.14,3.9s.44,9.45,1.17,10.54a.72.72,0,0,0,.89.27l7.47-3.15a.73.73,0,0,1,1,.43Z"/><path class="cls-120" d="M305,571.36s9.66-6.5,5-10.22-11,6.66-10.1,10.63Z"/><path class="cls-121" d="M393,612.72s7.94,2.82,9.4-1.9-2.63-17.31,0-19,7.08-10.43,5.66-14.39l-3.25,3.08s2.21-7.28-.22-10.38l-6.15,15.82S390.26,604.73,393,612.72Z"/><path class="cls-122" d="M249.65,581.3s14.14-15.6,45,8.75c21.31,16.78,98.07,13.37,98.07,13.37a37.35,37.35,0,0,0,1.47,9.6s-64.42,17.41-112.78,5.59c0,0-53.43,60.57-57.54,72.43,0,0-34.73,5.19-59.35-15.35,0,0,6.61-20.48,28-44.23A333.4,333.4,0,0,1,249.65,581.3Z"/><path class="cls-123" d="M257.08,612.51a.54.54,0,0,1-.33-.65.53.53,0,0,1,.66-.36c.18,0,18.39,5.16,21.26,5.87a.53.53,0,0,1-.25,1c-2.89-.72-21.12-5.84-21.3-5.89Z"/></g></g></svg>