<svg xmlns="http://www.w3.org/2000/svg" xmlns:xlink="http://www.w3.org/1999/xlink" viewBox="0 0 830.91 828.68"><defs><style>.cls-1{isolation:isolate;}.cls-2{fill:url(#linear-gradient);}.cls-3{fill:#bdd0fb;}.cls-4{opacity:0.52;}.cls-100,.cls-5,.cls-8,.cls-9{fill:#fff;}.cls-5{mix-blend-mode:overlay;}.cls-6{fill:#91b3fa;}.cls-7{opacity:0.5;}.cls-9{opacity:0.57;}.cls-10{fill:url(#linear-gradient-2);}.cls-11{opacity:0.3;}.cls-12{fill:url(#linear-gradient-3);}.cls-13{fill:url(#linear-gradient-4);}.cls-14{fill:url(#linear-gradient-5);}.cls-15{fill:url(#linear-gradient-6);}.cls-16{fill:url(#linear-gradient-7);}.cls-17{fill:url(#linear-gradient-8);}.cls-18{fill:url(#linear-gradient-9);}.cls-19{fill:url(#linear-gradient-10);}.cls-20{fill:url(#linear-gradient-11);}.cls-21{fill:url(#linear-gradient-12);}.cls-22{fill:url(#linear-gradient-13);}.cls-23{fill:url(#linear-gradient-14);}.cls-24{fill:url(#linear-gradient-15);}.cls-25{fill:url(#linear-gradient-16);}.cls-26{fill:url(#linear-gradient-17);}.cls-27{fill:url(#linear-gradient-18);}.cls-28{fill:url(#linear-gradient-19);}.cls-29{fill:url(#linear-gradient-20);}.cls-30{fill:url(#linear-gradient-21);}.cls-31{fill:url(#linear-gradient-22);}.cls-32{fill:url(#linear-gradient-23);}.cls-33{fill:url(#linear-gradient-24);}.cls-34{fill:url(#linear-gradient-25);}.cls-35{fill:url(#linear-gradient-26);}.cls-36{fill:url(#linear-gradient-27);}.cls-37{fill:url(#linear-gradient-28);}.cls-38{fill:url(#linear-gradient-29);}.cls-39{fill:url(#linear-gradient-30);}.cls-40{fill:url(#linear-gradient-31);}.cls-41{fill:url(#linear-gradient-32);}.cls-42{fill:url(#linear-gradient-33);}.cls-43{fill:url(#linear-gradient-34);}.cls-44{fill:url(#linear-gradient-35);}.cls-45{fill:url(#linear-gradient-36);}.cls-46{fill:url(#linear-gradient-37);}.cls-47{fill:url(#linear-gradient-38);}.cls-48{fill:url(#linear-gradient-39);}.cls-49{fill:url(#linear-gradient-40);}.cls-50{fill:url(#linear-gradient-41);}.cls-51{fill:url(#linear-gradient-42);}.cls-52{fill:url(#linear-gradient-43);}.cls-53{fill:url(#linear-gradient-44);}.cls-54{fill:url(#linear-gradient-45);}.cls-55{fill:url(#linear-gradient-46);}.cls-56{fill:url(#linear-gradient-47);}.cls-57{fill:url(#linear-gradient-48);}.cls-58{fill:url(#linear-gradient-49);}.cls-59{fill:url(#linear-gradient-50);}.cls-60{fill:url(#linear-gradient-51);}.cls-61{fill:url(#linear-gradient-52);}.cls-62{fill:url(#linear-gradient-53);}.cls-63{fill:url(#linear-gradient-54);}.cls-64{fill:url(#linear-gradient-55);}.cls-65{fill:url(#linear-gradient-56);}.cls-66{fill:url(#linear-gradient-57);}.cls-67{fill:url(#linear-gradient-58);}.cls-68{fill:url(#linear-gradient-59);}.cls-69{fill:url(#linear-gradient-60);}.cls-70{fill:url(#linear-gradient-61);}.cls-71{fill:url(#linear-gradient-62);}.cls-72{fill:url(#linear-gradient-63);}.cls-73{fill:url(#linear-gradient-64);}.cls-74{fill:url(#linear-gradient-65);}.cls-75{fill:url(#linear-gradient-66);}.cls-76{fill:url(#linear-gradient-67);}.cls-77{fill:url(#linear-gradient-68);}.cls-78{fill:url(#linear-gradient-69);}.cls-79{fill:url(#linear-gradient-70);}.cls-80{fill:url(#linear-gradient-71);}.cls-81{fill:url(#linear-gradient-72);}.cls-82{fill:url(#linear-gradient-73);}.cls-83{fill:url(#linear-gradient-74);}.cls-84{fill:url(#linear-gradient-75);}.cls-85{fill:url(#linear-gradient-76);}.cls-86{fill:url(#linear-gradient-77);}.cls-87{fill:url(#linear-gradient-78);}.cls-88{fill:url(#linear-gradient-79);}.cls-89{fill:url(#linear-gradient-80);}.cls-90{fill:url(#linear-gradient-81);}.cls-91{fill:url(#linear-gradient-82);}.cls-92{fill:url(#linear-gradient-83);}.cls-93{fill:url(#linear-gradient-84);}.cls-94{fill:url(#linear-gradient-85);}.cls-95{fill:url(#linear-gradient-86);}.cls-96{fill:url(#linear-gradient-87);}.cls-97{fill:url(#linear-gradient-88);}.cls-98{fill:url(#linear-gradient-89);}.cls-99{fill:url(#linear-gradient-90);}.cls-100{opacity:0.53;}.cls-101{fill:#7d97f4;}.cls-102{fill:url(#linear-gradient-91);}.cls-103{fill:url(#linear-gradient-92);}.cls-104{fill:url(#linear-gradient-93);}.cls-105{fill:url(#linear-gradient-94);}.cls-106{fill:url(#linear-gradient-95);}.cls-107{fill:url(#linear-gradient-96);}.cls-108{fill:url(#linear-gradient-97);}.cls-109{fill:url(#linear-gradient-98);}.cls-110{fill:url(#linear-gradient-99);}.cls-111{fill:url(#linear-gradient-100);}.cls-112{fill:url(#linear-gradient-101);}.cls-113{fill:url(#linear-gradient-102);}.cls-114{fill:url(#linear-gradient-103);}.cls-115{fill:url(#linear-gradient-104);}.cls-116{fill:url(#linear-gradient-105);}.cls-117{fill:url(#linear-gradient-106);}.cls-118{fill:url(#linear-gradient-107);}</style><linearGradient id="linear-gradient" x1="933.82" y1="1071.89" x2="199.8" y2="160.28" gradientUnits="userSpaceOnUse"><stop offset="0" stop-color="#dae3fe"/><stop offset="1" stop-color="#e9effd"/></linearGradient><linearGradient id="linear-gradient-2" x1="164.17" y1="394.27" x2="340.42" y2="394.27" xlink:href="#linear-gradient"/><linearGradient id="linear-gradient-3" x1="106.61" y1="445.7" x2="528.6" y2="445.7" gradientTransform="translate(570.41 891.39) rotate(-180)" gradientUnits="userSpaceOnUse"><stop offset="0" stop-color="#09005d"/><stop offset="1" stop-color="#1a0f91"/></linearGradient><linearGradient id="linear-gradient-4" x1="637.78" y1="194.88" x2="371.78" y2="432.88" gradientTransform="translate(714.92 891.39) rotate(-180)" xlink:href="#linear-gradient-3"/><linearGradient id="linear-gradient-5" x1="398.22" y1="95.7" x2="611.21" y2="-255.29" gradientUnits="userSpaceOnUse"><stop offset="0" stop-color="#4f52ff"/><stop offset="1" stop-color="#4042e2"/></linearGradient><linearGradient id="linear-gradient-6" x1="447.29" y1="125.48" x2="660.28" y2="-225.51" xlink:href="#linear-gradient-5"/><linearGradient id="linear-gradient-7" x1="499.37" y1="157.08" x2="712.36" y2="-193.9" xlink:href="#linear-gradient-5"/><linearGradient id="linear-gradient-8" x1="548.44" y1="186.86" x2="761.43" y2="-164.13" xlink:href="#linear-gradient-5"/><linearGradient id="linear-gradient-9" x1="599.78" y1="218.01" x2="812.77" y2="-132.97" xlink:href="#linear-gradient-5"/><linearGradient id="linear-gradient-10" x1="649.02" y1="247.9" x2="862.01" y2="-103.09" xlink:href="#linear-gradient-5"/><linearGradient id="linear-gradient-11" x1="472.37" y1="140.69" x2="685.36" y2="-210.29" xlink:href="#linear-gradient-5"/><linearGradient id="linear-gradient-12" x1="522.05" y1="170.84" x2="735.04" y2="-180.14" xlink:href="#linear-gradient-5"/><linearGradient id="linear-gradient-13" x1="573.22" y1="201.89" x2="786.21" y2="-149.09" xlink:href="#linear-gradient-5"/><linearGradient id="linear-gradient-14" x1="623.2" y1="232.23" x2="836.19" y2="-118.75" xlink:href="#linear-gradient-5"/><linearGradient id="linear-gradient-15" x1="673.53" y1="262.77" x2="886.52" y2="-88.21" xlink:href="#linear-gradient-5"/><linearGradient id="linear-gradient-16" x1="725.47" y1="294.28" x2="938.46" y2="-56.7" xlink:href="#linear-gradient-5"/><linearGradient id="linear-gradient-17" x1="709.31" y1="284.48" x2="922.3" y2="-66.5" gradientTransform="translate(855.7 1496.59) rotate(-180)" xlink:href="#linear-gradient-5"/><linearGradient id="linear-gradient-18" x1="701.04" y1="279.46" x2="914.03" y2="-71.52" gradientTransform="translate(826.67 1507.13) rotate(-180)" xlink:href="#linear-gradient-5"/><linearGradient id="linear-gradient-19" x1="684.65" y1="269.52" x2="897.64" y2="-81.46" gradientTransform="translate(797.64 1481.08) rotate(-180)" xlink:href="#linear-gradient-5"/><linearGradient id="linear-gradient-20" x1="681.82" y1="267.8" x2="894.81" y2="-83.18" gradientTransform="translate(768.61 1516.16) rotate(-180)" xlink:href="#linear-gradient-5"/><linearGradient id="linear-gradient-21" x1="664.8" y1="257.47" x2="877.79" y2="-93.51" gradientTransform="translate(739.57 1487.25) rotate(-180)" xlink:href="#linear-gradient-5"/><linearGradient id="linear-gradient-22" x1="655.73" y1="251.97" x2="868.72" y2="-99.01" gradientTransform="translate(710.54 1494.18) rotate(-180)" xlink:href="#linear-gradient-5"/><linearGradient id="linear-gradient-23" x1="646.79" y1="246.54" x2="859.78" y2="-104.44" gradientTransform="translate(681.51 1501.71) rotate(-180)" xlink:href="#linear-gradient-5"/><linearGradient id="linear-gradient-24" x1="629.54" y1="236.07" x2="842.53" y2="-114.91" gradientTransform="translate(652.48 1471.74) rotate(-180)" xlink:href="#linear-gradient-5"/><linearGradient id="linear-gradient-25" x1="620.23" y1="230.42" x2="833.22" y2="-120.56" gradientTransform="translate(623.45 1477.62) rotate(-180)" xlink:href="#linear-gradient-5"/><linearGradient id="linear-gradient-26" x1="611.59" y1="225.18" x2="824.58" y2="-125.8" gradientTransform="translate(594.42 1486.5) rotate(-180)" xlink:href="#linear-gradient-5"/><linearGradient id="linear-gradient-27" x1="607.79" y1="222.88" x2="820.78" y2="-128.1" gradientTransform="translate(565.39 1517.19) rotate(-180)" xlink:href="#linear-gradient-5"/><linearGradient id="linear-gradient-28" x1="592.85" y1="213.8" x2="805.84" y2="-137.18" gradientTransform="translate(536.36 1497.64) rotate(-180)" xlink:href="#linear-gradient-5"/><linearGradient id="linear-gradient-29" x1="658.1" y1="253.4" x2="871.09" y2="-97.58" gradientTransform="translate(855.23 1266.42) rotate(-180)" xlink:href="#linear-gradient-5"/><linearGradient id="linear-gradient-30" x1="649.82" y1="248.38" x2="862.81" y2="-102.6" gradientTransform="translate(826.2 1276.96) rotate(-180)" xlink:href="#linear-gradient-5"/><linearGradient id="linear-gradient-31" x1="633.44" y1="238.44" x2="846.43" y2="-112.54" gradientTransform="translate(797.17 1250.91) rotate(-180)" xlink:href="#linear-gradient-5"/><linearGradient id="linear-gradient-32" x1="630.61" y1="236.72" x2="843.6" y2="-114.26" gradientTransform="translate(768.14 1285.99) rotate(-180)" xlink:href="#linear-gradient-5"/><linearGradient id="linear-gradient-33" x1="613.59" y1="226.39" x2="826.58" y2="-124.59" gradientTransform="translate(739.11 1257.08) rotate(-180)" xlink:href="#linear-gradient-5"/><linearGradient id="linear-gradient-34" x1="604.52" y1="220.89" x2="817.51" y2="-130.09" gradientTransform="translate(710.08 1264.01) rotate(-180)" xlink:href="#linear-gradient-5"/><linearGradient id="linear-gradient-35" x1="595.58" y1="215.46" x2="808.57" y2="-135.52" gradientTransform="translate(681.04 1271.53) rotate(-180)" xlink:href="#linear-gradient-5"/><linearGradient id="linear-gradient-36" x1="578.33" y1="204.99" x2="791.31" y2="-145.99" gradientTransform="translate(652.01 1241.57) rotate(-180)" xlink:href="#linear-gradient-5"/><linearGradient id="linear-gradient-37" x1="569.02" y1="199.35" x2="782.01" y2="-151.63" gradientTransform="translate(622.98 1247.44) rotate(-180)" xlink:href="#linear-gradient-5"/><linearGradient id="linear-gradient-38" x1="560.38" y1="194.11" x2="773.37" y2="-156.88" gradientTransform="translate(593.95 1256.33) rotate(-180)" xlink:href="#linear-gradient-5"/><linearGradient id="linear-gradient-39" x1="556.58" y1="191.8" x2="769.56" y2="-159.18" gradientTransform="translate(564.92 1287.02) rotate(-180)" xlink:href="#linear-gradient-5"/><linearGradient id="linear-gradient-40" x1="541.63" y1="182.73" x2="754.62" y2="-168.25" gradientTransform="translate(535.89 1267.47) rotate(-180)" xlink:href="#linear-gradient-5"/><linearGradient id="linear-gradient-41" x1="610.18" y1="224.33" x2="823.17" y2="-126.65" gradientTransform="translate(861.29 1040.37) rotate(-180)" xlink:href="#linear-gradient-5"/><linearGradient id="linear-gradient-42" x1="601.91" y1="219.31" x2="814.9" y2="-131.67" gradientTransform="translate(832.26 1050.91) rotate(-180)" xlink:href="#linear-gradient-5"/><linearGradient id="linear-gradient-43" x1="585.53" y1="209.36" x2="798.52" y2="-141.62" gradientTransform="translate(803.23 1024.86) rotate(-180)" xlink:href="#linear-gradient-5"/><linearGradient id="linear-gradient-44" x1="582.7" y1="207.65" x2="795.69" y2="-143.34" gradientTransform="translate(774.2 1059.94) rotate(-180)" xlink:href="#linear-gradient-5"/><linearGradient id="linear-gradient-45" x1="565.68" y1="197.32" x2="778.67" y2="-153.66" gradientTransform="translate(745.17 1031.04) rotate(-180)" xlink:href="#linear-gradient-5"/><linearGradient id="linear-gradient-46" x1="556.61" y1="191.82" x2="769.6" y2="-159.17" gradientTransform="translate(716.14 1037.96) rotate(-180)" xlink:href="#linear-gradient-5"/><linearGradient id="linear-gradient-47" x1="547.67" y1="186.39" x2="760.66" y2="-164.59" gradientTransform="translate(687.11 1045.49) rotate(-180)" xlink:href="#linear-gradient-5"/><linearGradient id="linear-gradient-48" x1="530.41" y1="175.92" x2="743.4" y2="-175.06" gradientTransform="translate(658.08 1015.53) rotate(-180)" xlink:href="#linear-gradient-5"/><linearGradient id="linear-gradient-49" x1="521.11" y1="170.27" x2="734.1" y2="-180.71" gradientTransform="translate(629.04 1021.4) rotate(-180)" xlink:href="#linear-gradient-5"/><linearGradient id="linear-gradient-50" x1="512.47" y1="165.03" x2="725.46" y2="-185.95" gradientTransform="translate(600.01 1030.28) rotate(-180)" xlink:href="#linear-gradient-5"/><linearGradient id="linear-gradient-51" x1="508.67" y1="162.72" x2="721.66" y2="-188.26" gradientTransform="translate(570.98 1060.97) rotate(-180)" xlink:href="#linear-gradient-5"/><linearGradient id="linear-gradient-52" x1="493.72" y1="153.65" x2="706.71" y2="-197.33" gradientTransform="translate(541.95 1041.42) rotate(-180)" xlink:href="#linear-gradient-5"/><linearGradient id="linear-gradient-53" x1="560.8" y1="194.36" x2="773.79" y2="-156.62" gradientTransform="translate(860.83 818.45) rotate(-180)" xlink:href="#linear-gradient-5"/><linearGradient id="linear-gradient-54" x1="552.53" y1="189.34" x2="765.52" y2="-161.64" gradientTransform="translate(831.8 828.99) rotate(-180)" xlink:href="#linear-gradient-5"/><linearGradient id="linear-gradient-55" x1="536.14" y1="179.4" x2="749.13" y2="-171.58" gradientTransform="translate(802.76 802.94) rotate(-180)" xlink:href="#linear-gradient-5"/><linearGradient id="linear-gradient-56" x1="533.32" y1="177.68" x2="746.31" y2="-173.3" gradientTransform="translate(773.73 838.02) rotate(-180)" xlink:href="#linear-gradient-5"/><linearGradient id="linear-gradient-57" x1="516.3" y1="167.35" x2="729.29" y2="-183.63" gradientTransform="translate(744.7 809.12) rotate(-180)" xlink:href="#linear-gradient-5"/><linearGradient id="linear-gradient-58" x1="507.22" y1="161.85" x2="720.21" y2="-189.14" gradientTransform="translate(715.67 816.04) rotate(-180)" xlink:href="#linear-gradient-5"/><linearGradient id="linear-gradient-59" x1="498.28" y1="156.42" x2="711.27" y2="-194.56" gradientTransform="translate(686.64 823.57) rotate(-180)" xlink:href="#linear-gradient-5"/><linearGradient id="linear-gradient-60" x1="481.03" y1="145.95" x2="694.02" y2="-205.03" gradientTransform="translate(657.61 793.61) rotate(-180)" xlink:href="#linear-gradient-5"/><linearGradient id="linear-gradient-61" x1="471.72" y1="140.3" x2="684.71" y2="-210.68" gradientTransform="translate(628.58 799.48) rotate(-180)" xlink:href="#linear-gradient-5"/><linearGradient id="linear-gradient-62" x1="463.08" y1="135.06" x2="676.07" y2="-215.92" gradientTransform="translate(599.55 808.36) rotate(-180)" xlink:href="#linear-gradient-5"/><linearGradient id="linear-gradient-63" x1="459.28" y1="132.75" x2="672.27" y2="-218.23" gradientTransform="translate(570.51 839.05) rotate(-180)" xlink:href="#linear-gradient-5"/><linearGradient id="linear-gradient-64" x1="444.34" y1="123.69" x2="657.33" y2="-227.3" gradientTransform="translate(541.48 819.5) rotate(-180)" xlink:href="#linear-gradient-5"/><linearGradient id="linear-gradient-65" x1="509.14" y1="163.01" x2="722.13" y2="-187.97" gradientTransform="translate(861.29 584.71) rotate(-180)" xlink:href="#linear-gradient-5"/><linearGradient id="linear-gradient-66" x1="500.87" y1="157.99" x2="713.86" y2="-192.99" gradientTransform="translate(832.26 595.25) rotate(-180)" xlink:href="#linear-gradient-5"/><linearGradient id="linear-gradient-67" x1="484.48" y1="148.05" x2="697.47" y2="-202.94" gradientTransform="translate(803.23 569.2) rotate(-180)" xlink:href="#linear-gradient-5"/><linearGradient id="linear-gradient-68" x1="481.65" y1="146.33" x2="694.64" y2="-204.65" gradientTransform="translate(774.2 604.28) rotate(-180)" xlink:href="#linear-gradient-5"/><linearGradient id="linear-gradient-69" x1="464.63" y1="136" x2="677.62" y2="-214.98" gradientTransform="translate(745.17 575.37) rotate(-180)" xlink:href="#linear-gradient-5"/><linearGradient id="linear-gradient-70" x1="455.56" y1="130.49" x2="668.55" y2="-220.49" gradientTransform="translate(716.14 582.3) rotate(-180)" xlink:href="#linear-gradient-5"/><linearGradient id="linear-gradient-71" x1="446.62" y1="125.07" x2="659.61" y2="-225.91" gradientTransform="translate(687.11 589.82) rotate(-180)" xlink:href="#linear-gradient-5"/><linearGradient id="linear-gradient-72" x1="429.37" y1="114.6" x2="642.36" y2="-236.38" gradientTransform="translate(658.08 559.86) rotate(-180)" xlink:href="#linear-gradient-5"/><linearGradient id="linear-gradient-73" x1="420.06" y1="108.95" x2="633.05" y2="-242.03" gradientTransform="translate(629.04 565.73) rotate(-180)" xlink:href="#linear-gradient-5"/><linearGradient id="linear-gradient-74" x1="411.42" y1="103.71" x2="624.41" y2="-247.27" gradientTransform="translate(600.01 574.62) rotate(-180)" xlink:href="#linear-gradient-5"/><linearGradient id="linear-gradient-75" x1="407.62" y1="101.4" x2="620.61" y2="-249.58" gradientTransform="translate(570.98 605.31) rotate(-180)" xlink:href="#linear-gradient-5"/><linearGradient id="linear-gradient-76" x1="392.67" y1="92.33" x2="605.66" y2="-258.65" gradientTransform="translate(541.95 585.76) rotate(-180)" xlink:href="#linear-gradient-5"/><linearGradient id="linear-gradient-77" x1="459.76" y1="133.04" x2="672.74" y2="-217.94" gradientTransform="translate(860.83 362.79) rotate(-180)" xlink:href="#linear-gradient-5"/><linearGradient id="linear-gradient-78" x1="451.48" y1="128.02" x2="664.47" y2="-222.96" gradientTransform="translate(831.8 373.33) rotate(-180)" xlink:href="#linear-gradient-5"/><linearGradient id="linear-gradient-79" x1="435.1" y1="118.08" x2="648.09" y2="-232.9" gradientTransform="translate(802.76 347.28) rotate(-180)" xlink:href="#linear-gradient-5"/><linearGradient id="linear-gradient-80" x1="432.27" y1="116.36" x2="645.26" y2="-234.62" gradientTransform="translate(773.73 382.36) rotate(-180)" xlink:href="#linear-gradient-5"/><linearGradient id="linear-gradient-81" x1="415.25" y1="106.03" x2="628.24" y2="-244.95" gradientTransform="translate(744.7 353.45) rotate(-180)" xlink:href="#linear-gradient-5"/><linearGradient id="linear-gradient-82" x1="406.18" y1="100.53" x2="619.17" y2="-250.46" gradientTransform="translate(715.67 360.38) rotate(-180)" xlink:href="#linear-gradient-5"/><linearGradient id="linear-gradient-83" x1="397.24" y1="95.1" x2="610.23" y2="-255.88" gradientTransform="translate(686.64 367.9) rotate(-180)" xlink:href="#linear-gradient-5"/><linearGradient id="linear-gradient-84" x1="379.98" y1="84.63" x2="592.97" y2="-266.35" gradientTransform="translate(657.61 337.94) rotate(-180)" xlink:href="#linear-gradient-5"/><linearGradient id="linear-gradient-85" x1="370.68" y1="78.99" x2="583.67" y2="-272" gradientTransform="translate(628.58 343.81) rotate(-180)" xlink:href="#linear-gradient-5"/><linearGradient id="linear-gradient-86" x1="362.04" y1="73.74" x2="575.03" y2="-277.24" gradientTransform="translate(599.55 352.7) rotate(-180)" xlink:href="#linear-gradient-5"/><linearGradient id="linear-gradient-87" x1="358.24" y1="71.44" x2="571.23" y2="-279.55" gradientTransform="translate(570.51 383.39) rotate(-180)" xlink:href="#linear-gradient-5"/><linearGradient id="linear-gradient-88" x1="343.29" y1="62.37" x2="556.28" y2="-288.62" gradientTransform="translate(541.48 363.84) rotate(-180)" xlink:href="#linear-gradient-5"/><linearGradient id="linear-gradient-89" x1="551.09" y1="990.47" x2="552.58" y2="675.48" xlink:href="#linear-gradient-5"/><linearGradient id="linear-gradient-90" x1="530.07" y1="944.57" x2="506.07" y2="1130.56" gradientTransform="translate(1099.8 1581.72) rotate(-180)" xlink:href="#linear-gradient-5"/><linearGradient id="linear-gradient-91" x1="-1051.97" y1="694.27" x2="-1011.5" y2="786.35" gradientTransform="translate(1560.06 -445.63) rotate(-12.16)" gradientUnits="userSpaceOnUse"><stop offset="0" stop-color="#febbba"/><stop offset="1" stop-color="#ff928e"/></linearGradient><linearGradient id="linear-gradient-92" x1="-1236.32" y1="264.92" x2="-1185.35" y2="380.87" gradientTransform="matrix(1, -0.02, 0.02, 1, 1895.3, 191.26)" xlink:href="#linear-gradient-91"/><linearGradient id="linear-gradient-93" x1="-2860.41" y1="35.89" x2="-2846.68" y2="35.89" gradientTransform="matrix(-0.98, -0.19, -0.19, 0.98, -2148.18, -156.23)" xlink:href="#linear-gradient-91"/><linearGradient id="linear-gradient-94" x1="920.68" y1="590.14" x2="851.68" y2="566.14" gradientUnits="userSpaceOnUse"><stop offset="0" stop-color="#ff928e"/><stop offset="1" stop-color="#bc5a7c"/></linearGradient><linearGradient id="linear-gradient-95" x1="-355.23" y1="-585.79" x2="-350.51" y2="-619.3" gradientTransform="translate(905.8 1148.37) rotate(16.22)" xlink:href="#linear-gradient-91"/><linearGradient id="linear-gradient-96" x1="1051.73" y1="1114.86" x2="874.71" y2="907.84" gradientTransform="matrix(1, 0, 0, 1, 0, 0)" xlink:href="#linear-gradient-91"/><linearGradient id="linear-gradient-97" x1="-3252.14" y1="730.75" x2="-3221.37" y2="730.75" gradientTransform="matrix(-1, -0.01, -0.01, 1, -2461.19, 43.27)" xlink:href="#linear-gradient-3"/><linearGradient id="linear-gradient-98" x1="-3155.8" y1="658.99" x2="-3313.22" y2="709.32" gradientTransform="matrix(-1, -0.01, -0.01, 1, -2461.19, 43.27)" xlink:href="#linear-gradient-91"/><linearGradient id="linear-gradient-99" x1="-3223.62" y1="736.3" x2="-3186.94" y2="736.3" gradientTransform="matrix(-1, -0.01, -0.01, 1, -2461.19, 43.27)" xlink:href="#linear-gradient-3"/><linearGradient id="linear-gradient-100" x1="-3173.53" y1="489.63" x2="-3261.4" y2="685.51" gradientTransform="matrix(-1, -0.01, -0.01, 1, -2461.19, 43.27)" xlink:href="#linear-gradient-5"/><linearGradient id="linear-gradient-101" x1="-3330.4" y1="553.81" x2="-3196.59" y2="497.84" gradientTransform="matrix(-1, 0, 0, 1, -2473.84, 0)" xlink:href="#linear-gradient-91"/><linearGradient id="linear-gradient-102" x1="-3183.05" y1="484.19" x2="-3142.19" y2="654.43" gradientTransform="matrix(-1, 0, 0, 1, -2473.84, 0)" xlink:href="#linear-gradient-3"/><linearGradient id="linear-gradient-103" x1="-3211.05" y1="529.23" x2="-3187.9" y2="529.23" gradientTransform="matrix(-1, 0, 0, 1, -2473.84, 0)" xlink:href="#linear-gradient-91"/><linearGradient id="linear-gradient-104" x1="1987.94" y1="-2169.12" x2="2036" y2="-2136.47" gradientTransform="translate(-1400.24 2462.81) rotate(3.58)" xlink:href="#linear-gradient-91"/><linearGradient id="linear-gradient-105" x1="732.42" y1="457.44" x2="762.42" y2="372.44" gradientTransform="matrix(1, 0, 0, 1, 0, 0)" xlink:href="#linear-gradient-3"/><linearGradient id="linear-gradient-106" x1="1987.96" y1="-2171.67" x2="2036.01" y2="-2139.03" gradientTransform="translate(-1400.24 2462.81) rotate(3.58)" xlink:href="#linear-gradient-91"/><linearGradient id="linear-gradient-107" x1="823.02" y1="519.33" x2="751.02" y2="404.33" gradientTransform="matrix(1, 0, 0, 1, 0, 0)" xlink:href="#linear-gradient-3"/></defs><g class="cls-1"><g id="Layer_2" data-name="Layer 2"><g id="Metaphor_illustration" data-name="Metaphor illustration"><path class="cls-2" d="M731.88,712.39c-16.86,17.74-32.81,29.19-45.42,38.24C538.31,856.93,363,825.94,325.74,818.38c-55-11.18-161.37-32.78-238.26-123.2-116.33-136.8-98.22-352.32-8-494.59C96,174.56,183.18,30.13,360.38,7,467.62-7,592.63,21.22,683.15,97.06,873.18,256.26,859.65,577.88,731.88,712.39Z"/><path class="cls-3" d="M669.92,247.23a4.41,4.41,0,0,0-4.47-4.26H517.7c-2.47,0-5.1,2-5.1,4.36V582.22A7,7,0,0,0,515,587a7.47,7.47,0,0,0,5.07,2l149.38-.4a7.11,7.11,0,0,0,5-2,6.64,6.64,0,0,0,2-4.85Z"/><g class="cls-4"><polygon class="cls-5" points="585.07 266.7 536.73 266.54 536.75 260.66 585.03 260.81 585.07 266.7"/><polygon class="cls-5" points="585.2 288.33 536.66 288.12 536.68 282.2 585.16 282.4 585.2 288.33"/><polygon class="cls-5" points="585.33 310.14 536.6 309.88 536.62 303.9 585.29 304.16 585.33 310.14"/><polygon class="cls-5" points="585.47 332.14 536.53 331.81 536.55 325.8 585.43 326.1 585.47 332.14"/><polygon class="cls-5" points="585.6 354.31 536.46 353.94 536.48 347.87 585.57 348.23 585.6 354.31"/><polygon class="cls-5" points="585.88 399.23 536.33 398.73 536.35 392.56 585.84 393.04 585.88 399.23"/><polygon class="cls-5" points="586.3 468.03 536.12 467.36 536.13 461.03 586.26 461.68 586.3 468.03"/><polygon class="cls-5" points="585.74 376.68 536.39 376.24 536.41 370.12 585.7 370.54 585.74 376.68"/><polygon class="cls-5" points="586.02 421.97 536.26 421.42 536.27 415.19 585.98 415.73 586.02 421.97"/><polygon class="cls-5" points="586.16 444.9 536.19 444.29 536.21 438.01 586.12 438.61 586.16 444.9"/><polygon class="cls-5" points="586.44 491.35 536.04 490.62 536.06 484.24 586.4 484.95 586.44 491.35"/><polygon class="cls-5" points="586.59 514.88 535.97 514.09 535.99 507.65 586.55 508.42 586.59 514.88"/><polygon class="cls-5" points="586.73 538.61 535.9 537.75 535.92 531.26 586.69 532.09 586.73 538.61"/><polygon class="cls-5" points="586.88 562.54 535.83 561.62 535.85 555.07 586.84 555.97 586.88 562.54"/><polygon class="cls-5" points="648.44 266.91 599.8 266.75 599.75 260.86 648.33 261.01 648.44 266.91"/><polygon class="cls-5" points="648.83 288.61 599.99 288.4 599.94 282.46 648.72 282.66 648.83 288.61"/><polygon class="cls-5" points="649.23 310.5 600.19 310.23 600.13 304.24 649.12 304.49 649.23 310.5"/><polygon class="cls-5" points="649.63 332.56 600.38 332.24 600.33 326.2 649.52 326.51 649.63 332.56"/><polygon class="cls-5" points="650.03 354.81 600.58 354.43 600.53 348.34 649.92 348.7 650.03 354.81"/><polygon class="cls-5" points="650.85 399.87 600.98 399.38 600.93 393.18 650.74 393.66 650.85 399.87"/><polygon class="cls-5" points="652.11 468.9 601.6 468.23 601.54 461.88 651.99 462.53 652.11 468.9"/><polygon class="cls-5" points="650.44 377.25 600.78 376.81 600.73 370.67 650.33 371.09 650.44 377.25"/><polygon class="cls-5" points="651.27 422.69 601.19 422.13 601.13 415.89 651.15 416.43 651.27 422.69"/><polygon class="cls-5" points="651.69 445.7 601.39 445.08 601.33 438.79 651.57 439.38 651.69 445.7"/><polygon class="cls-5" points="652.53 492.31 601.81 491.57 601.75 485.17 652.42 485.88 652.53 492.31"/><polygon class="cls-5" points="652.96 515.92 602.02 515.12 601.96 508.66 652.85 509.44 652.96 515.92"/><polygon class="cls-5" points="653.4 539.73 602.23 538.87 602.17 532.35 653.28 533.19 653.4 539.73"/><polygon class="cls-5" points="653.83 563.75 602.44 562.82 602.38 556.25 653.71 557.15 653.83 563.75"/></g><path class="cls-6" d="M585.45,211.57A4.42,4.42,0,0,0,581,207.3H433.22c-2.46,0-5.09,2-5.09,4.36v334.9a7,7,0,0,0,2.35,4.77,7.42,7.42,0,0,0,5.07,2l149.38-.39a7.14,7.14,0,0,0,5-2,6.65,6.65,0,0,0,2-4.84Z"/><g class="cls-4"><polygon class="cls-5" points="500.6 231.03 452.26 230.87 452.28 225 500.56 225.15 500.6 231.03"/><polygon class="cls-5" points="500.73 252.67 452.19 252.45 452.21 246.53 500.69 246.73 500.73 252.67"/><polygon class="cls-5" points="500.86 274.48 452.13 274.21 452.15 268.24 500.82 268.5 500.86 274.48"/><polygon class="cls-5" points="501 296.47 452.06 296.15 452.08 290.13 500.96 290.44 501 296.47"/><polygon class="cls-5" points="501.13 318.65 451.99 318.27 452.01 312.2 501.09 312.56 501.13 318.65"/><polygon class="cls-5" points="501.41 363.56 451.86 363.07 451.87 356.9 501.37 357.37 501.41 363.56"/><polygon class="cls-5" points="501.83 432.36 451.64 431.69 451.66 425.36 501.79 426.01 501.83 432.36"/><polygon class="cls-5" points="501.27 341.01 451.92 340.58 451.94 334.46 501.23 334.88 501.27 341.01"/><polygon class="cls-5" points="501.55 386.3 451.79 385.75 451.8 379.53 501.51 380.06 501.55 386.3"/><polygon class="cls-5" points="501.69 409.23 451.71 408.63 451.73 402.35 501.65 402.94 501.69 409.23"/><polygon class="cls-5" points="501.97 455.69 451.57 454.96 451.59 448.57 501.93 449.29 501.97 455.69"/><polygon class="cls-5" points="502.12 479.21 451.5 478.42 451.52 471.98 502.08 472.76 502.12 479.21"/><polygon class="cls-5" points="502.26 502.94 451.43 502.09 451.45 495.59 502.22 496.43 502.26 502.94"/><polygon class="cls-5" points="502.41 526.88 451.36 525.96 451.38 519.41 502.37 520.31 502.41 526.88"/><polygon class="cls-5" points="563.97 231.25 515.33 231.08 515.27 225.19 563.86 225.34 563.97 231.25"/><polygon class="cls-5" points="564.36 252.95 515.52 252.73 515.47 246.79 564.25 247 564.36 252.95"/><polygon class="cls-5" points="564.76 274.83 515.72 274.56 515.66 268.57 564.65 268.83 564.76 274.83"/><polygon class="cls-5" points="565.16 296.9 515.91 296.57 515.86 290.53 565.05 290.84 565.16 296.9"/><polygon class="cls-5" points="565.56 319.14 516.11 318.76 516.06 312.68 565.45 313.04 565.56 319.14"/><polygon class="cls-5" points="566.38 364.2 516.51 363.71 516.46 357.52 566.27 358 566.38 364.2"/><polygon class="cls-5" points="567.64 433.24 517.13 432.56 517.07 426.21 567.52 426.87 567.64 433.24"/><polygon class="cls-5" points="565.97 341.58 516.31 341.14 516.25 335 565.86 335.42 565.97 341.58"/><polygon class="cls-5" points="566.8 387.02 516.72 386.47 516.66 380.22 566.68 380.76 566.8 387.02"/><polygon class="cls-5" points="567.22 410.03 516.92 409.42 516.86 403.12 567.1 403.72 567.22 410.03"/><polygon class="cls-5" points="568.06 456.64 517.34 455.91 517.28 449.5 567.95 450.22 568.06 456.64"/><polygon class="cls-5" points="568.49 480.25 517.54 479.45 517.49 472.99 568.37 473.77 568.49 480.25"/><polygon class="cls-5" points="568.92 504.06 517.76 503.2 517.7 496.69 568.81 497.53 568.92 504.06"/><polygon class="cls-5" points="569.36 528.08 517.97 527.16 517.91 520.58 569.24 521.49 569.36 528.08"/></g><path class="cls-6" d="M769.13,324.85c-.06-2.73-2.87-5-6.31-5H632.68c-3.49,0-6.92,2.37-6.92,5.15V572.83a4.94,4.94,0,0,0,2.16,3.55,7.66,7.66,0,0,0,4.63,1.47l136.06-.29a7.38,7.38,0,0,0,4.54-1.51,4.64,4.64,0,0,0,1.82-3.64Z"/><g class="cls-7"><polygon class="cls-8" points="673.29 349.07 636.22 349.03 635.93 333.93 673.04 333.93 673.29 349.07"/><polygon class="cls-8" points="714.85 349.06 677.81 349.02 677.56 333.93 714.63 333.93 714.85 349.06"/><polygon class="cls-8" points="756.36 349.05 719.36 349.01 719.15 333.93 756.18 333.93 756.36 349.05"/><polygon class="cls-8" points="673.76 376.17 636.75 376.19 636.46 361.19 673.5 361.18 673.76 376.17"/><polygon class="cls-8" points="715.24 376.15 678.27 376.17 678.01 361.18 715.02 361.16 715.24 376.15"/><polygon class="cls-8" points="756.68 376.13 719.75 376.15 719.53 361.16 756.5 361.15 756.68 376.13"/><polygon class="cls-8" points="674.22 403.09 637.27 403.12 636.98 388.17 673.96 388.15 674.22 403.09"/><polygon class="cls-8" points="715.63 403.06 678.72 403.09 678.47 388.14 715.41 388.12 715.63 403.06"/><polygon class="cls-8" points="757 403.02 720.13 403.05 719.92 388.12 756.82 388.09 757 403.02"/><polygon class="cls-8" points="674.68 429.92 637.8 429.96 637.51 415.06 674.42 415.02 674.68 429.92"/><polygon class="cls-8" points="716.02 429.87 679.17 429.91 678.92 415.02 715.8 414.99 716.02 429.87"/><polygon class="cls-8" points="757.31 429.82 720.51 429.86 720.3 414.98 757.14 414.94 757.31 429.82"/><polygon class="cls-8" points="675.14 456.65 638.32 456.7 638.03 441.86 674.88 441.81 675.14 456.65"/><polygon class="cls-8" points="716.4 456.59 679.63 456.64 679.38 441.8 716.19 441.76 716.4 456.59"/><polygon class="cls-8" points="757.63 456.53 720.89 456.58 720.68 441.75 757.46 441.7 757.63 456.53"/><polygon class="cls-8" points="675.59 483.29 638.84 483.36 638.55 468.56 675.34 468.5 675.59 483.29"/><polygon class="cls-8" points="716.79 483.22 680.07 483.28 679.83 468.5 716.58 468.44 716.79 483.22"/><polygon class="cls-8" points="757.94 483.14 721.26 483.21 721.05 468.43 757.77 468.37 757.94 483.14"/><polygon class="cls-8" points="676.05 509.84 639.36 509.92 639.07 495.17 675.8 495.1 676.05 509.84"/><polygon class="cls-8" points="717.17 509.75 680.52 509.83 680.27 495.09 716.96 495.02 717.17 509.75"/><polygon class="cls-8" points="758.26 509.67 721.64 509.74 721.43 495.01 758.08 494.94 758.26 509.67"/><polygon class="cls-8" points="676.5 536.3 639.88 536.39 639.59 521.69 676.25 521.61 676.5 536.3"/><polygon class="cls-8" points="717.56 536.2 680.97 536.29 680.72 521.6 717.34 521.52 717.56 536.2"/><polygon class="cls-8" points="758.57 536.1 722.02 536.19 721.81 521.51 758.4 521.42 758.57 536.1"/><polygon class="cls-8" points="676.96 562.66 640.39 562.77 640.11 548.12 676.71 548.03 676.96 562.66"/><polygon class="cls-8" points="717.94 562.55 681.41 562.65 681.16 548.02 717.73 547.92 717.94 562.55"/><polygon class="cls-8" points="758.88 562.44 722.39 562.54 722.18 547.91 758.71 547.82 758.88 562.44"/></g><path class="cls-3" d="M297.15,532.38c-13.54-47.52-41.28-85.95-74.78-109.1a140.49,140.49,0,0,1-58.18-87.8q-1.12-5.64-2.73-11.3C145.17,267,97,230.65,54,242.93S-10.88,311.49,5.41,368.65a139.65,139.65,0,0,0,13.67,32.21c18.12,31,24.51,67.63,16.51,102.62-7.16,31.27-6.48,66.76,3.67,102.39,15.14,53.13,48,94.9,86.89,116.66a138.1,138.1,0,0,1,38.63,32c17.91,21.51,43.72,32.19,67.91,25.29,26.1-7.43,43-33.24,45.06-63.93a147.43,147.43,0,0,1,12.81-50.17C307.29,628.22,310.84,580.43,297.15,532.38Z"/><path class="cls-9" d="M86.36,299.43c16.39,36.17,31.61,72.83,46.45,109.66,3.71,9.2,7.28,18.46,10.88,27.72l5.39,13.87,5.27,13.93c3.48,9.29,7.09,18.54,10.47,27.88l10.13,28c6.51,18.76,13.18,37.45,19.35,56.33,3.1,9.43,6.38,18.81,9.28,28.3l8.85,28.44c11.41,38,21.87,76.39,30.38,115.18l-1.66.39-7.47-28.79-1.85-7.2-2-7.15-4.09-14.29-4.06-14.3c-1.34-4.77-2.86-9.49-4.29-14.24-2.91-9.47-5.75-19-8.72-28.42q-18.19-56.62-38.17-112.65c-6.85-18.6-13.54-37.27-20.51-55.83l-5.19-13.93-5.31-13.9c-3.54-9.26-7.07-18.52-10.7-27.75q-10.65-27.78-21.71-55.39c-7.28-18.45-14.74-36.83-22.25-55.18Z"/><path class="cls-6" d="M433.47,416.76C419.16,350.92,384.69,296.24,341,261.85c-39-30.74-65.07-75.28-71.66-124.48q-1-7.77-2.74-15.61C249.41,42.58,186.94-11.06,127.1,1.94S32.69,89.68,49.9,168.86a189.7,189.7,0,0,0,15.83,45C87.73,257.59,93.24,308,79.26,355c-12.5,41.94-14.68,90.3-4,139.66,16,73.61,57.21,133.28,108.3,166.23a188.15,188.15,0,0,1,49.88,46.9C256,738.56,290.29,755.31,323.89,748c36.25-7.88,61.58-41.55,67.06-83.14a201,201,0,0,1,21.85-67.18C438.91,548.06,447.93,483.32,433.47,416.76Z"/><path class="cls-10" d="M166.36,81.62c19.19,50.63,36.74,101.84,53.76,153.23,4.26,12.84,8.31,25.76,12.4,38.66l6.14,19.35,6,19.4c3.93,12.95,8,25.84,11.83,38.84l11.37,39c7.24,26.08,14.7,52.1,21.46,78.32,3.4,13.1,7.05,26.14,10.19,39.31l9.57,39.47C321.3,599.93,332.21,653,340.42,706.54l-2.3.38-7.67-39.82-1.89-10-2.15-9.9-4.32-19.81-4.29-19.81c-1.41-6.6-3.07-13.16-4.6-19.74-3.14-13.14-6.18-26.31-9.41-39.43C290.55,496,276.6,443.81,261.58,391.87,253.88,366,246.39,340,238.5,314.13l-5.86-19.41-6-19.36c-4-12.91-8-25.82-12.16-38.69Q202.36,198,189.69,159.42q-12.48-38.59-25.52-77Z"/><g class="cls-11"><path class="cls-6" d="M721.08,148.12a2.29,2.29,0,0,1-1.66-2.78c.6-2.39,1.11-4.83,1.51-7.27a2.28,2.28,0,0,1,2.58-1.9h0a2.29,2.29,0,0,1,1.89,2.63c-.42,2.57-1,5.14-1.59,7.65a2.3,2.3,0,0,1-2.55,1.71Zm1-22.06c.06-2.47,0-5-.13-7.41a2.29,2.29,0,1,1,4.58-.28c.15,2.59.19,5.21.13,7.81a2.29,2.29,0,0,1-2.35,2.23l-.27,0A2.28,2.28,0,0,1,722.06,126.06Zm-1.68-19.37c-.49-2.41-1.08-4.83-1.78-7.2A2.29,2.29,0,0,1,723,98.2c.73,2.49,1.36,5,1.87,7.59a2.29,2.29,0,1,1-4.49.9Zm-6-18.5c-1-2.25-2.14-4.48-3.34-6.63a2.29,2.29,0,0,1,4-2.24c1.27,2.27,2.45,4.61,3.52,7a2.29,2.29,0,0,1-1.14,3,2.26,2.26,0,0,1-1.27.18A2.31,2.31,0,0,1,714.41,88.19Zm-9.94-16.72c-1.48-2-3.07-3.89-4.72-5.72a2.29,2.29,0,1,1,3.4-3.07c1.74,1.93,3.41,4,5,6a2.29,2.29,0,0,1-.45,3.21,2.22,2.22,0,0,1-1.71.44A2.28,2.28,0,0,1,704.47,71.47Zm-13.39-14.1c-1.88-1.59-3.86-3.11-5.87-4.54a2.29,2.29,0,0,1,2.64-3.74c2.12,1.5,4.2,3.1,6.18,4.77a2.29,2.29,0,0,1-1.8,4A2.34,2.34,0,0,1,691.08,57.37Zm-83-18.5A2.28,2.28,0,0,1,609.6,36c2.49-.73,5-1.35,7.59-1.86a2.29,2.29,0,0,1,.9,4.49c-2.42.49-4.85,1.08-7.21,1.77a2.47,2.47,0,0,1-1,.07A2.3,2.3,0,0,1,608,38.87Zm66.87,7.72c-2.19-1.13-4.46-2.17-6.74-3.11a2.29,2.29,0,1,1,1.74-4.24c2.4,1,4.79,2.09,7.09,3.28a2.29,2.29,0,0,1-1.37,4.3A2.09,2.09,0,0,1,674.91,46.59ZM627.62,35a2.3,2.3,0,0,1,2.16-2.42c2.59-.15,5.22-.19,7.81-.12a2.29,2.29,0,1,1-.12,4.58c-2.47-.06-5,0-7.43.11a1.78,1.78,0,0,1-.46,0A2.3,2.3,0,0,1,627.62,35Zm29.11,4.72c-2.38-.61-4.82-1.12-7.26-1.52a2.29,2.29,0,0,1,.7-4.53h.05c2.56.42,5.14,1,7.65,1.6a2.29,2.29,0,0,1-.89,4.49Z"/><path class="cls-6" d="M594.94,46.37a2.23,2.23,0,0,0,1.35-.22c1.05-.53,2.14-1,3.22-1.53a2.29,2.29,0,1,0-1.88-4.18c-1.14.52-2.28,1.06-3.4,1.61a2.3,2.3,0,0,0-1,3.08A2.28,2.28,0,0,0,594.94,46.37Z"/></g><g class="cls-11"><path class="cls-6" d="M549.66,99.56A2.29,2.29,0,0,0,552.17,98c.35-1.12.73-2.26,1.13-3.38A2.29,2.29,0,1,0,549,93.05c-.42,1.17-.83,2.37-1.2,3.56a2.3,2.3,0,0,0,1.51,2.87A2.33,2.33,0,0,0,549.66,99.56Z"/><path class="cls-6" d="M617.55,213.73a2.29,2.29,0,0,1,.88-4.5c2.36.46,4.78.83,7.22,1.1a2.29,2.29,0,1,1-.5,4.55c-1.06-.11-2.11-.25-3.15-.4C620.51,214.27,619,214,617.55,213.73Zm17.72-.56a2.3,2.3,0,0,1,2.23-2.35c2.43-.06,4.88-.23,7.29-.49a2.29,2.29,0,1,1,.51,4.55c-2.54.28-5.12.46-7.68.52a1.7,1.7,0,0,1-.39,0A2.29,2.29,0,0,1,635.27,213.17Zm-29.78-2.66c-2.41-.82-4.82-1.76-7.16-2.79a2.29,2.29,0,0,1,1.84-4.2c2.22,1,4.51,1.87,6.8,2.65a2.29,2.29,0,0,1-1.06,4.44A2.13,2.13,0,0,1,605.49,210.51Zm49.31.49a2.3,2.3,0,0,1,1.66-2.78c2.36-.59,4.71-1.3,7-2.09a2.29,2.29,0,0,1,1.49,4.34c-2.41.83-4.89,1.57-7.36,2.19a2.24,2.24,0,0,1-.89.05A2.31,2.31,0,0,1,654.8,211Zm-67.52-9.07c-2.17-1.34-4.32-2.78-6.37-4.3a2.29,2.29,0,0,1,2.71-3.69c2,1.44,4,2.82,6.06,4.08a2.29,2.29,0,0,1-1.53,4.22A2.17,2.17,0,0,1,587.28,201.93Zm-15.89-12.37c-1.83-1.78-3.61-3.66-5.28-5.59a2.29,2.29,0,1,1,3.45-3c1.59,1.83,3.28,3.61,5,5.3a2.29,2.29,0,0,1-1.92,3.91A2.21,2.21,0,0,1,571.39,189.56ZM558.57,174c-1.4-2.14-2.72-4.36-3.94-6.6a2.29,2.29,0,1,1,4-2.18c1.15,2.13,2.41,4.24,3.74,6.27a2.28,2.28,0,0,1-.66,3.17,2.24,2.24,0,0,1-1.58.35A2.29,2.29,0,0,1,558.57,174Zm-9.12-18c-.9-2.39-1.71-4.85-2.4-7.3a2.29,2.29,0,1,1,4.41-1.24c.66,2.33,1.43,4.66,2.28,6.93a2.29,2.29,0,0,1-1.34,2.95,2.27,2.27,0,0,1-2.95-1.34Zm-5-19.53c-.35-2.53-.6-5.1-.73-7.65a2.29,2.29,0,0,1,4.57-.25c.13,2.43.37,4.87.7,7.27a2.29,2.29,0,0,1-4.54.63ZM544,116.39c.15-1.88.36-3.77.63-5.62.1-.67.2-1.34.31-2a2.29,2.29,0,0,1,4.52.75c-.1.64-.2,1.27-.29,1.91-.26,1.77-.46,3.56-.61,5.34a2.3,2.3,0,0,1-2.47,2.1l-.14,0A2.28,2.28,0,0,1,544,116.39Z"/><path class="cls-6" d="M675.14,205.79a2.27,2.27,0,0,0,1.37-.22c1.1-.56,2.22-1.16,3.31-1.77a2.29,2.29,0,1,0-2.24-4c-1,.58-2.1,1.15-3.15,1.68a2.29,2.29,0,0,0,.71,4.31Z"/></g><path class="cls-6" d="M687.39,168.47a1.06,1.06,0,0,0,.26-1.21l-5.21-11.95a57,57,0,0,0,7.76-16.68l12.48-3.72a1.07,1.07,0,0,0,.76-1l.66-15.62a1.06,1.06,0,0,0-.67-1L691.3,112.5A56.7,56.7,0,0,0,685,95.23l6.2-11.46a1.07,1.07,0,0,0-.15-1.24L680.45,71a1.06,1.06,0,0,0-1.21-.26l-12,5.21a57,57,0,0,0-16.68-7.76l-3.72-12.48a1.07,1.07,0,0,0-1-.76l-15.62-.66a1.05,1.05,0,0,0-1,.68l-4.77,12.12a56.7,56.7,0,0,0-17.27,6.32l-11.46-6.2a1.07,1.07,0,0,0-1.24.15L583,78a1.08,1.08,0,0,0-.26,1.22L588,91.12a57,57,0,0,0-7.76,16.68l-12.48,3.72a1.07,1.07,0,0,0-.76,1l-.66,15.62a1.05,1.05,0,0,0,.68,1l12.12,4.77a56.7,56.7,0,0,0,6.32,17.27l-6.2,11.46a1.07,1.07,0,0,0,.15,1.24l10.58,11.51a1.08,1.08,0,0,0,1.22.26l11.94-5.21a56.79,56.79,0,0,0,16.68,7.76l3.72,12.48a1.07,1.07,0,0,0,1,.76l15.62.66a1.06,1.06,0,0,0,1-.67l4.77-12.13A56.7,56.7,0,0,0,663.18,173l11.46,6.2a1.07,1.07,0,0,0,1.24-.15Z"/><path class="cls-3" d="M630.71,138.27a15.67,15.67,0,1,1,2.25.5A15.14,15.14,0,0,1,630.71,138.27Zm-1.25-25.65a12.11,12.11,0,1,0,7.43-1.33A12,12,0,0,0,629.46,112.62Z"/><path class="cls-3" d="M629.4,161.19c1.31.19,2.62.31,4,.37h0l1.26,0a38.55,38.55,0,0,0,6.17-.43h.08l.24,0,.46-.07a.92.92,0,0,0,.75-.78.88.88,0,0,0,0-.28.91.91,0,0,0-1-.75,36.81,36.81,0,1,1,30.5-34.72c0,1.25-.17,2.49-.34,3.72a36.64,36.64,0,0,1-5.67,14.94,1,1,0,0,0-.14.37.93.93,0,0,0,.4.9.91.91,0,0,0,1.27-.26,38.5,38.5,0,0,0,6-15.68c.19-1.3.31-2.6.37-3.91A38.64,38.64,0,0,0,608.85,94.5a38.27,38.27,0,0,0-12.09,22.86,36.87,36.87,0,0,0-.37,4,38.66,38.66,0,0,0,33,39.87Z"/><g class="cls-11"><path class="cls-6" d="M790.08,219.09a1.43,1.43,0,0,0,1.49-.82c.5-1.09,1-2.21,1.4-3.33a1.42,1.42,0,0,0-2.64-1c-.41,1.07-.86,2.14-1.34,3.18a1.41,1.41,0,0,0,.7,1.87A1.46,1.46,0,0,0,790.08,219.09Z"/><path class="cls-6" d="M793.53,208.79a1.42,1.42,0,0,1-1-1.72,57.21,57.21,0,0,0,1.15-5.83c.06-.41.11-.82.16-1.24a1.43,1.43,0,0,1,1.58-1.23,1.46,1.46,0,0,1,1.23,1.58c0,.43-.11.87-.17,1.3-.3,2-.7,4.1-1.2,6.11a1.4,1.4,0,0,1-1.57,1.05Zm.72-16a57.14,57.14,0,0,0-.43-7.17,1.41,1.41,0,0,1,1.23-1.58,1.43,1.43,0,0,1,1.58,1.23,60.84,60.84,0,0,1,.45,7.52,1.42,1.42,0,0,1-1.41,1.42l-.2,0A1.42,1.42,0,0,1,794.25,192.83Zm-1.76-14.24a59.08,59.08,0,0,0-2.18-6.84,1.41,1.41,0,0,1,2.63-1,60.56,60.56,0,0,1,2.3,7.18,1.42,1.42,0,0,1-1,1.72,1.46,1.46,0,0,1-.55,0A1.42,1.42,0,0,1,792.49,178.59Zm-5.2-13.36a57,57,0,0,0-3.8-6.1,1.42,1.42,0,0,1,2.31-1.65,61,61,0,0,1,4,6.4,1.42,1.42,0,0,1-.57,1.92,1.37,1.37,0,0,1-.88.15A1.4,1.4,0,0,1,787.29,165.23ZM779,153.53a59.28,59.28,0,0,0-5.16-5,1.41,1.41,0,1,1,1.84-2.15,60.68,60.68,0,0,1,5.41,5.23,1.42,1.42,0,0,1-1.25,2.36A1.45,1.45,0,0,1,779,153.53Zm-10.9-9.32a57.25,57.25,0,0,0-6.22-3.58,1.42,1.42,0,0,1,1.26-2.54,61.34,61.34,0,0,1,6.53,3.76,1.42,1.42,0,0,1-1,2.58A1.42,1.42,0,0,1,768.08,144.21Zm-12.84-6.37a59.92,59.92,0,0,0-6.91-2,1.41,1.41,0,0,1-1.09-1.68,1.43,1.43,0,0,1,1.69-1.08,62.35,62.35,0,0,1,7.25,2,1.42,1.42,0,0,1-.67,2.74Zm-22.66-4.6a1.41,1.41,0,0,1,1.37-1.46,59.6,59.6,0,0,1,6.54.14l1,.08a1.39,1.39,0,0,1,1.28,1.53,1.42,1.42,0,0,1-1.54,1.29l-.93-.08a56.85,56.85,0,0,0-6.25-.13l-.25,0A1.4,1.4,0,0,1,732.58,133.24Z"/></g><g class="cls-11"><path class="cls-6" d="M726.4,253.23a61.46,61.46,0,0,1-7.24-1.59,1.42,1.42,0,0,1,.78-2.73,55.45,55.45,0,0,0,6.9,1.52,1.42,1.42,0,0,1-.42,2.8Zm6-.76a1.42,1.42,0,0,1,1.47-1.36,57.51,57.51,0,0,0,7.07-.17,1.42,1.42,0,0,1,.23,2.83,63,63,0,0,1-7.4.17h-.16A1.43,1.43,0,0,1,732.41,252.47Zm-20.24-3.29a62.15,62.15,0,0,1-6.64-3.3,1.41,1.41,0,0,1,1.41-2.45,62.07,62.07,0,0,0,6.33,3.14,1.41,1.41,0,0,1-.75,2.7A1.5,1.5,0,0,1,712.17,249.18Zm34.68,2.42a1.41,1.41,0,0,1,1.09-1.68,57.83,57.83,0,0,0,6.82-1.87,1.42,1.42,0,0,1,.91,2.68,59.07,59.07,0,0,1-7.15,2,1.36,1.36,0,0,1-.49,0A1.43,1.43,0,0,1,746.85,251.6Zm-47.5-9.79a61.47,61.47,0,0,1-5.65-4.8,1.41,1.41,0,0,1,2-2,60.24,60.24,0,0,0,5.39,4.57,1.41,1.41,0,0,1-1,2.53A1.46,1.46,0,0,1,699.35,241.81Zm-10.68-10.24a63.47,63.47,0,0,1-4.34-6,1.42,1.42,0,1,1,2.39-1.52,59.52,59.52,0,0,0,4.14,5.73,1.4,1.4,0,0,1-.2,2,1.44,1.44,0,0,1-1.1.31A1.38,1.38,0,0,1,688.67,231.57Zm-7.92-12.49A61.84,61.84,0,0,1,678,212.2a1.42,1.42,0,0,1,2.69-.89,57.81,57.81,0,0,0,2.64,6.55,1.41,1.41,0,0,1-.67,1.89,1.41,1.41,0,0,1-1.88-.67Z"/><path class="cls-6" d="M761.77,248a1.46,1.46,0,0,0,.82-.12c1.09-.53,2.17-1.1,3.21-1.68a1.42,1.42,0,0,0-1.39-2.47c-1,.56-2,1.1-3.06,1.6a1.42,1.42,0,0,0-.65,1.89A1.39,1.39,0,0,0,761.77,248Z"/></g><path class="cls-6" d="M770.92,222.68a.74.74,0,0,0,.17-.82l-3.48-8a38.21,38.21,0,0,0,5.19-11.16l8.35-2.49a.72.72,0,0,0,.51-.66l.44-10.45a.71.71,0,0,0-.45-.7l-8.11-3.19a37.84,37.84,0,0,0-4.23-11.55l4.15-7.68a.71.71,0,0,0-.11-.82l-7.07-7.7a.73.73,0,0,0-.82-.18l-8,3.49a38.21,38.21,0,0,0-11.16-5.19l-2.49-8.35a.73.73,0,0,0-.66-.52l-10.45-.44a.72.72,0,0,0-.7.46l-3.18,8.11a37.9,37.9,0,0,0-11.56,4.23l-7.67-4.15a.71.71,0,0,0-.83.1l-7.7,7.08a.71.71,0,0,0-.18.81l3.49,8a38,38,0,0,0-5.19,11.16l-8.35,2.49a.69.69,0,0,0-.51.65l-.45,10.46a.71.71,0,0,0,.46.69l8.11,3.19a37.9,37.9,0,0,0,4.23,11.56l-4.15,7.67a.73.73,0,0,0,.1.83l7.08,7.7a.72.72,0,0,0,.81.17l8-3.48a38.09,38.09,0,0,0,11.16,5.19l2.49,8.35a.72.72,0,0,0,.65.51l10.46.44a.7.7,0,0,0,.69-.45l3.19-8.11a38.16,38.16,0,0,0,11.56-4.23l7.67,4.15a.73.73,0,0,0,.83-.11Z"/><path class="cls-3" d="M732.94,202.65a10.7,10.7,0,1,1,1.55.34A10.47,10.47,0,0,1,732.94,202.65Zm-4.49-12.51a7.88,7.88,0,0,0,5.29,9.8h0a7.87,7.87,0,1,0,4.5-15.09,6.35,6.35,0,0,0-1.13-.25A7.87,7.87,0,0,0,728.45,190.14Z"/><path class="cls-3" d="M732,218.6a26.81,26.81,0,0,0,2.7.25,26.55,26.55,0,0,0,5.42-.32l.24,0a1.41,1.41,0,0,0,1.16-1.19,1.7,1.7,0,0,0,0-.45,1.42,1.42,0,0,0-1.64-1.15,23.79,23.79,0,0,1-5.06.32h-.28a23.69,23.69,0,0,1-11.15-3.45,24.28,24.28,0,0,1-5-4.07l0,0-.11-.12a23.7,23.7,0,0,1-6.26-17.13c0-.82.11-1.64.23-2.44a23.83,23.83,0,0,1,47.38,4.45,24,24,0,0,1-.22,2.41,23.7,23.7,0,0,1-3.67,9.67,1.42,1.42,0,0,0,2.37,1.56,26.66,26.66,0,0,0-40.32-34.27,26.42,26.42,0,0,0-8.34,15.77,27.42,27.42,0,0,0-.26,2.73A26.71,26.71,0,0,0,732,218.6Z"/><path class="cls-8" d="M28.44,259.36h-.05a.93.93,0,0,1-.87-1A89.28,89.28,0,0,1,28.84,247a.92.92,0,0,1,1.82.33,89.31,89.31,0,0,0-1.3,11.2A.93.93,0,0,1,28.44,259.36Z"/><rect class="cls-12" x="142.66" y="101.06" width="285.08" height="689.28" rx="10.26" transform="translate(570.41 891.39) rotate(180)"/><rect class="cls-13" x="214.92" y="101.06" width="285.08" height="689.28" rx="16.26" transform="translate(714.92 891.39) rotate(180)"/><path class="cls-14" d="M234,188.79V148.41c0-7.93,4.95-14.39,11-14.39H462.94c6.08,0,11,6.46,11,14.39v40.38c0,7.93-5,14.38-11,14.38H245C238.94,203.17,234,196.72,234,188.79Zm11-51.17c-4.56,0-8.28,4.84-8.28,10.79v40.38c0,6,3.72,10.79,8.28,10.79H462.94c4.56,0,8.27-4.84,8.27-10.79V148.41c0-5.95-3.71-10.79-8.27-10.79Z"/><path class="cls-15" d="M234,299.43V259.05c0-7.94,4.95-14.39,11-14.39H462.94c6.08,0,11,6.45,11,14.39v40.38c0,7.93-5,14.38-11,14.38H245C238.94,313.81,234,307.36,234,299.43Zm11-51.17c-4.56,0-8.28,4.84-8.28,10.79v40.38c0,5.95,3.72,10.79,8.28,10.79H462.94c4.56,0,8.27-4.84,8.27-10.79V259.05c0-6-3.71-10.79-8.27-10.79Z"/><path class="cls-16" d="M234,416.86V376.47c0-7.93,4.95-14.38,11-14.38H462.94c6.08,0,11,6.45,11,14.38v40.39c0,7.93-5,14.38-11,14.38H245C238.94,431.24,234,424.79,234,416.86Zm11-51.17c-4.56,0-8.28,4.83-8.28,10.78v40.39c0,5.94,3.72,10.78,8.28,10.78H462.94c4.56,0,8.27-4.84,8.27-10.78V376.47c0-6-3.71-10.78-8.27-10.78Z"/><path class="cls-17" d="M234,527.5V487.11c0-7.93,4.95-14.38,11-14.38H462.94c6.08,0,11,6.45,11,14.38V527.5c0,7.93-5,14.38-11,14.38H245C238.94,541.88,234,535.43,234,527.5Zm11-51.17c-4.56,0-8.28,4.83-8.28,10.78V527.5c0,5.94,3.72,10.78,8.28,10.78H462.94c4.56,0,8.27-4.84,8.27-10.78V487.11c0-5.95-3.71-10.78-8.27-10.78Z"/><path class="cls-18" d="M235.37,641V600.59c0-7.93,4.95-14.38,11-14.38H464.32c6.08,0,11,6.45,11,14.38V641c0,7.93-5,14.38-11,14.38H246.4C240.32,655.36,235.37,648.91,235.37,641Zm11-51.17c-4.56,0-8.28,4.84-8.28,10.78V641c0,5.95,3.72,10.79,8.28,10.79H464.32c4.56,0,8.27-4.84,8.27-10.79V600.59c0-5.94-3.71-10.78-8.27-10.78Z"/><path class="cls-19" d="M234,754.29V713.9c0-7.93,4.95-14.38,11-14.38H462.94c6.08,0,11,6.45,11,14.38v40.39c0,7.93-5,14.38-11,14.38H245C238.94,768.67,234,762.22,234,754.29Zm11-51.17c-4.56,0-8.28,4.84-8.28,10.78v40.39c0,6,3.72,10.79,8.28,10.79H462.94c4.56,0,8.27-4.84,8.27-10.79V713.9c0-5.94-3.71-10.78-8.27-10.78Z"/><path class="cls-20" d="M451,167.21a5.3,5.3,0,1,0,5.28-4.94A5.11,5.11,0,0,0,451,167.21Z"/><path class="cls-21" d="M451,279.24a5.3,5.3,0,1,0,5.28-4.94A5.11,5.11,0,0,0,451,279.24Z"/><path class="cls-22" d="M451,394.6a5.3,5.3,0,1,0,5.28-4.94A5.11,5.11,0,0,0,451,394.6Z"/><path class="cls-23" d="M451,507.3a5.3,5.3,0,1,0,5.28-4.94A5.11,5.11,0,0,0,451,507.3Z"/><path class="cls-24" d="M451,620.79a5.3,5.3,0,1,0,5.28-4.94A5.12,5.12,0,0,0,451,620.79Z"/><ellipse class="cls-25" cx="458.57" cy="734.1" rx="5.29" ry="4.94"/><rect class="cls-26" x="423.51" y="732.96" width="8.69" height="30.67" transform="translate(855.7 1496.59) rotate(180)"/><rect class="cls-27" x="408.99" y="743.5" width="8.69" height="20.13" transform="translate(826.67 1507.13) rotate(180)"/><rect class="cls-28" x="394.47" y="717.45" width="8.69" height="46.17" transform="translate(797.64 1481.08) rotate(180)"/><rect class="cls-29" x="379.96" y="752.53" width="8.69" height="11.09" transform="translate(768.61 1516.16) rotate(180)"/><rect class="cls-30" x="365.44" y="723.62" width="8.69" height="40" transform="translate(739.57 1487.25) rotate(180)"/><rect class="cls-31" x="350.93" y="730.55" width="8.69" height="33.08" transform="translate(710.54 1494.18) rotate(180)"/><rect class="cls-32" x="336.41" y="738.08" width="8.69" height="25.55" transform="translate(681.51 1501.71) rotate(180)"/><rect class="cls-33" x="321.9" y="708.12" width="8.69" height="55.51" transform="translate(652.48 1471.74) rotate(180)"/><rect class="cls-34" x="307.38" y="713.99" width="8.69" height="49.64" transform="translate(623.45 1477.62) rotate(180)"/><rect class="cls-35" x="292.87" y="722.87" width="8.69" height="40.75" transform="translate(594.42 1486.5) rotate(180)"/><rect class="cls-36" x="278.35" y="753.56" width="8.69" height="10.06" transform="translate(565.39 1517.19) rotate(180)"/><rect class="cls-37" x="263.83" y="734.01" width="8.69" height="29.61" transform="translate(536.36 1497.64) rotate(180)"/><rect class="cls-38" x="423.27" y="617.87" width="8.69" height="30.67" transform="translate(855.23 1266.42) rotate(180)"/><rect class="cls-39" x="408.76" y="628.41" width="8.69" height="20.13" transform="translate(826.2 1276.96) rotate(180)"/><rect class="cls-40" x="394.24" y="602.37" width="8.69" height="46.17" transform="translate(797.17 1250.91) rotate(180)"/><rect class="cls-41" x="379.73" y="637.45" width="8.69" height="11.09" transform="translate(768.14 1285.99) rotate(180)"/><rect class="cls-42" x="365.21" y="608.54" width="8.69" height="40" transform="translate(739.11 1257.08) rotate(180)"/><rect class="cls-43" x="350.69" y="615.47" width="8.69" height="33.08" transform="translate(710.08 1264.01) rotate(180)"/><rect class="cls-44" x="336.18" y="622.99" width="8.69" height="25.55" transform="translate(681.04 1271.53) rotate(180)"/><rect class="cls-45" x="321.66" y="593.03" width="8.69" height="55.51" transform="translate(652.01 1241.57) rotate(180)"/><rect class="cls-46" x="307.15" y="598.9" width="8.69" height="49.64" transform="translate(622.98 1247.44) rotate(180)"/><rect class="cls-47" x="292.63" y="607.79" width="8.69" height="40.75" transform="translate(593.95 1256.33) rotate(180)"/><rect class="cls-48" x="278.12" y="638.48" width="8.69" height="10.06" transform="translate(564.92 1287.02) rotate(180)"/><rect class="cls-49" x="263.6" y="618.93" width="8.69" height="29.61" transform="translate(535.89 1267.47) rotate(180)"/><rect class="cls-50" x="426.3" y="504.85" width="8.69" height="30.67" transform="translate(861.29 1040.37) rotate(180)"/><rect class="cls-51" x="411.79" y="515.39" width="8.69" height="20.13" transform="translate(832.26 1050.91) rotate(180)"/><rect class="cls-52" x="397.27" y="489.34" width="8.69" height="46.17" transform="translate(803.23 1024.86) rotate(180)"/><rect class="cls-53" x="382.76" y="524.43" width="8.69" height="11.09" transform="translate(774.2 1059.94) rotate(180)"/><rect class="cls-54" x="368.24" y="495.52" width="8.69" height="40" transform="translate(745.17 1031.04) rotate(180)"/><rect class="cls-55" x="353.73" y="502.44" width="8.69" height="33.08" transform="translate(716.14 1037.96) rotate(180)"/><rect class="cls-56" x="339.21" y="509.97" width="8.69" height="25.55" transform="translate(687.11 1045.49) rotate(180)"/><rect class="cls-57" x="324.69" y="480.01" width="8.69" height="55.51" transform="translate(658.08 1015.53) rotate(180)"/><rect class="cls-58" x="310.18" y="485.88" width="8.69" height="49.64" transform="translate(629.04 1021.4) rotate(180)"/><rect class="cls-59" x="295.66" y="494.76" width="8.69" height="40.75" transform="translate(600.01 1030.28) rotate(180)"/><rect class="cls-60" x="281.15" y="525.45" width="8.69" height="10.06" transform="translate(570.98 1060.97) rotate(180)"/><rect class="cls-61" x="266.63" y="505.91" width="8.69" height="29.61" transform="translate(541.95 1041.42) rotate(180)"/><rect class="cls-62" x="426.07" y="393.89" width="8.69" height="30.67" transform="translate(860.83 818.45) rotate(180)"/><rect class="cls-63" x="411.55" y="404.43" width="8.69" height="20.13" transform="translate(831.8 828.99) rotate(180)"/><rect class="cls-64" x="397.04" y="378.38" width="8.69" height="46.17" transform="translate(802.76 802.94) rotate(180)"/><rect class="cls-65" x="382.52" y="413.47" width="8.69" height="11.09" transform="translate(773.73 838.02) rotate(180)"/><rect class="cls-66" x="368.01" y="384.56" width="8.69" height="40" transform="translate(744.7 809.12) rotate(180)"/><rect class="cls-67" x="353.49" y="391.48" width="8.69" height="33.08" transform="translate(715.67 816.04) rotate(180)"/><rect class="cls-68" x="338.98" y="399.01" width="8.69" height="25.55" transform="translate(686.64 823.57) rotate(180)"/><rect class="cls-69" x="324.46" y="369.05" width="8.69" height="55.51" transform="translate(657.61 793.61) rotate(180)"/><rect class="cls-70" x="309.94" y="374.92" width="8.69" height="49.64" transform="translate(628.58 799.48) rotate(180)"/><rect class="cls-71" x="295.43" y="383.8" width="8.69" height="40.75" transform="translate(599.55 808.36) rotate(180)"/><rect class="cls-72" x="280.91" y="414.49" width="8.69" height="10.06" transform="translate(570.51 839.05) rotate(180)"/><rect class="cls-73" x="266.4" y="394.95" width="8.69" height="29.61" transform="translate(541.48 819.5) rotate(180)"/><rect class="cls-74" x="426.3" y="277.02" width="8.69" height="30.67" transform="translate(861.29 584.71) rotate(180)"/><rect class="cls-75" x="411.79" y="287.56" width="8.69" height="20.13" transform="translate(832.26 595.25) rotate(180)"/><rect class="cls-76" x="397.27" y="261.51" width="8.69" height="46.17" transform="translate(803.23 569.2) rotate(180)"/><rect class="cls-77" x="382.76" y="296.59" width="8.69" height="11.09" transform="translate(774.2 604.28) rotate(180)"/><rect class="cls-78" x="368.24" y="267.68" width="8.69" height="40" transform="translate(745.17 575.37) rotate(180)"/><rect class="cls-79" x="353.73" y="274.61" width="8.69" height="33.08" transform="translate(716.14 582.3) rotate(180)"/><rect class="cls-80" x="339.21" y="282.14" width="8.69" height="25.55" transform="translate(687.11 589.82) rotate(180)"/><rect class="cls-81" x="324.69" y="252.18" width="8.69" height="55.51" transform="translate(658.08 559.86) rotate(180)"/><rect class="cls-82" x="310.18" y="258.05" width="8.69" height="49.64" transform="translate(629.04 565.73) rotate(180)"/><rect class="cls-83" x="295.66" y="266.93" width="8.69" height="40.75" transform="translate(600.01 574.62) rotate(180)"/><rect class="cls-84" x="281.15" y="297.62" width="8.69" height="10.06" transform="translate(570.98 605.31) rotate(180)"/><rect class="cls-85" x="266.63" y="278.07" width="8.69" height="29.61" transform="translate(541.95 585.76) rotate(180)"/><rect class="cls-86" x="426.07" y="166.06" width="8.69" height="30.67" transform="translate(860.83 362.79) rotate(180)"/><rect class="cls-87" x="411.55" y="176.6" width="8.69" height="20.13" transform="translate(831.8 373.33) rotate(180)"/><rect class="cls-88" x="397.04" y="150.55" width="8.69" height="46.17" transform="translate(802.76 347.28) rotate(180)"/><rect class="cls-89" x="382.52" y="185.63" width="8.69" height="11.09" transform="translate(773.73 382.36) rotate(180)"/><rect class="cls-90" x="368.01" y="156.72" width="8.69" height="40" transform="translate(744.7 353.45) rotate(180)"/><rect class="cls-91" x="353.49" y="163.65" width="8.69" height="33.08" transform="translate(715.67 360.38) rotate(180)"/><rect class="cls-92" x="338.98" y="171.18" width="8.69" height="25.55" transform="translate(686.64 367.9) rotate(180)"/><rect class="cls-93" x="324.46" y="141.22" width="8.69" height="55.51" transform="translate(657.61 337.94) rotate(180)"/><rect class="cls-94" x="309.94" y="147.09" width="8.69" height="49.64" transform="translate(628.58 343.81) rotate(180)"/><rect class="cls-95" x="295.43" y="155.97" width="8.69" height="40.75" transform="translate(599.55 352.7) rotate(180)"/><rect class="cls-96" x="280.91" y="186.66" width="8.69" height="10.06" transform="translate(570.51 383.39) rotate(180)"/><rect class="cls-97" x="266.4" y="167.11" width="8.69" height="29.61" transform="translate(541.48 363.84) rotate(180)"/><path class="cls-98" d="M307.57,771.35a8.83,8.83,0,0,0,8.81,8.8H793.09a8.83,8.83,0,0,0,8.81-8.8l4-274c0-4.85-5.71-14.3-16.17-13.59L323.81,471.75A22.22,22.22,0,0,0,301,494.47Z"/><path class="cls-6" d="M316.27,762.9a8.37,8.37,0,0,0,8.34,8.34h457a8.37,8.37,0,0,0,8.34-8.34l3.74-248.7c-.44-15-13.56-20.34-21.51-20l-446.51-12a15.6,15.6,0,0,0-16,16Z"/><rect class="cls-99" x="268.89" y="778.83" width="562.02" height="24.07" rx="5.65" transform="translate(1099.8 1581.72) rotate(180)"/><rect class="cls-100" x="344.8" y="544.43" width="124.46" height="9.62" rx="2.47" transform="translate(3.86 -2.84) rotate(0.4)"/><rect class="cls-100" x="503.5" y="545.47" width="43.67" height="9.62" rx="2.37" transform="translate(3.87 -3.67) rotate(0.4)"/><rect class="cls-100" x="556.17" y="545.99" width="86.25" height="9.62" rx="3.77" transform="translate(3.87 -4.18) rotate(0.4)"/><rect class="cls-100" x="342.37" y="561.02" width="33.37" height="9.62" rx="2.55" transform="matrix(1, 0.01, -0.01, 1, 3.97, -2.5)"/><rect class="cls-100" x="378.87" y="561.48" width="90.52" height="9.62" rx="2.47" transform="translate(3.98 -2.96) rotate(0.4)"/><rect class="cls-100" x="503.73" y="562.4" width="43.67" height="9.62" rx="2.37" transform="translate(3.98 -3.67) rotate(0.4)"/><rect class="cls-100" x="586.56" y="563.27" width="126.35" height="9.62" rx="3.77" transform="translate(3.99 -4.54) rotate(0.4)"/><rect class="cls-100" x="342.23" y="577.92" width="33.37" height="9.62" rx="2.55" transform="translate(4.09 -2.5) rotate(0.4)"/><rect class="cls-100" x="378.71" y="578.38" width="90.52" height="9.62" rx="2.47" transform="translate(4.09 -2.95) rotate(0.4)"/><rect class="cls-100" x="503.58" y="579.3" width="43.67" height="9.62" rx="2.37" transform="translate(4.1 -3.66) rotate(0.4)"/><rect class="cls-100" x="601.9" y="580.41" width="164.65" height="9.62" rx="3.77" transform="translate(4.12 -4.78) rotate(0.4)"/><rect class="cls-100" x="342.38" y="594.85" width="33.37" height="9.62" rx="2.55" transform="translate(4.21 -2.5) rotate(0.4)"/><rect class="cls-100" x="379.07" y="595.31" width="90.52" height="9.62" rx="2.47" transform="translate(4.21 -2.96) rotate(0.4)"/><rect class="cls-100" x="503.81" y="596.23" width="43.67" height="9.62" rx="2.37" transform="translate(4.22 -3.67) rotate(0.4)"/><path class="cls-100" d="M763.49,607.52l-157.1-1.1a3.78,3.78,0,0,1-3.75-3.8l0-2.08a3.76,3.76,0,0,1,3.79-3.74l157.11,1.1a3.76,3.76,0,0,1,3.74,3.79v2.09A3.78,3.78,0,0,1,763.49,607.52Z"/><rect class="cls-100" x="342.16" y="612.42" width="33.37" height="9.62" rx="1.82" transform="translate(4.33 -2.5) rotate(0.4)"/><rect class="cls-100" x="378.77" y="612.88" width="90.52" height="9.62" rx="2.47" transform="translate(4.34 -2.95) rotate(0.4)"/><rect class="cls-100" x="503.56" y="613.79" width="43.67" height="9.62" rx="2.37" transform="translate(4.35 -3.67) rotate(0.4)"/><path class="cls-100" d="M763,625.08,605.94,624a3.77,3.77,0,0,1-3.75-3.79l0-2.09a3.76,3.76,0,0,1,3.79-3.74l157.11,1.1a3.76,3.76,0,0,1,3.74,3.79v2.09A3.77,3.77,0,0,1,763,625.08Z"/><rect class="cls-100" x="342.31" y="629.35" width="33.37" height="9.62" rx="1.82" transform="translate(4.45 -2.5) rotate(0.4)"/><rect class="cls-100" x="379.12" y="629.81" width="90.52" height="9.62" rx="2.47" transform="translate(4.45 -2.96) rotate(0.4)"/><rect class="cls-100" x="503.79" y="630.72" width="43.67" height="9.62" rx="2.37" transform="translate(4.46 -3.67) rotate(0.4)"/><rect class="cls-100" x="555.57" y="631.29" width="100.87" height="9.62" rx="3.77" transform="translate(4.47 -4.23) rotate(0.4)"/><rect class="cls-100" x="343.34" y="646.59" width="125.14" height="9.62" rx="2.47" transform="translate(4.57 -2.83) rotate(0.4)"/><rect class="cls-100" x="503.64" y="647.63" width="43.67" height="9.62" rx="2.37" transform="translate(4.58 -3.66) rotate(0.4)"/><rect class="cls-100" x="578.18" y="648.44" width="125.76" height="9.62" rx="3.77" transform="translate(4.59 -4.47) rotate(0.4)"/><rect class="cls-100" x="343.45" y="663.17" width="32.03" height="9.62" rx="2.55" transform="translate(4.69 -2.5) rotate(0.4)"/><rect class="cls-100" x="379.32" y="663.64" width="90.52" height="9.62" rx="2.47" transform="translate(4.69 -2.96) rotate(0.4)"/><rect class="cls-100" x="503.87" y="664.56" width="43.67" height="9.62" rx="2.37" transform="translate(4.7 -3.67) rotate(0.4)"/><path class="cls-100" d="M763.77,675.85l-162.7-1.14a3.78,3.78,0,0,1-3.74-3.8l0-2.08a3.77,3.77,0,0,1,3.79-3.75l162.7,1.14a3.77,3.77,0,0,1,3.74,3.8v2.08A3.78,3.78,0,0,1,763.77,675.85Z"/><rect class="cls-100" x="342.33" y="713.69" width="33.37" height="9.62" rx="2.55" transform="translate(5.04 -2.5) rotate(0.4)"/><rect class="cls-100" x="378.13" y="714.15" width="90.52" height="9.62" rx="2.47" transform="translate(5.05 -2.95) rotate(0.4)"/><rect class="cls-100" x="502.75" y="715.07" width="43.67" height="9.62" rx="2.37" transform="translate(5.05 -3.66) rotate(0.4)"/><rect class="cls-100" x="554.53" y="715.63" width="100.87" height="9.62" rx="3.77" transform="translate(5.06 -4.22) rotate(0.4)"/><rect class="cls-100" x="342.35" y="730.93" width="125.14" height="9.62" rx="2.47" transform="translate(5.16 -2.82) rotate(0.4)"/><rect class="cls-100" x="502.6" y="731.97" width="43.67" height="9.62" rx="2.37" transform="translate(5.17 -3.65) rotate(0.4)"/><rect class="cls-100" x="577.08" y="732.78" width="125.76" height="9.62" rx="3.77" transform="translate(5.18 -4.46) rotate(0.4)"/><rect class="cls-100" x="342.41" y="747.52" width="32.03" height="9.62" rx="2.55" transform="translate(5.28 -2.49) rotate(0.4)"/><rect class="cls-100" x="378.32" y="747.98" width="90.52" height="9.62" rx="2.47" transform="translate(5.28 -2.95) rotate(0.4)"/><rect class="cls-100" x="502.83" y="748.9" width="43.67" height="9.62" rx="2.37" transform="translate(5.29 -3.66) rotate(0.4)"/><path class="cls-100" d="M762.66,760.19,600,759.05a3.77,3.77,0,0,1-3.74-3.8v-2.08a3.76,3.76,0,0,1,3.8-3.74l162.69,1.14a3.76,3.76,0,0,1,3.74,3.79v2.08A3.77,3.77,0,0,1,762.66,760.19Z"/><rect class="cls-100" x="342.96" y="680.39" width="32.03" height="9.62" rx="2.55" transform="translate(4.81 -2.5) rotate(0.4)"/><rect class="cls-100" x="378.51" y="680.85" width="90.52" height="9.62" rx="2.47" transform="translate(4.81 -2.95) rotate(0.4)"/><rect class="cls-100" x="503.24" y="681.77" width="43.67" height="9.62" rx="2.37" transform="translate(4.82 -3.66) rotate(0.4)"/><rect class="cls-100" x="595.91" y="682.86" width="170.24" height="9.62" rx="3.77" transform="translate(4.83 -4.75) rotate(0.4)"/><rect class="cls-100" x="343.1" y="697.32" width="32.03" height="9.62" rx="2.55" transform="translate(4.93 -2.5) rotate(0.4)"/><rect class="cls-100" x="378.86" y="697.78" width="90.52" height="9.62" rx="2.47" transform="translate(4.93 -2.95) rotate(0.4)"/><rect class="cls-100" x="503.47" y="698.7" width="43.67" height="9.62" rx="2.37" transform="translate(4.94 -3.66) rotate(0.4)"/><rect class="cls-100" x="596.69" y="699.8" width="170.24" height="9.62" rx="3.77" transform="translate(4.95 -4.76) rotate(0.4)"/><path class="cls-100" d="M486.27,769.44H485a1.38,1.38,0,0,1-1.37-1.39l1.64-234.36a1.38,1.38,0,0,1,1.39-1.37h1.26a1.38,1.38,0,0,1,1.38,1.39l-1.65,234.36A1.37,1.37,0,0,1,486.27,769.44Z"/><path class="cls-101" d="M792.67,526.87l.19-12.91c-.44-15-13.56-20.36-21.51-20l-446.51-12a15.59,15.59,0,0,0-16,16l.72,28.93Z"/><path class="cls-3" d="M785,610.57h0a1.09,1.09,0,0,1-1.2-1l.3-15.57a1.11,1.11,0,0,1,1.22-.92h0a1.09,1.09,0,0,1,1.2,1l-.3,15.57A1.11,1.11,0,0,1,785,610.57Z"/><path class="cls-3" d="M785.72,572.44h0a1.1,1.1,0,0,1-1.2-1l1.13-59.61a10,10,0,0,0-4.14-8.38c-5.09-3.76-13.17-3.57-13.51-3.56L625.27,497a1.09,1.09,0,0,1-1.19-1,1.07,1.07,0,0,1,1.25-.91L768,498.05c.89,0,9.49-.16,15.22,4.08a11.61,11.61,0,0,1,4.89,9.75l-1.13,59.63A1.12,1.12,0,0,1,785.72,572.44Z"/><circle class="cls-100" cx="331.98" cy="514.98" r="5.1"/><circle class="cls-100" cx="348.75" cy="515.08" r="5.1"/><circle class="cls-100" cx="364.74" cy="515.08" r="5.1"/><path class="cls-102" d="M648.45,434s37,78.32,75.54,38c0,0,4.78,33.58-2.56,36.68,0,0-47.67,19.21-75.46-65.47Z"/><path class="cls-103" d="M647,448.85c-.39,1.29,4.32,3.17,7-2.13,0-2.51,1.41-13.31-.13-15.34-8.18-10.78-23.92-24.21-23.92-24.21a3.7,3.7,0,0,0-.38,5.14L637.2,420c-1.52,2.87-3.41,5.31-4.25,8.76a10.53,10.53,0,0,0,1.18,7.75c1.36,2.36,3.21,5.42,5,7.82A10.42,10.42,0,0,0,647,448.85Z"/><path class="cls-104" d="M643.05,443.56l1.46-.29c-.09-.47-2.29-11.62-3.92-14.18a3.17,3.17,0,0,1-.71-2.29,1.51,1.51,0,0,1,.64-.82l6.39,5.24,2.18,5.58,1.39-.55-2.32-5.93-7.49-6.14-.44.23a3.22,3.22,0,0,0-1.79,2,4.45,4.45,0,0,0,.89,3.48C640.56,431.82,642.43,440.41,643.05,443.56Z"/><path class="cls-105" d="M726,471c5.9-1.76,23.06-5,39.39,10a10.1,10.1,0,0,1,2.91,10.07c-4.39,16.15-16,63.85-5.81,84.49,0,0-17.88,19.7-37.38,3.82,0,0-8.75-38.14-20.22-54.88-7.91-11.56,12.62-43.41,17.82-51.11A6.1,6.1,0,0,1,726,471Z"/><path class="cls-106" d="M742.25,438.88s8.72,24.66,9.37,35.54a18.65,18.65,0,0,1-18.71-3s-1-24.64-2.33-29.05Z"/><path class="cls-107" d="M702.31,659.45c.07,1.73-3,15.46-4.63,22.79a12.12,12.12,0,0,0,1.3,8.66l57.3,96.43a13.39,13.39,0,0,1,1.5,3.75c1.05,4.53,3.23,15.62,2.09,25.71l-3,6.15L769.73,820l2.79-34.42-3.63-2.22a17.25,17.25,0,0,1-7-8.16c-5.18-12.59-18-44.62-21.36-60.23-3.77-17.75-23.47-32.16-23.47-32.16l3.46-8.18Z"/><path class="cls-108" d="M784,808.19s-6.92-11-7.73-15.25-3.08-11.82-7.35-9.55c0,0-2,20.76-1.32,28.87s-9.17,7.84-9.17,7.84a9.26,9.26,0,0,0-4.71,2.38,2.31,2.31,0,0,0,1.55,3.88,55.48,55.48,0,0,0,13.74-.78,4.18,4.18,0,0,0,3.38-3.88l1.43-23.88,8.73,11Z"/><path class="cls-109" d="M736.54,674.81s2,86.26,2.29,98.51-1.93,39.4-14.21,47.52l5.34,3.95s6.68-5.67,13.2-16.6c7.33-12.27,9.55-14.51,9.55-14.51l-2.43-5a10.94,10.94,0,0,1-.89-7c2.65-12.84,11.5-55.57,13.92-64.77,2.85-10.86,3.05-25.36-6.87-37.5S736.54,674.81,736.54,674.81Z"/><path class="cls-110" d="M747.88,828.68a.76.76,0,0,0,.76-.65c.41-2.87,2.11-14.4,3.5-17.39,1.59-3.41,6.8-17.8,0-19,0,0-16.93,24.73-20.18,28.06s-7.34,1.17-7.34,1.17a12.21,12.21,0,0,0-5.56,4,2.24,2.24,0,0,0,1.77,3.6l11.4.11a8,8,0,0,0,7.52-5c2-5,5.45-12.36,9.47-15.63l-2.09,20A.75.75,0,0,0,747.88,828.68Z"/><path class="cls-111" d="M722.38,570.07s2.57,8.19-1.38,21.67l-24.48,85.49a2.65,2.65,0,0,0,1.66,3.22c7.32,2.63,31.39,10.06,64.25,7.79a3.74,3.74,0,0,0,3.4-2.9c2.17-9.75,9.55-43,11.08-49.83,5.79-26,12.26-54.11-16.21-71.09C747.58,570,735.35,573.35,722.38,570.07Z"/><path class="cls-112" d="M765.36,481s85,88.09-30.29,56.67c0,0-1.31-9.95.41-9.78,37.39,3.73,53,12.29,22.63-17.19-1.07-1-.71-7.62-.6-9.11C757.88,496.38,759.46,482.94,765.36,481Z"/><path class="cls-113" d="M739.73,554.18,722.36,493.5a1.79,1.79,0,0,0-1.5-1.28c-3.15-.36-12.27-1.4-22.8-2.29-12.69-1.07-27.42-1.94-36.23-1.2a1.78,1.78,0,0,0-1.45,2.56c5,10.12,25.6,51.33,35.91,64.82a1.8,1.8,0,0,0,1.44.71l40.31-.38A1.78,1.78,0,0,0,739.73,554.18Z"/><path class="cls-6" d="M696.25,484.67l-12.59-2.1a.91.91,0,0,0-1,1.18l1.25,3.78a.89.89,0,0,0,.73.61l12.13,1.62a.91.91,0,0,0,1-1.1l-.77-3.3A.92.92,0,0,0,696.25,484.67Z"/><path class="cls-101" d="M705.69,495.34l-1-5.41a1.26,1.26,0,0,0-1.1-1l-25.45-2.58a1.26,1.26,0,0,0-1.34,1.54l1.62,6.73a1.26,1.26,0,0,0,1.15,1l24.87,1.25A1.25,1.25,0,0,0,705.69,495.34Z"/><path class="cls-114" d="M735.53,539.52S738,529.56,737,526,734.11,518,727.8,519a92.26,92.26,0,0,0-13.74,3.67s.38,4.59,5.17,3.11l-3,2.3s.42,3.68,4.47,1.72L718,532.82a3.22,3.22,0,0,0,4.72,1.08C725.66,532,727.09,540.71,735.53,539.52Z"/><path class="cls-115" d="M735.85,411.11s-10.13,3.55-17.74,17.4-3,20.76,3.23,22.06,15.68,1.75,26.22-6.85S749,407,735.85,411.11Z"/><path class="cls-116" d="M741.34,435.68s8.76-20.41-9.74-21.82l-4.55,2.77s-6.07-12,5.43-16.83,27.82,1.13,31.63,16.45.42,24.85-7.93,31.54-11.08-1.66-11.08-1.66,4.72-6.45,3.19-10.16-5.83.38-5.83.38Z"/><path class="cls-117" d="M740.3,439.65s4.44-10.53,9.2-5.93-4.71,9.68-8.39,11.29Z"/><path class="cls-118" d="M762.44,425.54a4.64,4.64,0,0,1,3.9-7.24c12-.06,29.68,4.53,33.4,30.84,4.19,29.64,7.57,44.65,12.86,48a4.66,4.66,0,0,1-1,8.5c-2.93.81-6.92.66-12.35-1.43C757.33,488.12,775.23,443.28,762.44,425.54Z"/></g></g></g></svg>