<svg xmlns="http://www.w3.org/2000/svg" xmlns:xlink="http://www.w3.org/1999/xlink" viewBox="0 0 826.42 831.41"><defs><style>.cls-1{fill:url(#linear-gradient);}.cls-2{opacity:0.89;}.cls-3{fill:#bdd0fb;}.cls-13,.cls-4,.cls-43,.cls-6,.cls-9{fill:#fff;}.cls-4{opacity:0.38;}.cls-5{opacity:0.9;}.cls-6{opacity:0.22;}.cls-7{fill:#7d97f4;}.cls-8{fill:#91b3fa;}.cls-10{fill:url(#linear-gradient-2);}.cls-11{fill:url(#linear-gradient-3);}.cls-12{fill:url(#linear-gradient-4);}.cls-13{opacity:0.73;}.cls-14{fill:url(#linear-gradient-5);}.cls-15{fill:url(#linear-gradient-6);}.cls-16{fill:url(#linear-gradient-7);}.cls-17{fill:url(#linear-gradient-8);}.cls-18{fill:url(#linear-gradient-9);}.cls-19{fill:url(#linear-gradient-10);}.cls-20{fill:url(#linear-gradient-11);}.cls-21{fill:url(#linear-gradient-12);}.cls-22{fill:url(#linear-gradient-13);}.cls-23{fill:url(#linear-gradient-14);}.cls-24{fill:url(#linear-gradient-15);}.cls-25{fill:url(#linear-gradient-16);}.cls-26{fill:url(#linear-gradient-17);}.cls-27{fill:url(#linear-gradient-18);}.cls-28{fill:url(#linear-gradient-19);}.cls-29{fill:url(#linear-gradient-20);}.cls-30{fill:url(#linear-gradient-21);}.cls-31{fill:url(#linear-gradient-22);}.cls-32{fill:url(#linear-gradient-23);}.cls-33{fill:url(#linear-gradient-24);}.cls-34{fill:url(#linear-gradient-25);}.cls-35{fill:url(#linear-gradient-26);}.cls-36{fill:url(#linear-gradient-27);}.cls-37{fill:url(#linear-gradient-28);}.cls-38{fill:url(#linear-gradient-29);}.cls-39{fill:url(#linear-gradient-30);}.cls-40{fill:url(#linear-gradient-31);}.cls-41{opacity:0.53;}.cls-42{fill:url(#linear-gradient-32);}.cls-43{opacity:0.91;}</style><linearGradient id="linear-gradient" x1="932.67" y1="1074.88" x2="198.65" y2="163.28" gradientUnits="userSpaceOnUse"><stop offset="0" stop-color="#dae3fe"/><stop offset="1" stop-color="#e9effd"/></linearGradient><linearGradient id="linear-gradient-2" x1="208.64" y1="37.77" x2="299.19" y2="37.77" xlink:href="#linear-gradient"/><linearGradient id="linear-gradient-3" x1="208.07" y1="61.07" x2="298.62" y2="61.07" xlink:href="#linear-gradient"/><linearGradient id="linear-gradient-4" x1="207.35" y1="78.91" x2="297.9" y2="78.91" xlink:href="#linear-gradient"/><linearGradient id="linear-gradient-5" x1="148.41" y1="747.31" x2="158.31" y2="747.31" gradientTransform="translate(306.72 1494.61) rotate(-180)" gradientUnits="userSpaceOnUse"><stop offset="0" stop-color="#4f52ff"/><stop offset="1" stop-color="#4042e2"/></linearGradient><linearGradient id="linear-gradient-6" x1="109.97" y1="799.72" x2="196.75" y2="799.72" gradientTransform="translate(306.72 1599.44) rotate(-180)" xlink:href="#linear-gradient-5"/><linearGradient id="linear-gradient-7" x1="93.56" y1="684.66" x2="209.51" y2="684.66" gradientTransform="matrix(1, 0, 0, 1, 0, 0)" xlink:href="#linear-gradient-5"/><linearGradient id="linear-gradient-8" x1="5116.75" y1="761.34" x2="5099.26" y2="795.74" gradientTransform="translate(-4884.1)" gradientUnits="userSpaceOnUse"><stop offset="0" stop-color="#09005d"/><stop offset="1" stop-color="#1a0f91"/></linearGradient><linearGradient id="linear-gradient-9" x1="5083.5" y1="775.03" x2="5100.92" y2="775.03" gradientTransform="translate(-4884.1)" gradientUnits="userSpaceOnUse"><stop offset="0" stop-color="#febbba"/><stop offset="1" stop-color="#ff928e"/></linearGradient><linearGradient id="linear-gradient-10" x1="5059.39" y1="728.93" x2="5133.43" y2="625.16" xlink:href="#linear-gradient-8"/><linearGradient id="linear-gradient-11" x1="5106.6" y1="796.12" x2="5045.97" y2="875.41" xlink:href="#linear-gradient-8"/><linearGradient id="linear-gradient-12" x1="192.17" y1="813.29" x2="239.01" y2="813.29" gradientTransform="matrix(1, 0, 0, 1, 0, 0)" xlink:href="#linear-gradient-5"/><linearGradient id="linear-gradient-13" x1="5070.9" y1="791.11" x2="5087.25" y2="791.11" xlink:href="#linear-gradient-9"/><linearGradient id="linear-gradient-14" x1="5032.7" y1="780.64" x2="5036.78" y2="641.89" xlink:href="#linear-gradient-8"/><linearGradient id="linear-gradient-15" x1="450.56" y1="-312.62" x2="413.06" y2="-167.13" gradientUnits="userSpaceOnUse"><stop offset="0" stop-color="#ff928e"/><stop offset="1" stop-color="#bc5a7c"/></linearGradient><linearGradient id="linear-gradient-16" x1="5120.86" y1="602.54" x2="5177.9" y2="602.54" xlink:href="#linear-gradient-9"/><linearGradient id="linear-gradient-17" x1="400.15" y1="-325.62" x2="362.65" y2="-180.12" xlink:href="#linear-gradient-15"/><linearGradient id="linear-gradient-18" x1="5066.44" y1="518.36" x2="5104.28" y2="518.36" xlink:href="#linear-gradient-9"/><linearGradient id="linear-gradient-19" x1="343.68" y1="-340.17" x2="306.18" y2="-194.68" xlink:href="#linear-gradient-15"/><linearGradient id="linear-gradient-20" x1="360.92" y1="-335.72" x2="323.42" y2="-190.23" gradientUnits="userSpaceOnUse"><stop offset="0" stop-color="#e1473d"/><stop offset="1" stop-color="#872b4d"/></linearGradient><linearGradient id="linear-gradient-21" x1="208.89" y1="568" x2="83.33" y2="662.72" gradientTransform="matrix(1, 0, 0, 1, 0, 0)" xlink:href="#linear-gradient-9"/><linearGradient id="linear-gradient-22" x1="5272.09" y1="385.99" x2="5224.78" y2="448.58" gradientTransform="translate(-4977.35 1419.4) rotate(-14.47)" xlink:href="#linear-gradient-9"/><linearGradient id="linear-gradient-23" x1="5235.95" y1="401.09" x2="5292.47" y2="401.09" gradientTransform="translate(-4977.35 1419.4) rotate(-14.47)" xlink:href="#linear-gradient-8"/><linearGradient id="linear-gradient-24" x1="5202.79" y1="435.56" x2="5240.74" y2="396.62" gradientTransform="translate(-4977.35 1419.4) rotate(-14.47)" xlink:href="#linear-gradient-9"/><linearGradient id="linear-gradient-25" x1="5672.98" y1="1009.39" x2="5598.79" y2="1029.72" gradientTransform="matrix(-1, -0.05, -0.05, 1, 5891.63, -127.7)" xlink:href="#linear-gradient-8"/><linearGradient id="linear-gradient-26" x1="5636.4" y1="552.3" x2="5583.76" y2="607.94" gradientTransform="matrix(-1, 0, 0, 1, 5912.41, 0)" xlink:href="#linear-gradient-8"/><linearGradient id="linear-gradient-27" x1="268.83" y1="727.13" x2="357.72" y2="727.13" gradientTransform="matrix(1, 0, 0, 1, 0, 0)" xlink:href="#linear-gradient-5"/><linearGradient id="linear-gradient-28" x1="258.56" y1="727.13" x2="347.46" y2="727.13" gradientTransform="matrix(1, 0, 0, 1, 0, 0)" xlink:href="#linear-gradient-5"/><linearGradient id="linear-gradient-29" x1="17.62" y1="727.13" x2="106.51" y2="727.13" gradientTransform="matrix(1, 0, 0, 1, 0, 0)" xlink:href="#linear-gradient-5"/><linearGradient id="linear-gradient-30" x1="7.35" y1="727.13" x2="96.25" y2="727.13" gradientTransform="matrix(1, 0, 0, 1, 0, 0)" xlink:href="#linear-gradient-5"/><linearGradient id="linear-gradient-31" x1="1.64" y1="633.83" x2="378.68" y2="633.83" gradientTransform="matrix(1, 0, 0, 1, 0, 0)" xlink:href="#linear-gradient-5"/><linearGradient id="linear-gradient-32" x1="544.78" y1="-76.26" x2="556.78" y2="-422.25" gradientTransform="matrix(1, 0, 0, 1, 0, 0)" xlink:href="#linear-gradient-5"/></defs><g id="Layer_2" data-name="Layer 2"><g id="Metaphor_illustration" data-name="Metaphor illustration"><path class="cls-1" d="M730.73,715.38c-16.86,17.75-32.81,29.2-45.41,38.24-148.16,106.31-323.47,75.32-360.73,67.75-55-11.17-161.37-32.77-238.26-123.2C-30,561.38-11.88,345.85,78.35,203.58,94.85,177.56,182,33.12,359.23,10c107.24-14,232.25,14.25,322.77,90.1C872,259.26,858.5,580.87,730.73,715.38Z"/><g class="cls-2"><path class="cls-3" d="M634.5,1.54C572.63,52.24,224.59,362,456.59,740.78c0,0,281.61-144.93,188.89-735.07A6.77,6.77,0,0,0,634.5,1.54Z"/><path class="cls-4" d="M614.47,79.12C600.68,102.33,587.94,126,575.61,150s-24,48.24-35.09,72.79-21.57,49.39-31.38,74.5c-2.41,6.29-4.94,12.54-7.24,18.87l-7,19c-4.41,12.74-8.92,25.45-12.94,38.32-4.25,12.8-7.94,25.78-11.75,38.72L465,431.72c-1.83,6.49-3.24,13.1-4.88,19.64A786.12,786.12,0,0,0,445,531l-1.4,10-1,10.09-1.05,10.1-.52,5-.31,5.07-1.24,20.27-.34,20.32a462.38,462.38,0,0,0,6.91,81,4.15,4.15,0,1,0,8.17-1.47v-.09a454,454,0,0,1-7.36-79.5l.19-20,1.07-20,.27-5,.48-5,1-10,1-10,1.31-10a778.25,778.25,0,0,1,14.4-79c1.58-6.51,2.94-13.08,4.7-19.55l5.11-19.46c3.69-12.89,7.26-25.82,11.4-38.59,3.9-12.84,8.3-25.52,12.59-38.24l6.8-19c2.24-6.32,4.72-12.56,7.07-18.85q14.38-37.62,30.72-74.48t34.47-72.85c12.11-24,24.67-47.78,38.2-70.93l0,0a1.76,1.76,0,0,0-3-1.79Z"/></g><g class="cls-5"><path class="cls-3" d="M817.21,127.25c-65.9,34.15-441.24,247-302,600.46,0,0,283.67-82.77,311.2-595.38C826.65,127.85,821.51,125,817.21,127.25Z"/><path class="cls-6" d="M783.83,189.5c-16.11,17.11-31.5,34.76-46.64,52.67S707.35,278.34,693,296.88s-28.27,37.43-41.77,56.61-26.6,38.66-39.05,58.56-24.54,40.05-35.69,60.75-21.87,41.63-31.3,63.22c-19.11,43-34.31,88.09-41.87,135a5.35,5.35,0,1,0,10.57,1.71v0l0-.1c6.85-45.69,21.25-90.23,39.68-132.9,9.07-21.42,19.44-42.3,30.29-62.92s22.59-40.79,34.76-60.69,25-39.44,38.21-58.68,26.9-38.18,41-56.82,28.56-37,43.44-55,30.07-35.81,45.85-52.95l0,0a2.27,2.27,0,0,0-3.32-3.09Z"/></g><path class="cls-7" d="M634.72,694.51V735h-.06c-2.48,24.42-104.64,69.28-253,70.11-218.17,1.22-291.85-47.5-295.28-72.45h-.08V695.35Z"/><path class="cls-7" d="M86.28,695.5c0,25.16,125.88,45,278.65,44.38C515,739.25,634.72,719,634.72,694.65S515,650.42,364.93,650.26C212.16,650.09,86.28,670.35,86.28,695.5Z"/><path class="cls-7" d="M88.4,692.44c0,25,124.92,44.73,276.57,44.14,149-.58,267.89-20.64,267.89-44.82S514,647.81,365,647.61C213.32,647.4,88.4,667.48,88.4,692.44Z"/><polygon class="cls-7" points="86.28 732.64 86.28 695.36 634.72 694.51 634.72 734.97 86.28 732.64"/><path class="cls-8" d="M86.28,695.5c0,25.16,125.88,45,278.65,44.38C515,739.25,634.72,719,634.72,694.65S515,650.42,364.93,650.26C212.16,650.09,86.28,670.35,86.28,695.5Z"/><path class="cls-7" d="M634.72,617.81v40.47h-.06c-2.48,24.42-104.64,67.16-253,66.39C146.5,723.46,89.79,680.89,86.36,655.94h-.08V618.66Z"/><path class="cls-7" d="M86.28,618.81c0,25.15,125.88,45,278.65,44.37C515,662.55,634.72,642.31,634.72,618S515,573.72,364.93,573.56C212.16,573.39,86.28,593.65,86.28,618.81Z"/><path class="cls-7" d="M88.4,615.74c0,25,124.92,44.73,276.57,44.14,149-.58,267.89-20.64,267.89-44.82S514,571.11,365,570.91C213.32,570.7,88.4,590.78,88.4,615.74Z"/><polygon class="cls-7" points="86.28 655.95 86.28 618.65 634.72 617.81 634.72 658.27 86.28 655.95"/><path class="cls-8" d="M86.28,618.81c0,25.15,125.88,45,278.65,44.37C515,662.55,634.72,642.31,634.72,618S515,573.72,364.93,573.56C212.16,573.39,86.28,593.65,86.28,618.81Z"/><path class="cls-7" d="M634.72,540.92v40.47h-.06c-2.48,24.42-104.64,67.16-253,66.39C146.5,646.58,89.79,604,86.36,579.06h-.08V541.77Z"/><path class="cls-7" d="M86.28,541.92c0,25.15,125.88,45,278.65,44.38,150.07-.63,269.79-20.88,269.79-45.24S515,496.84,364.93,496.67C212.16,496.51,86.28,516.76,86.28,541.92Z"/><path class="cls-7" d="M88.4,538.86c0,25,124.92,44.72,276.57,44.13,149-.57,267.89-20.64,267.89-44.82S514,494.22,365,494C213.32,493.82,88.4,513.89,88.4,538.86Z"/><polygon class="cls-7" points="86.28 579.06 86.28 541.77 634.72 540.92 634.72 581.39 86.28 579.06"/><path class="cls-8" d="M86.28,541.92c0,25.15,125.88,45,278.65,44.38,150.07-.63,269.79-20.88,269.79-45.24S515,496.84,364.93,496.67C212.16,496.51,86.28,516.76,86.28,541.92Z"/><path class="cls-7" d="M634.72,464V504.5h-.06c-2.48,24.43-104.64,67.16-253,66.4C146.5,569.69,89.79,527.11,86.36,502.17h-.08V464.88Z"/><path class="cls-7" d="M86.28,465c0,25.16,125.88,45,278.65,44.38,150.07-.63,269.79-20.88,269.79-45.23S515,420,364.93,419.78C212.16,419.62,86.28,439.87,86.28,465Z"/><path class="cls-7" d="M88.4,462c0,25,124.92,44.72,276.57,44.14,149-.58,267.89-20.65,267.89-44.83S514,417.33,365,417.13C213.32,416.93,88.4,437,88.4,462Z"/><polygon class="cls-7" points="86.28 502.17 86.28 464.88 634.72 464.03 634.72 504.5 86.28 502.17"/><path class="cls-8" d="M86.28,465c0,25.16,125.88,45,278.65,44.38,150.07-.63,269.79-20.88,269.79-45.23S515,420,364.93,419.78C212.16,419.62,86.28,439.87,86.28,465Z"/><path class="cls-7" d="M634.72,387.14v40.47h-.06C632.18,452,530,494.77,381.64,494,146.5,492.8,89.79,450.23,86.36,425.28h-.08V388Z"/><path class="cls-7" d="M86.28,388.14c0,25.16,125.88,45,278.65,44.38,150.07-.63,269.79-20.88,269.79-45.23S515,343.06,364.93,342.9C212.16,342.73,86.28,363,86.28,388.14Z"/><path class="cls-7" d="M88.4,385.08c0,25,124.92,44.72,276.57,44.14,149-.58,267.89-20.64,267.89-44.83S514,340.44,365,340.24C213.32,340,88.4,360.11,88.4,385.08Z"/><polygon class="cls-7" points="86.28 425.28 86.28 387.99 634.72 387.14 634.72 427.61 86.28 425.28"/><path class="cls-8" d="M86.28,388.14c0,25.16,125.88,45,278.65,44.38,150.07-.63,269.79-20.88,269.79-45.23S515,343.06,364.93,342.9C212.16,342.73,86.28,363,86.28,388.14Z"/><path class="cls-7" d="M634.72,310.25v40.47h-.06c-2.48,24.42-104.64,67.15-253,66.39C146.5,415.91,89.79,373.34,86.36,348.39h-.08V311.1Z"/><path class="cls-7" d="M86.28,311.25c0,25.16,125.88,45,278.65,44.38C515,355,634.72,334.75,634.72,310.4S515,266.17,364.93,266C212.16,265.84,86.28,286.1,86.28,311.25Z"/><path class="cls-7" d="M88.4,308.19c0,25,124.92,44.73,276.57,44.14,149-.58,267.89-20.64,267.89-44.83S514,263.56,365,263.36C213.32,263.15,88.4,283.23,88.4,308.19Z"/><polygon class="cls-7" points="86.28 348.39 86.28 311.1 634.72 310.25 634.72 350.72 86.28 348.39"/><path class="cls-8" d="M86.28,311.25c0,25.16,125.88,45,278.65,44.38C515,355,634.72,334.75,634.72,310.4S515,266.17,364.93,266C212.16,265.84,86.28,286.1,86.28,311.25Z"/><path class="cls-7" d="M634.72,233.37v40.47h-.06c-2.48,24.42-104.64,67.16-253,66.39C146.5,339,89.79,296.45,86.36,271.5h-.08V234.22Z"/><path class="cls-7" d="M86.28,234.37c0,25.15,125.88,45,278.65,44.37,150.07-.63,269.79-20.87,269.79-45.23S515,189.28,364.93,189.12C212.16,189,86.28,209.21,86.28,234.37Z"/><path class="cls-7" d="M88.4,231.3c0,25,124.92,44.73,276.57,44.14,149-.57,267.89-20.64,267.89-44.82S514,186.67,365,186.47C213.32,186.26,88.4,206.34,88.4,231.3Z"/><polygon class="cls-7" points="86.28 271.5 86.28 234.22 634.72 233.37 634.72 273.83 86.28 271.5"/><path class="cls-8" d="M86.28,234.37c0,25.15,125.88,45,278.65,44.37,150.07-.63,269.79-20.87,269.79-45.23S515,189.28,364.93,189.12C212.16,189,86.28,209.21,86.28,234.37Z"/><path class="cls-3" d="M13.05,8,314.24,4.75c5.9-.07,10.72,3.8,10.7,8.59l-.71,187.31c0,4.82-4.92,8.69-10.86,8.57-54.46-1.13-296.26-6.11-306.93-5.71S1.14,53.41,2.59,16.28C2.77,11.69,7.38,8,13.05,8Z"/><path class="cls-9" d="M11.53,196.93l-.17-.79c-3.85-17.29-4-87.82-.41-179.67a2.13,2.13,0,0,1,2.2-1.94l301.18-3.22a2.4,2.4,0,0,1,1.52.51,1.92,1.92,0,0,1,.73,1.51l-.71,187.32a2.13,2.13,0,0,1-2.2,2h-.06c-43.33-.9-261.49-5.4-301.29-5.72ZM314.39,13.37h0L13.17,16.59a.42.42,0,0,0-.25.07c-3.5,90.23-3.42,159.81.22,178.23,41.85.37,257.43,4.82,300.5,5.71h0l.9-187.28C314.57,13.4,314.51,13.38,314.39,13.37Z"/><path class="cls-10" d="M208.64,37.92c0,4.74,1.56,8.57,3.46,8.57l83.69-.29c1.89,0,3.42-3.85,3.4-8.59S297.63,29,295.73,29L212,29.33C210.15,29.34,208.62,33.18,208.64,37.92Z"/><path class="cls-11" d="M208.07,61.23c0,2.37,1.55,4.28,3.44,4.27l83.69-.28c1.9,0,3.43-1.93,3.42-4.3s-1.55-4.29-3.44-4.28l-83.7.29C209.59,56.93,208.06,58.86,208.07,61.23Z"/><path class="cls-12" d="M207.35,79.06c0,2.37,1.55,4.28,3.45,4.28l83.69-.29c1.89,0,3.42-1.93,3.41-4.3s-1.55-4.28-3.44-4.28l-83.69.29C208.87,74.77,207.35,76.69,207.35,79.06Z"/><path class="cls-13" d="M33.26,103.26c1.65-41.2,35.61-73.33,75.7-71.63s71.36,36.59,69.7,77.79-35.61,73.33-75.7,71.63S31.6,144.46,33.26,103.26Zm22.8,1c-1.14,28.27,20.33,52.23,47.84,53.39s50.83-20.89,52-49.17S135.53,56.22,108,55.06,57.19,76,56.06,104.23Z"/><path class="cls-8" d="M33.68,97.68l22.67,2.72c-.14,1.26-.24,2.54-.29,3.83a52.19,52.19,0,0,0,2.26,17.53l-21.76,7a76.12,76.12,0,0,1-3.3-25.55C33.33,101.38,33.48,99.52,33.68,97.68Z"/><path class="cls-7" d="M103.9,157.62c27.52,1.17,50.83-20.89,52-49.17S135.53,56.22,108,55.06a48.43,48.43,0,0,0-12.22,1l-4.65-23A71,71,0,0,1,109,31.63c40.09,1.69,71.36,36.59,69.7,77.79s-35.61,73.33-75.7,71.63c-31.42-1.33-57.43-23.06-66.4-52.24l21.76-7C64.48,141.79,82.33,156.71,103.9,157.62Z"/><path class="cls-7" d="M56.35,100.4,33.68,97.68a75.77,75.77,0,0,1,8.24-26.82L62,82A52.09,52.09,0,0,0,56.35,100.4Z"/><rect class="cls-14" x="148.41" y="693.73" width="9.91" height="107.15" transform="translate(306.72 1494.61) rotate(180)"/><path class="cls-15" d="M110,796.49h86.78a0,0,0,0,1,0,0V801a2,2,0,0,1-2,2H111.82A1.85,1.85,0,0,1,110,801.1v-4.6A0,0,0,0,1,110,796.49Z" transform="translate(306.72 1599.44) rotate(180)"/><rect class="cls-16" x="93.56" y="668.22" width="115.95" height="32.89" rx="11.32"/><path class="cls-17" d="M208.54,781.9s28.3,20.39,23.38,34.09c0,0-30.95-13.36-34.69-23.88s.63-15.16.63-15.16Z"/><path class="cls-18" d="M204.29,764.81l-4.62,13.37a4.65,4.65,0,0,0,1.8,5.46,12.17,12.17,0,0,0,3.83,1.48,5.42,5.42,0,0,0,6-2.72L216.82,772Z"/><path class="cls-19" d="M159.27,644.43s58.11,10.07,83,33.1S219.43,774,219.43,774s-7.83,0-17.32-8.18c0,0,28.34-55.25,3.91-71.36-27.46-18.11-59.11-22.19-59.11-22.19l11.8-26.07Z"/><path class="cls-20" d="M227,808.41c-6.23-2.88-23.84-15.21-26.81-15.75s-8.12,2.94-8.12,2.94-1.25,2.26.09,6.19c4.13,5,13.31,14.54,25.65,18.09,9.08,2.62,15.43.18,19.39-2.67A26.26,26.26,0,0,0,227,808.41Z"/><path class="cls-21" d="M217.82,819.88c-12.34-3.55-21.52-13.09-25.65-18.09.9,2.65,3,6.07,7.45,10.08,11.07,10,32.2,13.53,36.7,12.84,3.61-.55,3.27-3.88.89-7.5C233.25,820.06,226.9,822.5,217.82,819.88Z"/><path class="cls-22" d="M186.8,786.9c.07,1.71,3.58,7.59,5.62,10.89a5.34,5.34,0,0,0,4.53,2.53,13.45,13.45,0,0,0,3.73-.45,3.45,3.45,0,0,0,2.33-4.31l-4-13.66Z"/><path class="cls-23" d="M103.34,627s-12.91,34.51,0,45S147,694.3,153.91,715.2s18.54,61.52,34.16,75.91c0,0,11-1.06,15.08-5.44,0,0-8.89-60.64-14.76-76.2-5.08-13.47-12.56-32.92-26.91-43.79-4.11-3.11-3.39-8-1.49-12.83l3.47-8.72Z"/><path class="cls-24" d="M237.93,599.94c-21.64,1.31-14.89-33.26-14.5-34.64l-32.85,23.2s1.74,18.49,29,28.18a33.87,33.87,0,0,0,18.8,1.37A30,30,0,0,1,237.93,599.94Z"/><path class="cls-25" d="M279.77,589.54c-8.06-5.61-17.2,0-17.2,0-10.78,7.05-18.75,10.05-24.64,10.4a30,30,0,0,0,.5,18.11c12.08-2.6,20.72-11.34,24.48-15.83a3.9,3.9,0,0,1,5.39-.59c1.68,1.33,3.31,3.14,3,5-.58,3.77,3.79,5,4.12,3.6s-1.5-9.46-1.5-9.46,8.75,8.79,12.16,12.17,7.71,0,7.71,0S287.84,595.15,279.77,589.54Z"/><path class="cls-26" d="M137,511.91s31.48-12.6,90.07,35.77c0,0,4.89,10.13-.44,19.14s-56.21,52.95-63.2,77.31c0,0-30.3,9.85-61.64-13.5C101.82,630.63,104.58,562.83,137,511.91Z"/><path class="cls-27" d="M199.27,500.67l-15.5,18.78a6.15,6.15,0,0,0-.81,6.63c2.15,4.39,7.25,10.78,18.57,9.9a9.53,9.53,0,0,0,7.82-5.34l10.84-22.4Z"/><path class="cls-28" d="M112.66,592.38C109,577.49,146,544.31,146,544.31l-9-32.4s-79.93,53.22-59.56,96a31.13,31.13,0,0,0,11.3,13.3C95.2,603.9,105.46,596,112.66,592.38Z"/><path class="cls-29" d="M112.64,590.21a.87.87,0,0,1-.85-.67c-3.74-15.21,32.1-47.55,33.63-48.92a.87.87,0,1,1,1.16,1.3c-.36.33-36.58,33-33.09,47.21a.88.88,0,0,1-.64,1A.76.76,0,0,1,112.64,590.21Z"/><path class="cls-30" d="M168.73,591.09s-43.89,17-54.6,4.23a7.22,7.22,0,0,1-1.47-2.94c-7.2,3.57-17.46,11.52-23.89,28.84,23.08,14.75,62.53-8.2,73.2-15a8,8,0,0,1,5.9-1.08c4.11.85,11.22,2.1,15,1.51,5.61-.86,13.67,18.92,22.76,12.82C205.68,619.5,197.89,585.11,168.73,591.09Z"/><path class="cls-31" d="M233,473.07c.15.61-3.63,41.67-3.63,41.67L206,512.08l-2.19-39.46S230.38,463,233,473.07Z"/><path class="cls-32" d="M209.86,480.8l-.48,20.86a3.48,3.48,0,0,0,.09.79c.41,1.59,2.21,6.94,7.58,4.76,4.87-2,9.34-3.7,12.63-3.08a2.91,2.91,0,0,1,2.36,3.13,125.77,125.77,0,0,1-3.2,19.3,2.91,2.91,0,0,1-3.32,2.09c-4.47-.79-13.85-2.71-21-6a2.91,2.91,0,0,1-1.69-2.45c-.35-5.21-1.48-21.06-2.48-25.43-.93-4.1-6.3-6-8.61-6.67a2.84,2.84,0,0,1-1.76-1.42c-1.31-2.46-3.37-8.24,3.85-11.5a2.94,2.94,0,0,0,1.43-4c-1.45-3-2.44-7.63,3.07-10.86s10.35-.63,13,1.66a2.9,2.9,0,0,0,3.74,0,2.3,2.3,0,0,1,2.62-.19,2.87,2.87,0,0,0,3.91-1.67c1.09-3.05,3.63-6.47,9.5-6.11,10.43.62,12.83,11.84,10.86,18.78s-13.23,5.61-19.11,2.87c-4.47-2.09-9.62,1.18-11.82,2.86A2.9,2.9,0,0,0,209.86,480.8Z"/><path class="cls-33" d="M200.22,502.34s2.91-12.24-1.73-14.65-10.87-.21-8.53,8.17C192.88,506.28,200.22,502.34,200.22,502.34Z"/><path class="cls-34" d="M191.21,624.7h.21l92.09-.1a4.12,4.12,0,1,0,0-8.24l-92.08.1a4.12,4.12,0,0,0-.21,8.24Z"/><path class="cls-35" d="M366.29,541.09H289.6a14.6,14.6,0,0,0-13.22,8.38l-35.45,75.18h95.3a8.89,8.89,0,0,0,8.26-5.62L372,549.47A6.13,6.13,0,0,0,366.29,541.09Z"/><ellipse class="cls-7" cx="318.01" cy="581.49" rx="9.82" ry="6.04" transform="translate(-332.95 706.04) rotate(-72.16)"/><path class="cls-36" d="M353.85,822.2a4,4,0,0,0,1.53-.31,3.71,3.71,0,0,0,2-4.92L276.25,634.32a3.92,3.92,0,0,0-5.08-2,3.71,3.71,0,0,0-2,4.92L350.3,819.93A3.87,3.87,0,0,0,353.85,822.2Z"/><path class="cls-37" d="M262.43,822.2a3.88,3.88,0,0,0,3.56-2.27l81.15-182.65a3.7,3.7,0,0,0-2-4.92,3.93,3.93,0,0,0-5.09,2L258.88,817a3.7,3.7,0,0,0,2,4.92A4,4,0,0,0,262.43,822.2Z"/><path class="cls-38" d="M102.65,822.2a3.9,3.9,0,0,0,1.52-.31,3.7,3.7,0,0,0,2-4.92L25,634.32a3.92,3.92,0,0,0-5.08-2,3.7,3.7,0,0,0-2,4.92L99.09,819.93A3.88,3.88,0,0,0,102.65,822.2Z"/><path class="cls-39" d="M11.22,822.2a3.88,3.88,0,0,0,3.56-2.27L95.93,637.28a3.7,3.7,0,0,0-2-4.92,3.94,3.94,0,0,0-5.09,2L7.67,817a3.7,3.7,0,0,0,2,4.92A3.86,3.86,0,0,0,11.22,822.2Z"/><path class="cls-40" d="M1.7,628.68a4.49,4.49,0,0,1,.77-3.37,3.53,3.53,0,0,1,2.82-1.49H374.48A4.11,4.11,0,0,1,378,626a5.21,5.21,0,0,1,.28,4.51l-4,9.69a5.61,5.61,0,0,1-5.09,3.64H7.82A4.39,4.39,0,0,1,3.66,640Z"/><rect class="cls-9" x="187.75" y="95.14" width="309.24" height="186.88" rx="19.04"/><rect class="cls-3" x="197.21" y="105.39" width="287.41" height="168.18" rx="19.04"/><g class="cls-41"><rect class="cls-9" x="197.83" y="146.12" width="14.83" height="116.84"/><rect class="cls-9" x="222.61" y="146.12" width="14.83" height="116.84"/><rect class="cls-9" x="247.38" y="146.12" width="14.83" height="116.84"/><rect class="cls-9" x="272.16" y="146.12" width="14.83" height="116.84"/><rect class="cls-9" x="296.93" y="146.12" width="14.83" height="116.84"/><rect class="cls-9" x="321.71" y="146.12" width="14.83" height="116.84"/><rect class="cls-9" x="346.49" y="146.12" width="14.83" height="116.84"/><rect class="cls-9" x="370.66" y="146.12" width="14.83" height="116.84"/><rect class="cls-9" x="395.44" y="146.12" width="14.83" height="116.84"/><rect class="cls-9" x="420.82" y="146.12" width="14.83" height="116.84"/><rect class="cls-9" x="445.59" y="146.12" width="14.83" height="116.84"/><rect class="cls-9" x="470.37" y="146.12" width="14.83" height="116.84"/></g><rect class="cls-7" x="197.83" y="201.81" width="14.83" height="61.15"/><rect class="cls-7" x="222.61" y="222.83" width="14.83" height="40.13"/><rect class="cls-7" x="247.38" y="170.89" width="14.83" height="92.07"/><rect class="cls-7" x="272.16" y="240.84" width="14.83" height="22.12"/><rect class="cls-7" x="296.93" y="183.2" width="14.83" height="79.76"/><rect class="cls-7" x="321.71" y="197.01" width="14.83" height="65.95"/><rect class="cls-7" x="346.49" y="212.02" width="14.83" height="50.94"/><rect class="cls-7" x="370.66" y="200.46" width="14.83" height="65.95"/><rect class="cls-7" x="395.44" y="183.2" width="14.83" height="83.22"/><rect class="cls-7" x="420.82" y="159.83" width="14.83" height="103.13"/><rect class="cls-7" x="445.59" y="242.9" width="14.83" height="20.07"/><rect class="cls-7" x="470.37" y="203.91" width="14.83" height="59.05"/><path class="cls-42" d="M716.08,177.94,350.92,189.63c-4.4,0-8,4.82-7.94,10.81l.81,144.48c0,6,3.7,10.83,8.13,10.65L715,347.79c4.23-.17,7.6-4.84,7.65-10.59l1.28-148.39C724,182.86,720.46,178,716.08,177.94Z"/><path class="cls-9" d="M351.69,346.33a1.36,1.36,0,0,1-1.24-1.49l-.81-144.47a1.68,1.68,0,0,1,.31-1,1.11,1.11,0,0,1,.93-.49L716,187.18a1.12,1.12,0,0,1,.94.51,1.69,1.69,0,0,1,.3,1L716,337.07a1.37,1.37,0,0,1-1.19,1.48h0ZM716,188.18,350.89,199.87s-.07,0-.13.08a.7.7,0,0,0-.12.42l.81,144.47c0,.32.17.49.23.49l363.09-7.78c.06,0,.22-.17.22-.48l1.27-148.39a.76.76,0,0,0-.11-.41C716.08,188.18,716,188.18,716,188.18Z"/><circle class="cls-43" cx="426.55" cy="249.65" r="43.09" transform="translate(-51.59 374.74) rotate(-45)"/><circle class="cls-43" cx="533.27" cy="249.65" r="43.09" transform="translate(-20.34 450.2) rotate(-45)"/><circle class="cls-43" cx="640.35" cy="251.06" r="43.09" transform="translate(248.88 816.6) rotate(-76.72)"/><path class="cls-7" d="M452.15,240.54a27.67,27.67,0,1,1-25.6-17.16c.47,0,.94,0,1.4,0v-7c-.46,0-.93,0-1.4,0a34.67,34.67,0,1,0,32,21.38Z"/><path class="cls-7" d="M547.91,274.48a27.68,27.68,0,1,1-14.74-51.1c.46,0,.93,0,1.39,0v-7l-1.39,0a34.69,34.69,0,1,0,18.22,64.21Z"/><path class="cls-7" d="M663.81,266.62a27.68,27.68,0,1,1-22.88-43.24c.46,0,.93,0,1.39,0v-7l-1.39,0a34.69,34.69,0,1,0,28.56,54.36Z"/><path class="cls-7" d="M462,311H391.75a8,8,0,0,0,0,16H462a8,8,0,0,0,0-16Z"/><path class="cls-7" d="M569.05,311H498.84a8,8,0,1,0,0,16h70.21a8,8,0,1,0,0-16Z"/><path class="cls-7" d="M605.24,327h70.21a8,8,0,0,0,0-16H605.24a8,8,0,0,0,0,16Z"/></g></g></svg>