<svg xmlns="http://www.w3.org/2000/svg" xmlns:xlink="http://www.w3.org/1999/xlink" viewBox="0 0 821.08 830.66"><defs><style>.cls-1{fill:url(#linear-gradient);}.cls-2{fill:#bdd0fb;}.cls-129,.cls-3,.cls-5{fill:#fff;}.cls-3{opacity:0.38;}.cls-4{fill:#91b3fa;}.cls-5{opacity:0.22;}.cls-6{fill:url(#linear-gradient-2);}.cls-7{fill:url(#linear-gradient-3);}.cls-8{fill:url(#linear-gradient-4);}.cls-9{fill:url(#linear-gradient-5);}.cls-10{fill:url(#linear-gradient-6);}.cls-11{fill:url(#linear-gradient-7);}.cls-12{fill:url(#linear-gradient-8);}.cls-13{fill:url(#linear-gradient-9);}.cls-14{fill:url(#linear-gradient-10);}.cls-15{fill:url(#linear-gradient-11);}.cls-16{fill:url(#linear-gradient-12);}.cls-17{fill:url(#linear-gradient-13);}.cls-18{fill:url(#linear-gradient-14);}.cls-19{fill:url(#linear-gradient-15);}.cls-20{fill:url(#linear-gradient-16);}.cls-21{fill:url(#linear-gradient-17);}.cls-22{fill:url(#linear-gradient-18);}.cls-23{fill:url(#linear-gradient-19);}.cls-24{fill:url(#linear-gradient-20);}.cls-25{fill:url(#linear-gradient-21);}.cls-26{fill:url(#linear-gradient-22);}.cls-27{fill:url(#linear-gradient-23);}.cls-28{fill:url(#linear-gradient-24);}.cls-29{fill:url(#linear-gradient-25);}.cls-30{fill:url(#linear-gradient-26);}.cls-31{fill:url(#linear-gradient-27);}.cls-32{fill:url(#linear-gradient-28);}.cls-33{fill:url(#linear-gradient-29);}.cls-34{fill:url(#linear-gradient-30);}.cls-35{fill:url(#linear-gradient-31);}.cls-36{fill:url(#linear-gradient-32);}.cls-37{fill:url(#linear-gradient-33);}.cls-38{fill:url(#linear-gradient-34);}.cls-39{fill:url(#linear-gradient-35);}.cls-40{fill:url(#linear-gradient-36);}.cls-41{fill:url(#linear-gradient-37);}.cls-42{fill:url(#linear-gradient-38);}.cls-43{fill:url(#linear-gradient-39);}.cls-44{fill:url(#linear-gradient-40);}.cls-45{fill:url(#linear-gradient-41);}.cls-46{fill:url(#linear-gradient-42);}.cls-47{fill:url(#linear-gradient-43);}.cls-48{fill:url(#linear-gradient-44);}.cls-49{fill:url(#linear-gradient-45);}.cls-50{fill:url(#linear-gradient-46);}.cls-51{fill:url(#linear-gradient-47);}.cls-52{fill:url(#linear-gradient-48);}.cls-53{fill:url(#linear-gradient-49);}.cls-54{fill:url(#linear-gradient-50);}.cls-55{fill:url(#linear-gradient-51);}.cls-56{fill:url(#linear-gradient-52);}.cls-57{fill:url(#linear-gradient-53);}.cls-58{fill:url(#linear-gradient-54);}.cls-59{fill:url(#linear-gradient-55);}.cls-60{fill:url(#linear-gradient-56);}.cls-61{fill:url(#linear-gradient-57);}.cls-62{fill:url(#linear-gradient-58);}.cls-63{fill:url(#linear-gradient-59);}.cls-64{fill:url(#linear-gradient-60);}.cls-65{fill:url(#linear-gradient-61);}.cls-66{fill:url(#linear-gradient-62);}.cls-67{fill:url(#linear-gradient-63);}.cls-68{fill:url(#linear-gradient-64);}.cls-69{fill:url(#linear-gradient-65);}.cls-70{fill:url(#linear-gradient-66);}.cls-71{fill:url(#linear-gradient-67);}.cls-72{fill:url(#linear-gradient-68);}.cls-73{fill:url(#linear-gradient-69);}.cls-74{fill:url(#linear-gradient-70);}.cls-75{fill:url(#linear-gradient-71);}.cls-76{fill:url(#linear-gradient-72);}.cls-77{fill:url(#linear-gradient-73);}.cls-78{fill:url(#linear-gradient-74);}.cls-79{fill:url(#linear-gradient-75);}.cls-80{fill:url(#linear-gradient-76);}.cls-81{fill:url(#linear-gradient-77);}.cls-82{fill:url(#linear-gradient-78);}.cls-83{fill:url(#linear-gradient-79);}.cls-84{fill:url(#linear-gradient-80);}.cls-85{fill:url(#linear-gradient-81);}.cls-86{fill:url(#linear-gradient-82);}.cls-87{fill:url(#linear-gradient-83);}.cls-88{fill:url(#linear-gradient-84);}.cls-89{fill:url(#linear-gradient-85);}.cls-90{fill:url(#linear-gradient-86);}.cls-91{fill:url(#linear-gradient-87);}.cls-92{fill:url(#linear-gradient-88);}.cls-93{fill:url(#linear-gradient-89);}.cls-94{fill:url(#linear-gradient-90);}.cls-95{fill:url(#linear-gradient-91);}.cls-96{fill:#7d97f4;}.cls-97{fill:url(#linear-gradient-92);}.cls-98{fill:url(#linear-gradient-93);}.cls-99{fill:url(#linear-gradient-94);}.cls-100{fill:url(#linear-gradient-95);}.cls-101{fill:url(#linear-gradient-96);}.cls-102{fill:url(#linear-gradient-97);}.cls-103{fill:url(#linear-gradient-98);}.cls-104{fill:url(#linear-gradient-99);}.cls-105{fill:url(#linear-gradient-100);}.cls-106{fill:url(#linear-gradient-101);}.cls-107{fill:url(#linear-gradient-102);}.cls-108{fill:url(#linear-gradient-103);}.cls-109{fill:url(#linear-gradient-104);}.cls-110{fill:url(#linear-gradient-105);}.cls-111{fill:url(#linear-gradient-106);}.cls-112{fill:url(#linear-gradient-107);}.cls-113{fill:url(#linear-gradient-108);}.cls-114{fill:url(#linear-gradient-109);}.cls-115{fill:url(#linear-gradient-110);}.cls-116{fill:url(#linear-gradient-111);}.cls-117{fill:url(#linear-gradient-112);}.cls-118{fill:url(#linear-gradient-113);}.cls-119{fill:url(#linear-gradient-114);}.cls-120{fill:url(#linear-gradient-115);}.cls-121{fill:url(#linear-gradient-116);}.cls-122{fill:url(#linear-gradient-117);}.cls-123{fill:url(#linear-gradient-118);}.cls-124{fill:url(#linear-gradient-119);}.cls-125{fill:url(#linear-gradient-120);}.cls-126{fill:url(#linear-gradient-121);}.cls-127{fill:url(#linear-gradient-122);}.cls-128{fill:url(#linear-gradient-123);}.cls-130{opacity:0.3;}.cls-131{fill:url(#linear-gradient-124);}.cls-132{fill:url(#linear-gradient-125);}.cls-133{fill:url(#linear-gradient-126);}.cls-134{fill:url(#linear-gradient-127);}.cls-135{fill:url(#linear-gradient-128);}.cls-136{fill:url(#linear-gradient-129);}.cls-137{fill:url(#linear-gradient-130);}.cls-138{fill:url(#linear-gradient-131);}.cls-139{fill:url(#linear-gradient-132);}.cls-140{fill:url(#linear-gradient-133);}.cls-141{fill:url(#linear-gradient-134);}.cls-142{fill:url(#linear-gradient-135);}.cls-143{fill:url(#linear-gradient-136);}.cls-144{fill:url(#linear-gradient-137);}.cls-145{fill:url(#linear-gradient-138);}.cls-146{fill:url(#linear-gradient-139);}.cls-147{fill:url(#linear-gradient-140);}.cls-148{fill:url(#linear-gradient-141);}.cls-149{fill:url(#linear-gradient-142);}.cls-150{fill:url(#linear-gradient-143);}.cls-151{fill:url(#linear-gradient-144);}.cls-152{fill:url(#linear-gradient-145);}.cls-153{fill:url(#linear-gradient-146);}.cls-154{fill:url(#linear-gradient-147);}.cls-155{fill:url(#linear-gradient-148);}.cls-156{fill:url(#linear-gradient-149);}.cls-157{fill:url(#linear-gradient-150);}.cls-158{fill:url(#linear-gradient-151);}.cls-159{fill:url(#linear-gradient-152);}</style><linearGradient id="linear-gradient" y1="415.88" x2="821.08" y2="415.88" gradientUnits="userSpaceOnUse"><stop offset="0" stop-color="#dae3fe"/><stop offset="1" stop-color="#e9effd"/></linearGradient><linearGradient id="linear-gradient-2" x1="-99.23" y1="383.53" x2="970.77" y2="387.53" gradientTransform="translate(361.45 769.15) rotate(-180)" gradientUnits="userSpaceOnUse"><stop offset="0" stop-color="#09005d"/><stop offset="1" stop-color="#1a0f91"/></linearGradient><linearGradient id="linear-gradient-3" x1="916.6" y1="-156.64" x2="146.6" y2="479.36" gradientTransform="translate(522.71 769.15) rotate(-180)" xlink:href="#linear-gradient-2"/><linearGradient id="linear-gradient-4" x1="-6250.92" y1="-43.97" x2="-6295.45" y2="158.2" gradientTransform="matrix(-1, 0, 0, 1, -6019.73, 0)" gradientUnits="userSpaceOnUse"><stop offset="0" stop-color="#4f52ff"/><stop offset="1" stop-color="#4042e2"/></linearGradient><linearGradient id="linear-gradient-5" x1="-6250.92" y1="79.49" x2="-6295.45" y2="281.66" xlink:href="#linear-gradient-4"/><linearGradient id="linear-gradient-6" x1="-6250.92" y1="210.53" x2="-6295.45" y2="412.7" xlink:href="#linear-gradient-4"/><linearGradient id="linear-gradient-7" x1="-6250.92" y1="333.99" x2="-6295.45" y2="536.16" xlink:href="#linear-gradient-4"/><linearGradient id="linear-gradient-8" x1="-6252.46" y1="460.62" x2="-6296.99" y2="662.79" xlink:href="#linear-gradient-4"/><linearGradient id="linear-gradient-9" x1="-6250.92" y1="587.06" x2="-6295.45" y2="789.23" xlink:href="#linear-gradient-4"/><linearGradient id="linear-gradient-10" x1="-6389.08" y1="63.52" x2="-6392.93" y2="80.98" xlink:href="#linear-gradient-4"/><linearGradient id="linear-gradient-11" x1="-6389.08" y1="188.52" x2="-6392.93" y2="205.98" xlink:href="#linear-gradient-4"/><linearGradient id="linear-gradient-12" x1="-6389.08" y1="317.25" x2="-6392.93" y2="334.72" xlink:href="#linear-gradient-4"/><linearGradient id="linear-gradient-13" x1="-6389.08" y1="443.02" x2="-6392.93" y2="460.48" xlink:href="#linear-gradient-4"/><linearGradient id="linear-gradient-14" x1="-6389.08" y1="569.65" x2="-6392.93" y2="587.11" xlink:href="#linear-gradient-4"/><linearGradient id="linear-gradient-15" x1="-6391.65" y1="696.09" x2="-6395.49" y2="713.55" xlink:href="#linear-gradient-4"/><linearGradient id="linear-gradient-16" x1="-6528.36" y1="819.58" x2="-6239.9" y2="653.16" gradientTransform="matrix(1, 0, 0, -1, 6699.54, 1444.47)" xlink:href="#linear-gradient-4"/><linearGradient id="linear-gradient-17" x1="-6522.45" y1="831.39" x2="-6231.75" y2="663.68" gradientTransform="matrix(1, 0, 0, -1, 6667.14, 1456.23)" xlink:href="#linear-gradient-4"/><linearGradient id="linear-gradient-18" x1="-6521.57" y1="825.7" x2="-6234.98" y2="660.36" gradientTransform="matrix(1, 0, 0, -1, 6634.75, 1427.17)" xlink:href="#linear-gradient-4"/><linearGradient id="linear-gradient-19" x1="-6513.37" y1="849.88" x2="-6219.24" y2="680.19" gradientTransform="matrix(1, 0, 0, -1, 6602.35, 1466.31)" xlink:href="#linear-gradient-4"/><linearGradient id="linear-gradient-20" x1="-6511" y1="841.74" x2="-6223.79" y2="676.04" gradientTransform="matrix(1, 0, 0, -1, 6569.96, 1434.06)" xlink:href="#linear-gradient-4"/><linearGradient id="linear-gradient-21" x1="-6505.26" y1="851.63" x2="-6217.17" y2="685.42" gradientTransform="matrix(1, 0, 0, -1, 6537.56, 1441.78)" xlink:href="#linear-gradient-4"/><linearGradient id="linear-gradient-22" x1="-6499.77" y1="862.01" x2="-6210.37" y2="695.05" gradientTransform="matrix(1, 0, 0, -1, 6505.16, 1450.19)" xlink:href="#linear-gradient-4"/><linearGradient id="linear-gradient-23" x1="-6499.45" y1="854.45" x2="-6213.58" y2="689.52" gradientTransform="matrix(1, 0, 0, -1, 6472.77, 1416.75)" xlink:href="#linear-gradient-4"/><linearGradient id="linear-gradient-24" x1="-6493.61" y1="863.71" x2="-6207.31" y2="698.53" gradientTransform="matrix(1, 0, 0, -1, 6440.37, 1423.3)" xlink:href="#linear-gradient-4"/><linearGradient id="linear-gradient-25" x1="-6487.45" y1="874.45" x2="-6200.32" y2="708.8" gradientTransform="matrix(1, 0, 0, -1, 6407.98, 1433.22)" xlink:href="#linear-gradient-4"/><linearGradient id="linear-gradient-26" x1="-6482.45" y1="898.04" x2="-6187.76" y2="728.02" gradientTransform="matrix(1, 0, 0, -1, 6375.58, 1467.46)" xlink:href="#linear-gradient-4"/><linearGradient id="linear-gradient-27" x1="-6476.78" y1="893.2" x2="-6188.14" y2="726.68" gradientTransform="matrix(1, 0, 0, -1, 6343.19, 1445.65)" xlink:href="#linear-gradient-4"/><linearGradient id="linear-gradient-28" x1="-6528.1" y1="691.16" x2="-6239.64" y2="524.74" gradientTransform="matrix(1, 0, 0, -1, 6699.01, 1187.63)" xlink:href="#linear-gradient-4"/><linearGradient id="linear-gradient-29" x1="-6522.19" y1="702.97" x2="-6231.49" y2="535.26" gradientTransform="matrix(1, 0, 0, -1, 6666.62, 1199.39)" xlink:href="#linear-gradient-4"/><linearGradient id="linear-gradient-30" x1="-6521.31" y1="697.28" x2="-6234.72" y2="531.94" gradientTransform="matrix(1, 0, 0, -1, 6634.22, 1170.33)" xlink:href="#linear-gradient-4"/><linearGradient id="linear-gradient-31" x1="-6513.11" y1="721.46" x2="-6218.97" y2="551.77" gradientTransform="matrix(1, 0, 0, -1, 6601.83, 1209.47)" xlink:href="#linear-gradient-4"/><linearGradient id="linear-gradient-32" x1="-6510.74" y1="713.31" x2="-6223.53" y2="547.62" gradientTransform="matrix(1, 0, 0, -1, 6569.43, 1177.21)" xlink:href="#linear-gradient-4"/><linearGradient id="linear-gradient-33" x1="-6505" y1="723.21" x2="-6216.91" y2="557" gradientTransform="matrix(1, 0, 0, -1, 6537.04, 1184.94)" xlink:href="#linear-gradient-4"/><linearGradient id="linear-gradient-34" x1="-6499.51" y1="733.59" x2="-6210.11" y2="566.63" gradientTransform="matrix(1, 0, 0, -1, 6504.64, 1193.34)" xlink:href="#linear-gradient-4"/><linearGradient id="linear-gradient-35" x1="-6499.19" y1="726.03" x2="-6213.31" y2="561.1" gradientTransform="matrix(1, 0, 0, -1, 6472.25, 1159.91)" xlink:href="#linear-gradient-4"/><linearGradient id="linear-gradient-36" x1="-6493.35" y1="735.28" x2="-6207.05" y2="570.11" gradientTransform="matrix(1, 0, 0, -1, 6439.85, 1166.46)" xlink:href="#linear-gradient-4"/><linearGradient id="linear-gradient-37" x1="-6487.19" y1="746.03" x2="-6200.06" y2="580.38" gradientTransform="matrix(1, 0, 0, -1, 6407.46, 1176.37)" xlink:href="#linear-gradient-4"/><linearGradient id="linear-gradient-38" x1="-6482.19" y1="769.61" x2="-6187.5" y2="599.6" gradientTransform="matrix(1, 0, 0, -1, 6375.06, 1210.62)" xlink:href="#linear-gradient-4"/><linearGradient id="linear-gradient-39" x1="-6476.52" y1="764.78" x2="-6187.88" y2="598.26" gradientTransform="matrix(1, 0, 0, -1, 6342.67, 1188.81)" xlink:href="#linear-gradient-4"/><linearGradient id="linear-gradient-40" x1="-6531.49" y1="565.04" x2="-6243.02" y2="398.62" gradientTransform="matrix(1, 0, 0, -1, 6705.78, 935.39)" xlink:href="#linear-gradient-4"/><linearGradient id="linear-gradient-41" x1="-6525.57" y1="576.85" x2="-6234.87" y2="409.14" gradientTransform="matrix(1, 0, 0, -1, 6673.38, 947.15)" xlink:href="#linear-gradient-4"/><linearGradient id="linear-gradient-42" x1="-6524.7" y1="571.16" x2="-6238.1" y2="405.82" gradientTransform="matrix(1, 0, 0, -1, 6640.99, 918.09)" xlink:href="#linear-gradient-4"/><linearGradient id="linear-gradient-43" x1="-6516.49" y1="595.34" x2="-6222.36" y2="425.65" gradientTransform="matrix(1, 0, 0, -1, 6608.59, 957.23)" xlink:href="#linear-gradient-4"/><linearGradient id="linear-gradient-44" x1="-6514.13" y1="587.19" x2="-6226.92" y2="421.5" gradientTransform="matrix(1, 0, 0, -1, 6576.2, 924.97)" xlink:href="#linear-gradient-4"/><linearGradient id="linear-gradient-45" x1="-6508.38" y1="597.09" x2="-6220.29" y2="430.88" gradientTransform="matrix(1, 0, 0, -1, 6543.8, 932.7)" xlink:href="#linear-gradient-4"/><linearGradient id="linear-gradient-46" x1="-6502.89" y1="607.47" x2="-6213.49" y2="440.51" gradientTransform="matrix(1, 0, 0, -1, 6511.41, 941.1)" xlink:href="#linear-gradient-4"/><linearGradient id="linear-gradient-47" x1="-6502.57" y1="599.91" x2="-6216.7" y2="434.98" gradientTransform="matrix(1, 0, 0, -1, 6479.01, 907.67)" xlink:href="#linear-gradient-4"/><linearGradient id="linear-gradient-48" x1="-6496.74" y1="609.17" x2="-6210.44" y2="443.99" gradientTransform="matrix(1, 0, 0, -1, 6446.62, 914.22)" xlink:href="#linear-gradient-4"/><linearGradient id="linear-gradient-49" x1="-6490.57" y1="619.91" x2="-6203.44" y2="454.26" gradientTransform="matrix(1, 0, 0, -1, 6414.22, 924.13)" xlink:href="#linear-gradient-4"/><linearGradient id="linear-gradient-50" x1="-6485.57" y1="643.5" x2="-6190.89" y2="473.48" gradientTransform="matrix(1, 0, 0, -1, 6381.83, 958.38)" xlink:href="#linear-gradient-4"/><linearGradient id="linear-gradient-51" x1="-6479.9" y1="638.66" x2="-6191.26" y2="472.14" gradientTransform="matrix(1, 0, 0, -1, 6349.43, 936.57)" xlink:href="#linear-gradient-4"/><linearGradient id="linear-gradient-52" x1="-6531.22" y1="441.22" x2="-6242.76" y2="274.8" gradientTransform="matrix(1, 0, 0, -1, 6705.26, 687.76)" xlink:href="#linear-gradient-4"/><linearGradient id="linear-gradient-53" x1="-6525.31" y1="453.04" x2="-6234.61" y2="285.32" gradientTransform="matrix(1, 0, 0, -1, 6672.86, 699.52)" xlink:href="#linear-gradient-4"/><linearGradient id="linear-gradient-54" x1="-6524.43" y1="447.34" x2="-6237.84" y2="282" gradientTransform="matrix(1, 0, 0, -1, 6640.47, 670.45)" xlink:href="#linear-gradient-4"/><linearGradient id="linear-gradient-55" x1="-6516.23" y1="471.53" x2="-6222.1" y2="301.83" gradientTransform="matrix(1, 0, 0, -1, 6608.07, 709.6)" xlink:href="#linear-gradient-4"/><linearGradient id="linear-gradient-56" x1="-6513.86" y1="463.38" x2="-6226.65" y2="297.68" gradientTransform="matrix(1, 0, 0, -1, 6575.68, 677.34)" xlink:href="#linear-gradient-4"/><linearGradient id="linear-gradient-57" x1="-6508.12" y1="473.27" x2="-6220.03" y2="307.06" gradientTransform="matrix(1, 0, 0, -1, 6543.28, 685.07)" xlink:href="#linear-gradient-4"/><linearGradient id="linear-gradient-58" x1="-6502.63" y1="483.65" x2="-6213.23" y2="316.69" gradientTransform="matrix(1, 0, 0, -1, 6510.89, 693.47)" xlink:href="#linear-gradient-4"/><linearGradient id="linear-gradient-59" x1="-6502.31" y1="476.09" x2="-6216.44" y2="311.17" gradientTransform="matrix(1, 0, 0, -1, 6478.49, 660.03)" xlink:href="#linear-gradient-4"/><linearGradient id="linear-gradient-60" x1="-6496.48" y1="485.35" x2="-6210.17" y2="320.17" gradientTransform="matrix(1, 0, 0, -1, 6446.1, 666.59)" xlink:href="#linear-gradient-4"/><linearGradient id="linear-gradient-61" x1="-6490.31" y1="496.09" x2="-6203.18" y2="330.44" gradientTransform="matrix(1, 0, 0, -1, 6413.7, 676.5)" xlink:href="#linear-gradient-4"/><linearGradient id="linear-gradient-62" x1="-6485.31" y1="519.68" x2="-6190.63" y2="349.66" gradientTransform="matrix(1, 0, 0, -1, 6381.31, 710.75)" xlink:href="#linear-gradient-4"/><linearGradient id="linear-gradient-63" x1="-6479.64" y1="514.84" x2="-6191" y2="348.32" gradientTransform="matrix(1, 0, 0, -1, 6348.91, 688.93)" xlink:href="#linear-gradient-4"/><linearGradient id="linear-gradient-64" x1="-6531.49" y1="310.81" x2="-6243.02" y2="144.39" gradientTransform="matrix(1, 0, 0, -1, 6705.78, 426.93)" xlink:href="#linear-gradient-4"/><linearGradient id="linear-gradient-65" x1="-6525.57" y1="322.62" x2="-6234.87" y2="154.91" gradientTransform="matrix(1, 0, 0, -1, 6673.38, 438.69)" xlink:href="#linear-gradient-4"/><linearGradient id="linear-gradient-66" x1="-6524.7" y1="316.93" x2="-6238.1" y2="151.58" gradientTransform="matrix(1, 0, 0, -1, 6640.99, 409.62)" xlink:href="#linear-gradient-4"/><linearGradient id="linear-gradient-67" x1="-6516.49" y1="341.11" x2="-6222.36" y2="171.42" gradientTransform="matrix(1, 0, 0, -1, 6608.59, 448.77)" xlink:href="#linear-gradient-4"/><linearGradient id="linear-gradient-68" x1="-6514.12" y1="332.96" x2="-6226.92" y2="167.26" gradientTransform="matrix(1, 0, 0, -1, 6576.2, 416.51)" xlink:href="#linear-gradient-4"/><linearGradient id="linear-gradient-69" x1="-6508.38" y1="342.85" x2="-6220.29" y2="176.65" gradientTransform="matrix(1, 0, 0, -1, 6543.8, 424.24)" xlink:href="#linear-gradient-4"/><linearGradient id="linear-gradient-70" x1="-6502.89" y1="353.24" x2="-6213.49" y2="186.27" gradientTransform="matrix(1, 0, 0, -1, 6511.41, 432.64)" xlink:href="#linear-gradient-4"/><linearGradient id="linear-gradient-71" x1="-6502.57" y1="345.68" x2="-6216.7" y2="180.75" gradientTransform="matrix(1, 0, 0, -1, 6479.01, 399.2)" xlink:href="#linear-gradient-4"/><linearGradient id="linear-gradient-72" x1="-6496.74" y1="354.93" x2="-6210.44" y2="189.76" gradientTransform="matrix(1, 0, 0, -1, 6446.62, 405.76)" xlink:href="#linear-gradient-4"/><linearGradient id="linear-gradient-73" x1="-6490.57" y1="365.68" x2="-6203.44" y2="200.03" gradientTransform="matrix(1, 0, 0, -1, 6414.22, 415.67)" xlink:href="#linear-gradient-4"/><linearGradient id="linear-gradient-74" x1="-6485.57" y1="389.26" x2="-6190.89" y2="219.25" gradientTransform="matrix(1, 0, 0, -1, 6381.83, 449.92)" xlink:href="#linear-gradient-4"/><linearGradient id="linear-gradient-75" x1="-6479.9" y1="384.42" x2="-6191.26" y2="217.9" gradientTransform="matrix(1, 0, 0, -1, 6349.43, 428.1)" xlink:href="#linear-gradient-4"/><linearGradient id="linear-gradient-76" x1="-6531.22" y1="186.99" x2="-6242.76" y2="20.57" gradientTransform="matrix(1, 0, 0, -1, 6705.26, 179.29)" xlink:href="#linear-gradient-4"/><linearGradient id="linear-gradient-77" x1="-6525.31" y1="198.8" x2="-6234.61" y2="31.09" gradientTransform="matrix(1, 0, 0, -1, 6672.86, 191.05)" xlink:href="#linear-gradient-4"/><linearGradient id="linear-gradient-78" x1="-6524.43" y1="193.11" x2="-6237.84" y2="27.77" gradientTransform="matrix(1, 0, 0, -1, 6640.47, 161.98)" xlink:href="#linear-gradient-4"/><linearGradient id="linear-gradient-79" x1="-6516.23" y1="217.29" x2="-6222.1" y2="47.6" gradientTransform="matrix(1, 0, 0, -1, 6608.07, 201.13)" xlink:href="#linear-gradient-4"/><linearGradient id="linear-gradient-80" x1="-6513.86" y1="209.14" x2="-6226.65" y2="43.45" gradientTransform="matrix(1, 0, 0, -1, 6575.68, 168.87)" xlink:href="#linear-gradient-4"/><linearGradient id="linear-gradient-81" x1="-6508.12" y1="219.04" x2="-6220.03" y2="52.83" gradientTransform="matrix(1, 0, 0, -1, 6543.28, 176.6)" xlink:href="#linear-gradient-4"/><linearGradient id="linear-gradient-82" x1="-6502.63" y1="229.42" x2="-6213.23" y2="62.46" gradientTransform="matrix(1, 0, 0, -1, 6510.89, 185)" xlink:href="#linear-gradient-4"/><linearGradient id="linear-gradient-83" x1="-6502.31" y1="221.86" x2="-6216.44" y2="56.93" gradientTransform="matrix(1, 0, 0, -1, 6478.49, 151.57)" xlink:href="#linear-gradient-4"/><linearGradient id="linear-gradient-84" x1="-6496.48" y1="231.11" x2="-6210.17" y2="65.94" gradientTransform="matrix(1, 0, 0, -1, 6446.1, 158.12)" xlink:href="#linear-gradient-4"/><linearGradient id="linear-gradient-85" x1="-6490.31" y1="241.86" x2="-6203.18" y2="76.21" gradientTransform="matrix(1, 0, 0, -1, 6413.7, 168.03)" xlink:href="#linear-gradient-4"/><linearGradient id="linear-gradient-86" x1="-6485.31" y1="265.44" x2="-6190.63" y2="95.43" gradientTransform="matrix(1, 0, 0, -1, 6381.31, 202.28)" xlink:href="#linear-gradient-4"/><linearGradient id="linear-gradient-87" x1="-6479.64" y1="260.61" x2="-6191" y2="94.09" gradientTransform="matrix(1, 0, 0, -1, 6348.91, 180.47)" xlink:href="#linear-gradient-4"/><linearGradient id="linear-gradient-88" x1="969.65" y1="195.12" x2="1255.65" y2="-160.88" gradientTransform="matrix(1, 0, 0, 1, 0, 0)" xlink:href="#linear-gradient-4"/><linearGradient id="linear-gradient-89" x1="960.86" y1="188.06" x2="1246.86" y2="-167.94" gradientTransform="matrix(1, 0, 0, 1, 0, 0)" xlink:href="#linear-gradient-4"/><linearGradient id="linear-gradient-90" x1="-8167.93" y1="851.02" x2="-8169.5" y2="771.08" gradientTransform="matrix(-1, 0.02, 0, 1, -7596.12, 28.83)" gradientUnits="userSpaceOnUse"><stop offset="0" stop-color="#ff9085"/><stop offset="1" stop-color="#fb6fbb"/></linearGradient><linearGradient id="linear-gradient-91" x1="968.99" y1="194.6" x2="1254.99" y2="-161.4" gradientTransform="matrix(1, 0, 0, 1, 0, 0)" xlink:href="#linear-gradient-4"/><linearGradient id="linear-gradient-92" x1="938.58" y1="170.16" x2="1224.58" y2="-185.84" gradientTransform="matrix(1, 0, 0, 1, 0, 0)" xlink:href="#linear-gradient-4"/><linearGradient id="linear-gradient-93" x1="929.8" y1="163.11" x2="1215.8" y2="-192.89" gradientTransform="matrix(1, 0, 0, 1, 0, 0)" xlink:href="#linear-gradient-4"/><linearGradient id="linear-gradient-94" x1="-8167.93" y1="787.42" x2="-8169.5" y2="707.48" xlink:href="#linear-gradient-90"/><linearGradient id="linear-gradient-95" x1="937.94" y1="169.65" x2="1223.94" y2="-186.35" gradientTransform="matrix(1, 0, 0, 1, 0, 0)" xlink:href="#linear-gradient-4"/><linearGradient id="linear-gradient-96" x1="907.45" y1="145.15" x2="1193.45" y2="-210.85" gradientTransform="matrix(1, 0, 0, 1, 0, 0)" xlink:href="#linear-gradient-4"/><linearGradient id="linear-gradient-97" x1="898.67" y1="138.1" x2="1184.66" y2="-217.9" gradientTransform="matrix(1, 0, 0, 1, 0, 0)" xlink:href="#linear-gradient-4"/><linearGradient id="linear-gradient-98" x1="-8167.93" y1="723.65" x2="-8169.5" y2="643.71" xlink:href="#linear-gradient-90"/><linearGradient id="linear-gradient-99" x1="906.81" y1="144.64" x2="1192.8" y2="-211.36" gradientTransform="matrix(1, 0, 0, 1, 0, 0)" xlink:href="#linear-gradient-4"/><linearGradient id="linear-gradient-100" x1="876.31" y1="120.14" x2="1162.31" y2="-235.86" gradientTransform="matrix(1, 0, 0, 1, 0, 0)" xlink:href="#linear-gradient-4"/><linearGradient id="linear-gradient-101" x1="867.53" y1="113.08" x2="1153.53" y2="-242.92" gradientTransform="matrix(1, 0, 0, 1, 0, 0)" xlink:href="#linear-gradient-4"/><linearGradient id="linear-gradient-102" x1="-8167.93" y1="659.89" x2="-8169.5" y2="579.95" xlink:href="#linear-gradient-90"/><linearGradient id="linear-gradient-103" x1="875.67" y1="119.63" x2="1161.67" y2="-236.37" gradientTransform="matrix(1, 0, 0, 1, 0, 0)" xlink:href="#linear-gradient-4"/><linearGradient id="linear-gradient-104" x1="845.18" y1="95.13" x2="1131.18" y2="-260.87" gradientTransform="matrix(1, 0, 0, 1, 0, 0)" xlink:href="#linear-gradient-4"/><linearGradient id="linear-gradient-105" x1="836.4" y1="88.07" x2="1122.4" y2="-267.93" gradientTransform="matrix(1, 0, 0, 1, 0, 0)" xlink:href="#linear-gradient-4"/><linearGradient id="linear-gradient-106" x1="-8167.93" y1="596.12" x2="-8169.5" y2="516.18" xlink:href="#linear-gradient-90"/><linearGradient id="linear-gradient-107" x1="844.54" y1="94.61" x2="1130.54" y2="-261.39" gradientTransform="matrix(1, 0, 0, 1, 0, 0)" xlink:href="#linear-gradient-4"/><linearGradient id="linear-gradient-108" x1="814.05" y1="70.12" x2="1100.05" y2="-285.89" gradientTransform="matrix(1, 0, 0, 1, 0, 0)" xlink:href="#linear-gradient-4"/><linearGradient id="linear-gradient-109" x1="805.27" y1="63.06" x2="1091.26" y2="-292.94" gradientTransform="matrix(1, 0, 0, 1, 0, 0)" xlink:href="#linear-gradient-4"/><linearGradient id="linear-gradient-110" x1="-8167.93" y1="532.36" x2="-8169.5" y2="452.42" xlink:href="#linear-gradient-90"/><linearGradient id="linear-gradient-111" x1="813.41" y1="69.6" x2="1099.4" y2="-286.4" gradientTransform="matrix(1, 0, 0, 1, 0, 0)" xlink:href="#linear-gradient-4"/><linearGradient id="linear-gradient-112" x1="782.91" y1="45.1" x2="1068.91" y2="-310.9" gradientTransform="matrix(1, 0, 0, 1, 0, 0)" xlink:href="#linear-gradient-4"/><linearGradient id="linear-gradient-113" x1="774.13" y1="38.05" x2="1060.13" y2="-317.95" gradientTransform="matrix(1, 0, 0, 1, 0, 0)" xlink:href="#linear-gradient-4"/><linearGradient id="linear-gradient-114" x1="-8167.93" y1="468.59" x2="-8169.5" y2="388.65" xlink:href="#linear-gradient-90"/><linearGradient id="linear-gradient-115" x1="782.27" y1="44.59" x2="1068.27" y2="-311.41" gradientTransform="matrix(1, 0, 0, 1, 0, 0)" xlink:href="#linear-gradient-4"/><linearGradient id="linear-gradient-116" x1="394.12" y1="681.7" x2="310.47" y2="1152.21" gradientTransform="matrix(1, 0, 0, 1, 0, 0)" xlink:href="#linear-gradient-2"/><linearGradient id="linear-gradient-117" x1="452.78" y1="423.46" x2="300.13" y2="1186.72" gradientTransform="matrix(1, 0, 0, 1, 0, 0)" xlink:href="#linear-gradient-4"/><linearGradient id="linear-gradient-118" x1="451.85" y1="423.27" x2="299.2" y2="1186.53" gradientTransform="matrix(1, 0, 0, 1, 0, 0)" xlink:href="#linear-gradient-4"/><linearGradient id="linear-gradient-119" x1="446.68" y1="422.24" x2="294.03" y2="1185.5" gradientTransform="matrix(1, 0, 0, 1, 0, 0)" xlink:href="#linear-gradient-4"/><linearGradient id="linear-gradient-120" x1="446.28" y1="422.16" x2="293.63" y2="1185.42" gradientTransform="matrix(1, 0, 0, 1, 0, 0)" xlink:href="#linear-gradient-4"/><linearGradient id="linear-gradient-121" x1="415.51" y1="763.52" x2="381.01" y2="249.04" gradientUnits="userSpaceOnUse"><stop offset="0" stop-color="#ff928e"/><stop offset="1" stop-color="#fe7062"/></linearGradient><linearGradient id="linear-gradient-122" x1="427.36" y1="500.78" x2="442.89" y2="993.96" gradientUnits="userSpaceOnUse"><stop offset="0" stop-color="#febbba"/><stop offset="1" stop-color="#ff928e"/></linearGradient><linearGradient id="linear-gradient-123" x1="341.86" y1="503.47" x2="357.38" y2="996.65" xlink:href="#linear-gradient-122"/><linearGradient id="linear-gradient-124" x1="-4102.09" y1="2230.13" x2="-3987.36" y2="2230.13" gradientTransform="matrix(-0.99, 0.14, -0.14, -0.99, -3334.46, 3224.15)" xlink:href="#linear-gradient-4"/><linearGradient id="linear-gradient-125" x1="694.32" y1="2383.11" x2="703.75" y2="2383.11" gradientTransform="matrix(0.96, 0.29, 0.29, -0.96, -925.81, 2591.61)" xlink:href="#linear-gradient-4"/><linearGradient id="linear-gradient-126" x1="743.28" y1="2455.2" x2="749.76" y2="2455.2" gradientTransform="matrix(0.96, 0.29, 0.29, -0.96, -925.81, 2591.61)" xlink:href="#linear-gradient-4"/><linearGradient id="linear-gradient-127" x1="-4213.64" y1="2287.41" x2="-4093.54" y2="2287.41" gradientTransform="matrix(-0.99, 0.14, -0.14, -0.99, -3334.46, 3224.15)" xlink:href="#linear-gradient-4"/><linearGradient id="linear-gradient-128" x1="568.18" y1="2563.91" x2="577.49" y2="2563.91" gradientTransform="matrix(0.96, 0.29, 0.29, -0.96, -925.81, 2591.61)" xlink:href="#linear-gradient-4"/><linearGradient id="linear-gradient-129" x1="423.89" y1="284.92" x2="383.89" y2="548.92" gradientTransform="matrix(1, 0, 0, 1, 0, 0)" xlink:href="#linear-gradient-4"/><linearGradient id="linear-gradient-130" x1="428.85" y1="2560.2" x2="433.46" y2="2560.2" gradientTransform="matrix(0.96, 0.29, 0.29, -0.96, -925.81, 2591.61)" xlink:href="#linear-gradient-4"/><linearGradient id="linear-gradient-131" x1="-3988.65" y1="2357.81" x2="-3930.39" y2="2357.81" gradientTransform="matrix(-0.99, 0.14, -0.14, -0.99, -3334.46, 3224.15)" xlink:href="#linear-gradient-4"/><linearGradient id="linear-gradient-132" x1="-4081.49" y1="2412.4" x2="-4001.7" y2="2412.4" gradientTransform="matrix(-0.99, 0.14, -0.14, -0.99, -3334.46, 3224.15)" xlink:href="#linear-gradient-4"/><linearGradient id="linear-gradient-133" x1="455.94" y1="2601.42" x2="462.98" y2="2601.42" gradientTransform="matrix(0.96, 0.29, 0.29, -0.96, -925.81, 2591.61)" xlink:href="#linear-gradient-4"/><linearGradient id="linear-gradient-134" x1="-3970.12" y1="2340.77" x2="-4040.81" y2="2406.54" gradientTransform="matrix(-0.99, 0.14, -0.14, -0.99, -3334.46, 3224.15)" xlink:href="#linear-gradient-4"/><linearGradient id="linear-gradient-135" x1="-593.17" y1="791.99" x2="-745.04" y2="957.18" gradientTransform="matrix(-1, 0, 0, 1, -95.89, 0)" xlink:href="#linear-gradient-2"/><linearGradient id="linear-gradient-136" x1="-642.47" y1="804.26" x2="-628.98" y2="804.26" gradientTransform="matrix(-1, 0, 0, 1, -95.89, 0)" xlink:href="#linear-gradient-122"/><linearGradient id="linear-gradient-137" x1="-581.21" y1="605.18" x2="-710.44" y2="780.33" gradientTransform="matrix(-1, 0, 0, 1, -95.89, 0)" xlink:href="#linear-gradient-2"/><linearGradient id="linear-gradient-138" x1="-627.24" y1="760.67" x2="-779.11" y2="925.86" gradientTransform="matrix(-1, 0, 0, 1, -95.89, 0)" xlink:href="#linear-gradient-2"/><linearGradient id="linear-gradient-139" x1="-691.08" y1="803.57" x2="-679.44" y2="803.57" gradientTransform="matrix(-1, 0, 0, 1, -95.89, 0)" xlink:href="#linear-gradient-122"/><linearGradient id="linear-gradient-140" x1="-604.25" y1="588.19" x2="-733.47" y2="763.33" gradientTransform="matrix(-1, 0, 0, 1, -95.89, 0)" xlink:href="#linear-gradient-2"/><linearGradient id="linear-gradient-141" x1="480.2" y1="475.84" x2="413.87" y2="414.51" xlink:href="#linear-gradient-122"/><linearGradient id="linear-gradient-142" x1="412.44" y1="379.16" x2="436.24" y2="447.16" xlink:href="#linear-gradient-122"/><linearGradient id="linear-gradient-143" x1="434.43" y1="430.08" x2="416.5" y2="393.92" xlink:href="#linear-gradient-122"/><linearGradient id="linear-gradient-144" x1="-737.76" y1="549.95" x2="-650.55" y2="549.95" gradientTransform="matrix(-1, 0, 0, 1, -95.89, 0)" xlink:href="#linear-gradient-122"/><linearGradient id="linear-gradient-145" x1="470.74" y1="533.07" x2="564.18" y2="533.07" gradientTransform="matrix(1, 0, 0, 1, 0, 0)" xlink:href="#linear-gradient-2"/><linearGradient id="linear-gradient-146" x1="1845.3" y1="-2555.89" x2="2131.3" y2="-2911.89" gradientTransform="matrix(-1, 0, 0, 1, -95.89, 0)" xlink:href="#linear-gradient-4"/><linearGradient id="linear-gradient-147" x1="1847.88" y1="-2553.82" x2="2133.88" y2="-2909.82" gradientTransform="matrix(-1, 0, 0, 1, -95.89, 0)" xlink:href="#linear-gradient-4"/><linearGradient id="linear-gradient-148" x1="-657.02" y1="540.8" x2="-629.85" y2="540.8" gradientTransform="matrix(-1, 0, 0, 1, -95.89, 0)" xlink:href="#linear-gradient-122"/><linearGradient id="linear-gradient-149" x1="563.47" y1="482.74" x2="547.47" y2="427.08" xlink:href="#linear-gradient-122"/><linearGradient id="linear-gradient-150" x1="576.18" y1="420.76" x2="503.51" y2="434.76" xlink:href="#linear-gradient-122"/><linearGradient id="linear-gradient-151" x1="-6633.43" y1="-1622.17" x2="-6622.65" y2="-1560.69" gradientTransform="matrix(-0.75, -0.67, -0.67, 0.75, -5438.54, -2819.79)" xlink:href="#linear-gradient-2"/><linearGradient id="linear-gradient-152" x1="577.7" y1="428.64" x2="505.03" y2="442.64" xlink:href="#linear-gradient-122"/></defs><g id="Layer_2" data-name="Layer 2"><g id="Metaphor_illustration" data-name="Metaphor illustration"><path class="cls-1" d="M725.9,712.31c-16.86,17.75-32.81,29.19-45.42,38.24C532.33,856.85,357,825.86,319.76,818.3c-55-11.18-161.37-32.78-238.26-123.2-116.33-136.8-98.22-352.32-8-494.59C90,174.48,177.2,30.05,354.4,6.89,461.64-7.13,586.65,21.14,677.17,97,867.2,256.18,853.67,577.8,725.9,712.31Z"/><path class="cls-2" d="M677.65,2.21c-54.43,35.18-362.8,252.85-210.52,578.92,0,0,239.9-91,219-574.57A5.48,5.48,0,0,0,677.65,2.21Z"/><path class="cls-3" d="M654.46,62.84c-13.22,17.43-25.63,35.36-37.74,53.53S593,153,581.84,171.77s-21.85,37.8-32,57.11c-2.51,4.85-5.11,9.65-7.54,14.54l-7.34,14.65c-4.71,9.85-9.49,19.67-13.9,29.67-4.59,9.91-8.74,20-13,30.1l-6,15.24c-2.06,5.07-3.8,10.25-5.72,15.38a637.26,637.26,0,0,0-19.41,62.69l-2,8-1.76,8-1.75,8-.88,4-.72,4.05-2.84,16.2-2.12,16.33A373.52,373.52,0,0,0,463,541.64a3.36,3.36,0,1,0,6.7-.45v-.07A367.8,367.8,0,0,1,471,476.45l2-16.11,2.69-16,.67-4,.84-4,1.68-7.95,1.68-7.95,2-7.9a629.5,629.5,0,0,1,18.78-62.31c1.87-5.1,3.56-10.26,5.57-15.31l5.88-15.2c4.15-10,8.2-20.13,12.69-30,4.31-10,9-19.79,13.62-29.64l7.2-14.64c2.38-4.89,4.94-9.69,7.4-14.54q15-29,31.52-57.16t34.38-55.51C631.44,100,643.72,82,656.72,64.58v0a1.42,1.42,0,0,0-2.27-1.71Z"/><path class="cls-4" d="M785.41,111.61C731.75,138.76,426,308.25,536.06,595.7c0,0,230.45-64.84,256.76-479.9C793.05,112.17,788.91,109.84,785.41,111.61Z"/><path class="cls-5" d="M757.88,161.77c-13.19,13.75-25.79,27.92-38.2,42.31s-24.45,29.07-36.23,44-23.19,30.1-34.28,45.53-21.85,31.11-32.09,47.14S596.89,373,587.69,389.66s-18,33.56-25.85,51c-15.82,34.68-28.48,71.1-35,109a4.34,4.34,0,0,0,8.56,1.47v0l0-.08c5.91-37,17.92-72.93,33.19-107.36,7.51-17.28,16.08-34.11,25-50.73s18.62-32.87,28.63-48.9,20.54-31.76,31.41-47.23,22.09-30.73,33.64-45.72,23.43-29.74,35.62-44.22,24.64-28.78,37.56-42.54l0,0a1.84,1.84,0,0,0-2.66-2.54Z"/><rect class="cls-6" x="21.67" width="318.12" height="769.15" rx="10.26" transform="translate(361.45 769.15) rotate(180)"/><rect class="cls-7" x="102.29" width="318.12" height="769.15" rx="16.26" transform="translate(522.71 769.15) rotate(180)"/><path class="cls-8" d="M123.57,97.9V52.84c0-8.85,5.53-16.05,12.32-16.05H379.06c6.79,0,12.31,7.2,12.31,16.05V97.9c0,8.85-5.52,16-12.31,16H135.89C129.1,114,123.57,106.75,123.57,97.9Zm12.32-57.1c-5.1,0-9.24,5.4-9.24,12V97.9c0,6.64,4.14,12,9.24,12H379.06c5.09,0,9.23-5.4,9.23-12V52.84c0-6.64-4.14-12-9.23-12Z"/><path class="cls-9" d="M123.57,221.36V176.3c0-8.85,5.53-16.05,12.32-16.05H379.06c6.79,0,12.31,7.2,12.31,16.05v45.06c0,8.85-5.52,16-12.31,16H135.89C129.1,237.41,123.57,230.21,123.57,221.36Zm12.32-57.1c-5.1,0-9.24,5.4-9.24,12v45.06c0,6.64,4.14,12,9.24,12H379.06c5.09,0,9.23-5.4,9.23-12V176.3c0-6.64-4.14-12-9.23-12Z"/><path class="cls-10" d="M123.57,352.39V307.33c0-8.85,5.53-16.05,12.32-16.05H379.06c6.79,0,12.31,7.2,12.31,16.05v45.06c0,8.85-5.52,16.05-12.31,16.05H135.89C129.1,368.44,123.57,361.24,123.57,352.39Zm12.32-57.1c-5.1,0-9.24,5.4-9.24,12v45.06c0,6.64,4.14,12,9.24,12H379.06c5.09,0,9.23-5.4,9.23-12V307.33c0-6.64-4.14-12-9.23-12Z"/><path class="cls-11" d="M123.57,475.85V430.79c0-8.85,5.53-16.05,12.32-16.05H379.06c6.79,0,12.31,7.2,12.31,16.05v45.06c0,8.85-5.52,16-12.31,16H135.89C129.1,491.9,123.57,484.7,123.57,475.85Zm12.32-57.1c-5.1,0-9.24,5.4-9.24,12v45.06c0,6.64,4.14,12,9.24,12H379.06c5.09,0,9.23-5.4,9.23-12V430.79c0-6.64-4.14-12-9.23-12Z"/><path class="cls-12" d="M125.11,602.49V557.42c0-8.85,5.53-16,12.31-16H380.6c6.79,0,12.31,7.2,12.31,16v45.07c0,8.85-5.52,16-12.31,16H137.42C130.64,618.54,125.11,611.34,125.11,602.49Zm12.31-57.1c-5.09,0-9.23,5.39-9.23,12v45.07c0,6.63,4.14,12,9.23,12H380.6c5.09,0,9.23-5.4,9.23-12V557.42c0-6.64-4.14-12-9.23-12Z"/><path class="cls-13" d="M123.57,728.93V683.86c0-8.85,5.53-16.05,12.32-16.05H379.06c6.79,0,12.31,7.2,12.31,16.05v45.07c0,8.85-5.52,16.05-12.31,16.05H135.89C129.1,745,123.57,737.78,123.57,728.93Zm12.32-57.1c-5.1,0-9.24,5.4-9.24,12v45.07c0,6.63,4.14,12,9.24,12H379.06c5.09,0,9.23-5.4,9.23-12V683.86c0-6.63-4.14-12-9.23-12Z"/><ellipse class="cls-14" cx="371.62" cy="73.82" rx="5.9" ry="5.51"/><ellipse class="cls-15" cx="371.62" cy="198.83" rx="5.9" ry="5.51"/><path class="cls-16" d="M365.72,327.56a5.91,5.91,0,1,0,5.9-5.51A5.71,5.71,0,0,0,365.72,327.56Z"/><ellipse class="cls-17" cx="371.62" cy="453.32" rx="5.9" ry="5.51"/><path class="cls-18" d="M365.72,580a5.91,5.91,0,1,0,5.9-5.51A5.72,5.72,0,0,0,365.72,580Z"/><ellipse class="cls-19" cx="374.18" cy="706.39" rx="5.9" ry="5.51"/><rect class="cls-20" x="335.05" y="705.13" width="9.69" height="34.22" transform="translate(679.8 1444.47) rotate(180)"/><rect class="cls-21" x="318.86" y="716.89" width="9.69" height="22.46" transform="translate(647.41 1456.23) rotate(180)"/><rect class="cls-22" x="302.66" y="687.82" width="9.69" height="51.53" transform="translate(615.01 1427.17) rotate(180)"/><rect class="cls-23" x="286.46" y="726.97" width="9.69" height="12.38" transform="translate(582.62 1466.31) rotate(180)"/><rect class="cls-24" x="270.26" y="694.71" width="9.69" height="44.64" transform="translate(550.22 1434.06) rotate(180)"/><rect class="cls-25" x="254.07" y="702.44" width="9.69" height="36.91" transform="translate(517.83 1441.78) rotate(180)"/><rect class="cls-26" x="237.87" y="710.84" width="9.69" height="28.51" transform="translate(485.43 1450.19) rotate(180)"/><rect class="cls-27" x="221.67" y="677.4" width="9.69" height="61.94" transform="translate(453.04 1416.75) rotate(180)"/><rect class="cls-28" x="205.47" y="683.96" width="9.69" height="55.39" transform="translate(420.64 1423.3) rotate(180)"/><rect class="cls-29" x="189.28" y="693.87" width="9.69" height="45.48" transform="translate(388.25 1433.22) rotate(180)"/><rect class="cls-30" x="173.08" y="728.12" width="9.69" height="11.23" transform="translate(355.85 1467.46) rotate(180)"/><rect class="cls-31" x="156.88" y="706.3" width="9.69" height="33.04" transform="translate(323.46 1445.65) rotate(180)"/><rect class="cls-32" x="334.79" y="576.71" width="9.69" height="34.22" transform="translate(679.28 1187.63) rotate(180)"/><rect class="cls-33" x="318.6" y="588.47" width="9.69" height="22.46" transform="translate(646.89 1199.39) rotate(180)"/><rect class="cls-34" x="302.4" y="559.4" width="9.69" height="51.53" transform="translate(614.49 1170.33) rotate(180)"/><rect class="cls-35" x="286.2" y="598.55" width="9.69" height="12.38" transform="translate(582.1 1209.47) rotate(180)"/><rect class="cls-36" x="270" y="566.29" width="9.69" height="44.64" transform="translate(549.7 1177.21) rotate(180)"/><rect class="cls-37" x="253.81" y="574.02" width="9.69" height="36.91" transform="translate(517.31 1184.94) rotate(180)"/><rect class="cls-38" x="237.61" y="582.42" width="9.69" height="28.51" transform="translate(484.91 1193.34) rotate(180)"/><rect class="cls-39" x="221.41" y="548.98" width="9.69" height="61.94" transform="translate(452.51 1159.91) rotate(180)"/><rect class="cls-40" x="205.21" y="555.54" width="9.69" height="55.39" transform="translate(420.12 1166.46) rotate(180)"/><rect class="cls-41" x="189.02" y="565.45" width="9.69" height="45.48" transform="translate(387.72 1176.37) rotate(180)"/><rect class="cls-42" x="172.82" y="599.7" width="9.69" height="11.23" transform="translate(355.33 1210.62) rotate(180)"/><rect class="cls-43" x="156.62" y="577.88" width="9.69" height="33.04" transform="translate(322.93 1188.81) rotate(180)"/><rect class="cls-44" x="338.18" y="450.59" width="9.69" height="34.22" transform="translate(686.05 935.39) rotate(180)"/><rect class="cls-45" x="321.98" y="462.35" width="9.69" height="22.46" transform="translate(653.65 947.15) rotate(180)"/><rect class="cls-46" x="305.78" y="433.28" width="9.69" height="51.53" transform="translate(621.26 918.09) rotate(180)"/><rect class="cls-47" x="289.58" y="472.43" width="9.69" height="12.38" transform="translate(588.86 957.23) rotate(180)"/><rect class="cls-48" x="273.39" y="440.17" width="9.69" height="44.64" transform="translate(556.47 924.97) rotate(180)"/><rect class="cls-49" x="257.19" y="447.9" width="9.69" height="36.91" transform="translate(524.07 932.7) rotate(180)"/><rect class="cls-50" x="240.99" y="456.3" width="9.69" height="28.51" transform="translate(491.67 941.1) rotate(180)"/><rect class="cls-51" x="224.79" y="422.86" width="9.69" height="61.94" transform="translate(459.28 907.67) rotate(180)"/><rect class="cls-52" x="208.59" y="429.42" width="9.69" height="55.39" transform="translate(426.88 914.22) rotate(180)"/><rect class="cls-53" x="192.4" y="439.33" width="9.69" height="45.48" transform="translate(394.49 924.13) rotate(180)"/><rect class="cls-54" x="176.2" y="473.58" width="9.69" height="11.23" transform="translate(362.09 958.38) rotate(180)"/><rect class="cls-55" x="160" y="451.76" width="9.69" height="33.04" transform="translate(329.7 936.57) rotate(180)"/><rect class="cls-56" x="337.92" y="326.77" width="9.69" height="34.22" transform="translate(685.52 687.76) rotate(180)"/><rect class="cls-57" x="321.72" y="338.53" width="9.69" height="22.46" transform="translate(653.13 699.52) rotate(180)"/><rect class="cls-58" x="305.52" y="309.46" width="9.69" height="51.53" transform="translate(620.73 670.45) rotate(180)"/><rect class="cls-59" x="289.32" y="348.61" width="9.69" height="12.38" transform="translate(588.34 709.6) rotate(180)"/><rect class="cls-60" x="273.12" y="316.35" width="9.69" height="44.64" transform="translate(555.94 677.34) rotate(180)"/><rect class="cls-61" x="256.93" y="324.08" width="9.69" height="36.91" transform="translate(523.55 685.07) rotate(180)"/><rect class="cls-62" x="240.73" y="332.48" width="9.69" height="28.51" transform="translate(491.15 693.47) rotate(180)"/><rect class="cls-63" x="224.53" y="299.05" width="9.69" height="61.94" transform="translate(458.76 660.03) rotate(180)"/><rect class="cls-64" x="208.33" y="305.6" width="9.69" height="55.39" transform="translate(426.36 666.59) rotate(180)"/><rect class="cls-65" x="192.14" y="315.51" width="9.69" height="45.48" transform="translate(393.97 676.5) rotate(180)"/><rect class="cls-66" x="175.94" y="349.76" width="9.69" height="11.23" transform="translate(361.57 710.75) rotate(180)"/><rect class="cls-67" x="159.74" y="327.94" width="9.69" height="33.04" transform="translate(329.18 688.93) rotate(180)"/><rect class="cls-68" x="338.18" y="196.35" width="9.69" height="34.22" transform="translate(686.05 426.93) rotate(180)"/><rect class="cls-69" x="321.98" y="208.11" width="9.69" height="22.46" transform="translate(653.65 438.69) rotate(180)"/><rect class="cls-70" x="305.78" y="179.05" width="9.69" height="51.53" transform="translate(621.26 409.62) rotate(180)"/><rect class="cls-71" x="289.58" y="218.19" width="9.69" height="12.38" transform="translate(588.86 448.77) rotate(180)"/><rect class="cls-72" x="273.39" y="185.94" width="9.69" height="44.64" transform="translate(556.47 416.51) rotate(180)"/><rect class="cls-73" x="257.19" y="193.66" width="9.69" height="36.91" transform="translate(524.07 424.24) rotate(180)"/><rect class="cls-74" x="240.99" y="202.07" width="9.69" height="28.51" transform="translate(491.67 432.64) rotate(180)"/><rect class="cls-75" x="224.79" y="168.63" width="9.69" height="61.94" transform="translate(459.28 399.2) rotate(180)"/><rect class="cls-76" x="208.59" y="175.18" width="9.69" height="55.39" transform="translate(426.88 405.76) rotate(180)"/><rect class="cls-77" x="192.4" y="185.1" width="9.69" height="45.48" transform="translate(394.49 415.67) rotate(180)"/><rect class="cls-78" x="176.2" y="219.34" width="9.69" height="11.23" transform="translate(362.09 449.92) rotate(180)"/><rect class="cls-79" x="160" y="197.53" width="9.69" height="33.04" transform="translate(329.7 428.1) rotate(180)"/><rect class="cls-80" x="337.92" y="72.53" width="9.69" height="34.22" transform="translate(685.52 179.29) rotate(180)"/><rect class="cls-81" x="321.72" y="84.3" width="9.69" height="22.46" transform="translate(653.13 191.05) rotate(180)"/><rect class="cls-82" x="305.52" y="55.23" width="9.69" height="51.53" transform="translate(620.73 161.98) rotate(180)"/><rect class="cls-83" x="289.32" y="94.38" width="9.69" height="12.38" transform="translate(588.34 201.13) rotate(180)"/><rect class="cls-84" x="273.12" y="62.12" width="9.69" height="44.64" transform="translate(555.94 168.87) rotate(180)"/><rect class="cls-85" x="256.93" y="69.85" width="9.69" height="36.91" transform="translate(523.55 176.6) rotate(180)"/><rect class="cls-86" x="240.73" y="78.25" width="9.69" height="28.51" transform="translate(491.15 185) rotate(180)"/><rect class="cls-87" x="224.53" y="44.81" width="9.69" height="61.94" transform="translate(458.76 151.57) rotate(180)"/><rect class="cls-88" x="208.33" y="51.37" width="9.69" height="55.39" transform="translate(426.36 158.12) rotate(180)"/><rect class="cls-89" x="192.14" y="61.28" width="9.69" height="45.48" transform="translate(393.97 168.03) rotate(180)"/><rect class="cls-90" x="175.94" y="95.53" width="9.69" height="11.23" transform="translate(361.57 202.28) rotate(180)"/><rect class="cls-91" x="159.74" y="73.71" width="9.69" height="33.04" transform="translate(329.18 180.47) rotate(180)"/><path class="cls-92" d="M799.73,671.23v33.56h0c-2.06,20.26-86.78,57.46-209.84,58.15-180.93,1-242-39.39-244.88-60.08h-.07V671.93Z"/><path class="cls-93" d="M344.9,672.06c0,20.86,104.4,37.33,231.1,36.8,124.45-.52,223.73-17.31,223.73-37.51S700.45,634.67,576,634.54C449.3,634.4,344.9,651.2,344.9,672.06Z"/><path class="cls-94" d="M346.66,669.52c0,20.7,103.6,37.09,229.36,36.6C699.59,705.65,798.19,689,798.19,669S699.59,632.5,576,632.34C450.26,632.17,346.66,648.81,346.66,669.52Z"/><polygon class="cls-95" points="344.9 702.86 344.9 671.93 799.73 671.23 799.73 704.79 344.9 702.86"/><path class="cls-96" d="M344.9,672.06c0,20.86,104.4,37.33,231.1,36.8,124.45-.52,223.73-17.31,223.73-37.51S700.45,634.67,576,634.54C449.3,634.4,344.9,651.2,344.9,672.06Z"/><path class="cls-97" d="M799.73,607.62v33.56h0c-2.06,20.25-86.78,55.69-209.84,55.06-195-1-242-36.31-244.88-57h-.07V608.33Z"/><path class="cls-98" d="M344.9,608.45c0,20.86,104.4,37.34,231.1,36.8,124.45-.52,223.73-17.31,223.73-37.51S700.45,571.06,576,570.93C449.3,570.79,344.9,587.59,344.9,608.45Z"/><path class="cls-99" d="M346.66,605.91c0,20.71,103.6,37.09,229.36,36.6,123.57-.47,222.17-17.11,222.17-37.17S699.59,568.89,576,568.73C450.26,568.56,346.66,585.21,346.66,605.91Z"/><polygon class="cls-100" points="344.9 639.25 344.9 608.33 799.73 607.62 799.73 641.18 344.9 639.25"/><path class="cls-96" d="M344.9,608.45c0,20.86,104.4,37.34,231.1,36.8,124.45-.52,223.73-17.31,223.73-37.51S700.45,571.06,576,570.93C449.3,570.79,344.9,587.59,344.9,608.45Z"/><path class="cls-101" d="M799.73,543.86v33.56h0c-2.06,20.26-86.78,55.7-209.84,55.06-195-1-242-36.31-244.88-57h-.07V544.56Z"/><path class="cls-102" d="M344.9,544.69c0,20.86,104.4,37.33,231.1,36.8C700.45,581,799.73,564.18,799.73,544S700.45,507.3,576,507.16C449.3,507,344.9,523.82,344.9,544.69Z"/><path class="cls-103" d="M346.66,542.15c0,20.7,103.6,37.09,229.36,36.6,123.57-.48,222.17-17.12,222.17-37.17S699.59,505.13,576,505C450.26,504.79,346.66,521.44,346.66,542.15Z"/><polygon class="cls-104" points="344.9 575.49 344.9 544.56 799.73 543.86 799.73 577.42 344.9 575.49"/><path class="cls-96" d="M344.9,544.69c0,20.86,104.4,37.33,231.1,36.8C700.45,581,799.73,564.18,799.73,544S700.45,507.3,576,507.16C449.3,507,344.9,523.82,344.9,544.69Z"/><path class="cls-105" d="M799.73,480.09v33.56h0c-2.06,20.25-86.78,55.69-209.84,55.06-195-1-242-36.31-244.88-57h-.07V480.8Z"/><path class="cls-106" d="M344.9,480.92c0,20.86,104.4,37.34,231.1,36.8,124.45-.52,223.73-17.31,223.73-37.51S700.45,443.53,576,443.4C449.3,443.26,344.9,460.06,344.9,480.92Z"/><path class="cls-107" d="M346.66,478.38c0,20.71,103.6,37.09,229.36,36.61,123.57-.48,222.17-17.12,222.17-37.18S699.59,441.36,576,441.2C450.26,441,346.66,457.68,346.66,478.38Z"/><polygon class="cls-108" points="344.9 511.72 344.9 480.8 799.73 480.09 799.73 513.65 344.9 511.72"/><path class="cls-96" d="M344.9,480.92c0,20.86,104.4,37.34,231.1,36.8,124.45-.52,223.73-17.31,223.73-37.51S700.45,443.53,576,443.4C449.3,443.26,344.9,460.06,344.9,480.92Z"/><path class="cls-109" d="M799.73,416.33v33.56h0c-2.06,20.26-86.78,55.7-209.84,55.06-195-1-242-36.31-244.88-57h-.07V417Z"/><path class="cls-110" d="M344.9,417.16C344.9,438,449.3,454.49,576,454c124.45-.52,223.73-17.31,223.73-37.51S700.45,379.77,576,379.63C449.3,379.5,344.9,396.29,344.9,417.16Z"/><path class="cls-111" d="M346.66,414.62c0,20.7,103.6,37.09,229.36,36.6,123.57-.48,222.17-17.12,222.17-37.17S699.59,377.6,576,377.43C450.26,377.27,346.66,393.91,346.66,414.62Z"/><polygon class="cls-112" points="344.9 447.96 344.9 417.03 799.73 416.33 799.73 449.89 344.9 447.96"/><path class="cls-96" d="M344.9,417.16C344.9,438,449.3,454.49,576,454c124.45-.52,223.73-17.31,223.73-37.51S700.45,379.77,576,379.63C449.3,379.5,344.9,396.29,344.9,417.16Z"/><path class="cls-113" d="M799.73,352.56v33.56h0c-2.06,20.25-86.78,55.69-209.84,55.06-195-1-242-36.31-244.88-57h-.07V353.27Z"/><path class="cls-114" d="M344.9,353.39c0,20.86,104.4,37.34,231.1,36.81,124.45-.53,223.73-17.32,223.73-37.52S700.45,316,576,315.87C449.3,315.73,344.9,332.53,344.9,353.39Z"/><path class="cls-115" d="M346.66,350.85c0,20.71,103.6,37.09,229.36,36.61,123.57-.48,222.17-17.12,222.17-37.18S699.59,313.83,576,313.67C450.26,313.5,346.66,330.15,346.66,350.85Z"/><polygon class="cls-116" points="344.9 384.19 344.9 353.27 799.73 352.56 799.73 386.13 344.9 384.19"/><path class="cls-96" d="M344.9,353.39c0,20.86,104.4,37.34,231.1,36.81,124.45-.53,223.73-17.32,223.73-37.52S700.45,316,576,315.87C449.3,315.73,344.9,332.53,344.9,353.39Z"/><path class="cls-117" d="M799.73,288.8v33.56h0c-2.06,20.26-86.78,55.7-209.84,55.06-195-1-242-36.3-244.88-57h-.07V289.5Z"/><path class="cls-118" d="M344.9,289.63c0,20.86,104.4,37.33,231.1,36.8,124.45-.52,223.73-17.31,223.73-37.51S700.45,252.24,576,252.1C449.3,252,344.9,268.76,344.9,289.63Z"/><path class="cls-119" d="M346.66,287.09c0,20.7,103.6,37.09,229.36,36.6,123.57-.48,222.17-17.12,222.17-37.17S699.59,250.07,576,249.9C450.26,249.74,346.66,266.38,346.66,287.09Z"/><polygon class="cls-120" points="344.9 320.43 344.9 289.5 799.73 288.8 799.73 322.36 344.9 320.43"/><path class="cls-96" d="M344.9,289.63c0,20.86,104.4,37.33,231.1,36.8,124.45-.52,223.73-17.31,223.73-37.51S700.45,252.24,576,252.1C449.3,252,344.9,268.76,344.9,289.63Z"/><path class="cls-121" d="M467.05,703.72c-.28-3.49-3.85-6.52-9.9-8.94,6.57-3.62,10.2-7.5,9.9-11.31-.93-11.52-37.41-18-81.47-14.42s-79,15.77-78.11,27.29c.28,3.49,3.85,6.51,9.89,8.94-6.56,3.62-10.2,7.5-9.89,11.31.28,3.49,3.85,6.51,9.89,8.94-6.56,3.62-10.2,7.5-9.89,11.31.28,3.49,3.85,6.51,9.89,8.94-6.56,3.62-10.2,7.5-9.89,11.31.41,5.09,7.78,9.19,19.68,11.88a102.92,102.92,0,0,0,.3,12.44c1.73,21.23,25.6,37.87,57.17,37.87s58.91-22.69,59.22-44a108.88,108.88,0,0,0-.62-13.89c15.11-5,24.31-11.21,23.83-17.19-.28-3.49-3.85-6.52-9.9-8.94,6.57-3.62,10.2-7.5,9.9-11.31-.28-3.49-3.85-6.52-9.9-8.94C463.72,711.41,467.35,707.53,467.05,703.72Z"/><path class="cls-122" d="M365.19,773.55a190,190,0,0,1-35-2.86,1.05,1.05,0,1,1,.4-2.07c15.48,3,36.16,3.61,58.23,1.83,18.05-1.45,34.94-4.36,48.83-8.42a1.06,1.06,0,0,1,.59,2c-14,4.1-31.06,7-49.25,8.5C380.83,773.22,372.82,773.55,365.19,773.55Z"/><path class="cls-123" d="M365.41,753.28c-17,0-32.2-1.6-42.92-4.65a1.06,1.06,0,1,1,.58-2c15.27,4.35,39.86,5.69,65.79,3.6,25.63-2.06,49.55-7.27,64-13.91a1,1,0,0,1,1.4.51,1.06,1.06,0,0,1-.51,1.41c-14.63,6.74-38.81,12-64.68,14.1C381,753,373,753.28,365.41,753.28Z"/><path class="cls-124" d="M365.19,733.05c-18.36,0-34.43-1.88-45.24-5.45a1.06,1.06,0,0,1,.66-2c15.05,5,40.56,6.6,68.25,4.36,25.63-2.06,49.54-7.27,64-13.91a1,1,0,0,1,1.4.51,1.06,1.06,0,0,1-.51,1.41c-14.63,6.74-38.81,12-64.68,14.1C380.83,732.73,372.81,733.05,365.19,733.05Z"/><path class="cls-125" d="M365.33,712.79c-14.56,0-27.81-1.18-38.11-3.47a1.06,1.06,0,1,1,.46-2.06c15.49,3.44,37.78,4.33,61.18,2.44,25.4-2,49.19-7.19,63.63-13.76a1.06,1.06,0,1,1,.88,1.92c-14.65,6.67-38.7,11.89-64.34,13.95C380.92,712.47,373,712.79,365.33,712.79Z"/><path class="cls-126" d="M277.89,601.5a149.06,149.06,0,0,0-26.68-52.1c-26.23-33.06-69-100.3-74.3-192.07C169.25,223.85,287.63,157,395.66,166.1s214.61,89.5,203,213.68c-7.18,76.41-50,134.36-81.79,167.65a176.81,176.81,0,0,0-42.45,75.21c-9.56,34.5-32.3,77.49-86.35,80.11C318.08,706.14,289,641,277.89,601.5Z"/><path class="cls-127" d="M405.89,676.13l37.8-245.84c.78-5.08,3.28-8.49,5.58-7.61s3.53,5.69,2.75,10.77c0,.14,0,.3-.07.43L408.9,677.44c-.33,1.83-1.26,3-2.08,2.58S405.62,677.91,405.89,676.13Z"/><path class="cls-128" d="M366.65,678.09l-37.8-245.84c-.78-5.08-3.28-8.49-5.58-7.62s-3.53,5.69-2.75,10.77c0,.14.05.3.07.44l43.05,243.55c.33,1.83,1.26,3,2.08,2.59S366.92,679.86,366.65,678.09Z"/><path class="cls-129" d="M443.41,409.19a4,4,0,0,0-5-1.29l-21,9.83-7.31-20.81a4.47,4.47,0,0,0-2.56-2.58,5.2,5.2,0,0,0-6.47,2l0,.07L383.73,428,367.67,383l0-.07a5.1,5.1,0,0,0-2.43-2.74,6.31,6.31,0,0,0-7.95,1.56l-24.2,33.32a2.92,2.92,0,0,0,.86,4.2,4,4,0,0,0,5.14-.56L360.37,395l19.18,42.74v0a3.41,3.41,0,0,0,1.69,1.66,4,4,0,0,0,5-1.3l18.52-29.7,7,15,.06.13a3.3,3.3,0,0,0,.18.32,4,4,0,0,0,5,1.29l25-11.67A3,3,0,0,0,443.41,409.19Z"/><path class="cls-129" d="M517.64,517.71a6.77,6.77,0,0,1-5.43-10.81,277.83,277.83,0,0,0,17.41-26.44,6.77,6.77,0,1,1,11.72,6.77A288.46,288.46,0,0,1,523.08,515,6.76,6.76,0,0,1,517.64,517.71Z"/><g class="cls-130"><path class="cls-131" d="M304.62,363.87a2.83,2.83,0,0,1,1.5,3.71c-1.18,2.8-2.26,5.7-3.2,8.6A2.83,2.83,0,0,1,299.4,378h0a2.84,2.84,0,0,1-1.82-3.57c1-3.06,2.13-6.1,3.38-9.05a2.84,2.84,0,0,1,3.43-1.61Zm-5.33,26.77c-.54,3-1,6.06-1.24,9.08a2.83,2.83,0,0,1-5.64-.52c.3-3.19.74-6.4,1.3-9.56a2.83,2.83,0,0,1,3.29-2.29,2,2,0,0,1,.33.08A2.84,2.84,0,0,1,299.29,390.64Zm-1.58,24c.14,3.05.42,6.12.82,9.14a2.83,2.83,0,0,1-5.61.75c-.43-3.18-.72-6.42-.87-9.62a2.83,2.83,0,0,1,2.7-3,2.73,2.73,0,0,1,.95.12A2.83,2.83,0,0,1,297.71,414.61Zm3.82,23.74c.82,2.93,1.78,5.87,2.84,8.72a2.83,2.83,0,0,1-5.3,2c-1.13-3-2.13-6.09-3-9.18a2.83,2.83,0,0,1,5.46-1.52Zm9,22.28c1.45,2.68,3,5.33,4.71,7.88a2.83,2.83,0,0,1-4.74,3.11c-1.76-2.69-3.42-5.48-4.95-8.29a2.83,2.83,0,1,1,5-2.7Zm13.72,19.74c2,2.29,4.14,4.53,6.33,6.64a2.83,2.83,0,1,1-3.93,4.08c-2.31-2.23-4.55-4.58-6.66-7a2.83,2.83,0,0,1,4.26-3.73Zm98,38.16a2.84,2.84,0,0,1-2.44,3.18c-3.17.42-6.41.7-9.62.84a2.83,2.83,0,1,1-.26-5.65c3.05-.14,6.13-.41,9.14-.81a2.77,2.77,0,0,1,1.19.1A2.83,2.83,0,0,1,422.26,518.53Zm-80.25-22c2.46,1.78,5,3.49,7.64,5.05a2.83,2.83,0,0,1-2.92,4.86c-2.74-1.65-5.45-3.45-8.05-5.33a2.83,2.83,0,0,1,2.49-5A3,3,0,0,1,342,496.57Zm55.59,23a2.83,2.83,0,0,1-3.09,2.55c-3.19-.3-6.4-.75-9.56-1.32a2.83,2.83,0,0,1,1-5.57c3,.54,6.06,1,9.09,1.25a2.66,2.66,0,0,1,.56.12A2.82,2.82,0,0,1,397.6,519.61Zm-34.68-11.22c2.8,1.19,5.69,2.27,8.59,3.22a2.83,2.83,0,0,1-1.71,5.4l-.05,0c-3.06-1-6.1-2.14-9-3.39a2.83,2.83,0,0,1,1.92-5.32Z"/><path class="cls-132" d="M439.67,511.82a2.79,2.79,0,0,0-1.69,0c-1.39.45-2.81.88-4.22,1.27a2.83,2.83,0,0,0,1.52,5.46c1.48-.42,3-.87,4.44-1.34a2.83,2.83,0,0,0-.05-5.4Z"/></g><g class="cls-130"><path class="cls-133" d="M505,455.31a2.83,2.83,0,0,0-3.37,1.47c-.64,1.31-1.32,2.63-2,3.92a2.84,2.84,0,0,0,5,2.7c.73-1.36,1.45-2.75,2.12-4.14a2.82,2.82,0,0,0-1.3-3.78A3.69,3.69,0,0,0,505,455.31Z"/><path class="cls-134" d="M443.39,303.1a2.84,2.84,0,0,1-1.91,5.34c-2.8-1-5.69-1.91-8.62-2.7a2.83,2.83,0,0,1,1.47-5.47c1.26.34,2.52.7,3.77,1.08C439.88,301.89,441.66,302.48,443.39,303.1Zm-21.76-2.64a2.83,2.83,0,0,1-3.16,2.46c-3-.38-6-.64-9-.76a2.83,2.83,0,1,1,.24-5.66c3.15.13,6.34.4,9.47.8a2.46,2.46,0,0,1,.47.1A2.82,2.82,0,0,1,421.63,300.46Zm35.9,8.84c2.79,1.46,5.56,3.06,8.22,4.75a2.83,2.83,0,1,1-3,4.78c-2.54-1.61-5.16-3.13-7.82-4.51A2.83,2.83,0,0,1,457,309.1,2.53,2.53,0,0,1,457.53,309.3Zm-60.16-9.84a2.83,2.83,0,0,1-2.55,3.09c-3,.28-6,.7-8.94,1.23a2.83,2.83,0,0,1-1-5.57c3.11-.56,6.28-1,9.42-1.3a2.64,2.64,0,0,1,1.09.11A2.82,2.82,0,0,1,397.37,299.46Zm80.8,23.74c2.4,2,4.75,4.2,7,6.44a2.83,2.83,0,0,1-4,4c-2.12-2.13-4.35-4.19-6.63-6.12a2.83,2.83,0,1,1,3.66-4.32Zm17.1,18.08c1.9,2.52,3.72,5.15,5.4,7.82a2.83,2.83,0,0,1-4.79,3c-1.6-2.53-3.32-5-5.13-7.42a2.83,2.83,0,0,1,3.08-4.42A2.87,2.87,0,0,1,495.27,341.28ZM508,362.67c1.31,2.87,2.52,5.84,3.58,8.8a2.83,2.83,0,0,1-5.33,1.91c-1-2.82-2.15-5.63-3.4-8.36a2.83,2.83,0,0,1,1.4-3.75,2.84,2.84,0,0,1,3.75,1.4Zm7.78,23.66c.65,3.09,1.18,6.24,1.56,9.37a2.83,2.83,0,0,1-5.62.7c-.36-3-.86-6-1.48-8.91a2.83,2.83,0,0,1,2.19-3.35,2.75,2.75,0,0,1,1.4.06A2.82,2.82,0,0,1,515.79,386.33Zm2.39,24.8c0,3.15-.23,6.34-.54,9.48a2.83,2.83,0,0,1-5.64-.56c.3-3,.48-6,.52-9a2.83,2.83,0,0,1,2.87-2.79,3.35,3.35,0,0,1,.79.12A2.84,2.84,0,0,1,518.18,411.13Zm-3.11,24.69c-.53,2.26-1.15,4.53-1.82,6.75-.25.8-.5,1.6-.76,2.39a2.81,2.81,0,0,1-3.58,1.81,2.84,2.84,0,0,1-1.8-3.58l.72-2.27c.64-2.11,1.22-4.27,1.74-6.41a2.83,2.83,0,0,1,3.41-2.1l.17,0A2.82,2.82,0,0,1,515.07,435.82Z"/><path class="cls-135" d="M371.54,302a2.85,2.85,0,0,0-1.71,0c-1.45.48-2.93,1-4.38,1.54a2.84,2.84,0,1,0,2,5.31c1.38-.52,2.78-1,4.16-1.47a2.83,2.83,0,0,0-.06-5.4Z"/></g><path class="cls-136" d="M349.59,345.32a1.32,1.32,0,0,0-.55,1.43l4.13,15.58a70.09,70.09,0,0,0-12.6,18.92l-15.95,2.21a1.33,1.33,0,0,0-1.12,1.05l-3.73,19a1.33,1.33,0,0,0,.63,1.4L334.32,413a70.19,70.19,0,0,0,4.49,22.29l-9.72,12.85a1.32,1.32,0,0,0,0,1.53l10.77,16.05a1.31,1.31,0,0,0,1.44.54l15.57-4.12a70.48,70.48,0,0,0,18.92,12.6L378,490.65a1.32,1.32,0,0,0,1.06,1.11l19,3.74a1.33,1.33,0,0,0,1.4-.64l8.09-13.92a69.85,69.85,0,0,0,22.28-4.48l12.85,9.72a1.32,1.32,0,0,0,1.54,0l16-10.76a1.32,1.32,0,0,0,.54-1.44l-4.12-15.57a70.14,70.14,0,0,0,12.6-18.93l15.95-2.21a1.32,1.32,0,0,0,1.12-1.05l3.73-19a1.33,1.33,0,0,0-.63-1.4l-13.92-8.09A70.19,70.19,0,0,0,471,385.52l9.72-12.84a1.34,1.34,0,0,0,.05-1.54L470,355.09a1.34,1.34,0,0,0-1.44-.54l-15.57,4.13A70.27,70.27,0,0,0,434,346.07l-2.21-15.94a1.33,1.33,0,0,0-1.06-1.12l-19-3.73a1.32,1.32,0,0,0-1.4.63l-8.09,13.92A70.25,70.25,0,0,0,380,344.32l-12.84-9.73a1.34,1.34,0,0,0-1.54,0Z"/><path class="cls-96" d="M413.18,392.83a19.4,19.4,0,1,1-2.66-1A19.21,19.21,0,0,1,413.18,392.83Zm-3.28,31.58a14.89,14.89,0,1,0-11.39-.56,16.22,16.22,0,0,0,2.06.8A14.83,14.83,0,0,0,409.9,424.41Z"/><path class="cls-96" d="M419.07,365.08a48,48,0,0,0-4.76-1.19h0l-1.53-.28a48.88,48.88,0,0,0-7.63-.63h-1a1.12,1.12,0,0,0-1.06.8,1,1,0,0,0-.05.35,1.14,1.14,0,0,0,1.15,1.11,45.54,45.54,0,0,1,45.5,54.29c-.31,1.54-.69,3.06-1.14,4.54a45.49,45.49,0,1,1-77.3-43.8,1.1,1.1,0,0,0,.25-.43,1.14,1.14,0,0,0-1.93-1.09,47.57,47.57,0,0,0-10.2,18.05c-.47,1.54-.86,3.11-1.18,4.71a47.76,47.76,0,0,0,92.53,23.22c.47-1.56.87-3.15,1.19-4.77a47.77,47.77,0,0,0-32.87-54.89Z"/><g class="cls-130"><path class="cls-137" d="M233.61,264.24a1.74,1.74,0,0,0-2,.72c-.82,1.24-1.61,2.52-2.35,3.81a1.75,1.75,0,1,0,3,1.74c.7-1.23,1.45-2.45,2.23-3.64a1.75,1.75,0,0,0-.5-2.42A2,2,0,0,0,233.61,264.24Z"/><path class="cls-138" d="M227.46,276.18a1.74,1.74,0,0,1,.93,2.29c-.94,2.25-1.78,4.57-2.49,6.9-.15.49-.29,1-.43,1.49a1.75,1.75,0,0,1-2.16,1.21,1.82,1.82,0,0,1-1.21-2.16c.15-.52.3-1,.46-1.56a74.17,74.17,0,0,1,2.61-7.23,1.74,1.74,0,0,1,2.12-1Zm-3.87,19.36a71,71,0,0,0-.81,8.84,1.75,1.75,0,0,1-3.5-.1,75.86,75.86,0,0,1,.85-9.27,1.76,1.76,0,0,1,2-1.47l.25.06A1.76,1.76,0,0,1,223.59,295.54Zm-.52,17.72a72.55,72.55,0,0,0,1.39,8.78,1.75,1.75,0,0,1-3.41.76,73.53,73.53,0,0,1-1.46-9.21,1.74,1.74,0,0,1,1.57-1.9,1.92,1.92,0,0,1,.68.06A1.77,1.77,0,0,1,223.07,313.26Zm3.85,17.31a72.58,72.58,0,0,0,3.5,8.16,1.75,1.75,0,0,1-3.13,1.58,75.16,75.16,0,0,1-3.66-8.56,1.75,1.75,0,0,1,1.06-2.24,1.77,1.77,0,0,1,1.09,0A1.74,1.74,0,0,1,226.92,330.57Zm8,15.84a71.07,71.07,0,0,0,5.37,7.07,1.75,1.75,0,0,1-2.65,2.29,76.57,76.57,0,0,1-5.63-7.42,1.75,1.75,0,0,1,2.91-1.94Zm11.56,13.43a72.18,72.18,0,0,0,6.93,5.54,1.75,1.75,0,0,1-2,2.87,76.56,76.56,0,0,1-7.27-5.82,1.75,1.75,0,1,1,2.35-2.59ZM261,370A71.67,71.67,0,0,0,269,373.7a1.75,1.75,0,0,1-1.25,3.27,75.21,75.21,0,0,1-8.47-3.85,1.75,1.75,0,0,1,1.33-3.22A2,2,0,0,1,261,370Zm26.83,9.87a1.76,1.76,0,0,1-1.95,1.53,75.56,75.56,0,0,1-8-1.4l-1.19-.28a1.74,1.74,0,0,1-1.28-2.12,1.76,1.76,0,0,1,2.12-1.28c.37.1.75.19,1.13.27a71.73,71.73,0,0,0,7.61,1.33l.3.07A1.75,1.75,0,0,1,287.78,379.9Z"/></g><g class="cls-130"><path class="cls-139" d="M317.81,234.45a76.89,76.89,0,0,1,8.54,3.31,1.75,1.75,0,0,1-1.46,3.18,71.1,71.1,0,0,0-8.15-3.15,1.75,1.75,0,0,1,1-3.34Zm-7.49-.2a1.76,1.76,0,0,1-2.05,1.39,74.2,74.2,0,0,0-8.67-1.12,1.75,1.75,0,0,1,.24-3.49,76.94,76.94,0,0,1,9.08,1.17l.19.05A1.76,1.76,0,0,1,310.32,234.25Zm24.11,7.82a76.92,76.92,0,0,1,7.49,5.27,1.75,1.75,0,0,1-2.18,2.74,72.88,72.88,0,0,0-7.15-5,1.75,1.75,0,0,1,1.43-3.16A1.65,1.65,0,0,1,334.43,242.07Zm-41.91-9.45a1.75,1.75,0,0,1-1.65,1.84,72.32,72.32,0,0,0-8.68,1,1.75,1.75,0,0,1-.62-3.45,75.16,75.16,0,0,1,9.11-1.05,1.71,1.71,0,0,1,.6.07A1.76,1.76,0,0,1,292.52,232.62Zm56.19,20.86a77.46,77.46,0,0,1,6,6.91,1.76,1.76,0,0,1-.33,2.46,1.74,1.74,0,0,1-2.45-.33,71.74,71.74,0,0,0-5.73-6.59,1.75,1.75,0,0,1,0-2.47A1.73,1.73,0,0,1,348,253,1.69,1.69,0,0,1,348.71,253.48ZM359.84,268a77.3,77.3,0,0,1,4.18,8.15,1.75,1.75,0,1,1-3.2,1.41,74.08,74.08,0,0,0-4-7.78,1.75,1.75,0,0,1,2-2.56A1.73,1.73,0,0,1,359.84,268Zm7.34,16.75a74.48,74.48,0,0,1,2.1,8.92,1.75,1.75,0,1,1-3.44.6,71.51,71.51,0,0,0-2-8.51,1.76,1.76,0,0,1,1.17-2.18,1.86,1.86,0,0,1,1,0A1.74,1.74,0,0,1,367.18,284.73Z"/><path class="cls-140" d="M273.61,234.2a1.77,1.77,0,0,0-1,0c-1.43.44-2.86.93-4.24,1.45a1.75,1.75,0,0,0,1.23,3.27c1.32-.49,2.67-.95,4-1.37a1.75,1.75,0,0,0,1.15-2.19A1.71,1.71,0,0,0,273.61,234.2Z"/></g><path class="cls-141" d="M257.69,263.45a.88.88,0,0,0-.37,1l2.76,10.42a47,47,0,0,0-8.43,12.66L241,289a.89.89,0,0,0-.75.7l-2.5,12.69a.89.89,0,0,0,.43.94l9.31,5.41a47.33,47.33,0,0,0,3,14.92l-6.5,8.59a.89.89,0,0,0,0,1l7.2,10.74a.89.89,0,0,0,1,.36l10.42-2.76A46.81,46.81,0,0,0,275.19,350l1.48,10.67a.87.87,0,0,0,.7.75l12.69,2.5a.89.89,0,0,0,.94-.43l5.41-9.31a46.72,46.72,0,0,0,14.91-3l8.6,6.5a.89.89,0,0,0,1,0l10.74-7.2a.9.9,0,0,0,.36-1l-2.76-10.42a47,47,0,0,0,8.43-12.67L348.39,325a.89.89,0,0,0,.75-.71l2.5-12.69a.88.88,0,0,0-.43-.93l-9.31-5.42a46.78,46.78,0,0,0-3-14.91l6.5-8.6a.89.89,0,0,0,0-1L338.23,270a.89.89,0,0,0-1-.37l-10.42,2.76A47.25,47.25,0,0,0,314.18,264l-1.48-10.67a.89.89,0,0,0-.7-.75L299.31,250a.86.86,0,0,0-.93.42L293,259.77a47.27,47.27,0,0,0-14.91,3l-8.6-6.5a.89.89,0,0,0-1,0Z"/><path class="cls-96" d="M300.34,295a13.23,13.23,0,0,1,6.31,17.61,13.23,13.23,0,1,1-16.42-18.11,13.11,13.11,0,0,1,8.28-.21A12.8,12.8,0,0,1,300.34,295Zm3.14,16.12a9.73,9.73,0,0,0-4.63-13h0a9.74,9.74,0,0,0-8.33,17.6,11.5,11.5,0,0,0,1.34.51A9.74,9.74,0,0,0,303.48,311.15Z"/><path class="cls-96" d="M304.44,275.71c-1.06-.32-2.15-.59-3.25-.81a33.4,33.4,0,0,0-6.69-.63h-.3a1.73,1.73,0,0,0-1.64,1.24,1.91,1.91,0,0,0-.08.54,1.77,1.77,0,0,0,1.78,1.72,29.84,29.84,0,0,1,6.25.55h0l.34.07a29.13,29.13,0,0,1,13,6.31,29.6,29.6,0,0,1,5.31,5.89l0,0,.12.17a29.27,29.27,0,0,1,4.44,22.1c-.2,1-.45,2-.74,2.94a29.45,29.45,0,0,1-57.06-14.32c.2-1,.44-2,.73-2.91a29.29,29.29,0,0,1,6.29-11.12,1.87,1.87,0,0,0,.38-.67,1.76,1.76,0,0,0-3-1.68,33.07,33.07,0,0,0-7,12.45c-.32,1.07-.59,2.15-.81,3.25a33,33,0,0,0,63.84,16c.32-1.07.6-2.17.82-3.29A33,33,0,0,0,304.44,275.71Z"/><path class="cls-142" d="M545.29,804.3s1.57,8.9,2.34,17.71a6.06,6.06,0,0,1-5.8,6.58c-11.74.49-36.85,1.44-45.86,1a2,2,0,0,1-1.74-2.71,4.44,4.44,0,0,1,2.27-2.38L538,805.48Z"/><path class="cls-143" d="M546.58,799.07l-1.26,10.65s-7.27,3.38-12.23-.43l3-11.87Z"/><path class="cls-144" d="M545.63,598.84c.55,2.78,2.93,138.79-11.61,199.74a2.06,2.06,0,0,0,1.21,2.4,35.68,35.68,0,0,0,11.85,2.41,3.55,3.55,0,0,0,3.53-2.56c4.16-14.14,24.07-85,26.67-152.67,2.9-75.63,0-2.58,0-2.58l-1.71-46.75Z"/><path class="cls-145" d="M593,808.94s2.5,4.5,4.92,16.44a3.7,3.7,0,0,1-3.26,4.44c-3.87.38-9.84.87-14.62.84a3.69,3.69,0,0,1-3.65-4.12c.53-4.36,2.17-11.52,7.27-17.09Z"/><path class="cls-146" d="M595.2,795.24l-3,16.11s-2.92,2.17-8.69.6L585,794.62Z"/><path class="cls-147" d="M603.17,603c11.89,71.76-2.58,177.36-7.46,198a3.24,3.24,0,0,1-2.6,2.45,21.77,21.77,0,0,1-9.3-.37,3,3,0,0,1-2.12-2.72c-.66-16.71.52-119.3-10.56-159.84a9.21,9.21,0,0,0-3.55-5.08l-21.5-15.28-1.65-24.71Z"/><path class="cls-2" d="M527.41,467c35.63-.59,75,9.36,75,9.36,10.62,62,1.85,133.46,1.85,133.46-27.58,7.23-58.7-4.42-58.7-4.42-4.59-25.91-26-98.81-26-98.81-17.41-2.16-31.75-7.18-43.56-13.83,9-10.44,13.25-23.73,15.1-31.58C503.67,465.13,516.42,467.22,527.41,467Z"/><path class="cls-148" d="M422.15,414.56a14,14,0,0,1,7.59-4.94c5.25,22.15,33.08,42.82,61.33,51.6-1.85,7.85-6.09,21.14-15.1,31.58C429.09,466.45,422.15,414.56,422.15,414.56Z"/><path class="cls-149" d="M423,415.63c-.36,1.17,3.88,2.94,6.38-1.82.08-2.28,1.47-12.06.11-13.92-7.27-9.9-21.35-22.32-21.35-22.32a3.36,3.36,0,0,0-.42,4.66l6.83,7.11c-1.43,2.59-3.17,4.77-4,7.89a9.61,9.61,0,0,0,1,7c1.2,2.16,2.83,5,4.38,7.16A9.45,9.45,0,0,0,423,415.63Z"/><path class="cls-150" d="M417.54,394l6.23,5.28,2,5.25-5.55,6.16s-1.87-10.42-3.25-12.68S416.25,394.62,417.54,394Z"/><path class="cls-2" d="M588.69,510.9l13.67-34.5s33.28,22.61,38.75,51.29a78.82,78.82,0,0,0-28.93,7.75C609.72,521.9,588.69,510.9,588.69,510.9Z"/><path class="cls-151" d="M559.6,543.37s37.37,21.12,50,3.09a14.16,14.16,0,0,0,2.6-11,78.82,78.82,0,0,1,28.93-7.75,39.58,39.58,0,0,1-4.3,27.13c-22.08,40.4-82.15-2.24-82.15-2.24Z"/><path class="cls-152" d="M564.09,570.09,543.7,498.86a2.08,2.08,0,0,0-1.76-1.49c-3.69-.43-14.4-1.64-26.76-2.69-14.89-1.26-32.19-2.28-42.52-1.41a2.08,2.08,0,0,0-1.7,3c5.87,11.89,30.05,60.25,42.15,76.09a2.08,2.08,0,0,0,1.68.82l47.32-.44A2.07,2.07,0,0,0,564.09,570.09Z"/><path class="cls-153" d="M513.06,488.51,498.28,486a1.07,1.07,0,0,0-1.19,1.38l1.47,4.44a1.08,1.08,0,0,0,.87.72l14.22,1.9a1.07,1.07,0,0,0,1.18-1.3l-.91-3.87A1.06,1.06,0,0,0,513.06,488.51Z"/><path class="cls-154" d="M524.13,501l-1.21-6.35a1.47,1.47,0,0,0-1.3-1.18l-29.86-3a1.47,1.47,0,0,0-1.58,1.8l1.9,7.91a1.49,1.49,0,0,0,1.36,1.12l29.18,1.47A1.47,1.47,0,0,0,524.13,501Z"/><path class="cls-155" d="M559.17,552.88s2.84-11.68,1.69-15.83-3.36-9.47-10.77-8.29A108.63,108.63,0,0,0,534,533.07s.44,5.39,6.07,3.65l-3.49,2.7s.5,4.32,5.25,2L538.55,545s2,3.55,5.53,1.28S549.25,554.29,559.17,552.88Z"/><path class="cls-156" d="M563.5,438.11l11.34,32.79a1.19,1.19,0,0,1-.54,1.43c-3.09,1.7-14.23,6.64-27.64-1.86a5.61,5.61,0,0,1-2.57-4l-3.67-28.38Z"/><path class="cls-157" d="M538.83,407.75s-12.45,23.44-10.85,32.9,17,8.79,30.5,1.1l9.41-25.3Z"/><path class="cls-158" d="M557.88,429.33a1,1,0,0,1-.42-1.42,24.93,24.93,0,0,0,3.46-7.35s2.24-1.44-5.69-3.33-19.77-4.85-22.26-11.61c-2.42-6.58,3.95-23.14,14.11-9.95a1,1,0,0,0,1.53,0c1.67-2.16,6-6.67,12.13-3.94,5.7,2.56,6.34,6.73,6.26,8.83a1,1,0,0,0,1.14,1c2.87-.55,9.78-1,13,6.07,2.66,5.83.93,9.14-.64,10.75a1,1,0,0,0,.41,1.6c1.89.58,4.34,2.18,4.09,6.61-.34,6.13-7.19,5.59-9.13,5.31a1,1,0,0,0-.86.3c-1.67,1.85-9.21,9.71-17.36,10.66a1,1,0,0,1-1-1.29l3.53-10.26a1,1,0,0,0-.53-1.2Z"/><path class="cls-159" d="M556.46,430.78s8.87-6.08,9.51-1-8,7.42-12.25,5.51Z"/></g></g></svg>