<svg xmlns="http://www.w3.org/2000/svg" xmlns:xlink="http://www.w3.org/1999/xlink" viewBox="0 0 830.01 825.88"><defs><style>.cls-1{fill:none;}.cls-2{fill:url(#linear-gradient);}.cls-3{fill:url(#linear-gradient-2);}.cls-4{fill:url(#linear-gradient-3);}.cls-5{fill:url(#linear-gradient-4);}.cls-6{fill:url(#linear-gradient-5);}.cls-7{fill:url(#linear-gradient-6);}.cls-8{fill:url(#linear-gradient-7);}.cls-9{fill:url(#linear-gradient-8);}.cls-10{fill:url(#linear-gradient-9);}.cls-11{fill:url(#linear-gradient-10);}.cls-12{fill:url(#linear-gradient-11);}.cls-13{fill:url(#linear-gradient-12);}.cls-14{fill:url(#linear-gradient-13);}.cls-15{fill:url(#linear-gradient-14);}.cls-16{fill:url(#linear-gradient-15);}.cls-17{fill:url(#linear-gradient-16);}.cls-18{fill:url(#linear-gradient-17);}.cls-19{fill:url(#linear-gradient-18);}.cls-20{fill:url(#linear-gradient-19);}.cls-21{fill:url(#linear-gradient-20);}.cls-22{fill:url(#linear-gradient-21);}.cls-23{fill:url(#linear-gradient-22);}.cls-24{fill:url(#linear-gradient-23);}.cls-25{fill:url(#linear-gradient-24);}.cls-26{fill:url(#linear-gradient-25);}.cls-27{fill:url(#linear-gradient-26);}.cls-28{opacity:0.3;}.cls-29{fill:#bdd0fb;}.cls-30{fill:url(#linear-gradient-27);}.cls-31{fill:url(#linear-gradient-28);}.cls-32{fill:url(#linear-gradient-29);}.cls-33{fill:url(#linear-gradient-30);}.cls-34{fill:url(#linear-gradient-31);}.cls-35{fill:url(#linear-gradient-32);}.cls-36{fill:#91b3fa;}.cls-37,.cls-39,.cls-55{fill:#fff;}.cls-37{opacity:0.65;}.cls-38{fill:url(#linear-gradient-33);}.cls-40{clip-path:url(#clip-path);}.cls-41{fill:url(#linear-gradient-34);}.cls-42{fill:url(#linear-gradient-35);}.cls-43{fill:url(#linear-gradient-36);}.cls-44{fill:url(#linear-gradient-37);}.cls-45{fill:url(#linear-gradient-38);}.cls-46{fill:url(#linear-gradient-39);}.cls-47{fill:url(#linear-gradient-40);}.cls-48{fill:url(#linear-gradient-41);}.cls-49{fill:url(#linear-gradient-42);}.cls-50{fill:url(#linear-gradient-43);}.cls-51{fill:url(#linear-gradient-44);}.cls-52{fill:url(#linear-gradient-45);}.cls-53{fill:url(#linear-gradient-46);}.cls-54{fill:#7d97f4;}.cls-55{opacity:0.57;}.cls-56{fill:url(#linear-gradient-47);}.cls-57{fill:url(#linear-gradient-48);}.cls-58{fill:url(#linear-gradient-49);}.cls-59{fill:url(#linear-gradient-50);}.cls-60{fill:url(#linear-gradient-51);}.cls-61{fill:url(#linear-gradient-52);}.cls-62{fill:url(#linear-gradient-53);}.cls-63{fill:url(#linear-gradient-54);}.cls-64{fill:url(#linear-gradient-55);}.cls-65{fill:url(#linear-gradient-56);}.cls-66{fill:url(#linear-gradient-57);}.cls-67{fill:url(#linear-gradient-58);}.cls-68{fill:url(#linear-gradient-59);}.cls-69{fill:url(#linear-gradient-60);}.cls-70{fill:url(#linear-gradient-61);}.cls-71{fill:url(#linear-gradient-62);}.cls-72{fill:url(#linear-gradient-63);}.cls-73{fill:url(#linear-gradient-64);}.cls-74{fill:url(#linear-gradient-65);}.cls-75{fill:url(#linear-gradient-66);}.cls-76{fill:url(#linear-gradient-67);}.cls-77{fill:url(#linear-gradient-68);}.cls-78{fill:url(#linear-gradient-69);}</style><linearGradient id="linear-gradient" x1="932.05" y1="1067.06" x2="197.78" y2="155.14" gradientUnits="userSpaceOnUse"><stop offset="0" stop-color="#dae3fe"/><stop offset="1" stop-color="#e9effd"/></linearGradient><linearGradient id="linear-gradient-2" x1="375.62" y1="13.15" x2="809.94" y2="279.08" gradientUnits="userSpaceOnUse"><stop offset="0" stop-color="#ff928e"/><stop offset="1" stop-color="#bc5a7c"/></linearGradient><linearGradient id="linear-gradient-3" x1="386.64" y1="-4.86" x2="820.96" y2="261.08" xlink:href="#linear-gradient-2"/><linearGradient id="linear-gradient-4" x1="396.84" y1="-21.51" x2="831.16" y2="244.42" xlink:href="#linear-gradient-2"/><linearGradient id="linear-gradient-5" x1="407.86" y1="-39.52" x2="842.18" y2="226.42" xlink:href="#linear-gradient-2"/><linearGradient id="linear-gradient-6" x1="418.06" y1="-56.17" x2="852.38" y2="209.76" xlink:href="#linear-gradient-2"/><linearGradient id="linear-gradient-7" x1="428.67" y1="-73.5" x2="862.99" y2="192.44" xlink:href="#linear-gradient-2"/><linearGradient id="linear-gradient-8" x1="439.69" y1="-91.5" x2="874.02" y2="174.43" xlink:href="#linear-gradient-2"/><linearGradient id="linear-gradient-9" x1="449.89" y1="-108.16" x2="884.21" y2="157.78" xlink:href="#linear-gradient-2"/><linearGradient id="linear-gradient-10" x1="460.92" y1="-126.16" x2="895.24" y2="139.77" xlink:href="#linear-gradient-2"/><linearGradient id="linear-gradient-11" x1="360.65" y1="37.58" x2="794.98" y2="303.52" xlink:href="#linear-gradient-2"/><linearGradient id="linear-gradient-12" x1="371.26" y1="20.25" x2="805.59" y2="286.19" xlink:href="#linear-gradient-2"/><linearGradient id="linear-gradient-13" x1="381.46" y1="3.6" x2="815.79" y2="269.53" xlink:href="#linear-gradient-2"/><linearGradient id="linear-gradient-14" x1="392.49" y1="-14.41" x2="826.81" y2="251.53" xlink:href="#linear-gradient-2"/><linearGradient id="linear-gradient-15" x1="402.68" y1="-31.06" x2="837.01" y2="234.88" xlink:href="#linear-gradient-2"/><linearGradient id="linear-gradient-16" x1="413.71" y1="-49.06" x2="848.03" y2="216.87" xlink:href="#linear-gradient-2"/><linearGradient id="linear-gradient-17" x1="423.91" y1="-65.72" x2="858.23" y2="200.22" xlink:href="#linear-gradient-2"/><linearGradient id="linear-gradient-18" x1="434.52" y1="-83.05" x2="868.84" y2="182.89" xlink:href="#linear-gradient-2"/><linearGradient id="linear-gradient-19" x1="327.58" y1="91.6" x2="761.9" y2="357.54" xlink:href="#linear-gradient-2"/><linearGradient id="linear-gradient-20" x1="337.77" y1="74.95" x2="772.1" y2="340.88" xlink:href="#linear-gradient-2"/><linearGradient id="linear-gradient-21" x1="348.8" y1="56.94" x2="783.12" y2="322.88" xlink:href="#linear-gradient-2"/><linearGradient id="linear-gradient-22" x1="359" y1="40.29" x2="793.32" y2="306.23" xlink:href="#linear-gradient-2"/><linearGradient id="linear-gradient-23" x1="369.61" y1="22.96" x2="803.93" y2="288.89" xlink:href="#linear-gradient-2"/><linearGradient id="linear-gradient-24" x1="380.63" y1="4.96" x2="814.95" y2="270.89" xlink:href="#linear-gradient-2"/><linearGradient id="linear-gradient-25" x1="390.83" y1="-11.7" x2="825.15" y2="254.24" xlink:href="#linear-gradient-2"/><linearGradient id="linear-gradient-26" x1="401.85" y1="-29.7" x2="836.17" y2="236.23" xlink:href="#linear-gradient-2"/><linearGradient id="linear-gradient-27" x1="284.53" y1="131.9" x2="328.8" y2="131.9" xlink:href="#linear-gradient"/><linearGradient id="linear-gradient-28" x1="252.61" y1="131.63" x2="361.49" y2="131.63" xlink:href="#linear-gradient"/><linearGradient id="linear-gradient-29" x1="128.69" y1="187.73" x2="158.84" y2="187.73" xlink:href="#linear-gradient"/><linearGradient id="linear-gradient-30" x1="106.46" y1="187.54" x2="181.58" y2="187.54" xlink:href="#linear-gradient"/><linearGradient id="linear-gradient-31" x1="445.3" y1="703.6" x2="491.3" y2="337.61" gradientUnits="userSpaceOnUse"><stop offset="0" stop-color="#09005d"/><stop offset="1" stop-color="#1a0f91"/></linearGradient><linearGradient id="linear-gradient-32" x1="408.29" y1="71.24" x2="412.29" y2="379.24" xlink:href="#linear-gradient-31"/><linearGradient id="linear-gradient-33" x1="431.04" y1="549.42" x2="431.04" y2="683.42" xlink:href="#linear-gradient-31"/><clipPath id="clip-path" transform="translate(1.7)"><path class="cls-1" d="M20.48,233.09v349a32.3,32.3,0,0,0,31.81,32.29l712.29,8.8a31.42,31.42,0,0,0,31.89-31.31L797.66,246a23,23,0,0,0-22.42-23.06L46,208.19A24.91,24.91,0,0,0,20.48,233.09Z"/></clipPath><linearGradient id="linear-gradient-34" x1="746.95" y1="169.33" x2="562.54" y2="568.35" gradientUnits="userSpaceOnUse"><stop offset="0" stop-color="#4f52ff"/><stop offset="1" stop-color="#4042e2"/></linearGradient><linearGradient id="linear-gradient-35" x1="677.35" y1="137.16" x2="492.94" y2="536.19" xlink:href="#linear-gradient-34"/><linearGradient id="linear-gradient-36" x1="612.45" y1="107.17" x2="428.04" y2="506.19" xlink:href="#linear-gradient-34"/><linearGradient id="linear-gradient-37" x1="604.69" y1="103.58" x2="420.28" y2="502.61" xlink:href="#linear-gradient-34"/><linearGradient id="linear-gradient-38" x1="594.59" y1="98.91" x2="410.18" y2="497.94" xlink:href="#linear-gradient-34"/><linearGradient id="linear-gradient-39" x1="686.42" y1="141.35" x2="502.01" y2="540.38" xlink:href="#linear-gradient-34"/><linearGradient id="linear-gradient-40" x1="616.82" y1="109.19" x2="432.41" y2="508.21" xlink:href="#linear-gradient-34"/><linearGradient id="linear-gradient-41" x1="671.47" y1="134.44" x2="487.06" y2="533.47" xlink:href="#linear-gradient-34"/><linearGradient id="linear-gradient-42" x1="741.07" y1="166.61" x2="556.66" y2="565.64" xlink:href="#linear-gradient-34"/><linearGradient id="linear-gradient-43" x1="795.49" y1="191.76" x2="611.07" y2="590.78" xlink:href="#linear-gradient-34"/><linearGradient id="linear-gradient-44" x1="731.82" y1="162.33" x2="547.41" y2="561.36" xlink:href="#linear-gradient-34"/><linearGradient id="linear-gradient-45" x1="663.25" y1="130.64" x2="478.84" y2="529.67" xlink:href="#linear-gradient-34"/><linearGradient id="linear-gradient-46" x1="725.57" y1="159.44" x2="541.15" y2="558.47" xlink:href="#linear-gradient-34"/><linearGradient id="linear-gradient-47" x1="1113.99" y1="878.43" x2="1168.55" y2="878.43" gradientTransform="translate(-1008.39 -16.95) rotate(-2.12)" xlink:href="#linear-gradient-34"/><linearGradient id="linear-gradient-48" x1="1113.99" y1="867.74" x2="1167.01" y2="867.74" gradientTransform="translate(-1008.39 -16.95) rotate(-2.12)" xlink:href="#linear-gradient-31"/><linearGradient id="linear-gradient-49" x1="1119.03" y1="852.81" x2="1134.4" y2="852.81" gradientTransform="translate(-1008.39 -16.95) rotate(-2.12)" gradientUnits="userSpaceOnUse"><stop offset="0" stop-color="#febbba"/><stop offset="1" stop-color="#ff928e"/></linearGradient><linearGradient id="linear-gradient-50" x1="1005.22" y1="877.25" x2="1026.13" y2="877.25" gradientTransform="translate(-1008.39 -16.95) rotate(-2.12)" xlink:href="#linear-gradient-34"/><linearGradient id="linear-gradient-51" x1="1005.38" y1="861.16" x2="1036.06" y2="861.16" gradientTransform="translate(-1008.39 -16.95) rotate(-2.12)" xlink:href="#linear-gradient-31"/><linearGradient id="linear-gradient-52" x1="1021.33" y1="840" x2="1039.69" y2="840" xlink:href="#linear-gradient-49"/><linearGradient id="linear-gradient-53" x1="978.78" y1="893.71" x2="1220.06" y2="620.74" gradientTransform="translate(-1008.39 -16.95) rotate(-2.12)" xlink:href="#linear-gradient-34"/><linearGradient id="linear-gradient-54" x1="214.34" y1="321.98" x2="174.13" y2="431.65" gradientUnits="userSpaceOnUse"><stop offset="0" stop-color="#e1473d"/><stop offset="1" stop-color="#872b4d"/></linearGradient><linearGradient id="linear-gradient-55" x1="119.98" y1="262.54" x2="142.48" y2="543.03" xlink:href="#linear-gradient-31"/><linearGradient id="linear-gradient-56" x1="1107.4" y1="573.82" x2="1037.69" y2="635.54" xlink:href="#linear-gradient-49"/><linearGradient id="linear-gradient-57" x1="163.36" y1="303.28" x2="123.15" y2="412.96" xlink:href="#linear-gradient-54"/><linearGradient id="linear-gradient-58" x1="282.04" y1="346.8" x2="241.83" y2="456.47" xlink:href="#linear-gradient-54"/><linearGradient id="linear-gradient-59" x1="1228.04" y1="577.76" x2="1279.53" y2="577.76" xlink:href="#linear-gradient-49"/><linearGradient id="linear-gradient-60" x1="1177.99" y1="440.16" x2="1177.42" y2="536.31" xlink:href="#linear-gradient-49"/><linearGradient id="linear-gradient-61" x1="852.69" y1="2426.63" x2="805.36" y2="2489.25" gradientTransform="translate(-1058.24 -1871.83) rotate(-10.33)" xlink:href="#linear-gradient-49"/><linearGradient id="linear-gradient-62" x1="25.28" y1="434.65" x2="189.5" y2="455.42" gradientTransform="translate(131.56 -59.16) rotate(-2.12)" xlink:href="#linear-gradient-31"/><linearGradient id="linear-gradient-63" x1="783.37" y1="2476.22" x2="821.34" y2="2437.27" gradientTransform="translate(-1058.24 -1871.83) rotate(-10.33)" xlink:href="#linear-gradient-49"/><linearGradient id="linear-gradient-64" x1="-3573.08" y1="781.1" x2="-3596.1" y2="781.1" gradientTransform="matrix(-0.98, 0.2, 0.2, 0.98, -3173.6, 291.76)" xlink:href="#linear-gradient-31"/><linearGradient id="linear-gradient-65" x1="289.74" y1="396.48" x2="205.75" y2="735.47" xlink:href="#linear-gradient-31"/><linearGradient id="linear-gradient-66" x1="95.04" y1="583.74" x2="131" y2="583.74" xlink:href="#linear-gradient"/><linearGradient id="linear-gradient-67" x1="475.3" y1="-25.94" x2="467.3" y2="122.06" xlink:href="#linear-gradient-2"/><linearGradient id="linear-gradient-68" x1="1263.93" y1="570.65" x2="1286.37" y2="570.65" xlink:href="#linear-gradient-49"/><linearGradient id="linear-gradient-69" x1="-2730.19" y1="604.09" x2="-2781.94" y2="649.91" gradientTransform="matrix(-1, 0.04, 0.04, 1, -2649.71, 43.79)" xlink:href="#linear-gradient-49"/></defs><g id="Layer_2" data-name="Layer 2"><g id="Metaphor_illustration" data-name="Metaphor illustration"><path class="cls-2" d="M732.12,706c-17,17.68-33,29.08-45.74,38.09C537.17,850,360.62,819.09,323.1,811.55c-55.41-11.13-162.51-32.64-239.95-122.69C-34,552.62-15.76,338,75.11,196.28,91.74,170.36,179.54,26.52,358,3.45c108-14,233.89,14.19,325,89.73C874.41,251.73,860.79,572,732.12,706Z" transform="translate(1.7)"/><path class="cls-3" d="M428,34.52c0,16.76-6.22,26-17.15,26-9.63,0-16.15-9-16.3-25.33,0-16.53,7.13-25.64,17.14-25.64C422,9.56,428,18.82,428,34.52Zm-26.78.76c0,12.81,3.95,20.1,10,20.1,6.83,0,10.09-8,10.09-20.56,0-12.13-3.11-20.1-10-20.1C405.43,14.72,401.18,21.85,401.18,35.28Z" transform="translate(1.7)"/><path class="cls-4" d="M448.59,16.62h-.15l-8.57,4.62-1.29-5.08,10.77-5.76H455V59.7h-6.45Z" transform="translate(1.7)"/><path class="cls-5" d="M505.78,34.52c0,16.76-6.22,26-17.14,26-9.63,0-16.15-9-16.31-25.33,0-16.53,7.13-25.64,17.15-25.64C499.87,9.56,505.78,18.82,505.78,34.52ZM479,35.28c0,12.81,3.94,20.1,10,20.1,6.83,0,10.09-8,10.09-20.56,0-12.13-3.11-20.1-10-20.1C483.26,14.72,479,21.85,479,35.28Z" transform="translate(1.7)"/><path class="cls-6" d="M526.42,16.62h-.16l-8.57,4.62-1.29-5.08,10.77-5.76h5.69V59.7h-6.44Z" transform="translate(1.7)"/><path class="cls-7" d="M583.61,34.52c0,16.76-6.22,26-17.14,26-9.64,0-16.16-9-16.31-25.33,0-16.53,7.13-25.64,17.14-25.64C577.69,9.56,583.61,18.82,583.61,34.52Zm-26.78.76c0,12.81,3.95,20.1,10,20.1,6.82,0,10.08-8,10.08-20.56,0-12.13-3.11-20.1-10-20.1C561.08,14.72,556.83,21.85,556.83,35.28Z" transform="translate(1.7)"/><path class="cls-8" d="M622.52,34.52c0,16.76-6.22,26-17.14,26-9.63,0-16.15-9-16.31-25.33,0-16.53,7.13-25.64,17.14-25.64C616.61,9.56,622.52,18.82,622.52,34.52Zm-26.77.76c0,12.81,3.94,20.1,10,20.1,6.82,0,10.09-8,10.09-20.56,0-12.13-3.11-20.1-10-20.1C600,14.72,595.75,21.85,595.75,35.28Z" transform="translate(1.7)"/><path class="cls-9" d="M643.15,16.62H643l-8.57,4.62-1.29-5.08,10.77-5.76h5.69V59.7h-6.45Z" transform="translate(1.7)"/><path class="cls-10" d="M700.35,34.52c0,16.76-6.22,26-17.15,26-9.63,0-16.15-9-16.3-25.33C666.9,18.67,674,9.56,684,9.56,694.43,9.56,700.35,18.82,700.35,34.52Zm-26.78.76c0,12.81,3.95,20.1,10,20.1,6.83,0,10.09-8,10.09-20.56,0-12.13-3.11-20.1-10-20.1C677.82,14.72,673.57,21.85,673.57,35.28Z" transform="translate(1.7)"/><path class="cls-11" d="M721,16.62h-.15l-8.57,4.62L711,16.16l10.77-5.76h5.69V59.7H721Z" transform="translate(1.7)"/><path class="cls-12" d="M487.5,98.8h-.15l-8.57,4.62-1.29-5.08,10.77-5.76H494v49.3H487.5Z" transform="translate(1.7)"/><path class="cls-13" d="M526.42,98.8h-.16l-8.57,4.62-1.29-5.08,10.77-5.76h5.69v49.3h-6.44Z" transform="translate(1.7)"/><path class="cls-14" d="M583.61,116.69c0,16.77-6.22,26-17.14,26-9.64,0-16.16-9-16.31-25.33,0-16.54,7.13-25.64,17.14-25.64C577.69,91.74,583.61,101,583.61,116.69Zm-26.78.76c0,12.82,3.95,20.1,10,20.1,6.82,0,10.08-8,10.08-20.55,0-12.14-3.11-20.1-10-20.1C561.08,96.9,556.83,104,556.83,117.45Z" transform="translate(1.7)"/><path class="cls-15" d="M604.24,98.8h-.15l-8.57,4.62-1.29-5.08L605,92.58h5.69v49.3h-6.45Z" transform="translate(1.7)"/><path class="cls-16" d="M661.43,116.69c0,16.77-6.22,26-17.14,26-9.63,0-16.15-9-16.3-25.33,0-16.54,7.13-25.64,17.14-25.64C655.52,91.74,661.43,101,661.43,116.69Zm-26.77.76c0,12.82,3.94,20.1,10,20.1,6.83,0,10.09-8,10.09-20.55,0-12.14-3.11-20.1-10-20.1C638.91,96.9,634.66,104,634.66,117.45Z" transform="translate(1.7)"/><path class="cls-17" d="M682.07,98.8h-.15l-8.57,4.62-1.29-5.08,10.77-5.76h5.68v49.3h-6.44Z" transform="translate(1.7)"/><path class="cls-18" d="M739.26,116.69c0,16.77-6.22,26-17.14,26-9.63,0-16.16-9-16.31-25.33,0-16.54,7.13-25.64,17.14-25.64C733.34,91.74,739.26,101,739.26,116.69Zm-26.77.76c0,12.82,3.94,20.1,10,20.1,6.82,0,10.08-8,10.08-20.55,0-12.14-3.1-20.1-10-20.1C716.73,96.9,712.49,104,712.49,117.45Z" transform="translate(1.7)"/><path class="cls-19" d="M778.17,116.69c0,16.77-6.22,26-17.14,26-9.63,0-16.15-9-16.3-25.33,0-16.54,7.12-25.64,17.14-25.64C772.26,91.74,778.17,101,778.17,116.69Zm-26.77.76c0,12.82,3.94,20.1,10,20.1,6.83,0,10.09-8,10.09-20.55,0-12.14-3.11-20.1-10-20.1C755.65,96.9,751.4,104,751.4,117.45Z" transform="translate(1.7)"/><path class="cls-20" d="M487.5,173.07h-.15l-8.57,4.63-1.29-5.09,10.77-5.76H494v49.3H487.5Z" transform="translate(1.7)"/><path class="cls-21" d="M544.69,191c0,16.76-6.22,26-17.14,26-9.63,0-16.15-9-16.3-25.33,0-16.53,7.13-25.64,17.14-25.64C538.78,166,544.69,175.27,544.69,191Zm-26.77.76c0,12.82,3.94,20.1,10,20.1,6.83,0,10.09-8,10.09-20.56,0-12.13-3.11-20.1-10-20.1C522.17,171.17,517.92,178.3,517.92,191.73Z" transform="translate(1.7)"/><path class="cls-22" d="M565.33,173.07h-.15l-8.57,4.63-1.29-5.09,10.77-5.76h5.69v49.3h-6.45Z" transform="translate(1.7)"/><path class="cls-23" d="M622.52,191c0,16.76-6.22,26-17.14,26-9.63,0-16.15-9-16.31-25.33,0-16.53,7.13-25.64,17.14-25.64C616.61,166,622.52,175.27,622.52,191Zm-26.77.76c0,12.82,3.94,20.1,10,20.1,6.82,0,10.09-8,10.09-20.56,0-12.13-3.11-20.1-10-20.1C600,171.17,595.75,178.3,595.75,191.73Z" transform="translate(1.7)"/><path class="cls-24" d="M661.43,191c0,16.76-6.22,26-17.14,26-9.63,0-16.15-9-16.3-25.33,0-16.53,7.13-25.64,17.14-25.64C655.52,166,661.43,175.27,661.43,191Zm-26.77.76c0,12.82,3.94,20.1,10,20.1,6.83,0,10.09-8,10.09-20.56,0-12.13-3.11-20.1-10-20.1C638.91,171.17,634.66,178.3,634.66,191.73Z" transform="translate(1.7)"/><path class="cls-25" d="M682.07,173.07h-.15l-8.57,4.63-1.29-5.09,10.77-5.76h5.68v49.3h-6.44Z" transform="translate(1.7)"/><path class="cls-26" d="M739.26,191c0,16.76-6.22,26-17.14,26-9.63,0-16.16-9-16.31-25.33,0-16.53,7.13-25.64,17.14-25.64C733.34,166,739.26,175.27,739.26,191Zm-26.77.76c0,12.82,3.94,20.1,10,20.1,6.82,0,10.08-8,10.08-20.56,0-12.13-3.1-20.1-10-20.1C716.73,171.17,712.49,178.3,712.49,191.73Z" transform="translate(1.7)"/><path class="cls-27" d="M759.89,173.07h-.15l-8.57,4.63-1.29-5.09,10.77-5.76h5.69v49.3h-6.45Z" transform="translate(1.7)"/><g class="cls-28"><path class="cls-29" d="M180.38,133.26a3.23,3.23,0,0,1-2.81-3.28c.08-3.64.33-7.34.73-11a3.23,3.23,0,0,1,3.56-2.86h.06a3.21,3.21,0,0,1,2.79,3.55c-.37,3.46-.61,7-.69,10.43a3.23,3.23,0,0,1-3.3,3.15Zm3.79-27.86-.37-.07a3.24,3.24,0,0,1-2.35-3.92c.89-3.55,1.94-7.1,3.13-10.54a3.22,3.22,0,1,1,6.1,2.09c-1.12,3.28-2.12,6.65-3,10A3.24,3.24,0,0,1,184.17,105.4ZM194,79.07a3.13,3.13,0,0,1-1-.33,3.23,3.23,0,0,1-1.42-4.34c1.66-3.25,3.48-6.48,5.41-9.58a3.22,3.22,0,0,1,5.48,3.4c-1.83,3-3.56,6-5.13,9.11A3.24,3.24,0,0,1,194,79.07Zm15.48-23.48a3.17,3.17,0,0,1-1.66-.72,3.23,3.23,0,0,1-.4-4.55c2.34-2.8,4.83-5.54,7.41-8.14a3.23,3.23,0,0,1,4.58,4.55c-2.45,2.46-4.81,5.06-7,7.73A3.21,3.21,0,0,1,209.49,55.59Zm20.32-19.43a3.23,3.23,0,0,1-1.54-5.77c2.9-2.21,5.93-4.33,9-6.29a3.23,3.23,0,0,1,3.47,5.45c-2.94,1.86-5.82,3.88-8.58,6A3.22,3.22,0,0,1,229.81,36.16Zm24.12-14.45a3.23,3.23,0,0,1-.93-6.14c3.32-1.51,6.75-2.91,10.19-4.14a3.23,3.23,0,0,1,2.17,6.08c-3.27,1.17-6.53,2.49-9.68,3.93A3.26,3.26,0,0,1,253.93,21.71ZM372.2,29.19a3.24,3.24,0,0,1-1.28-.46c-2.95-1.83-6-3.55-9.12-5.12a3.23,3.23,0,0,1,2.91-5.76c3.27,1.65,6.5,3.47,9.6,5.39a3.23,3.23,0,0,1-2.11,6ZM280.63,13a3.23,3.23,0,0,1-.24-6.37c3.57-.74,7.23-1.33,10.86-1.76a3.23,3.23,0,0,1,.76,6.41c-3.45.41-6.92,1-10.32,1.67A3.18,3.18,0,0,1,280.63,13Zm66.15,4.2a3.56,3.56,0,0,1-.63-.14c-3.28-1.12-6.66-2.12-10-3a3.23,3.23,0,1,1,1.56-6.26c3.55.88,7.1,1.93,10.55,3.11a3.22,3.22,0,0,1-1.45,6.25Zm-38.17-6.76A3.23,3.23,0,0,1,309.1,4c3.65.08,7.34.32,11,.71h.07a3.23,3.23,0,0,1-.76,6.41c-3.46-.37-7-.6-10.43-.68Z" transform="translate(1.7)"/><path class="cls-29" d="M390.31,42.81a3.18,3.18,0,0,1-1.75-.81c-1.24-1.11-2.51-2.22-3.8-3.29a3.23,3.23,0,0,1,4.13-5c1.36,1.13,2.7,2.29,4,3.47a3.22,3.22,0,0,1-2.58,5.59Z" transform="translate(1.7)"/></g><g class="cls-28"><path class="cls-29" d="M431.68,132.08a3.21,3.21,0,0,1-2.81-3.1c-.05-1.66-.14-3.35-.26-5a3.23,3.23,0,1,1,6.44-.46c.12,1.75.22,3.53.27,5.28a3.22,3.22,0,0,1-3.13,3.33A2.19,2.19,0,0,1,431.68,132.08Z" transform="translate(1.7)"/><path class="cls-29" d="M290.13,260.74c-1.48-.19-2.95-.4-4.43-.65a3.23,3.23,0,0,1,1-6.37c3.41.56,6.83,1,10.22,1.24a3.23,3.23,0,0,1-.51,6.44C294.35,261.23,292.23,261,290.13,260.74Zm-21-4.53a2.62,2.62,0,0,1-.54-.12c-3.44-1-6.87-2.26-10.21-3.6a3.23,3.23,0,0,1,2.4-6c3.17,1.27,6.43,2.42,9.71,3.42a3.23,3.23,0,0,1-1.36,6.29Zm44.32,5.35a3.23,3.23,0,0,1,.23-6.42c3.4-.2,6.84-.55,10.23-1a3.23,3.23,0,0,1,.92,6.39c-3.57.51-7.19.87-10.78,1.08A4,4,0,0,1,313.43,261.56Zm-69.72-16.32a3.29,3.29,0,0,1-1.19-.4c-3.12-1.79-6.21-3.72-9.17-5.76a3.23,3.23,0,1,1,3.66-5.32c2.81,1.94,5.74,3.78,8.71,5.47a3.23,3.23,0,0,1-2,6Zm97,11.67a3.23,3.23,0,0,1-.48-6.31c3.27-.94,6.55-2,9.75-3.25a3.23,3.23,0,0,1,2.3,6c-3.37,1.28-6.82,2.44-10.27,3.43A3.4,3.4,0,0,1,340.69,256.91Zm25.57-10.52a3.23,3.23,0,0,1-1.14-6c3-1.64,6-3.42,8.82-5.3a3.22,3.22,0,1,1,3.55,5.38c-3,2-6.11,3.86-9.27,5.59A3.23,3.23,0,0,1,366.26,246.39Zm22.68-15.85a3.23,3.23,0,0,1-1.72-5.63c2.58-2.25,5.08-4.64,7.45-7.09a3.22,3.22,0,1,1,4.64,4.48c-2.49,2.58-5.13,5.09-7.83,7.47A3.23,3.23,0,0,1,388.94,230.54Zm18.67-20.41a3.13,3.13,0,0,1-1.48-.6,3.22,3.22,0,0,1-.71-4.5c2-2.77,3.94-5.64,5.71-8.56a3.23,3.23,0,0,1,5.52,3.35c-1.87,3.07-3.89,6.1-6,9A3.24,3.24,0,0,1,407.61,210.13Zm13.75-24a3.08,3.08,0,0,1-.87-.25,3.21,3.21,0,0,1-1.68-4.24c1.35-3.13,2.59-6.36,3.68-9.6a3.23,3.23,0,0,1,6.12,2.06c-1.15,3.41-2.45,6.81-3.88,10.1A3.24,3.24,0,0,1,421.36,186.11Zm8.13-26.44-.2,0a3.21,3.21,0,0,1-2.56-3.77c.47-2.47.87-5,1.19-7.48.12-.9.22-1.8.32-2.7a3.23,3.23,0,0,1,3.55-2.87,3.19,3.19,0,0,1,2.87,3.55c-.1.95-.21,1.9-.34,2.85-.33,2.62-.76,5.26-1.25,7.86A3.24,3.24,0,0,1,429.49,159.67Z" transform="translate(1.7)"/><path class="cls-29" d="M221.28,228.89a3.25,3.25,0,0,1-1.76-.82c-1.29-1.18-2.58-2.41-3.83-3.65a3.23,3.23,0,1,1,4.55-4.58c1.19,1.18,2.41,2.35,3.64,3.47a3.23,3.23,0,0,1-2.6,5.58Z" transform="translate(1.7)"/></g><path class="cls-29" d="M230.38,192.32A1.52,1.52,0,0,0,232,193l17.9-4.08A80.06,80.06,0,0,0,271,204l1.89,18.25a1.5,1.5,0,0,0,1.16,1.31l21.44,5a1.5,1.5,0,0,0,1.62-.66l9.77-15.54a79.93,79.93,0,0,0,25.56-4.23l14.25,11.58a1.51,1.51,0,0,0,1.74.11l18.7-11.63a1.52,1.52,0,0,0,.68-1.62l-4.09-17.9a79.92,79.92,0,0,0,15.1-21.06L397,165.73a1.51,1.51,0,0,0,1.31-1.16l5-21.45a1.52,1.52,0,0,0-.67-1.62l-15.53-9.76a80.21,80.21,0,0,0-4.23-25.56l11.57-14.25a1.5,1.5,0,0,0,.11-1.75L383,71.49a1.51,1.51,0,0,0-1.61-.68l-17.9,4.09a79.92,79.92,0,0,0-21.06-15.1l-1.89-18.25a1.49,1.49,0,0,0-1.16-1.31l-21.44-5a1.49,1.49,0,0,0-1.62.67l-9.76,15.53A79.89,79.89,0,0,0,281,55.67L266.7,44.1A1.5,1.5,0,0,0,265,44l-18.7,11.63a1.5,1.5,0,0,0-.67,1.61l4.08,17.9a80.11,80.11,0,0,0-15.09,21.06l-18.25,1.89A1.51,1.51,0,0,0,215,99.23l-5,21.45a1.5,1.5,0,0,0,.66,1.62l15.54,9.76a79.93,79.93,0,0,0,4.23,25.56l-11.58,14.25a1.52,1.52,0,0,0-.11,1.75Z" transform="translate(1.7)"/><path class="cls-30" d="M303.83,153.85a22.13,22.13,0,1,1,3.24.18A21.7,21.7,0,0,1,303.83,153.85Zm5-38.78a17.52,17.52,0,0,0-2.51-.14,17,17,0,1,0,2.51.14Z" transform="translate(1.7)"/><path class="cls-31" d="M300.19,185.62c-1.83-.24-3.67-.57-5.5-1h0L293,184.2a56.08,56.08,0,0,1-8.22-2.91l-.1,0-.31-.14-.59-.28a1.28,1.28,0,0,1-.73-1.33,1.15,1.15,0,0,1,.11-.39,1.29,1.29,0,0,1,1.72-.61,51.94,51.94,0,0,0,58.49-9.87,51.53,51.53,0,0,0,14.19-25.23,50.78,50.78,0,0,0,1-5.25,51.85,51.85,0,1,0-100.82,9.31,1.36,1.36,0,0,1,.06.56,1.31,1.31,0,0,1-.89,1.06,1.28,1.28,0,0,1-1.62-.83,54.22,54.22,0,0,1-2.15-23.53,53.49,53.49,0,0,1,1-5.44,54.43,54.43,0,0,1,107,19.19,55.37,55.37,0,0,1-1,5.51,54.43,54.43,0,0,1-59.86,41.65Z" transform="translate(1.7)"/><g class="cls-28"><path class="cls-29" d="M60.29,203.55a2,2,0,0,1-1.71-1.67c-.27-1.67-.49-3.37-.65-5.06a2,2,0,0,1,4-.38c.15,1.6.36,3.23.61,4.82a2,2,0,0,1-1.65,2.28A2.18,2.18,0,0,1,60.29,203.55Z" transform="translate(1.7)"/><path class="cls-29" d="M59.29,188.25a2,2,0,0,1-1.74-2,85,85,0,0,1,.68-8.74c.07-.61.16-1.22.25-1.83A2.07,2.07,0,0,1,60.75,174a2,2,0,0,1,1.67,2.27c-.08.58-.17,1.16-.24,1.75a83,83,0,0,0-.65,8.33,2,2,0,0,1-2,1.94Zm3.07-20.47-.28-.05a2,2,0,0,1-1.39-2.46,88,88,0,0,1,3.46-10,2,2,0,0,1,2.61-1.07,2,2,0,0,1,1.07,2.6,81.88,81.88,0,0,0-3.3,9.57A2,2,0,0,1,62.36,167.78Zm8-19.11a2,2,0,0,1-.73-.24,2,2,0,0,1-.75-2.72,85.37,85.37,0,0,1,5.83-8.88,2,2,0,1,1,3.19,2.39,80,80,0,0,0-5.55,8.46A2,2,0,0,1,70.31,148.67Zm12.4-16.57a1.94,1.94,0,0,1-1.12-.54,2,2,0,0,1-.06-2.82,87.08,87.08,0,0,1,7.82-7.18,2,2,0,0,1,2.51,3.1,81.81,81.81,0,0,0-7.46,6.85A2,2,0,0,1,82.71,132.1Zm16.07-13a2,2,0,0,1-1.43-.92,2,2,0,0,1,.63-2.75,87.39,87.39,0,0,1,9.32-5.06,2,2,0,1,1,1.69,3.61,84,84,0,0,0-8.9,4.83A1.92,1.92,0,0,1,98.78,119.06Zm18.75-8.74a2,2,0,0,1-1.64-1.37,2,2,0,0,1,1.28-2.5,85,85,0,0,1,10.27-2.64,2,2,0,1,1,.75,3.91,82.7,82.7,0,0,0-9.79,2.52A2,2,0,0,1,117.53,110.32Zm20.31-3.89a2,2,0,0,1,.13-4,85.35,85.35,0,0,1,10.61,0,2,2,0,1,1-.23,4,81.35,81.35,0,0,0-10.12,0A2.54,2.54,0,0,1,137.84,106.43Zm30.73,3.7a2.09,2.09,0,0,1-.34-.08,84.57,84.57,0,0,0-8.53-2.18l-1.3-.25a2,2,0,0,1,.71-3.92l1.38.27a87.15,87.15,0,0,1,8.93,2.28,2,2,0,0,1-.85,3.88Z" transform="translate(1.7)"/></g><g class="cls-28"><path class="cls-29" d="M133.8,273.92a2,2,0,0,1,.48-4,82.66,82.66,0,0,0,9.94.54,2,2,0,0,1,0,4,86.52,86.52,0,0,1-10.42-.57Zm-10.05-1.78-.21,0a88.94,88.94,0,0,1-10-3,2,2,0,1,1,1.38-3.74,83,83,0,0,0,9.53,2.89,2,2,0,0,1-.72,3.92Zm30.4,1.65a2,2,0,0,1,0-4,81.1,81.1,0,0,0,9.78-1.87,2,2,0,1,1,1,3.86,86.23,86.23,0,0,1-10.25,2A2.17,2.17,0,0,1,154.15,273.79Zm-49.48-8.74a2.09,2.09,0,0,1-.67-.21,86.21,86.21,0,0,1-9-5.36,2,2,0,1,1,2.25-3.29,81.1,81.1,0,0,0,8.55,5.11,2,2,0,0,1-1.17,3.75Zm69.19,3.69a2,2,0,0,1-.47-3.83,82.05,82.05,0,0,0,9-4.17,2,2,0,1,1,1.89,3.51,87.34,87.34,0,0,1-9.48,4.37A2,2,0,0,1,173.86,268.74Zm17.94-9.62a2,2,0,0,1-.9-3.61,83.35,83.35,0,0,0,7.78-6.21,2,2,0,1,1,2.67,3,86.73,86.73,0,0,1-8.15,6.51A2,2,0,0,1,191.8,259.12Zm15.11-13.65a2,2,0,0,1-1.25-3.28,84,84,0,0,0,6.06-7.9,2,2,0,1,1,3.3,2.23,84.51,84.51,0,0,1-6.35,8.28A2,2,0,0,1,206.91,245.47Z" transform="translate(1.7)"/><path class="cls-29" d="M87.79,253.49a2,2,0,0,1-1.07-.48c-1.28-1.13-2.53-2.3-3.72-3.48a2,2,0,1,1,2.81-2.83c1.14,1.12,2.33,2.24,3.55,3.32a2,2,0,0,1-1.57,3.47Z" transform="translate(1.7)"/></g><path class="cls-29" d="M92.72,228.16a1,1,0,0,0,1.08.45l12-2.73A53.28,53.28,0,0,0,119.87,236l1.26,12.21a1,1,0,0,0,.77.88l14.35,3.35a1,1,0,0,0,1.09-.45l6.53-10.39a53.56,53.56,0,0,0,17.1-2.84l9.54,7.75a1,1,0,0,0,1.17.07l12.51-7.78a1,1,0,0,0,.45-1.08l-2.73-12A53.51,53.51,0,0,0,192,211.63l12.21-1.26a1,1,0,0,0,.88-.78l3.35-14.35a1,1,0,0,0-.45-1.08l-10.4-6.53a53.34,53.34,0,0,0-2.83-17.11l7.75-9.53a1,1,0,0,0,.07-1.17l-7.78-12.51a1,1,0,0,0-1.08-.45l-12,2.73a53.44,53.44,0,0,0-14.09-10.1l-1.26-12.21a1,1,0,0,0-.78-.88l-14.35-3.35a1,1,0,0,0-1.08.45l-6.53,10.39a53.62,53.62,0,0,0-17.11,2.84L117,129a1,1,0,0,0-1.17-.07l-12.51,7.78a1,1,0,0,0-.45,1.08l2.73,12a53.28,53.28,0,0,0-10.1,14.09L83.31,165.1a1,1,0,0,0-.88.78l-3.35,14.35a1,1,0,0,0,.45,1.08l10.39,6.53A53.62,53.62,0,0,0,92.76,205L85,214.48a1,1,0,0,0-.08,1.17Z" transform="translate(1.7)"/><path class="cls-32" d="M141.81,202.69a15.14,15.14,0,1,1,2.23.12A16.49,16.49,0,0,1,141.81,202.69Zm3.38-26a12.62,12.62,0,0,0-1.63-.08,11.09,11.09,0,0,0-10.88,11.29A11.08,11.08,0,0,0,144,198.82h0a11.08,11.08,0,0,0,10.88-11.29A11.11,11.11,0,0,0,145.19,176.73Z" transform="translate(1.7)"/><path class="cls-33" d="M139.25,224.79c-1.25-.16-2.5-.38-3.76-.67a38.1,38.1,0,0,1-7.23-2.48l-.32-.15a2,2,0,0,1-1.12-2.05,1.79,1.79,0,0,1,.17-.6,2,2,0,0,1,2.66-1,33.91,33.91,0,0,0,6.75,2.34h0l.38.09a33.2,33.2,0,0,0,16.43-.48,33.9,33.9,0,0,0,8.27-3.63l.07,0,.19-.12a33.35,33.35,0,0,0,15-20.88,33.75,33.75,0,0,0,.62-3.4,33.57,33.57,0,0,0-66-11.84c-.26,1.11-.46,2.23-.61,3.36a33.45,33.45,0,0,0,1.33,14.5,2,2,0,1,1-3.8,1.22,37.49,37.49,0,0,1-1.48-16.23,36.85,36.85,0,0,1,.68-3.75,37.55,37.55,0,0,1,73.82,13.24,35.66,35.66,0,0,1-.69,3.8A37.59,37.59,0,0,1,139.25,224.79Z" transform="translate(1.7)"/><polygon class="cls-34" points="352.6 630.09 335.22 785.97 536.88 785.97 510.61 630.09 352.6 630.09"/><path class="cls-35" d="M0,234.88V602.25A55.73,55.73,0,0,0,54.29,658c134.19,3.46,603.5,11.85,731.23,10A41,41,0,0,0,825.9,628.1c2.46-85.35,6.46-290.58-8.34-385.86a42.2,42.2,0,0,0-40.35-35.72c-112.43-3.6-609.93-15-737.61-12.15A40.5,40.5,0,0,0,0,234.88Z" transform="translate(1.7)"/><path class="cls-36" d="M23.05,233.09v349a32.3,32.3,0,0,0,31.81,32.29l712.29,8.8A31.42,31.42,0,0,0,799,591.9L800.23,246a23,23,0,0,0-22.42-23.06L48.56,208.19A24.91,24.91,0,0,0,23.05,233.09Z" transform="translate(1.7)"/><path class="cls-37" d="M804.4,637.67h0L23,624.36a1.15,1.15,0,0,1-1.12-1.17,1.13,1.13,0,0,1,1.16-1.12l781.35,13.31a1.15,1.15,0,0,1,0,2.29Z" transform="translate(1.7)"/><path class="cls-38" d="M578.61,817.87H283.47c-8,0-14-5.71-12.48-11.84l3.78-15c1.14-4.5,6.1-7.81,12-8l284.53-8.88c6.15-.19,11.59,3.07,12.93,7.75L591,805.79C592.81,812,586.76,817.87,578.61,817.87Z" transform="translate(1.7)"/><path class="cls-39" d="M496.47,356.84c0,10.24-3.8,15.89-10.47,15.89-5.89,0-9.87-5.52-10-15.48s4.35-15.65,10.47-15.65C492.85,341.6,496.47,347.25,496.47,356.84Zm-16.36.46c0,7.83,2.41,12.28,6.12,12.28,4.17,0,6.16-4.87,6.16-12.56,0-7.41-1.9-12.27-6.12-12.27C482.71,344.75,480.11,349.1,480.11,357.3Z" transform="translate(1.7)"/><path class="cls-39" d="M559.49,348.26h-.1l-5.23,2.82-.79-3.1,6.58-3.52h3.47v30.11h-3.93Z" transform="translate(1.7)"/><path class="cls-39" d="M520.42,415.38h-.09l-5.24,2.83-.79-3.11,6.58-3.52h3.47v30.11h-3.93Z" transform="translate(1.7)"/><path class="cls-39" d="M559.49,481.48h-.1l-5.23,2.82-.79-3.1,6.58-3.52h3.47v30.11h-3.93Z" transform="translate(1.7)"/><g class="cls-40"><path class="cls-29" d="M290.3,185.81l-42-24.43V112.52l42-24.42,42,24.42v48.86Zm-40-25.65,40,23.2,40-23.2V113.75l-40-23.21-40,23.21Z" transform="translate(1.7)"/><path class="cls-29" d="M248.31,257.28l-42.23-24.43V184l42.23-24.43L290.55,184v48.85ZM208.2,231.63l40.11,23.2,40.12-23.2V185.22L248.31,162l-40.11,23.2Z" transform="translate(1.7)"/><path class="cls-29" d="M248.3,114.65l-42-24.43V41.37l42-24.44,42,24.44V90.22ZM208.3,89l40,23.2,40-23.2V42.59l-40-23.2-40,23.2Z" transform="translate(1.7)"/><path class="cls-29" d="M206.74,186.13,164.5,161.7V112.84l42.24-24.43L249,112.84V161.7Zm-40.12-25.66,40.12,23.21,40.11-23.21V114.06l-40.11-23.2-40.12,23.2Z" transform="translate(1.7)"/><path class="cls-29" d="M454.3,185.81l-42-24.43V112.52l42-24.42,42,24.42v48.86Zm-41-25.65,40.5,23.2,40.5-23.2V113.75L453.8,90.54l-40.5,23.21Z" transform="translate(1.7)"/><path class="cls-29" d="M412.85,257.28l-42.24-24.43V184l42.24-24.43L455.08,184v48.85Zm-40.12-25.65,40.12,23.2L453,231.63V185.22L412.85,162l-40.12,23.2Z" transform="translate(1.7)"/><path class="cls-29" d="M413.3,114.65l-43-24.42V41.36l43-24.42,43,24.42V90.23ZM372.3,89l40.5,23.22L453.3,89V42.59L412.8,19.38,372.3,42.59Z" transform="translate(1.7)"/><path class="cls-29" d="M331.3,114.65l-42-24.43V41.37l42-24.44,42,24.44V90.22ZM291.3,89l40,23.2,40-23.2V42.59l-40-23.2-40,23.2Z" transform="translate(1.7)"/><path class="cls-29" d="M371.27,186.13,329,161.7V112.84l42.24-24.43,42.24,24.43V161.7Zm-40.12-25.66,40.12,23.21,40.12-23.21V114.06l-40.12-23.2-40.12,23.2Z" transform="translate(1.7)"/><path class="cls-29" d="M617.8,185.81l-42.5-24.43V112.53l42.5-24.44,42.5,24.44v48.85Zm-40.5-25.65,40.5,23.2,40.5-23.2V113.74L617.8,90.55l-40.5,23.19Z" transform="translate(1.7)"/><path class="cls-29" d="M577.38,257.28l-42.24-24.43V184l42.24-24.43L619.61,184v48.85Zm-40.12-25.65,40.12,23.2,40.11-23.2V185.22L577.38,162l-40.12,23.2Z" transform="translate(1.7)"/><path class="cls-29" d="M578.3,114.65l-43-24.42V41.36l43-24.42,43,24.42V90.23ZM537.3,89l41,23.22L619.3,89V42.59l-41-23.21-41,23.21Z" transform="translate(1.7)"/><path class="cls-29" d="M660.8,114.65,619.3,90.22V41.37l41.5-24.44,41.5,24.44V90.22ZM621.3,89l39.5,23.2L700.3,89V42.59l-39.5-23.2-39.5,23.2Z" transform="translate(1.7)"/><path class="cls-29" d="M496.8,114.65,454.3,90.22V41.37l42.5-24.44,42.5,24.44V90.22ZM457.3,89l39.5,23.2L536.3,89V42.59l-39.5-23.2-39.5,23.2Z" transform="translate(1.7)"/><path class="cls-29" d="M535.8,186.13,493.57,161.7V112.84L535.8,88.41,578,112.84V161.7Zm-40.11-25.66,40.11,23.21,40.12-23.21V114.06L535.8,90.86l-40.11,23.2Z" transform="translate(1.7)"/><path class="cls-29" d="M207.94,329.42,165.7,305V256.14l42.24-24.43,42.23,24.43V305Zm-40.12-25.65L207.94,327l40.11-23.21V257.36l-40.11-23.2-40.12,23.2Z" transform="translate(1.7)"/><path class="cls-29" d="M167.16,400.9l-42.24-24.43V327.61l42.24-24.42,42.23,24.42v48.86ZM127,375.25l40.12,23.2,40.11-23.2V328.84l-40.11-23.21L127,328.84Z" transform="translate(1.7)"/><path class="cls-29" d="M166.36,258.27l-42.24-24.43V185l42.24-24.43L208.6,185v48.86Zm-40.12-25.65,40.12,23.2,40.12-23.2V186.21L166.36,163l-40.12,23.21Z" transform="translate(1.7)"/><path class="cls-29" d="M125.58,329.74,83.35,305.31V256.46L125.58,232l42.24,24.43v48.85ZM85.47,304.09l40.11,23.2,40.12-23.2V257.68l-40.12-23.2-40.11,23.2Z" transform="translate(1.7)"/><path class="cls-29" d="M371.79,329.42,329.56,305V256.14l42.23-24.43L414,256.14V305Zm-40.12-25.65L371.79,327l40.12-23.21V257.36l-40.12-23.2-40.12,23.2Z" transform="translate(1.7)"/><path class="cls-29" d="M331,400.9l-42.23-24.43V327.61L331,303.19l42.24,24.42v48.86ZM290.9,375.25,331,398.45l40.12-23.2V328.84L331,305.63,290.9,328.84Z" transform="translate(1.7)"/><path class="cls-29" d="M249.11,400.9l-42.23-24.43V327.61l42.23-24.42,42.24,24.42v48.86ZM209,375.25l40.11,23.2,40.12-23.2V328.84l-40.12-23.21L209,328.84Z" transform="translate(1.7)"/><path class="cls-29" d="M330.22,258.27,288,233.84V185l42.24-24.43L372.45,185v48.86ZM290.1,232.62l40.12,23.2,40.11-23.2V186.21L330.22,163,290.1,186.21Z" transform="translate(1.7)"/><path class="cls-29" d="M289.44,329.74,247.2,305.31V256.46L289.44,232l42.23,24.43v48.85Zm-40.12-25.65,40.12,23.2,40.12-23.2V257.68l-40.12-23.2-40.12,23.2Z" transform="translate(1.7)"/><path class="cls-29" d="M535.25,329.42,493,305V256.14l42.24-24.43,42.23,24.43V305Zm-40.12-25.65L535.25,327l40.11-23.21V257.36l-40.11-23.2-40.12,23.2Z" transform="translate(1.7)"/><path class="cls-29" d="M494.47,400.9l-42.24-24.43V327.61l42.24-24.42,42.23,24.42v48.86Zm-40.12-25.65,40.12,23.2,40.12-23.2V328.84l-40.12-23.21-40.12,23.21Z" transform="translate(1.7)"/><path class="cls-29" d="M412.57,400.9l-42.24-24.43V327.61l42.24-24.42,42.23,24.42v48.86Zm-40.12-25.65,40.12,23.2,40.11-23.2V328.84l-40.11-23.21-40.12,23.21Z" transform="translate(1.7)"/><path class="cls-29" d="M493.67,258.27l-42.24-24.43V185l42.24-24.43L535.91,185v48.86Zm-40.12-25.65,40.12,23.2,40.12-23.2V186.21L493.67,163l-40.12,23.21Z" transform="translate(1.7)"/><path class="cls-29" d="M452.89,329.74l-42.23-24.43V256.46L452.89,232l42.24,24.43v48.85Zm-40.11-25.65,40.11,23.2L493,304.09V257.68l-40.12-23.2-40.11,23.2Z" transform="translate(1.7)"/><path class="cls-29" d="M700.93,329.42,658.69,305V256.14l42.24-24.43,42.23,24.43V305Zm-40.12-25.65L700.93,327,741,303.77V257.36l-40.11-23.2-40.12,23.2Z" transform="translate(1.7)"/><path class="cls-29" d="M660.15,400.9l-42.23-24.43V327.61l42.23-24.42,42.24,24.42v48.86ZM620,375.25l40.11,23.2,40.12-23.2V328.84l-40.12-23.21L620,328.84Z" transform="translate(1.7)"/><path class="cls-29" d="M578.25,400.9,536,376.47V327.61l42.24-24.42,42.23,24.42v48.86Zm-40.12-25.65,40.12,23.2,40.11-23.2V328.84l-40.11-23.21-40.12,23.21Z" transform="translate(1.7)"/><path class="cls-29" d="M659.35,258.27l-42.23-24.43V185l42.23-24.43L701.59,185v48.86Zm-40.11-25.65,40.11,23.2,40.12-23.2V186.21L659.35,163l-40.11,23.21Z" transform="translate(1.7)"/><path class="cls-29" d="M618.58,329.74l-42.24-24.43V256.46L618.58,232l42.23,24.43v48.85Zm-40.12-25.65,40.12,23.2,40.11-23.2V257.68l-40.11-23.2-40.12,23.2Z" transform="translate(1.7)"/><path class="cls-29" d="M164.8,114.64,121.3,90.23V41.36L164.8,17l43.5,24.41V90.23ZM123.3,89l41.5,23.22L206.3,89V42.6L164.8,19.38,123.3,42.6Z" transform="translate(1.7)"/><path class="cls-29" d="M124.39,186.13,82.15,161.7V112.84l42.24-24.43,42.23,24.43V161.7ZM84.27,160.47l40.12,23.21,40.11-23.21V114.06l-40.11-23.2-40.12,23.2Z" transform="translate(1.7)"/><path class="cls-29" d="M82.81,115,40.57,90.54V41.68L82.81,17.25l42.24,24.43V90.54ZM42.69,89.32l40.12,23.2,40.12-23.2V42.91L82.81,19.7,42.69,42.91Z" transform="translate(1.7)"/><path class="cls-29" d="M247.3,543.44,205.3,519V470.16l42-24.43,42,24.43V519Zm-40-25.65,40,23.2,40-23.2V471.38l-40-23.2-40,23.2Z" transform="translate(1.7)"/><path class="cls-29" d="M206,614.92,163.8,590.49V541.63L206,517.2l42.23,24.43v48.86Zm-40.12-25.66L206,612.47l40.11-23.21V542.85L206,519.65l-40.12,23.2Z" transform="translate(1.7)"/><path class="cls-29" d="M206.3,472.28l-42-24.42V399l42-24.43,42,24.43v48.86Zm-39-25.65,39.5,23.21,39.5-23.21V400.22L206.8,377l-39.5,23.2Z" transform="translate(1.7)"/><path class="cls-29" d="M164.46,543.76l-42.24-24.43V470.47L164.46,446l42.24,24.43v48.86Zm-40.12-25.65,40.12,23.2,40.12-23.2V471.7l-40.12-23.21L124.34,471.7Z" transform="translate(1.7)"/><path class="cls-29" d="M412.3,543.44,370.3,519V470.16l42-24.43,42,24.43V519Zm-40-25.65,40,23.2,40-23.2V471.38l-40-23.2-40,23.2Z" transform="translate(1.7)"/><path class="cls-29" d="M370.57,614.92l-42.24-24.43V541.63l42.24-24.43,42.23,24.43v48.86Zm-40.12-25.66,40.12,23.21,40.11-23.21V542.85l-40.11-23.2-40.12,23.2Z" transform="translate(1.7)"/><path class="cls-29" d="M370.8,472.29l-42.5-24.44V399l42.5-24.43L413.3,399v48.85Zm-40.5-25.66,40,23.2,40-23.2V400.22l-40-23.2-40,23.2Z" transform="translate(1.7)"/><path class="cls-29" d="M290.3,472.28l-42-24.42V399l42-24.43,42,24.43v48.86Zm-40-25.65,40,23.21,40-23.21V400.22l-40-23.2-40,23.2Z" transform="translate(1.7)"/><path class="cls-29" d="M329,543.76l-42.23-24.43V470.47L329,446l42.24,24.43v48.86Zm-40.11-25.65L329,541.31l40.12-23.2V471.7L329,448.49,288.88,471.7Z" transform="translate(1.7)"/><path class="cls-29" d="M577.3,543.44,534.3,519V470.15l43-24.42,43,24.42V519Zm-41-25.66,41,23.22,41-23.22v-46.4l-41-23.21-41,23.21Z" transform="translate(1.7)"/><path class="cls-29" d="M535.1,614.92l-42.23-24.43V541.63L535.1,517.2l42.24,24.43v48.86ZM495,589.26l40.11,23.21,40.12-23.21V542.85l-40.12-23.2L495,542.85Z" transform="translate(1.7)"/><path class="cls-29" d="M535.3,472.29l-41-24.44V399l41-24.43,41,24.43v48.85Zm-39-25.66,39,23.2,39-23.2V400.22l-39-23.2-39,23.2Z" transform="translate(1.7)"/><path class="cls-29" d="M617.8,472.29l-42.5-24.44V399l42.5-24.43L660.3,399v48.85Zm-40.5-25.66,40.5,23.2,40.5-23.2V400.22L617.8,377l-40.5,23.2Z" transform="translate(1.7)"/><path class="cls-29" d="M454.3,472.28l-42-24.42V399l42-24.43,42,24.43v48.86Zm-41-25.65,40.5,23.21,40.5-23.21V400.22L453.8,377l-40.5,23.2Z" transform="translate(1.7)"/><path class="cls-29" d="M493.53,543.76l-42.24-24.43V470.47L493.53,446l42.23,24.43v48.86Zm-40.12-25.65,40.12,23.2,40.11-23.2V471.7l-40.11-23.21L453.41,471.7Z" transform="translate(1.7)"/><path class="cls-29" d="M741.3,543.44,699.3,519V470.16l42-24.43,42,24.43V519Zm-40-25.65,40,23.2,40-23.2V471.38l-40-23.2-40,23.2Z" transform="translate(1.7)"/><path class="cls-29" d="M700.78,614.92l-42.24-24.43V541.63l42.24-24.43L743,541.63v48.86Zm-40.12-25.66,40.12,23.21,40.12-23.21V542.85l-40.12-23.2-40.12,23.2Z" transform="translate(1.7)"/><path class="cls-29" d="M701.3,472.28l-43-24.42V399l43-24.41,43,24.41v48.87Zm-41-25.65,41,23.21,41-23.21v-46.4L701.3,377l-41,23.22Z" transform="translate(1.7)"/><path class="cls-29" d="M784.3,472.28l-42-24.42V399l42-24.43,42,24.43v48.86Zm-40-25.65,40,23.21,40-23.21V400.22l-40-23.2-40,23.2Z" transform="translate(1.7)"/><path class="cls-29" d="M619.3,472.28l-43-24.42V399l43-24.43,43,24.43v48.86Zm-41-25.65,41,23.21,41-23.21V400.22l-41-23.2-41,23.2Z" transform="translate(1.7)"/><path class="cls-29" d="M659.2,543.76,617,519.33V470.47L659.2,446l42.24,24.43v48.86Zm-40.11-25.65,40.11,23.2,40.12-23.2V471.7L659.2,448.49,619.09,471.7Z" transform="translate(1.7)"/><path class="cls-29" d="M165.66,687.06l-42.24-24.43V613.77l42.24-24.43,42.23,24.43v48.86Zm-40.12-25.65,40.12,23.2,40.11-23.2V615l-40.11-23.21L125.54,615Z" transform="translate(1.7)"/><path class="cls-29" d="M124.88,758.53,82.65,734.1V685.25l42.23-24.43,42.24,24.43V734.1ZM84.77,732.88l40.11,23.2L165,732.88V686.47l-40.12-23.2-40.11,23.2Z" transform="translate(1.7)"/><path class="cls-29" d="M124.08,615.9,81.85,591.47V542.62l42.23-24.43,42.24,24.43v48.85ZM84,590.25l40.11,23.2,40.12-23.2V543.84l-40.12-23.2L84,543.84Z" transform="translate(1.7)"/><path class="cls-29" d="M83.31,687.37,41.07,663V614.09l42.24-24.43,42.23,24.43V663ZM43.19,661.72l40.12,23.21,40.11-23.21V615.31l-40.11-23.2-40.12,23.2Z" transform="translate(1.7)"/><path class="cls-29" d="M329.51,687.06l-42.23-24.43V613.77l42.23-24.43,42.24,24.43v48.86ZM289.4,661.41l40.11,23.2,40.12-23.2V615l-40.12-23.21L289.4,615Z" transform="translate(1.7)"/><path class="cls-29" d="M288.74,758.53,246.5,734.1V685.25l42.24-24.43L331,685.25V734.1Zm-40.12-25.65,40.12,23.2,40.11-23.2V686.47l-40.11-23.2-40.12,23.2Z" transform="translate(1.7)"/><path class="cls-29" d="M206.83,758.53,164.6,734.1V685.25l42.23-24.43,42.24,24.43V734.1Zm-40.11-25.65,40.11,23.2L247,732.88V686.47l-40.12-23.2-40.11,23.2Z" transform="translate(1.7)"/><path class="cls-29" d="M287.94,615.9,245.7,591.47V542.62l42.24-24.43,42.23,24.43v48.85Zm-40.12-25.65,40.12,23.2,40.11-23.2V543.84l-40.11-23.2-40.12,23.2Z" transform="translate(1.7)"/><path class="cls-29" d="M247.16,687.37,204.93,663V614.09l42.23-24.43,42.24,24.43V663Zm-40.11-25.65,40.11,23.21,40.12-23.21V615.31l-40.12-23.2-40.11,23.2Z" transform="translate(1.7)"/><path class="cls-29" d="M493,687.06l-42.24-24.43V613.77L493,589.34l42.23,24.43v48.86Zm-40.12-25.65L493,684.61l40.11-23.2V615L493,591.79,452.85,615Z" transform="translate(1.7)"/><path class="cls-29" d="M452.19,758.53,410,734.1V685.25l42.23-24.43,42.24,24.43V734.1Zm-40.11-25.65,40.11,23.2,40.12-23.2V686.47l-40.12-23.2-40.11,23.2Z" transform="translate(1.7)"/><path class="cls-29" d="M370.29,758.53,328.05,734.1V685.25l42.24-24.43,42.23,24.43V734.1Zm-40.12-25.65,40.12,23.2,40.12-23.2V686.47l-40.12-23.2-40.12,23.2Z" transform="translate(1.7)"/><path class="cls-29" d="M451.39,615.9l-42.23-24.43V542.62l42.23-24.43,42.24,24.43v48.85Zm-40.11-25.65,40.11,23.2,40.12-23.2V543.84l-40.12-23.2-40.11,23.2Z" transform="translate(1.7)"/><path class="cls-29" d="M410.62,687.37,368.38,663V614.09l42.24-24.43,42.23,24.43V663ZM370.5,661.72l40.12,23.21,40.11-23.21V615.31l-40.11-23.2-40.12,23.2Z" transform="translate(1.7)"/><path class="cls-29" d="M658.65,687.06l-42.23-24.43V613.77l42.23-24.43,42.24,24.43v48.86Zm-40.11-25.65,40.11,23.2,40.12-23.2V615l-40.12-23.21L618.54,615Z" transform="translate(1.7)"/><path class="cls-29" d="M617.88,758.53,575.64,734.1V685.25l42.24-24.43,42.23,24.43V734.1Zm-40.12-25.65,40.12,23.2L658,732.88V686.47l-40.11-23.2-40.12,23.2Z" transform="translate(1.7)"/><path class="cls-29" d="M536,758.53,493.74,734.1V685.25L536,660.82l42.24,24.43V734.1Zm-40.11-25.65L536,756.08l40.12-23.2V686.47L536,663.27l-40.11,23.2Z" transform="translate(1.7)"/><path class="cls-29" d="M617.08,615.9l-42.24-24.43V542.62l42.24-24.43,42.23,24.43v48.85ZM577,590.25l40.12,23.2,40.11-23.2V543.84l-40.11-23.2L577,543.84Z" transform="translate(1.7)"/><path class="cls-29" d="M576.3,687.37,534.07,663V614.09l42.23-24.43,42.24,24.43V663Zm-40.12-25.65,40.12,23.21,40.12-23.21V615.31l-40.12-23.2-40.12,23.2Z" transform="translate(1.7)"/><path class="cls-29" d="M123.3,472.28l-44-24.42V399l44-24.43,44,24.43v48.86Zm-42-25.65,41.5,23.21,41.5-23.21V400.22L122.8,377l-41.5,23.2Z" transform="translate(1.7)"/><path class="cls-29" d="M82.11,543.76,39.87,519.33V470.47L82.11,446l42.23,24.43v48.86ZM42,518.11l40.12,23.2,40.11-23.2V471.7L82.11,448.49,42,471.7Z" transform="translate(1.7)"/><path class="cls-29" d="M40.53,472.6-1.7,448.17V399.32l42.23-24.43,42.24,24.43v48.85ZM.42,447l40.11,23.2L80.65,447V400.54l-40.12-23.2L.42,400.54Z" transform="translate(1.7)"/><polygon class="cls-41" points="629.79 369.58 663.54 389.02 697.21 369.43 697.12 330.38 663.37 310.93 629.71 330.53 629.79 369.58"/><polygon class="cls-42" points="545.24 369.76 578.99 389.21 612.66 369.61 612.57 330.57 578.82 311.12 545.16 330.72 545.24 369.76"/><polygon class="cls-43" points="466.4 369.94 500.15 389.39 533.82 369.79 533.73 330.75 499.98 311.3 466.32 330.9 466.4 369.94"/><polygon class="cls-44" points="423.15 443.16 456.9 462.61 490.56 443.01 490.48 403.97 456.73 384.52 423.06 404.12 423.15 443.16"/><polygon class="cls-45" points="378.63 512.95 412.38 532.4 446.05 512.8 445.96 473.76 412.21 454.31 378.55 473.91 378.63 512.95"/><polygon class="cls-46" points="588.51 299.97 622.26 319.42 655.92 299.82 655.83 260.77 622.08 241.33 588.42 260.93 588.51 299.97"/><polygon class="cls-47" points="503.95 300.16 537.7 319.61 571.37 300.01 571.28 260.96 537.53 241.52 503.87 261.11 503.95 300.16"/><polygon class="cls-48" points="504.27 442.98 538.02 462.43 571.69 442.83 571.6 403.79 537.85 384.34 504.19 403.94 504.27 442.98"/><polygon class="cls-49" points="588.83 442.79 622.58 462.24 656.24 442.64 656.15 403.6 622.4 384.15 588.74 403.75 588.83 442.79"/><polygon class="cls-50" points="588.83 585.69 622.58 605.13 656.24 585.54 656.15 546.49 622.4 527.04 588.74 546.64 588.83 585.69"/><polygon class="cls-51" points="544.86 513.63 578.61 533.08 612.27 513.48 612.18 474.43 578.43 454.99 544.77 474.58 544.86 513.63"/><polygon class="cls-52" points="462.04 512.77 495.79 532.21 529.46 512.62 529.37 473.57 495.62 454.12 461.95 473.72 462.04 512.77"/><polygon class="cls-53" points="503.95 585.73 537.7 605.17 571.37 585.57 571.28 546.53 537.53 527.08 503.87 546.68 503.95 585.73"/><path class="cls-39" d="M629.2,280c0,10.85-4,16.84-11.09,16.84-6.24,0-10.46-5.84-10.56-16.4s4.62-16.59,11.1-16.59C625.38,263.88,629.2,269.87,629.2,280Zm-17.33.49c0,8.3,2.56,13,6.48,13,4.42,0,6.53-5.15,6.53-13.31,0-7.85-2-13-6.48-13C614.62,267.21,611.87,271.83,611.87,280.52Z" transform="translate(1.7)"/><path class="cls-39" d="M670.54,350c0,10.85-4,16.84-11.09,16.84-6.24,0-10.46-5.84-10.56-16.4s4.62-16.59,11.1-16.59C666.71,333.85,670.54,339.84,670.54,350Zm-17.33.49c0,8.3,2.56,13,6.48,13,4.42,0,6.53-5.15,6.53-13.3,0-7.86-2-13-6.48-13C656,337.19,653.21,341.8,653.21,350.49Z" transform="translate(1.7)"/><path class="cls-39" d="M631.61,422.85c0,10.85-4,16.84-11.09,16.84-6.24,0-10.46-5.84-10.56-16.4s4.62-16.59,11.1-16.59C627.78,406.7,631.61,412.69,631.61,422.85Zm-17.33.49c0,8.3,2.55,13,6.48,13,4.42,0,6.53-5.15,6.53-13.3,0-7.86-2-13-6.48-13C617,410,614.28,414.65,614.28,423.34Z" transform="translate(1.7)"/><path class="cls-39" d="M546.74,568.27c0,10.85-4,16.83-11.09,16.83-6.24,0-10.46-5.84-10.56-16.39,0-10.7,4.62-16.6,11.1-16.6C542.91,552.11,546.74,558.1,546.74,568.27Zm-17.33.49c0,8.29,2.55,13,6.48,13,4.42,0,6.53-5.16,6.53-13.31,0-7.85-2-13-6.48-13C532.16,555.45,529.41,560.07,529.41,568.76Z" transform="translate(1.7)"/><path class="cls-39" d="M504.83,491c0,10.85-4,16.83-11.1,16.83-6.23,0-10.45-5.84-10.55-16.39s4.61-16.6,11.09-16.6C501,474.84,504.83,480.83,504.83,491Zm-17.33.49c0,8.29,2.55,13,6.48,13,4.42,0,6.53-5.16,6.53-13.31,0-7.85-2-13-6.48-13C490.25,478.18,487.5,482.8,487.5,491.49Z" transform="translate(1.7)"/><path class="cls-39" d="M421.42,491c0,10.85-4,16.83-11.1,16.83-6.23,0-10.45-5.84-10.55-16.39s4.61-16.6,11.09-16.6C417.59,474.84,421.42,480.83,421.42,491Zm-17.33.49c0,8.29,2.55,13,6.48,13,4.42,0,6.53-5.16,6.53-13.31,0-7.85-2-13-6.48-13C406.84,478.18,404.09,482.8,404.09,491.49Z" transform="translate(1.7)"/><path class="cls-39" d="M531.74,268.44h-.1l-5.54,3-.84-3.29,7-3.73h3.69v31.91h-4.18Z" transform="translate(1.7)"/><path class="cls-39" d="M450.82,411.27h-.09l-5.55,3-.84-3.29,7-3.73H455v31.91h-4.18Z" transform="translate(1.7)"/><path class="cls-39" d="M618,556.68h-.1l-5.55,3-.83-3.29,7-3.73h3.68v31.91H618Z" transform="translate(1.7)"/></g><path class="cls-54" d="M768.28,716.61c6.1-25.53,3.24-50.55-6.29-70a74.5,74.5,0,0,1-4.12-55.81q.95-2.89,1.67-5.94c7.34-30.7-5.53-60.08-28.74-65.63s-48,14.86-55.29,45.56a73.78,73.78,0,0,0-2,18.47,74.84,74.84,0,0,1-19.08,51.81c-11.47,12.61-20.41,29.22-25,48.36-6.82,28.54-2.43,56.45,9.94,76.65A73.29,73.29,0,0,1,648.93,785c2.71,14.62,11.91,26.29,24.94,29.4,14,3.36,28.63-4.18,37.58-17.86a78.35,78.35,0,0,1,19-19.89C748,763.62,762.12,742.42,768.28,716.61Z" transform="translate(1.7)"/><path class="cls-55" d="M731.13,553.84c-1.82,21-4.31,42-7,62.87-.68,5.23-1.44,10.45-2.18,15.67l-1.11,7.83L719.65,648c-.81,5.21-1.54,10.43-2.41,15.63l-2.59,15.61C712.78,689.65,711,700,709,710.39c-1,5.17-1.94,10.36-3.06,15.52l-3.31,15.47c-4.61,20.58-9.75,41.06-15.91,61.24l-.87-.26,4-15.27,1-3.82.92-3.84,1.83-7.68,1.84-7.68c.62-2.55,1.14-5.14,1.72-7.7,1.12-5.15,2.27-10.28,3.36-15.44,4.2-20.63,8.13-41.32,11.63-62.09,1.67-10.4,3.43-20.78,5-31.19l1.22-7.8,1.15-7.82c.78-5.21,1.55-10.42,2.27-15.63q2.29-15.64,4.36-31.3t4-31.35Z" transform="translate(1.7)"/><path class="cls-36" d="M761.29,782.89c8.64-11.89,12.55-25.44,11.83-37.53A41.79,41.79,0,0,1,783,715.63c.74-.87,1.46-1.77,2.14-2.72,10.4-14.3,10.08-32.24-.7-40.08s-28-2.6-38.34,11.7a41.25,41.25,0,0,0-5,9.12,42,42,0,0,1-21,22.69A61.51,61.51,0,0,0,696.77,736c-9.67,13.29-13.41,28.66-11.38,41.75a41.13,41.13,0,0,1-.41,14.92c-1.75,8.14.49,16.14,6.54,20.54,6.53,4.75,15.68,4,23.24-1.18a43.8,43.8,0,0,1,14.09-6.2C740.71,802.85,752.55,794.91,761.29,782.89Z" transform="translate(1.7)"/><path class="cls-55" d="M777.16,690.79c-5.46,10.47-11.25,20.76-17.15,31-1.48,2.55-3,5.09-4.5,7.63l-2.26,3.81L751,737c-1.54,2.52-3,5.06-4.61,7.56l-4.7,7.51c-3.19,5-6.35,10-9.64,14.87-1.64,2.46-3.23,4.94-4.92,7.37l-5,7.29c-6.81,9.65-13.87,19.13-21.39,28.24l-.39-.31,5.37-7,1.34-1.75,1.3-1.79,2.6-3.58,2.6-3.57c.87-1.19,1.7-2.41,2.55-3.62,1.68-2.42,3.39-4.82,5.06-7.25q9.92-14.66,19.37-29.61c3.1-5,6.24-10,9.31-15.05l2.31-3.77,2.27-3.79c1.52-2.53,3-5.06,4.54-7.6q4.54-7.59,9-15.25t8.83-15.33Z" transform="translate(1.7)"/><path class="cls-56" d="M190.21,815.05c-9.31,1.16-25.47,3.07-38.23,4.1-7.67.63-12.12,0-14.71-.89q0,.43.06.81a2.65,2.65,0,0,0,2.6,2.41,449.76,449.76,0,0,0,50.19-1.81,1.89,1.89,0,0,0,1.43-2.89A17.49,17.49,0,0,0,190.21,815.05Z" transform="translate(1.7)"/><path class="cls-57" d="M152,819.15c12.76-1,28.92-2.94,38.23-4.1-9.6-10.92-39-17.44-39-17.44l-8.23.31a34.6,34.6,0,0,0-5.68,20.34C139.86,819.19,144.31,819.78,152,819.15Z" transform="translate(1.7)"/><path class="cls-58" d="M141.06,784.53l1.34,15.22a3.48,3.48,0,0,0,3.09,3.16,13.68,13.68,0,0,0,6.17-.74,4.11,4.11,0,0,0,2.65-3.27L156.42,784Z" transform="translate(1.7)"/><path class="cls-59" d="M35.43,823.35c-4.07-.41-6-2.45-6.83-4.67v.06c-.51,2.4,1,4.81,3.77,5.87a23.2,23.2,0,0,0,9.87,1.18,9.77,9.77,0,0,0,7.24-3.67l0,0C46.5,823.71,42.22,824.05,35.43,823.35Z" transform="translate(1.7)"/><path class="cls-60" d="M53.24,787.68l-6.79.26c-10.35.17-16,22.22-17.85,30.74.85,2.22,2.76,4.26,6.83,4.67,6.79.7,11.07.36,14.07-1.26,5.31-7.56,7.68-18.43,8.78-24.76A8.58,8.58,0,0,0,53.24,787.68Z" transform="translate(1.7)"/><path class="cls-61" d="M46.8,773.75l-3.22,15.14a4.08,4.08,0,0,0,2.29,4.53c2.15,1,5.16,2,7.88,1.6a3.38,3.38,0,0,0,2.68-2.37l5-16Z" transform="translate(1.7)"/><path class="cls-62" d="M42.46,778.25c4.84,4,20.12,4,20.12,4,50.07-133.93,71.85-153.5,71.85-153.5-6.09,50.08,4.65,160,4.65,160,9.21,3.67,20.76-.77,20.76-.77a849.83,849.83,0,0,1,20.33-209.64c-37.17.54-57.39-11.44-64-16.3C87,613.12,42.46,778.25,42.46,778.25Z" transform="translate(1.7)"/><path class="cls-63" d="M120,410c-5.73,35.32-.89,98,1.82,126.55.77,8-4.44,19.39-8.69,27.17a2.38,2.38,0,0,0,1.08,3.32c7.75,3.63,34,14.78,63.85,15.18a4.25,4.25,0,0,0,4.16-3.33C201.26,495.45,225,441.68,225,441.68,195,397.4,120,410,120,410Z" transform="translate(1.7)"/><path class="cls-64" d="M138.07,625.47a1.8,1.8,0,0,1-.93-.22,1.77,1.77,0,0,1-.68-2.4,55.3,55.3,0,0,1,21.09-19.72,1.76,1.76,0,1,1,1.65,3.11,52.67,52.67,0,0,0-19.66,18.33A1.75,1.75,0,0,1,138.07,625.47Z" transform="translate(1.7)"/><path class="cls-65" d="M79.59,512.31a135.46,135.46,0,0,0,24.64,56.34l7.31-4.38s-9.53-27.58-7.2-54.67C96.05,508.3,86.39,510.31,79.59,512.31Z" transform="translate(1.7)"/><path class="cls-66" d="M129.41,453,120,410s-51,42-40.37,102.27c6.8-2,16.46-4,24.75-2.71C106,490.09,112.41,468.73,129.41,453Z" transform="translate(1.7)"/><path class="cls-67" d="M225,441.68,206.38,486c4.25,26.21,18.81,37.07,34.23,40.87a92.35,92.35,0,0,1,5.75-28.65C226.12,478.86,225,441.68,225,441.68Z" transform="translate(1.7)"/><path class="cls-68" d="M246.36,498.26a92.35,92.35,0,0,0-5.75,28.65c41.27,14.28,50.9-16.73,50.9-16.73l-7.57-1.05C267,511.55,255,506.51,246.36,498.26Z" transform="translate(1.7)"/><path class="cls-69" d="M204.36,388.53l-8.44,36.3a7,7,0,0,1-9.18,5,142.73,142.73,0,0,1-14.33-5.91,9.43,9.43,0,0,1-3.82-13.42l19.2-31.06Z" transform="translate(1.7)"/><path class="cls-70" d="M224.74,360.43c.11.61-6.64,41.31-6.64,41.31L195,397.4l.66-39.53S222.87,350.15,224.74,360.43Z" transform="translate(1.7)"/><path class="cls-71" d="M201.1,366.47l-2,20.78a3,3,0,0,0,0,.79c.29,1.61,1.7,7.09,7.21,5.3,5-1.62,9.59-3,12.83-2.16a2.91,2.91,0,0,1,2.12,3.3,126.18,126.18,0,0,1-4.58,19,2.91,2.91,0,0,1-3.47,1.85c-4.4-1.11-13.62-3.7-20.55-7.53a2.93,2.93,0,0,1-1.52-2.57c0-5.23.05-21.12-.62-25.55-.64-4.16-5.86-6.47-8.12-7.28a2.87,2.87,0,0,1-1.65-1.54c-1.13-2.55-2.77-8.47,4.67-11.2a2.92,2.92,0,0,0,1.71-3.84c-1.23-3.07-1.88-7.79,3.86-10.62s10.36.12,12.85,2.6a2.92,2.92,0,0,0,3.73.3,2.29,2.29,0,0,1,2.62,0,2.87,2.87,0,0,0,4-1.38c1.31-3,4.09-6.19,9.92-5.41,10.36,1.38,11.95,12.74,9.48,19.52s-13.61,4.65-19.28,1.49c-4.31-2.41-9.67.48-12,2A2.92,2.92,0,0,0,201.1,366.47Z" transform="translate(1.7)"/><path class="cls-72" d="M189.93,387.26s3.79-12-.66-14.74-10.84-1-9.1,7.53C182.33,390.66,189.93,387.26,189.93,387.26Z" transform="translate(1.7)"/><path class="cls-73" d="M489.45,331.48a10.29,10.29,0,0,1,14.19,5l1.53,3.54a10.27,10.27,0,0,1-3.48,12.46l-10.33,7.35-10.3-24Z" transform="translate(1.7)"/><path class="cls-74" d="M428.66,372.59,104.05,570.22a27.09,27.09,0,0,0-7.93,39.13l1.53,2.11A25.52,25.52,0,0,0,133.29,617L441.73,391.74Z" transform="translate(1.7)"/><path class="cls-75" d="M110.61,606.06a1.36,1.36,0,0,1-.35,0c-10.35-1.38-13.76-6.66-14.8-10.83a15,15,0,0,1,6.73-16.17l27.17-17.49a1.07,1.07,0,0,1,1.15,1.8l-27.16,17.48a12.92,12.92,0,0,0-5.82,13.86c1.28,5.14,5.65,8.25,13,9.23a1.08,1.08,0,0,1,.92,1.2A1.1,1.1,0,0,1,110.61,606.06Z" transform="translate(1.7)"/><path class="cls-39" d="M138.52,558.14a1.08,1.08,0,0,1-1.11-.47,1.07,1.07,0,0,1,.32-1.48l3.52-2.26a1.06,1.06,0,1,1,1.15,1.79L138.88,558A1.14,1.14,0,0,1,138.52,558.14Z" transform="translate(1.7)"/><path class="cls-76" d="M335.27,186.08C532.55,325.76,572.12,507.39,578,542.14a8.91,8.91,0,0,1-3.9,9.07,3,3,0,0,1-4.22-.94L470,399.71c-2-3-6.55-3.36-9.66-1.29L434.9,415.28a6.82,6.82,0,0,1-9.39-1.55L402.32,378.8c-2-3-.87-7.13,2.25-9.2L430,352.74c3.12-2.06,4.5-6.49,2.53-9.45L330.6,189.86a2.74,2.74,0,0,1,.69-3.94A3.36,3.36,0,0,1,335.27,186.08Z" transform="translate(1.7)"/><path class="cls-55" d="M562.55,515.1h0c.87-.18,1.49-.62,1.29-1.48-16.73-71.84-59.5-129.46-59.93-130a1.56,1.56,0,0,0-2.21-.22,1.67,1.67,0,0,0-.31,2.3c.42.57,42.75,57.48,59.33,128.64C561,515.15,561.7,515.27,562.55,515.1Z" transform="translate(1.7)"/><path class="cls-77" d="M279.11,516.2c2.56,1.69,11-2.35,16.09-5.13a5.33,5.33,0,0,0,2.66-6.62c-1.39-3.58-3.66-8.2-6.26-8.7C287.28,494.93,268.57,509.22,279.11,516.2Z" transform="translate(1.7)"/><path class="cls-78" d="M103.78,566.71l1.79-2.41L122,554.65a10.71,10.71,0,0,1,8.53-1l8.87,2.7s-.73,4.08-8.41,5.63a109.1,109.1,0,0,0-17.25,5.64s-5.29,6.29-9.31,3.46a3.08,3.08,0,0,1-.69-4.37Z" transform="translate(1.7)"/></g></g></svg>