<svg xmlns="http://www.w3.org/2000/svg" xmlns:xlink="http://www.w3.org/1999/xlink" viewBox="0 0 821.55 833.49"><defs><style>.cls-1{isolation:isolate;}.cls-2{fill:url(#linear-gradient);}.cls-3{fill:#91b3fa;}.cls-4{fill:#fff;mix-blend-mode:soft-light;}.cls-5{fill:#bdd0fb;}.cls-6{fill:url(#linear-gradient-2);}.cls-7{fill:#7d97f4;}.cls-8{fill:url(#linear-gradient-3);}.cls-9{fill:#872b4d;}.cls-10{fill:url(#linear-gradient-4);}.cls-11{fill:url(#linear-gradient-5);}.cls-12{fill:url(#linear-gradient-6);}.cls-13{fill:url(#linear-gradient-7);}.cls-14{fill:url(#linear-gradient-8);}.cls-15{fill:url(#linear-gradient-9);}.cls-16{fill:url(#linear-gradient-10);}.cls-17{fill:url(#linear-gradient-11);}.cls-18{fill:url(#linear-gradient-12);}.cls-19{fill:url(#linear-gradient-13);}.cls-20{fill:url(#linear-gradient-14);}.cls-21{fill:url(#linear-gradient-15);}.cls-22{fill:url(#linear-gradient-16);}</style><linearGradient id="linear-gradient" x1="891.64" y1="844.67" x2="277.44" y2="307.25" gradientUnits="userSpaceOnUse"><stop offset="0" stop-color="#dae3fe"/><stop offset="1" stop-color="#e9effd"/></linearGradient><linearGradient id="linear-gradient-2" x1="469.85" y1="-101.98" x2="413.84" y2="810.02" gradientUnits="userSpaceOnUse"><stop offset="0" stop-color="#09005d"/><stop offset="1" stop-color="#1a0f91"/></linearGradient><linearGradient id="linear-gradient-3" x1="158.19" y1="542.22" x2="160.23" y2="506.27" xlink:href="#linear-gradient-2"/><linearGradient id="linear-gradient-4" x1="54.49" y1="626.99" x2="171.35" y2="909.27" gradientUnits="userSpaceOnUse"><stop offset="0" stop-color="#febbba"/><stop offset="1" stop-color="#ff928e"/></linearGradient><linearGradient id="linear-gradient-5" x1="-7312.57" y1="626.38" x2="-7195.71" y2="908.67" gradientTransform="matrix(-1, 0, 0, 1, -7050.92, 0)" xlink:href="#linear-gradient-4"/><linearGradient id="linear-gradient-6" x1="170.58" y1="595.81" x2="154.58" y2="746.81" xlink:href="#linear-gradient-2"/><linearGradient id="linear-gradient-7" x1="334" y1="502.16" x2="245.5" y2="865.14" gradientTransform="translate(-0.45 27.92) rotate(0.44)" gradientUnits="userSpaceOnUse"><stop offset="0" stop-color="#4f52ff"/><stop offset="1" stop-color="#4042e2"/></linearGradient><linearGradient id="linear-gradient-8" x1="270.58" y1="696.36" x2="203.17" y2="878.94" xlink:href="#linear-gradient-4"/><linearGradient id="linear-gradient-9" x1="-7503.32" y1="-408.91" x2="-7591.82" y2="-45.93" gradientTransform="matrix(-1, -0.02, -0.02, 1, -7723.46, -79.94)" xlink:href="#linear-gradient-7"/><linearGradient id="linear-gradient-10" x1="135.53" y1="641.34" x2="68.08" y2="824.02" xlink:href="#linear-gradient-4"/><linearGradient id="linear-gradient-11" x1="299.15" y1="692.84" x2="123.92" y2="824.47" gradientTransform="matrix(1, 0, 0, 1, 0, 0)" xlink:href="#linear-gradient-7"/><linearGradient id="linear-gradient-12" x1="140.68" y1="810.9" x2="94.76" y2="693.79" gradientTransform="matrix(1, 0, 0, 1, 0, 0)" xlink:href="#linear-gradient-7"/><linearGradient id="linear-gradient-13" x1="157.08" y1="650.3" x2="155.52" y2="515.01" xlink:href="#linear-gradient-4"/><linearGradient id="linear-gradient-14" x1="249.87" y1="-37.73" x2="254.72" y2="-155.45" gradientTransform="translate(-100.12 572.26) rotate(9.25)" xlink:href="#linear-gradient-4"/><linearGradient id="linear-gradient-15" x1="178.3" y1="430.74" x2="164.56" y2="485.18" xlink:href="#linear-gradient-2"/><linearGradient id="linear-gradient-16" x1="-130.76" y1="1001.49" x2="-123.17" y2="817.01" gradientTransform="translate(133.35 -419.43) rotate(-7.64)" xlink:href="#linear-gradient-4"/></defs><g class="cls-1"><g id="Layer_2" data-name="Layer 2"><g id="Metaphor_illustration" data-name="Metaphor illustration"><path class="cls-2" d="M787.26,565.56c-79.38,186.91-290.83,291.61-474.2,263.37-29.84-4.6-111.64-18.29-184.06-82.87C-10.42,621.72-40.24,375.52,72.23,202,154.08,75.74,300.82,4.16,440.24,7.74c30,.77,145.13,5.53,246.28,88.93a379.09,379.09,0,0,1,77.16,87.55C833,292.66,839,443.75,787.26,565.56Z"/><path class="cls-3" d="M101.64,8.18A4.57,4.57,0,0,1,109,3.53c34.64,28.73,119,116,109.29,278.07C206.11,485,252.71,556.07,307.82,597.78c0,0-73.19-16.71-123-88.67C62.44,332.43,122,84.29,101.64,8.18Z"/><path class="cls-4" d="M130.44,69.7c5.48,22.22,10.52,44.54,14.74,67s8,45,10.93,67.66,5.28,45.36,6.74,68.14S165,318.09,165.51,341s1.14,45.95,4,69,8.48,46.09,18.17,67.44c2.42,5.32,4.95,10.62,7.76,15.72s5.67,10.18,8.71,15.15a240.46,240.46,0,0,0,72.35,75,4.43,4.43,0,0,0,5.05-7.27h0c-4.59-3.28-9.14-6.62-13.53-10.15-2.22-1.73-4.36-3.55-6.53-5.34s-4.28-3.64-6.33-5.57A233.06,233.06,0,0,1,232,530.62a255.79,255.79,0,0,1-35.4-57.12,222.12,222.12,0,0,1-11.24-31.62,253.74,253.74,0,0,1-6.52-33.07c-3-22.39-3.65-45.21-4.45-68.09s-1.82-45.88-3.75-68.79q-1.41-17.19-3.43-34.31c-.64-5.72-1.39-11.41-2.13-17.11s-1.62-11.38-2.49-17.06q-5.3-34-12.69-67.71c-5-22.4-10.67-44.65-17.15-66.66a1.19,1.19,0,0,0-2.29.62Z"/><path class="cls-5" d="M198.71,608.7a11.5,11.5,0,0,1-17.86,6.75c-36.78-26-134.13-109-144.5-264.18-8.76-131-26-201.28-36-232.62a7.21,7.21,0,0,1,11.1-8C73.69,155.56,265,320.35,198.71,608.7Z"/><path class="cls-4" d="M187.74,610.11a3.07,3.07,0,0,1-.51.35,3.18,3.18,0,0,1-4.34-1.21c-1-1.74-98.44-175.83-118.86-357.5a3.19,3.19,0,0,1,6.34-.71C90.63,431.38,187.46,604.39,188.44,606.12A3.19,3.19,0,0,1,187.74,610.11Z"/><path class="cls-6" d="M184.64,41.37C181.9,170.7,173,616.79,177.26,774.87c.45,16.74,11.92,30.18,26.24,30.73,70.8,2.71,330.35,9.58,446.16,3.9,24.12-1.18,43.31-24,43.81-52.28,2.4-135.74,7.71-517.53-4.91-692.43-1.51-21-15.57-37.65-33.46-39.74C578,16,317.32-6,217.27,1.56,199.23,2.93,185.09,20.23,184.64,41.37Z"/><path class="cls-7" d="M216.23,81.05c-3.81,104.38-15.83,451.65-12,580.06.55,18.76,13.2,33.94,29.23,35,66,4.51,291.1,14.47,387.88,5.41,17.43-1.63,31.11-18.12,32-38.55,4.9-106.49,19-429.84,15.33-556.81-.59-20.25-14-36.8-31.25-38.61-71.39-7.5-310.61-25.34-392.85-20.09C229.17,48.49,216.89,63,216.23,81.05Z"/><path class="cls-7" d="M380,26.31h0c0,4,2.65,7.24,6,7.44,16.73,1,63.84,3.93,84.89,5.36,4.15.28,7.41-4.09,6.62-8.86l-.13-.82c-.54-3.26-2.85-5.71-5.68-6-14.23-1.53-57.17-5.76-85.62-4.57C382.68,19,380,22.31,380,26.31Z"/><path class="cls-3" d="M620.5,382.88,248,375.19a17.88,17.88,0,0,1-17.7-17.69V253.15a17.89,17.89,0,0,1,18.24-17.69L621,238.72A17.87,17.87,0,0,1,639,256.41V365.2A17.89,17.89,0,0,1,620.5,382.88Z"/><path class="cls-3" d="M616.42,541.13l-371-4.44a18.59,18.59,0,0,1-18.57-18.39V420.15a18.61,18.61,0,0,1,18.88-18.4l371,1.5a18.6,18.6,0,0,1,18.71,18.4V522.73A18.61,18.61,0,0,1,616.42,541.13Z"/><path class="cls-3" d="M612.78,682.63,240.8,677a18.11,18.11,0,0,1-18-17.92V578.92A18.12,18.12,0,0,1,241.22,561l372,2.62a18.12,18.12,0,0,1,18.18,17.93v83.16A18.12,18.12,0,0,1,612.78,682.63Z"/><path class="cls-3" d="M624.3,218H250.79a15.92,15.92,0,0,1-16-15.83V88.41a15.93,15.93,0,0,1,16.49-15.83L624.78,83.66a15.92,15.92,0,0,1,15.54,15.83V202.21A15.93,15.93,0,0,1,624.3,218Z"/><path class="cls-8" d="M131.85,498.52c-.29.53-18.11,13.65-18.11,13.65s3.94,28.15,19.92,39.26C151.23,563.66,176,541.37,176,541.37s19.74,4.69,30.25-36.41c2.4-9.43-11.5-10.23-28.29-8.49C156.36,498.71,131.85,498.52,131.85,498.52Z"/><path class="cls-9" d="M98.54,594.56a75.41,75.41,0,0,1,22.85-10.63c3.07-.83,19.64,4,29.88,3.75,14.06-.32,28.38-6.72,40-3.83s20.94,6.61,26.38,10.48c16.29,11.59,25.85,33.19,31.68,54.58a74.55,74.55,0,0,1-24.93,16.36l-2.56,104-61.5,31.46L90.12,765.49l2.52-101.63s-22.29-10.38-23.93-14.15S78.87,608.09,98.54,594.56Z"/><path class="cls-10" d="M69.75,649.25S39.88,732.06,108,766.09c14.15-1.88,8.71-25.36,8.71-25.36S87.1,734.18,96,665.1C87.81,658.37,69.75,649.25,69.75,649.25Z"/><path class="cls-11" d="M247.86,649.25s20.55,86.44-38.24,116.84c-14.15-1.88-8.71-25.36-8.71-25.36S224.77,729,221.62,665.1C229.8,658.37,247.86,649.25,247.86,649.25Z"/><path class="cls-12" d="M93.37,680.84H220.11a4.06,4.06,0,0,1,4.06,4.06v83a4.05,4.05,0,0,1-4.05,4.05H93.37a4.05,4.05,0,0,1-4.05-4.05v-83A4.05,4.05,0,0,1,93.37,680.84Z"/><path class="cls-13" d="M283.31,798.91c-15.43-3.54-51.1-1.64-51.1-1.64l-1.45,3.93-2.4,19.53s34,6.12,50.71,6.11a15.86,15.86,0,0,0,4.7-.71,20.06,20.06,0,0,0,1.48-1.44C292.35,816.93,290.3,805.53,283.31,798.91Z"/><path class="cls-3" d="M284.84,799.3q-.72-.21-1.53-.39c7,6.62,9,18,1.94,25.78a20.06,20.06,0,0,1-1.48,1.44C296.33,822.22,297.82,803,284.84,799.3Z"/><path class="cls-14" d="M222,796.17l6,.26a11.63,11.63,0,0,1,8.49,4.39,14.3,14.3,0,0,1,3.11,9.79,11.27,11.27,0,0,1-3.27,7.45,9.12,9.12,0,0,1-7.06,2.68l-9.25-.66Z"/><path class="cls-15" d="M18.87,797C34.39,794,70,797,70,797l1.35,4,1.91,19.6s-34.11,5.08-50.84,4.55a15.89,15.89,0,0,1-4.68-.85,20.45,20.45,0,0,1-1.45-1.49C9.39,814.76,11.72,803.43,18.87,797Z"/><path class="cls-3" d="M17.33,797.37c.49-.12,1-.23,1.54-.34-7.15,6.4-9.48,17.73-2.58,25.71a20.45,20.45,0,0,0,1.45,1.49C5.28,819.94,4.27,800.62,17.33,797.37Z"/><path class="cls-16" d="M80.27,796.18l-6,.07a11.57,11.57,0,0,0-8.59,4.12,14.25,14.25,0,0,0-3.35,9.7,11.32,11.32,0,0,0,3.08,7.54,9.18,9.18,0,0,0,7,2.9l9.25-.37Z"/><path class="cls-17" d="M287.63,737.69c-7-16.11-24.12-18.72-38.69-11.19-.25.33-92.52,47.62-173.89,68.34a88.42,88.42,0,0,1,3.79,23.23c0,1.74,0,3.46-.08,5.15,62.4-3.21,130.12-24,188.31-42.3C285.12,775.1,295.39,755.54,287.63,737.69Z"/><path class="cls-18" d="M222.41,819.29a53.51,53.51,0,0,1,5.25-25.14c.11-.36.23-.7.35-1-4.65-1.44-10.65-3.39-18.54-6.06-57.78-19.78-101.86-39.74-143.93-62.73-16.34-8.92-34.92-2.94-40.16,16.4-4.67,17.26,5.59,32,21.16,37.18,46.57,15.5,22.32,11.19,37.53,16.09,40.84,12.63,91.67,24.13,138.43,27.27C222.47,820.6,222.43,819.94,222.41,819.29Z"/><path class="cls-19" d="M121.39,583.93s6.21,26.93,36.38,26.37c30.73-.55,33.47-26.45,33.47-26.45l-20.07-4.3-1.68-22.37-30.2,2.24-.55,21.25Z"/><path class="cls-20" d="M143.53,493.81s-34.6,67,6.45,83.29c29,11.47,47.1-44.51,41.69-59.67-8.37-23.44-13.89-20.66-13.89-20.66Z"/><path class="cls-21" d="M200,487.72c17.09,4.69,2.48,41.77-23.26,33s-35.85-8.64-39.86-1.57-4.87,32.16-13.57,19.76c-9.54-13.6-14.86-40.9-3.16-49.7,10.45-7.86,12.89-20.06,25.43-19.63,16.64.56,29.51-6.82,37-1.5C191.23,474.19,187.42,484.26,200,487.72Z"/><path class="cls-22" d="M135.3,524.91s-7.38-7.94-8.56,1.63,2.61,21.9,7,15.14S135.3,524.91,135.3,524.91Z"/><path class="cls-3" d="M164.69,705.5c.72,4.83-1.87,9.22-6.7,9.93A8.83,8.83,0,0,1,148,708c-.72-4.83,1.49-9.63,6.32-10.34A9.51,9.51,0,0,1,164.69,705.5Z"/></g></g></g></svg>