<svg xmlns="http://www.w3.org/2000/svg" xmlns:xlink="http://www.w3.org/1999/xlink" viewBox="0 0 831.3 833.5"><defs><style>.cls-1{isolation:isolate;}.cls-2{fill:url(#linear-gradient);}.cls-3{opacity:0.38;}.cls-4,.cls-6{fill:#fff;}.cls-5{fill:#91b3fa;}.cls-6{mix-blend-mode:soft-light;}.cls-7{fill:#bdd0fb;}.cls-8{fill:url(#linear-gradient-2);}.cls-9{fill:url(#linear-gradient-3);}.cls-10{fill:url(#linear-gradient-4);}.cls-11{fill:url(#linear-gradient-5);}.cls-12{fill:url(#linear-gradient-6);}.cls-13{fill:url(#linear-gradient-7);}.cls-14{fill:url(#linear-gradient-8);}.cls-15{fill:url(#linear-gradient-9);}.cls-16{fill:url(#linear-gradient-10);}.cls-17{fill:url(#linear-gradient-11);}.cls-18{fill:url(#linear-gradient-12);}.cls-19{fill:url(#linear-gradient-13);}.cls-20{fill:url(#linear-gradient-14);}.cls-21{fill:url(#linear-gradient-15);}.cls-22{fill:url(#linear-gradient-16);}.cls-23{fill:url(#linear-gradient-17);}.cls-24{fill:url(#linear-gradient-18);}.cls-25{fill:url(#linear-gradient-19);}.cls-26{fill:url(#linear-gradient-20);}.cls-27{fill:url(#linear-gradient-21);}.cls-28{fill:url(#linear-gradient-22);}.cls-29{fill:url(#linear-gradient-23);}.cls-30{fill:url(#linear-gradient-24);}.cls-31{fill:url(#linear-gradient-25);}.cls-32{fill:url(#linear-gradient-26);}.cls-33{fill:url(#linear-gradient-27);}.cls-34{fill:url(#linear-gradient-28);}.cls-35{fill:url(#linear-gradient-29);}.cls-36{fill:url(#linear-gradient-30);}.cls-37{fill:url(#linear-gradient-31);}.cls-38{fill:url(#linear-gradient-32);}.cls-39{fill:url(#linear-gradient-33);}.cls-40{fill:url(#linear-gradient-34);}.cls-41{fill:url(#linear-gradient-35);}.cls-42{fill:url(#linear-gradient-36);}.cls-43{fill:url(#linear-gradient-37);}.cls-44{fill:url(#linear-gradient-38);}.cls-45{fill:url(#linear-gradient-39);}.cls-46{fill:url(#linear-gradient-40);}.cls-47{fill:url(#linear-gradient-41);}.cls-48{fill:url(#linear-gradient-42);}</style><linearGradient id="linear-gradient" x1="928.39" y1="1056.69" x2="201.07" y2="153.41" gradientUnits="userSpaceOnUse"><stop offset="0" stop-color="#dae3fe"/><stop offset="1" stop-color="#e9effd"/></linearGradient><linearGradient id="linear-gradient-2" x1="371.57" y1="148.45" x2="228.68" y2="566.3" gradientTransform="translate(340.61 -107.55) rotate(45)" gradientUnits="userSpaceOnUse"><stop offset="0" stop-color="#ff928e"/><stop offset="1" stop-color="#bc5a7c"/></linearGradient><linearGradient id="linear-gradient-3" x1="343.68" y1="230.01" x2="256.57" y2="484.75" xlink:href="#linear-gradient-2"/><linearGradient id="linear-gradient-4" x1="325.71" y1="26.59" x2="304.71" y2="298.08" gradientTransform="translate(544.26 -40.36) rotate(71.57)" gradientUnits="userSpaceOnUse"><stop offset="0" stop-color="#e1473d"/><stop offset="1" stop-color="#872b4d"/></linearGradient><linearGradient id="linear-gradient-5" x1="-1336.36" y1="2881.46" x2="-1415.22" y2="3201.85" gradientTransform="translate(1910.77 -3004.86)" gradientUnits="userSpaceOnUse"><stop offset="0" stop-color="#09005d"/><stop offset="1" stop-color="#1a0f91"/></linearGradient><linearGradient id="linear-gradient-6" x1="-1403.6" y1="2948.8" x2="-1427.7" y2="3207.32" gradientTransform="translate(-2739.82 1420.24) rotate(-135)" xlink:href="#linear-gradient-5"/><linearGradient id="linear-gradient-7" x1="-1424.41" y1="3303.76" x2="-1457.26" y2="3656.22" gradientTransform="translate(-2739.82 1420.24) rotate(-135)" gradientUnits="userSpaceOnUse"><stop offset="0" stop-color="#4f52ff"/><stop offset="1" stop-color="#4042e2"/></linearGradient><linearGradient id="linear-gradient-8" x1="-792.46" y1="3303.76" x2="-825.32" y2="3656.22" gradientTransform="matrix(0.71, 0.71, 0.71, -0.71, -1194.34, 2965.72)" xlink:href="#linear-gradient-7"/><linearGradient id="linear-gradient-9" x1="-453.23" y1="328.3" x2="-422.88" y2="404.43" gradientTransform="translate(1114.08)" xlink:href="#linear-gradient-5"/><linearGradient id="linear-gradient-10" x1="-676.4" y1="705.09" x2="-620.34" y2="832.66" gradientTransform="translate(1102.25 -445.43) rotate(-12.16)" gradientUnits="userSpaceOnUse"><stop offset="0" stop-color="#febbba"/><stop offset="1" stop-color="#ff928e"/></linearGradient><linearGradient id="linear-gradient-11" x1="809.05" y1="656.06" x2="781.05" y2="839.06" gradientUnits="userSpaceOnUse"><stop offset="0" stop-color="#cb236d"/><stop offset="1" stop-color="#4c246d"/></linearGradient><linearGradient id="linear-gradient-12" x1="-451.03" y1="917.17" x2="-414" y2="484.34" gradientTransform="translate(1114.08)" xlink:href="#linear-gradient-10"/><linearGradient id="linear-gradient-13" x1="699.93" y1="639.37" x2="671.93" y2="822.37" xlink:href="#linear-gradient-11"/><linearGradient id="linear-gradient-14" x1="-376.54" y1="923.61" x2="-339.49" y2="490.66" gradientTransform="translate(1114.08)" xlink:href="#linear-gradient-10"/><linearGradient id="linear-gradient-15" x1="835.27" y1="404.3" x2="695.78" y2="473.3" gradientTransform="matrix(1, 0, 0, 1, 0, 0)" xlink:href="#linear-gradient-2"/><linearGradient id="linear-gradient-16" x1="-348.11" y1="489.12" x2="-440.7" y2="637.26" gradientTransform="translate(1114.08)" xlink:href="#linear-gradient-7"/><linearGradient id="linear-gradient-17" x1="-455.09" y1="490.53" x2="-448.14" y2="439.63" gradientTransform="translate(1114.08)" xlink:href="#linear-gradient-10"/><linearGradient id="linear-gradient-18" x1="-613.8" y1="727.31" x2="-553.11" y2="619.28" gradientTransform="translate(1107.37 -403.44) rotate(-11.2)" xlink:href="#linear-gradient-10"/><linearGradient id="linear-gradient-19" x1="-600.75" y1="633.23" x2="-570.4" y2="709.37" gradientTransform="translate(1107.37 -403.44) rotate(-11.2)" xlink:href="#linear-gradient-5"/><linearGradient id="linear-gradient-20" x1="-600.88" y1="734.57" x2="-540.18" y2="626.54" gradientTransform="translate(1107.37 -403.44) rotate(-11.2)" xlink:href="#linear-gradient-10"/><linearGradient id="linear-gradient-21" x1="-687.48" y1="709.96" x2="-631.42" y2="837.53" xlink:href="#linear-gradient-10"/><linearGradient id="linear-gradient-22" x1="-3486.9" y1="352.25" x2="-3471.81" y2="352.25" gradientTransform="matrix(-1, 0, 0, 1, -2929.76, 0)" xlink:href="#linear-gradient-10"/><linearGradient id="linear-gradient-23" x1="-1733.9" y1="583.71" x2="-1800.62" y2="601.99" gradientTransform="translate(2391.72 -127.67) rotate(-2.83)" xlink:href="#linear-gradient-5"/><linearGradient id="linear-gradient-24" x1="-1773.13" y1="498.42" x2="-1820.19" y2="548.16" gradientTransform="translate(2371.38)" xlink:href="#linear-gradient-5"/><linearGradient id="linear-gradient-25" x1="-3716.55" y1="556.35" x2="-3571.06" y2="495.49" gradientTransform="matrix(-1, 0, 0, 1, -2929.76, 0)" xlink:href="#linear-gradient-10"/><linearGradient id="linear-gradient-26" x1="-3045.37" y1="508.8" x2="-3103" y2="508.8" gradientTransform="matrix(-1, 0, 0, 1, -2918.57, 0)" gradientUnits="userSpaceOnUse"><stop offset="0" stop-color="#a22b25"/><stop offset="1" stop-color="#c0423c"/></linearGradient><linearGradient id="linear-gradient-27" x1="2555.13" y1="715.41" x2="2556.36" y2="850.94" gradientTransform="translate(-2418.45)" xlink:href="#linear-gradient-5"/><linearGradient id="linear-gradient-28" x1="2526.9" y1="803.47" x2="2542.25" y2="803.47" gradientTransform="translate(-2418.45)" xlink:href="#linear-gradient-26"/><linearGradient id="linear-gradient-29" x1="2509.56" y1="861.87" x2="2520.03" y2="580.8" gradientTransform="translate(-2418.45)" xlink:href="#linear-gradient-5"/><linearGradient id="linear-gradient-30" x1="2479.68" y1="716.1" x2="2480.92" y2="851.62" gradientTransform="translate(-2418.45)" xlink:href="#linear-gradient-5"/><linearGradient id="linear-gradient-31" x1="2471.59" y1="802.68" x2="2484.84" y2="802.68" gradientTransform="translate(-2418.45)" xlink:href="#linear-gradient-26"/><linearGradient id="linear-gradient-32" x1="2483.65" y1="860.9" x2="2494.13" y2="579.84" gradientTransform="translate(-2418.45)" xlink:href="#linear-gradient-5"/><linearGradient id="linear-gradient-33" x1="23.73" y1="574.03" x2="140.04" y2="421.77" gradientTransform="matrix(1, 0, 0, 1, 0, 0)" xlink:href="#linear-gradient-7"/><linearGradient id="linear-gradient-34" x1="-19.58" y1="539.58" x2="95.74" y2="388.63" gradientTransform="matrix(1, 0, 0, 1, 0, 0)" xlink:href="#linear-gradient-7"/><linearGradient id="linear-gradient-35" x1="108.73" y1="493.72" x2="22.73" y2="515.06" gradientTransform="matrix(1, 0, 0, 1, 0, 0)" xlink:href="#linear-gradient-26"/><linearGradient id="linear-gradient-36" x1="229.81" y1="393.9" x2="199.14" y2="426.57" gradientTransform="matrix(1, 0, 0, 1, 0, 0)" xlink:href="#linear-gradient-5"/><linearGradient id="linear-gradient-37" x1="225.26" y1="406.45" x2="145.26" y2="471.78" gradientTransform="matrix(1, 0, 0, 1, 0, 0)" xlink:href="#linear-gradient-26"/><linearGradient id="linear-gradient-38" x1="197.41" y1="470.6" x2="230.74" y2="453.93" gradientTransform="matrix(1, 0, 0, 1, 0, 0)" xlink:href="#linear-gradient-26"/><linearGradient id="linear-gradient-39" x1="103.58" y1="395.94" x2="94.92" y2="447.28" gradientTransform="matrix(1, 0, 0, 1, 0, 0)" xlink:href="#linear-gradient-26"/><linearGradient id="linear-gradient-40" x1="92.01" y1="311.25" x2="113.34" y2="380.58" gradientTransform="matrix(1, 0, 0, 1, 0, 0)" xlink:href="#linear-gradient-26"/><linearGradient id="linear-gradient-41" x1="-3950.56" y1="-281.99" x2="-3938.29" y2="-212.05" gradientTransform="matrix(0.75, -0.67, 0.67, 0.75, 3198.65, -2088.17)" xlink:href="#linear-gradient-5"/><linearGradient id="linear-gradient-42" x1="77.19" y1="315.81" x2="98.52" y2="385.14" gradientTransform="matrix(1, 0, 0, 1, 0, 0)" xlink:href="#linear-gradient-26"/></defs><g class="cls-1"><g id="Layer_2" data-name="Layer 2"><g id="Metaphor_illustration" data-name="Metaphor illustration"><path class="cls-2" d="M734.94,695.83c-17.07,17.33-33.22,28.51-46,37.34C539,837,361.46,806.73,323.74,799.34,268,788.43,160.36,767.33,82.51,679-35.26,545.43-16.92,335,74.43,196c16.71-25.41,105-166.46,284.38-189.08C467.39-6.75,594,20.86,685.6,94.92,878,250.39,864.3,564.47,734.94,695.83Z"/><g class="cls-3"><rect class="cls-4" x="691.03" y="165.41" width="118.84" height="636.78" transform="translate(1500.9 967.6) rotate(180)"/><rect class="cls-4" x="551.62" y="165.41" width="118.84" height="636.78" transform="translate(1222.07 967.6) rotate(180)"/><rect class="cls-4" x="416.44" y="166.01" width="118.84" height="636.78" transform="translate(951.72 968.81) rotate(180)"/><rect class="cls-4" x="277.03" y="166.01" width="118.84" height="636.78" transform="translate(672.89 968.81) rotate(180)"/><rect class="cls-4" x="141.85" y="165.71" width="118.84" height="636.78" transform="translate(402.54 968.19) rotate(180)"/></g><rect class="cls-5" x="691.17" y="144.48" width="118.84" height="663.99" transform="translate(1501.17 952.95) rotate(180)"/><rect class="cls-5" x="551.75" y="267.83" width="118.84" height="540.63" transform="translate(1222.34 1076.3) rotate(180)"/><rect class="cls-5" x="416.57" y="408.27" width="118.84" height="400.88" transform="translate(951.99 1217.41) rotate(180)"/><rect class="cls-5" x="277.16" y="528.32" width="118.84" height="280.83" transform="translate(673.16 1337.46) rotate(180)"/><rect class="cls-5" x="141.98" y="640.38" width="118.84" height="168.42" transform="translate(402.81 1449.18) rotate(180)"/><rect class="cls-5" x="2.57" y="734.2" width="118.84" height="74.6" transform="translate(123.97 1543.01) rotate(180)"/><path class="cls-5" d="M676.54,156H823.85a2.27,2.27,0,0,0,2-3.3L752.06,8.1a2.27,2.27,0,0,0-4,0l-73.5,144.6A2.26,2.26,0,0,0,676.54,156Z"/><path class="cls-5" d="M41.45,11.21c-1.12-4,4.38-6.86,7.94-4.22,36.2,26.75,123.92,107.8,109.66,256.94-17.9,187.13,30,253,87.7,291.86,0,0-77.56-16-128.9-82.71C-8.18,309.35,61.31,81.46,41.45,11.21Z"/><path class="cls-6" d="M70.63,68.1c5.3,20.5,10.13,41.09,14.07,61.81s7.41,41.51,10,62.38,4.52,41.81,5.53,62.79,1.18,42,1.16,63.06.1,42.31,2.6,63.58,7.92,42.51,17.72,62.25c2.44,4.92,5,9.82,7.88,14.53s5.79,9.42,8.91,14a227.18,227.18,0,0,0,21,26.37,250.44,250.44,0,0,0,54.22,43.31,5.24,5.24,0,0,0,6.57-1.05,3.7,3.7,0,0,0-1-5.59h0c-4.81-3.07-9.58-6.18-14.16-9.47-2.33-1.61-4.56-3.31-6.83-5s-4.47-3.39-6.6-5.18a227.21,227.21,0,0,1-60.43-75.54,184.65,184.65,0,0,1-11.2-29.21,201.3,201.3,0,0,1-6.14-30.49c-2.61-20.64-2.8-41.66-3.09-62.73s-.82-42.24-2.33-63.36q-1.07-15.83-2.81-31.62c-.54-5.26-1.2-10.51-1.85-15.76s-1.45-10.49-2.25-15.72q-4.81-31.41-11.86-62.45c-4.83-20.66-10.28-41.2-16.65-61.51a1.29,1.29,0,0,0-1.55-.76A1.12,1.12,0,0,0,70.63,68.1Z"/><path class="cls-7" d="M115.27,431.92a8.88,8.88,0,0,1-14.53-2.47c-14.36-31.7-46.84-125,6.81-232.45,45.31-90.74,61.25-144.26,66.81-169a5.56,5.56,0,0,1,10.52-1C208.81,81.16,272,265.64,115.27,431.92Z"/><path class="cls-6" d="M107.42,428.58a2.58,2.58,0,0,1-.48,0,2.45,2.45,0,0,1-2.42-2.49c0-1.55,3-155.6,60.32-284.63a2.46,2.46,0,0,1,4.5,2c-56.88,128.09-59.88,281.17-59.9,282.7A2.47,2.47,0,0,1,107.42,428.58Z"/><circle class="cls-4" cx="300.13" cy="357.38" r="258.65" transform="translate(-164.8 316.9) rotate(-45)"/><circle class="cls-8" cx="300.13" cy="357.38" r="220.74" transform="translate(-164.8 316.9) rotate(-45)"/><path class="cls-4" d="M300.13,583.12A225.75,225.75,0,1,1,459.75,517,224.27,224.27,0,0,1,300.13,583.12Zm0-441.49c-119,0-215.75,96.79-215.75,215.75s96.79,215.74,215.75,215.74,215.74-96.78,215.74-215.74S419.09,141.63,300.13,141.63Z"/><circle class="cls-9" cx="300.13" cy="357.38" r="134.58" transform="translate(-164.8 316.9) rotate(-45)"/><path class="cls-4" d="M300.13,497c-77,0-139.58-62.61-139.58-139.57S223.16,217.8,300.13,217.8,439.7,280.42,439.7,357.38,377.09,497,300.13,497Zm0-269.15A129.73,129.73,0,0,0,170.55,357.38c0,71.45,58.13,129.57,129.58,129.57A129.72,129.72,0,0,0,429.7,357.38C429.7,285.93,371.57,227.8,300.13,227.8Z"/><circle class="cls-10" cx="300.13" cy="357.38" r="52.14" transform="translate(-133.82 529.09) rotate(-71.57)"/><path class="cls-4" d="M300.13,414.52a57.14,57.14,0,1,1,57.14-57.14A57.21,57.21,0,0,1,300.13,414.52Zm0-104.28a47.14,47.14,0,1,0,47.14,47.14A47.19,47.19,0,0,0,300.13,310.24Z"/><rect class="cls-11" x="496.99" y="-15.82" width="9.86" height="373.31" transform="translate(736.04 646.53) rotate(-135)"/><path class="cls-12" d="M371.38,282.51c4-4,22.86,14.85,18.86,18.85l-69.93,55a2.78,2.78,0,0,1-3.9-3.9Z"/><path class="cls-13" d="M637.23,42.48,672.74,46,624,94.76a75.34,75.34,0,0,1-60.74,21.71h0Z"/><path class="cls-14" d="M630.26,35.51,626.73,0,578,48.75a75.36,75.36,0,0,0-21.7,60.75h0Z"/><path class="cls-15" d="M678.84,369.26s10.23,5,12.12,10.69c1.51,4.59,12.82,5.18,13.94,14.2a10.34,10.34,0,0,0,8.66,9.1c11.55,1.77,29.36,7.77,32.21,27.83,2.17,15.31-5.63,21.12-13.83,23.13a11.6,11.6,0,0,0-8.79,13.4c1.16,5.83-.58,12.56-10.67,17.89-22.62,11.93-45.21-28.28-45.21-28.28L662.64,387Z"/><path class="cls-16" d="M555.76,352.61s45.17,71.44,98.87,85.23c0,0-10.46,29.81-18.54,33.22,0,0-66.07-55.13-83.05-108.3Z"/><path class="cls-17" d="M771.82,809.51l1.46,12a5,5,0,0,0,4.36,4.34,76.32,76.32,0,0,0,16.11.26,4.26,4.26,0,0,0,3.57-5.52c-1.47-4.65-4.17-11.62-8.07-15.73H775.9A4.11,4.11,0,0,0,771.82,809.51Z"/><path class="cls-18" d="M667.27,668.55,665,681.81s7.54,76.42,8.88,107a24,24,0,0,1-3.54,13.61l-13.12,21.31L690.58,804l.67-4.07-5.46-7.5,7.15-85.61a26.28,26.28,0,0,0-3-14.53l-6.9-13Z"/><path class="cls-19" d="M655,826.8h10.64a6.4,6.4,0,0,0,5.09-2.49c3.32-4.31,10.19-12.72,13.47-12.94,4.43-.29,3.86,15.43,3.86,15.43h2.48l3.14-19.54a11.55,11.55,0,0,0-6.07-12.09s-1,7.48-6.49,10.79-22.31,15.15-22.31,15.15a15.32,15.32,0,0,0-4.33.12A2.81,2.81,0,0,0,655,826.8Z"/><path class="cls-20" d="M712.94,674.85s44.2,83.84,51.23,103,9.48,35.12,9.58,36.63c.14,2.36,3.08,4.63,11.18,4.63,4.19,0,6.23-1.68,7.24-3.3a4.7,4.7,0,0,0,.17-4.57C789.79,806,781.67,789.5,778.67,782c-3.59-9-11.31-49.53-15.54-63.64s-9-29.41-27.45-43.51C735.68,674.85,723,662.45,712.94,674.85Z"/><path class="cls-21" d="M685,537.46c-11.41-48.31,17.48-75.63,17.48-75.63-18.23-17.5-51.43-25.46-51.43-25.46s-31.69,23.17-27.93,41.3c2.2,10.63,22.27,63.65,22.27,63.65S664,550.11,685,537.46Z"/><path class="cls-22" d="M710.3,561.38c-4.64-14-25.28-23.92-25.28-23.92-21,12.65-39.61,3.86-39.61,3.86s-4.16,15.91-1.29,30.69S665,681.81,665,681.81c28.39,5.75,72.07-5.79,72.07-5.79C719,643.9,714.94,575.36,710.3,561.38Z"/><path class="cls-23" d="M671.78,404.44l9.27,41.64c.89,3.67-2.45,3.07-6.16,2.37-6.07-1.14-13.9-3.5-16.52-8.23a4.47,4.47,0,0,1-.47-1.57l-4-28.87a5.18,5.18,0,0,1,3-5.45l7.69-3.41A5.19,5.19,0,0,1,671.78,404.44Z"/><path class="cls-24" d="M654,366.49s-9.87,6.68-14.11,23.69,2.65,23.11,9.71,22.74,17.31-2.56,26.18-14.76S667,358.32,654,366.49Z"/><path class="cls-25" d="M666.86,391.29s3.62-24.37-16.62-20.64l-4.09,4.26s-9.91-11.16,1.05-19.59,26.18-6.28,34.6,9.08,11.47,26.14,4.41,35.68-12.36,1.36-12.36,1.36,3.24-8.26.55-11.8-6.14,2.06-6.14,2.06Z"/><path class="cls-26" d="M669.63,393.38s1.79-12.54,8.19-8.95-2.31,11.71-5.8,14.48Z"/><path class="cls-27" d="M556.07,367.32c-.13,1.47,5.35,2.49,7.09-3.79-.48-2.73-1.33-14.67-3.42-16.53-11.14-9.88-31-21-31-21a4.07,4.07,0,0,0,.69,5.63l9.92,6.69c-1,3.42-2.55,6.45-2.72,10.36a11.64,11.64,0,0,0,2.93,8.11c2,2.25,4.63,5.16,7,7.37A11.47,11.47,0,0,0,556.07,367.32Z"/><path class="cls-28" d="M550.69,362.45l1.51-.63c-.2-.49-5-12.05-7.26-14.45a3.49,3.49,0,0,1-1.25-2.33,1.66,1.66,0,0,1,.5-1l8,4.29,3.54,5.55,1.38-.88-3.77-5.91-9.4-5-.42.34a3.58,3.58,0,0,0-1.5,2.55,4.87,4.87,0,0,0,1.71,3.56C545.49,350.31,549.35,359.18,550.69,362.45Z"/><path class="cls-29" d="M674.69,563h-.2l-82.81-.09a3.67,3.67,0,1,1,0-7.34l82.81.09a3.67,3.67,0,0,1,.19,7.33Z"/><path class="cls-30" d="M517.23,488.56h69A13.14,13.14,0,0,1,598.09,496L630,562.91H544.27a8,8,0,0,1-7.43-5L512.11,496A5.45,5.45,0,0,1,517.23,488.56Z"/><path class="cls-5" d="M565.82,522.86c1.5,4.59.39,9-2.46,10s-6.39-2.08-7.88-6.67-.39-9.06,2.46-10S564.33,518.26,565.82,522.86Z"/><path class="cls-31" d="M702.62,461.93c11.3,11.4,25.63,61.94,18.52,70.38-6.26,9.83-27.59,23.2-47.89,23.22h-30c12.59-13.37,21.25-16.77,31.58-7.41,8.19-3.5,18.81-17.06,25.9-23.11a7.56,7.56,0,0,0,1.58-9.59c-5.63-9.53-12.69-19.34-14.94-28.83C686.93,475.46,695.16,462.73,702.62,461.93Z"/><path class="cls-32" d="M184.43,497s-21.4,49.39-34.57,42.8-23.05-60.92-23.05-60.92S168,469,184.43,497Z"/><path class="cls-33" d="M109.91,803.51s-1.79,10.13-2.67,20.16a6.92,6.92,0,0,0,6.61,7.49c13.36.55,41.92,1.63,52.17,1.18a2.25,2.25,0,0,0,2-3.08h0a5,5,0,0,0-2.58-2.72l-47.18-21.68Z"/><path class="cls-34" d="M108.44,797.56l1.44,12.12s8.27,3.84,13.91-.49l-3.42-13.5Z"/><path class="cls-35" d="M109.52,569.76c-.62,3.17-3.33,157.9,13.21,227.25a2.34,2.34,0,0,1-1.38,2.73,40.89,40.89,0,0,1-13.47,2.74,4.05,4.05,0,0,1-4-2.91c-4.73-16.09-27.38-96.69-30.34-173.7-3.3-86,0-2.93,0-2.93l1.94-53.18Z"/><path class="cls-36" d="M55.63,808.8s-2.84,5.11-5.6,18.7a4.22,4.22,0,0,0,3.71,5c4.41.43,11.2,1,16.63,1a4.2,4.2,0,0,0,4.16-4.69c-.6-5-2.48-13.09-8.27-19.44Z"/><path class="cls-37" d="M53.13,793.21l3.36,18.33s3.32,2.47,9.89.68l-1.6-19.72Z"/><path class="cls-38" d="M44.06,574.51C30.53,656.15,47,776.29,52.55,799.81a3.64,3.64,0,0,0,3,2.78,24.6,24.6,0,0,0,10.58-.42,3.35,3.35,0,0,0,2.41-3.1c.75-19-.59-135.71,12-181.84a10.55,10.55,0,0,1,4-5.78L109,594.06,110.89,566Z"/><path class="cls-39" d="M131.75,422.9C82.35,418,45,430.47,45,430.47,32.9,501,42.87,582.3,42.87,582.3c31.39,8.23,66.79-5,66.79-5,5.22-29.47,29.56-112.41,29.56-112.41C159,462.4,144.19,424.15,131.75,422.9Z"/><path class="cls-40" d="M60.54,469.72,45,430.47S8.32,455.38,1.21,487.26a1.39,1.39,0,0,0,1.25,1.68,89.6,89.6,0,0,1,30.4,8.23.82.82,0,0,0,1.16-.52C37.63,481.7,60.54,469.72,60.54,469.72Z"/><path class="cls-41" d="M96.92,506.66s-42.52,24-56.86,3.51c-3-4.26-7.46-9.35-6.73-13.38-12.74-6.44-24-7.45-31.12-8-1.88,9.84,1.09,20.3,6.87,30.87,25.13,46,93.47-2.54,93.47-2.54Z"/><path class="cls-42" d="M91.81,537.05,115,456a2.37,2.37,0,0,1,2-1.7c4.21-.49,16.39-1.86,30.45-3.05,16.94-1.44,36.62-2.6,48.37-1.61a2.36,2.36,0,0,1,1.94,3.41c-6.68,13.53-34.18,68.55-48,86.57a2.41,2.41,0,0,1-1.92.94l-53.83-.5A2.38,2.38,0,0,1,91.81,537.05Z"/><path class="cls-7" d="M149.87,444.24l16.82-2.8A1.21,1.21,0,0,1,168,443l-1.67,5a1.2,1.2,0,0,1-1,.82L149.2,451a1.2,1.2,0,0,1-1.34-1.47l1-4.4A1.21,1.21,0,0,1,149.87,444.24Z"/><path class="cls-5" d="M137.27,458.48l1.39-7.22a1.67,1.67,0,0,1,1.47-1.34l34-3.45a1.67,1.67,0,0,1,1.79,2l-2.16,9a1.67,1.67,0,0,1-1.54,1.27L139,460.46A1.67,1.67,0,0,1,137.27,458.48Z"/><path class="cls-43" d="M97.42,517.48s-3.24-13.29-1.93-18,3.83-10.78,12.25-9.43a123.77,123.77,0,0,1,18.35,4.89s-.5,6.15-6.9,4.17l4,3.07s-.57,4.91-6,2.29l3.69,4.07s-2.33,4-6.3,1.45S108.69,519.08,97.42,517.48Z"/><path class="cls-44" d="M183.69,497.7s9.8-9.54,11.2-14.23,2.48-11.16-5.37-14.5a123.27,123.27,0,0,0-18.15-5.6s-2.84,5.47,3.64,7.19l-5,.5s-2.13,4.46,3.85,5.11l-5.29,1.49s-.18,4.65,4.56,4.57S173.28,493.07,183.69,497.7Z"/><path class="cls-45" d="M94.13,390l-12.9,37.3a1.35,1.35,0,0,0,.62,1.62c3.51,1.94,16.18,7.56,31.45-2.12a6.32,6.32,0,0,0,2.91-4.52L120.39,390Z"/><path class="cls-46" d="M122.2,355.43s14.16,26.66,12.35,37.43-19.37,10-34.7,1.25L89.14,365.32Z"/><path class="cls-47" d="M100.53,380a1.11,1.11,0,0,0,.48-1.61,28.64,28.64,0,0,1-4-8.37s-2.54-1.63,6.49-3.79S126,360.69,128.86,353c2.76-7.49-4.48-26.33-16.05-11.32a1.1,1.1,0,0,1-1.74,0c-1.9-2.47-6.88-7.59-13.8-4.48-6.48,2.9-7.21,7.65-7.12,10a1.09,1.09,0,0,1-1.29,1.12c-3.27-.62-11.13-1.16-14.8,6.9-3,6.64-1.06,10.4.73,12.23a1.09,1.09,0,0,1-.47,1.82c-2.15.66-4.93,2.49-4.65,7.53.39,7,8.18,6.35,10.4,6a1.1,1.1,0,0,1,1,.35c1.9,2.1,10.47,11,19.75,12.12A1.1,1.1,0,0,0,102,393.9l-4-11.67a1.09,1.09,0,0,1,.6-1.37Z"/><path class="cls-48" d="M102.14,381.63s-10.09-6.92-10.82-1.09,9.08,8.44,13.94,6.27Z"/></g></g></g></svg>